<?xml version="1.0" encoding="UTF-8" standalone="no"?>
<!-- Generator: Gravit.io -->
<svg xmlns="http://www.w3.org/2000/svg" xmlns:xlink="http://www.w3.org/1999/xlink" style="isolation:isolate" viewBox="0 0 297.638 368.504" width="297.638pt" height="368.504pt"><defs><clipPath id="_clipPath_lsITPXoXcvHlBFd5cLta3d6utxnmE6T8"><rect width="297.638" height="368.504"/></clipPath></defs><g clip-path="url(#_clipPath_lsITPXoXcvHlBFd5cLta3d6utxnmE6T8)"><rect width="297.638" height="368.504" style="fill:rgb(32,66,198)" fill-opacity="0"/><g><g opacity="0.46"><path d=" M 277.113 301.954 C 268.053 315.754 255.363 326.864 241.443 335.784 L 241.443 335.784 L 238.843 337.424 C 228.493 343.764 217.493 349.084 205.663 351.884 C 193.413 354.784 180.663 354.884 168.103 355.024 C 145.003 355.224 121.803 354.754 98.783 356.424 C 80.593 357.754 64.783 347.804 52.783 334.544 C 52.283 333.994 51.783 333.424 51.313 332.864 C 40.583 320.434 33.163 305.504 26.193 290.624 C 17.603 272.304 9.393 253.314 7.773 233.164 C 6.443 216.634 9.603 200.084 9.853 183.504 C 10.163 162.914 5.983 142.284 8.313 121.814 C 10.313 103.904 17.313 86.814 26.313 71.194 C 34.313 57.244 44.033 44.084 56.543 34.004 C 71.197 22.404 88.763 15.066 107.313 12.794 C 149.793 7.324 194.553 29.224 216.273 66.224 C 237.033 101.534 236.813 145.764 255.143 182.394 C 266.823 205.734 286.043 226.224 289.613 252.074 C 292.013 269.394 286.743 287.304 277.113 301.954 Z " fill="rgb(32,66,198)"/></g><g opacity="0.54"><path d=" M 241.433 335.784 L 238.833 337.424 C 228.493 343.764 217.493 349.084 205.663 351.884 C 193.413 354.784 180.663 354.884 168.103 355.024 C 145.003 355.224 121.803 354.754 98.783 356.424 C 80.593 357.754 64.783 347.804 52.783 334.544 C 52.283 333.994 51.783 333.424 51.313 332.864 C 72.543 326.204 105.403 321.924 142.313 321.924 C 184.303 321.924 221.103 327.474 241.433 335.784 Z " fill="rgb(32,66,198)"/></g><path d=" M 156.093 314.354 L 157.093 324.234 C 157.093 324.234 153.313 329.954 148.373 330.324 C 148.373 330.324 141.753 328.324 141.753 328.324 L 142.563 313.794" fill="rgb(247,173,126)"/><path d=" M 141.703 328.324 L 142.033 322.494 L 156.503 318.594 L 157.043 324.234 C 157.043 324.234 153.263 329.954 148.323 330.324 C 143.383 330.694 141.703 328.324 141.703 328.324 Z " fill="rgb(255,255,255)"/><path d=" M 109.953 312.224 L 108.893 325.504 C 108.893 325.504 112.773 331.384 117.843 331.764 C 117.843 331.764 124.643 329.704 124.643 329.704 L 123.813 314.784" fill="rgb(247,173,126)"/><path d=" M 124.643 329.744 L 124.313 323.744 L 109.443 319.744 L 108.893 325.524 C 108.893 325.524 112.773 331.404 117.843 331.784 C 122.913 332.164 124.643 329.744 124.643 329.744 Z " fill="rgb(255,255,255)"/><path d=" M 104.173 185.684 C 104.173 185.684 103.283 200.144 105.503 243.004 C 105.503 243.004 108.383 312.484 108.383 312.484 C 108.383 312.484 110.573 317.564 117.953 317.664 C 117.953 317.664 125.833 314.664 125.833 314.664 L 133.043 204.784 L 140.573 316.914 C 140.573 316.914 150.233 318.654 157.143 314.834 C 162.043 312.114 156.053 185.554 156.053 185.554 C 156.053 185.554 132.373 198.564 104.173 185.684 Z " fill="rgb(63,61,86)"/><path d=" M 122.013 93.604 C 122.013 93.604 102.393 103.084 101.943 106.224 C 101.493 109.364 104.173 185.714 104.173 185.714 C 104.173 185.714 110.533 193.974 130.043 193.974 C 150.043 193.974 155.173 188.264 156.043 185.604 C 156.913 182.944 160.123 106.814 159.683 103.604 C 159.243 100.394 141.143 93.734 141.143 93.734 L 122.013 93.604 Z " fill="rgb(243,252,255)"/><path d=" M 144.243 123.074 L 142.493 122.824 C 143.133 118.234 144.343 109.064 144.343 107.244 C 144.343 105.424 143.413 97.454 139.083 93.494 C 137.204 91.753 134.657 90.924 132.113 91.224 C 121.663 92.144 119.043 99.054 118.873 99.534 C 118.223 102.122 117.728 104.746 117.393 107.394 L 115.593 107.394 C 115.931 104.591 116.445 101.812 117.133 99.074 L 117.133 99.014 C 117.243 98.664 119.983 90.484 131.933 89.434 C 134.966 89.082 138.001 90.072 140.243 92.144 C 145.093 96.594 146.083 105.144 146.083 107.224 C 146.103 109.644 144.313 122.534 144.243 123.074 Z " fill="rgb(32,66,198)"/><linearGradient id="_lgradient_0" x1="0.45719658731274393" y1="0.8929090138627758" x2="0.5977035458144513" y2="-0.36838600896650076" gradientTransform="matrix(30.49,0,0,33.71,115.593,89.364)" gradientUnits="userSpaceOnUse"><stop offset="2%" stop-opacity="0" style="stop-color:rgb(255,255,255)"/><stop offset="39%" stop-opacity="0.39" style="stop-color:rgb(255,255,255)"/><stop offset="100%" stop-opacity="1" style="stop-color:rgb(255,255,255)"/></linearGradient><path d=" M 144.243 123.074 L 142.493 122.824 C 143.133 118.234 144.343 109.064 144.343 107.244 C 144.343 105.424 143.413 97.454 139.083 93.494 C 137.204 91.753 134.657 90.924 132.113 91.224 C 121.663 92.144 119.043 99.054 118.873 99.534 C 118.223 102.122 117.728 104.746 117.393 107.394 L 115.593 107.394 C 115.931 104.591 116.445 101.812 117.133 99.074 L 117.133 99.014 C 117.243 98.664 119.983 90.484 131.933 89.434 C 134.966 89.082 138.001 90.072 140.243 92.144 C 145.093 96.594 146.083 105.144 146.083 107.224 C 146.103 109.644 144.313 122.534 144.243 123.074 Z " fill="url(#_lgradient_0)"/><path d=" M 143.513 188.494 L 143.993 233.424 L 164.423 231.394 L 156.583 160.114 L 143.513 188.494 L 143.513 188.494 Z " fill="rgb(243,252,255)"/><path d=" M 123.193 93.564 L 122.953 195.224 C 129.839 197.303 137.259 196.658 143.683 193.424 L 138.393 93.564 L 130.733 95.364 L 123.193 93.564 Z " fill="rgb(32,66,198)"/><path d=" M 123.193 93.564 L 122.953 195.224 C 129.839 197.303 137.259 196.658 143.683 193.424 L 138.393 93.564 L 130.733 95.364 L 123.193 93.564 Z " fill="rgb(32,66,198)"/><path d=" M 123.323 82.084 C 123.323 82.084 123.203 88.934 123.263 93.944 C 123.323 97.684 124.413 104.854 131.173 104.854 C 137.933 104.854 138.723 95.714 138.603 93.944 C 138.795 91.28 138.795 88.607 138.603 85.944 C 138.163 81.624 123.703 79.054 123.323 82.084 Z " fill="rgb(247,173,126)"/><linearGradient id="_lgradient_1" x1="0.6011979582610589" y1="-0.9139343219319773" x2="0.4237952820528754" y2="1.2024139005367496" gradientTransform="matrix(15.22,0,0,14.29,123.363,83.314)" gradientUnits="userSpaceOnUse"><stop offset="0%" stop-opacity="1" style="stop-color:rgb(0,0,0)"/><stop offset="95.78168790130793%" stop-opacity="1" style="stop-color:rgb(0,0,0)"/><stop offset="100%" stop-opacity="1" style="stop-color:rgb(0,0,0)"/></linearGradient><path d=" M 123.363 89.954 C 123.363 89.954 124.143 98.624 129.663 97.504 C 134.185 96.703 137.709 93.135 138.453 88.604 C 138.88 86.665 138.235 84.646 136.763 83.314 L 123.363 89.954 Z " fill="url(#_lgradient_1)"/><path d=" M 142.153 82.614 C 140.023 88.874 134.303 92.754 130.293 93.124 C 126.283 93.494 121.903 89.834 120.143 85.274 C 118.383 80.714 118.143 63.204 118.143 63.204 C 118.089 62.039 118.319 60.879 118.813 59.824 C 119.373 58.554 120.393 54.724 121.813 53.614 C 128.184 51.952 134.891 52.098 141.183 54.034 C 142.513 55.194 143.183 58.894 143.483 59.574 C 143.621 59.989 143.711 60.418 143.753 60.854 C 144.263 65.084 144.023 77.134 142.153 82.614 Z " fill="rgb(247,173,126)"/><path d=" M 117.963 67.884 C 117.103 67.331 115.964 67.516 115.323 68.314 C 115.074 68.822 114.973 69.391 115.033 69.954 C 115.04 70.523 115.087 71.091 115.173 71.654 C 115.507 73.166 116.263 74.554 117.353 75.654 C 117.607 75.948 117.907 76.198 118.243 76.394 C 118.588 76.588 118.998 76.628 119.373 76.504 C 119.964 76.177 120.343 75.568 120.373 74.894 C 120.602 73.495 120.475 72.06 120.003 70.724 C 119.648 69.582 118.932 68.585 117.963 67.884 L 117.963 67.884 Z " fill="rgb(247,173,126)"/><path d=" M 144.493 67.664 C 145.351 67.109 146.49 67.29 147.133 68.084 C 147.391 68.593 147.492 69.167 147.423 69.734 C 147.427 70.3 147.38 70.866 147.283 71.424 C 146.951 72.937 146.195 74.324 145.103 75.424 C 144.85 75.718 144.549 75.968 144.213 76.164 C 143.869 76.358 143.459 76.398 143.083 76.274 C 142.491 75.949 142.112 75.338 142.083 74.664 C 141.851 73.262 141.975 71.825 142.443 70.484 C 142.801 69.345 143.521 68.355 144.493 67.664 Z " fill="rgb(247,173,126)"/><path d=" M 122.903 188.494 L 122.233 233.424 L 93.173 231.394 L 104.323 160.114 L 122.903 188.494 L 122.903 188.494 Z " fill="rgb(243,252,255)"/><linearGradient id="_lgradient_2" x1="0" y1="0.5" x2="0.601760549982206" y2="1.2986765556125413" gradientTransform="matrix(18.14,0,0,104,93.173,127.794)" gradientUnits="userSpaceOnUse"><stop offset="100%" stop-opacity="1" style="stop-color:rgb(0,0,0)"/><stop offset="100%" stop-opacity="1" style="stop-color:rgb(0,0,0)"/><stop offset="100%" stop-opacity="1" style="stop-color:rgb(0,0,0)"/></linearGradient><path d=" M 102.753 146.494 L 111.313 127.794 L 107.033 231.794 L 93.173 231.454 C 93.173 231.454 104.043 176.274 102.753 146.494 Z " fill="url(#_lgradient_2)"/><linearGradient id="_lgradient_3" x1="0" y1="0.5" x2="0.5185250887789032" y2="-0.3550624142756075" gradientTransform="matrix(15.05,0,0,107.21,149.373,125.534)" gradientUnits="userSpaceOnUse"><stop offset="0%" stop-opacity="1" style="stop-color:rgb(0,0,0)"/><stop offset="0%" stop-opacity="1" style="stop-color:rgb(0,0,0)"/><stop offset="0%" stop-opacity="1" style="stop-color:rgb(0,0,0)"/></linearGradient><path d=" M 158.213 144.224 L 149.653 125.534 L 149.373 232.744 L 164.423 231.394 C 164.423 231.394 156.923 174.024 158.213 144.224 Z " fill="url(#_lgradient_3)"/><path d=" M 102.353 105.464 C 102.353 105.464 87.733 141.044 86.073 147.224 C 84.413 153.404 89.573 172.054 91.603 168.854 C 97.833 159.014 103.923 143.644 103.923 143.644 L 102.353 105.464 Z " fill="rgb(243,252,255)"/><path d=" M 158.433 101.494 C 158.433 101.494 173.043 137.084 174.713 143.254 C 174.713 143.254 171.203 168.084 169.183 164.884 C 162.943 155.044 156.863 139.674 156.863 139.674 L 158.433 101.494 Z " fill="rgb(243,252,255)"/><path d=" M 161.423 149.984 C 161.013 150.404 149.373 185.234 149.373 185.234 C 149.373 185.234 156.893 185.234 162.433 185.684 C 162.433 185.684 173.863 159.054 174.333 156.684 C 174.803 154.314 178.273 141.424 170.543 139.874 C 162.813 138.324 161.423 149.984 161.423 149.984 Z " fill="rgb(243,252,255)"/><path d=" M 99.363 153.954 C 99.763 154.374 111.363 189.204 111.363 189.204 C 111.363 189.204 103.833 189.204 98.293 189.654 C 98.293 189.654 86.873 163.024 86.393 160.654 C 85.913 158.284 82.463 145.394 90.183 143.844 C 97.903 142.294 99.363 153.954 99.363 153.954 Z " fill="rgb(243,252,255)"/><path d=" M 143.913 68.324 C 143.913 68.044 143.813 67.764 143.753 67.484 C 143.389 65.985 142.891 64.522 142.263 63.114 C 141.263 60.724 140.333 58.344 139.373 55.954 C 139.223 55.574 139.063 55.204 138.913 54.824 L 138.913 54.754 C 138.931 54.785 138.931 54.823 138.913 54.854 C 138.756 55.019 138.56 55.143 138.343 55.214 C 137.041 55.703 135.704 56.094 134.343 56.384 C 132.563 56.623 130.752 56.494 129.023 56.004 C 127.533 55.574 126.023 54.304 124.443 54.374 L 124.203 54.374 C 122.54 54.449 121.154 55.672 120.873 57.314 C 120.557 61.184 119.723 64.995 118.393 68.644 C 116.693 67.494 116.513 65.214 116.503 63.244 C 116.493 61.274 116.503 59.164 116.503 57.114 C 116.431 56.125 116.543 55.131 116.833 54.184 C 117.154 53.185 117.973 52.427 118.993 52.184 C 119.813 52.044 120.753 52.314 121.453 51.864 C 121.986 51.379 122.294 50.694 122.303 49.974 C 122.431 48.52 122.968 47.133 123.853 45.974 C 125.793 43.684 129.493 43.534 132.423 44.494 C 135.353 45.454 137.883 47.264 140.753 48.374 C 142.753 49.124 144.933 49.634 146.183 51.234 C 146.75 52.136 147.09 53.162 147.173 54.224 C 148.04 59.171 146.864 64.259 143.913 68.324 Z " fill="rgb(63,61,86)"/><path d=" M 138.293 55.224 C 138.483 55.094 138.663 54.984 138.863 54.864 C 138.706 55.029 138.51 55.153 138.293 55.224 Z " fill="none"/><linearGradient id="_lgradient_4" x1="0" y1="0.5" x2="1" y2="0.5" gradientTransform="matrix(6.545,0,0,13.506,138.913,53.977)" gradientUnits="userSpaceOnUse"><stop offset="100%" stop-opacity="1" style="stop-color:rgb(0,0,0)"/><stop offset="100%" stop-opacity="1" style="stop-color:rgb(0,0,0)"/><stop offset="100%" stop-opacity="1" style="stop-color:rgb(0,0,0)"/></linearGradient><path d=" M 144.543 66.404 C 144.361 66.816 144.091 67.185 143.753 67.484 C 143.389 65.985 142.891 64.522 142.263 63.114 Q 140.593 58.974 138.913 54.824 C 139.566 54.433 140.284 54.166 141.033 54.034 C 142.038 53.851 143.072 54.118 143.863 54.764 C 144.436 55.347 144.828 56.083 144.993 56.884 C 145.287 58.196 145.425 59.539 145.403 60.884 C 145.592 62.767 145.296 64.667 144.543 66.404 L 144.543 66.404 Z " fill="url(#_lgradient_4)"/><linearGradient id="_lgradient_5" x1="0" y1="0.5" x2="1" y2="0.5" gradientTransform="matrix(18.71,0,0,8.488,124.203,48.013)" gradientUnits="userSpaceOnUse"><stop offset="100%" stop-opacity="1" style="stop-color:rgb(0,0,0)"/><stop offset="100%" stop-opacity="1" style="stop-color:rgb(0,0,0)"/><stop offset="100%" stop-opacity="1" style="stop-color:rgb(0,0,0)"/></linearGradient><path d=" M 142.913 53.634 C 141.608 54.196 140.41 54.981 139.373 55.954 C 139.223 55.574 139.063 55.204 138.913 54.824 L 138.913 54.754 C 138.931 54.785 138.931 54.823 138.913 54.854 C 138.756 55.019 138.56 55.143 138.343 55.214 C 137.041 55.703 135.704 56.094 134.343 56.384 C 132.563 56.623 130.752 56.494 129.023 56.004 C 127.533 55.574 126.023 54.304 124.443 54.374 L 124.203 54.374 C 124.283 54.134 124.383 53.874 124.473 53.594 C 125.233 51.134 125.733 49.004 128.553 48.234 C 130.225 47.825 131.985 47.987 133.553 48.694 C 135.063 49.334 136.453 50.334 138.073 50.594 C 139.049 50.622 140.02 50.742 140.973 50.954 C 142.067 51.417 142.814 52.449 142.913 53.634 Z " fill="url(#_lgradient_5)"/><path d=" M 101.033 189.504 L 102.383 195.244 L 112.683 194.744 L 109.983 189.164 L 101.033 189.504 L 101.033 189.504 Z " fill="rgb(247,173,126)"/><path d=" M 151.283 185.114 L 148.243 192.544 L 158.043 193.114 L 159.283 185.454 L 151.283 185.114 L 151.283 185.114 Z " fill="rgb(247,173,126)"/><rect x="100.273" y="194.574" width="15.88" height="2.82" transform="matrix(1,0,0,1,0,0)" fill="rgb(243,252,255)"/><rect x="145.313" y="192.594" width="14.6" height="2.65" transform="matrix(1,0,0,1,0,0)" fill="rgb(243,252,255)"/><path d=" M 122.083 127.344 L 117.733 127.344 L 117.733 125.544 L 120.573 125.544 C 121.313 120.774 121.933 110.274 117.393 108.474 C 116.467 108.061 115.379 108.339 114.763 109.144 C 111.703 112.414 111.203 122.284 111.683 123.524 C 112.138 123.997 112.778 124.246 113.433 124.204 L 113.703 125.984 C 112.427 126.121 111.162 125.637 110.303 124.684 C 108.933 123.174 109.953 112.834 112.793 108.734 C 114.203 106.734 116.073 106.014 118.063 106.804 C 125.193 109.634 122.343 125.914 122.213 126.604 L 122.083 127.344 Z " fill="rgb(32,66,198)"/><linearGradient id="_lgradient_6" x1="0" y1="0.5" x2="0.006793253178747534" y2="1.4999769255894106" gradientTransform="matrix(13.184,0,0,20.854,109.7,106.489)" gradientUnits="userSpaceOnUse"><stop offset="100%" stop-opacity="1" style="stop-color:rgb(255,255,255)"/><stop offset="100%" stop-opacity="0.9505656585302602" style="stop-color:rgb(255,255,255)"/><stop offset="100%" stop-opacity="0.3776738305941846" style="stop-color:rgb(255,255,255)"/></linearGradient><path d=" M 122.083 127.344 L 117.733 127.344 L 117.733 125.544 L 120.573 125.544 C 121.313 120.774 121.933 110.274 117.393 108.474 C 116.467 108.061 115.379 108.339 114.763 109.144 C 111.703 112.414 111.203 122.284 111.683 123.524 C 112.138 123.997 112.778 124.246 113.433 124.204 L 113.703 125.984 C 112.427 126.121 111.162 125.637 110.303 124.684 C 108.933 123.174 109.953 112.834 112.793 108.734 C 114.203 106.734 116.073 106.014 118.063 106.804 C 125.193 109.634 122.343 125.914 122.213 126.604 L 122.083 127.344 Z " fill="url(#_lgradient_6)"/><path d=" M 113.12 126.6 C 112.527 126.544 112.107 125.851 112.183 125.054 C 112.26 124.257 112.803 123.657 113.397 123.714 C 113.99 123.771 114.41 124.464 114.333 125.26 C 114.257 126.057 113.713 126.657 113.12 126.6 Z " fill="rgb(32,66,198)"/><path d=" M 117.393 127.893 C 116.799 127.836 116.38 127.143 116.456 126.347 C 116.533 125.55 117.076 124.95 117.67 125.006 C 118.263 125.063 118.683 125.756 118.606 126.553 C 118.53 127.35 117.986 127.95 117.393 127.893 Z " fill="rgb(32,66,198)"/><linearGradient id="_lgradient_7" x1="0" y1="0.5" x2="0.09549828786755098" y2="1.4954295942026068" gradientTransform="matrix(0.277,-2.887,2.15,0.206,112.045,126.497)" gradientUnits="userSpaceOnUse"><stop offset="100%" stop-opacity="1" style="stop-color:rgb(0,0,0)"/><stop offset="100%" stop-opacity="1" style="stop-color:rgb(0,0,0)"/><stop offset="100%" stop-opacity="1" style="stop-color:rgb(0,0,0)"/></linearGradient><path d=" M 113.12 126.6 C 112.527 126.544 112.107 125.851 112.183 125.054 C 112.26 124.257 112.803 123.657 113.397 123.714 C 113.99 123.771 114.41 124.464 114.333 125.26 C 114.257 126.057 113.713 126.657 113.12 126.6 Z " fill="url(#_lgradient_7)"/><linearGradient id="_lgradient_8" x1="0" y1="0.5" x2="0.09549828786756888" y2="1.495429594202605" gradientTransform="matrix(0.277,-2.887,2.15,0.206,116.318,127.79)" gradientUnits="userSpaceOnUse"><stop offset="100%" stop-opacity="1" style="stop-color:rgb(0,0,0)"/><stop offset="100%" stop-opacity="1" style="stop-color:rgb(0,0,0)"/><stop offset="100%" stop-opacity="1" style="stop-color:rgb(0,0,0)"/></linearGradient><path d=" M 117.393 127.893 C 116.799 127.836 116.38 127.143 116.456 126.347 C 116.533 125.55 117.076 124.95 117.67 125.006 C 118.263 125.063 118.683 125.756 118.606 126.553 C 118.53 127.35 117.986 127.95 117.393 127.893 Z " fill="url(#_lgradient_8)"/><circle vector-effect="non-scaling-stroke" cx="143.57331964712458" cy="124.16360602068417" r="3.2700000000000102" fill="rgb(32,66,198)"/><linearGradient id="_lgradient_9" x1="0" y1="0.5" x2="0.20142558014417014" y2="-0.4795038211582354" gradientTransform="matrix(4.64,0,0,4.64,141.783,121.104)" gradientUnits="userSpaceOnUse"><stop offset="0%" stop-opacity="1" style="stop-color:rgb(0,0,0)"/><stop offset="0%" stop-opacity="1" style="stop-color:rgb(0,0,0)"/><stop offset="0%" stop-opacity="1" style="stop-color:rgb(0,0,0)"/></linearGradient><circle vector-effect="non-scaling-stroke" cx="144.1033196471246" cy="123.42360602068416" r="2.319999999999993" fill="url(#_lgradient_9)"/><circle vector-effect="non-scaling-stroke" cx="144.2233196471246" cy="123.35360602068421" r="1.4199999999999875" fill="rgb(243,252,255)"/><linearGradient id="_lgradient_10" x1="0" y1="0.5" x2="0.08544873997269031" y2="-0.4963425680141743" gradientTransform="matrix(2.61,0,0,2.66,140.603,124.474)" gradientUnits="userSpaceOnUse"><stop offset="0%" stop-opacity="1" style="stop-color:rgb(0,0,0)"/><stop offset="0%" stop-opacity="1" style="stop-color:rgb(0,0,0)"/><stop offset="0%" stop-opacity="1" style="stop-color:rgb(0,0,0)"/></linearGradient><path d=" M 142.043 124.474 L 140.603 125.534 C 140.603 125.534 141.403 126.924 142.213 127.134 L 143.213 125.534 C 143.213 125.534 142.493 125.534 142.043 124.474 Z " fill="url(#_lgradient_10)"/><path d=" M 170.663 333.224 C 171.483 333.724 172.433 334.454 172.373 335.504 C 172.321 335.961 172.141 336.394 171.853 336.754 C 170.003 339.284 159.853 338.494 156.953 338.464 C 150.363 338.394 150.633 338.804 144.133 337.574 C 143.607 337.516 143.104 337.323 142.673 337.014 C 142.044 336.339 141.688 335.456 141.673 334.534 C 141.443 332.373 141.494 330.191 141.823 328.044 C 141.828 327.818 141.926 327.605 142.093 327.454 C 142.261 327.374 142.456 327.374 142.623 327.454 C 143.655 327.891 144.726 328.226 145.823 328.454 C 147.624 328.651 149.438 328.235 150.973 327.274 C 151.768 326.804 152.523 326.273 153.233 325.684 C 153.723 325.294 154.683 324.054 155.283 323.994 C 155.883 323.934 157.003 324.934 157.573 325.274 L 160.283 326.914 L 170.663 333.224 Z " fill="rgb(63,61,86)"/><path d=" M 117.353 328.304 C 114.934 327.523 112.706 326.242 110.813 324.544 C 110.458 324.186 110 323.948 109.503 323.864 C 109.257 323.865 109.013 323.913 108.783 324.004 C 104.22 325.472 99.882 327.565 95.893 330.224 C 94.833 330.914 93.663 331.934 93.753 333.314 C 93.853 334.914 95.513 335.674 96.903 336.024 C 104.936 338.056 113.285 338.521 121.493 337.394 C 122.213 337.349 122.906 337.103 123.493 336.684 C 124.162 335.966 124.564 335.042 124.633 334.064 C 124.983 331.934 125.133 328.964 124.223 327.004 C 122.236 328.426 119.723 328.902 117.353 328.304 L 117.353 328.304 Z " fill="rgb(63,61,86)"/><path d=" M 123.543 94.744 C 123.543 94.744 127.543 103.514 129.733 104.624 L 124.733 107.944 L 123.253 99.454 L 123.543 94.744 Z " fill="rgb(32,66,198)"/><path d=" M 138.493 94.834 C 138.493 94.834 134.933 104.434 129.763 104.624 L 135.053 109.484 L 138.863 102.484 L 138.493 94.834 Z " fill="rgb(32,66,198)"/><linearGradient id="_lgradient_11" x1="0" y1="0.5" x2="0.04381032472382746" y2="-0.4990398667959116" gradientTransform="matrix(6.48,0,0,13.2,123.253,94.744)" gradientUnits="userSpaceOnUse"><stop offset="0%" stop-opacity="0" style="stop-color:rgb(255,255,255)"/></linearGradient><path d=" M 123.543 94.744 C 123.543 94.744 127.543 103.514 129.733 104.624 L 124.733 107.944 L 123.253 99.454 L 123.543 94.744 Z " fill="url(#_lgradient_11)"/><linearGradient id="_lgradient_12" x1="0" y1="0.5" x2="0.055402428629973396" y2="-0.4984641059657081" gradientTransform="matrix(9.1,0,0,14.65,129.763,94.834)" gradientUnits="userSpaceOnUse"><stop offset="0%" stop-opacity="0" style="stop-color:rgb(255,255,255)"/></linearGradient><path d=" M 138.493 94.834 C 138.493 94.834 134.933 104.434 129.763 104.624 L 135.053 109.484 L 138.863 102.484 L 138.493 94.834 Z " fill="url(#_lgradient_12)"/><path d=" M 126.683 106.374 L 128.433 109.324 L 127.143 172.004 L 132.683 179.764 L 136.373 166.834 L 131.203 109.414 L 132.683 107.204 L 129.733 104.614 L 126.683 106.374 L 126.683 106.374 Z " fill="rgb(63,61,86)"/></g></g></svg>