<?xml version="1.0" encoding="UTF-8" standalone="no"?>
<!-- Generator: Gravit.io -->
<svg xmlns="http://www.w3.org/2000/svg" xmlns:xlink="http://www.w3.org/1999/xlink" style="isolation:isolate" viewBox="0 0 793.701 793.701" width="793.701pt" height="793.701pt"><defs><clipPath id="_clipPath_8EVcB1el8tajwkYQLUOmrAbZnPJionYS"><rect width="793.701" height="793.701"/></clipPath></defs><g clip-path="url(#_clipPath_8EVcB1el8tajwkYQLUOmrAbZnPJionYS)"><g><g><path d="M 600.583 197.888 L 450.454 197.888 C 443.405 197.888 437.682 192.165 437.682 185.116 L 437.682 80.973 C 437.682 73.923 443.405 68.2 450.454 68.2 L 600.583 68.2 C 607.632 68.2 613.355 73.923 613.355 80.973 L 613.355 185.116 C 613.355 192.165 607.632 197.888 600.583 197.888 Z" style="stroke:none;fill:#2042C6;stroke-miterlimit:10;"/><defs><linearGradient id="_lgradient_439" x1="0" y1="0.5" x2="0.06199973773570831" y2="1.4980761656911277"><stop offset="100%" style="stop-color:rgba(255,255,255,0)"/><stop offset="100%" style="stop-color:rgba(255,255,255,0.005140806695386641)"/></linearGradient></defs><path d="M 600.583 197.888 L 450.454 197.888 C 443.405 197.888 437.682 192.165 437.682 185.116 L 437.682 80.973 C 437.682 73.923 443.405 68.2 450.454 68.2 L 600.583 68.2 C 607.632 68.2 613.355 73.923 613.355 80.973 L 613.355 185.116 C 613.355 192.165 607.632 197.888 600.583 197.888 Z" style="stroke:none;fill:url(#_lgradient_439);stroke-miterlimit:10;"/><linearGradient id="_lgradient_440" x1="0.5381712626995654" y1="-27.083003952569154" x2="0.48301886792452997" y2="-24.141929932249887" gradientTransform="matrix(35.033,0,0,2.573,459.281,88.508)" gradientUnits="userSpaceOnUse"><stop offset="0%" stop-opacity="0" style="stop-color:rgb(255,255,255)"/><stop offset="99%" stop-opacity="1" style="stop-color:rgb(255,255,255)"/></linearGradient><rect x="459.281" y="88.508" width="35.033" height="2.573" transform="matrix(1,0,0,1,0,0)" fill="url(#_lgradient_440)"/><linearGradient id="_lgradient_441" x1="0" y1="0.5" x2="0.16415734476500632" y2="1.486434167169661" gradientTransform="matrix(21.386,0,0,2.41,459.281,93.481)" gradientUnits="userSpaceOnUse"><stop offset="100%" stop-opacity="1" style="stop-color:rgb(255,255,255)"/><stop offset="100%" stop-opacity="0.9900296021113315" style="stop-color:rgb(255,255,255)"/></linearGradient><rect x="459.281" y="93.481" width="21.386" height="2.41" transform="matrix(1,0,0,1,0,0)" fill="url(#_lgradient_441)"/><linearGradient id="_lgradient_442" x1="0" y1="0.5" x2="0.46078287172724763" y2="1.387512898566996" gradientTransform="matrix(67.29,0,0,2.43,489.291,93.481)" gradientUnits="userSpaceOnUse"><stop offset="100%" stop-opacity="1" style="stop-color:rgb(255,255,255)"/><stop offset="100%" stop-opacity="0.9900305861616561" style="stop-color:rgb(255,255,255)"/></linearGradient><rect x="489.291" y="93.481" width="67.29" height="2.43" transform="matrix(1,0,0,1,0,0)" fill="url(#_lgradient_442)"/><linearGradient id="_lgradient_443" x1="0" y1="0.5" x2="0.2791557413137026" y2="1.4602458394034297" gradientTransform="matrix(37.87,0,0,2.43,562.875,93.481)" gradientUnits="userSpaceOnUse"><stop offset="100%" stop-opacity="1" style="stop-color:rgb(255,255,255)"/><stop offset="100%" stop-opacity="0.9900286178667225" style="stop-color:rgb(255,255,255)"/></linearGradient><rect x="562.875" y="93.481" width="37.87" height="2.43" transform="matrix(1,0,0,1,0,0)" fill="url(#_lgradient_443)"/><linearGradient id="_lgradient_444" x1="0" y1="0.5" x2="0.2119477561097363" y2="1.4772809978097639" gradientTransform="matrix(29.399,0,0,2.542,470.406,98.474)" gradientUnits="userSpaceOnUse"><stop offset="100%" stop-opacity="1" style="stop-color:rgb(255,255,255)"/><stop offset="100%" stop-opacity="0.9900296021113315" style="stop-color:rgb(255,255,255)"/></linearGradient><rect x="470.406" y="98.474" width="29.399" height="2.542" transform="matrix(1,0,0,1,0,0)" fill="url(#_lgradient_444)"/><linearGradient id="_lgradient_445" x1="0" y1="0.5" x2="0.24862847964140608" y2="1.4685989258259595" gradientTransform="matrix(35.033,0,0,2.573,479.843,103.436)" gradientUnits="userSpaceOnUse"><stop offset="100%" stop-opacity="1" style="stop-color:rgb(255,255,255)"/><stop offset="100%" stop-opacity="0.9900305861616562" style="stop-color:rgb(255,255,255)"/></linearGradient><rect x="479.843" y="103.436" width="35.033" height="2.573" transform="matrix(1,0,0,1,0,0)" fill="url(#_lgradient_445)"/><linearGradient id="_lgradient_446" x1="0" y1="0.5" x2="0.18828661524261409" y2="1.482114122961522" gradientTransform="matrix(29.369,0,0,2.858,517.164,103.436)" gradientUnits="userSpaceOnUse"><stop offset="100%" stop-opacity="1" style="stop-color:rgb(255,255,255)"/><stop offset="100%" stop-opacity="0.9900305861616561" style="stop-color:rgb(255,255,255)"/></linearGradient><rect x="517.164" y="103.436" width="29.369" height="2.858" transform="matrix(1,0,0,1,0,0)" fill="url(#_lgradient_446)"/><linearGradient id="_lgradient_447" x1="0" y1="0.5" x2="0.20597786363145418" y2="1.4785566512439747" gradientTransform="matrix(27.05,0,0,2.41,479.792,108.409)" gradientUnits="userSpaceOnUse"><stop offset="100%" stop-opacity="1" style="stop-color:rgb(255,255,255)"/><stop offset="100%" stop-opacity="0.9900296021113314" style="stop-color:rgb(255,255,255)"/></linearGradient><rect x="479.792" y="108.409" width="27.05" height="2.41" transform="matrix(1,0,0,1,0,0)" fill="url(#_lgradient_447)"/><linearGradient id="_lgradient_448" x1="0" y1="0.5" x2="0.36288179952412103" y2="1.4318351783304468" gradientTransform="matrix(55.829,0,0,2.675,509.436,108.409)" gradientUnits="userSpaceOnUse"><stop offset="100%" stop-opacity="1" style="stop-color:rgb(255,255,255)"/><stop offset="100%" stop-opacity="0.9900296021113314" style="stop-color:rgb(255,255,255)"/></linearGradient><rect x="509.436" y="108.409" width="55.829" height="2.675" transform="matrix(1,0,0,1,0,0)" fill="url(#_lgradient_448)"/><linearGradient id="_lgradient_449" x1="0" y1="0.5" x2="0.24740663495879" y2="1.4689117384872412" gradientTransform="matrix(35.033,0,0,2.573,459.281,115.141)" gradientUnits="userSpaceOnUse"><stop offset="100%" stop-opacity="1" style="stop-color:rgb(255,255,255)"/><stop offset="100%" stop-opacity="0.9900305861616561" style="stop-color:rgb(255,255,255)"/></linearGradient><rect x="459.281" y="115.141" width="35.033" height="2.573" transform="matrix(1,0,0,1,0,0)" fill="url(#_lgradient_449)"/><linearGradient id="_lgradient_450" x1="0" y1="0.5" x2="0.1641415794343725" y2="1.486436790626135" gradientTransform="matrix(21.386,0,0,2.41,459.281,120.114)" gradientUnits="userSpaceOnUse"><stop offset="100%" stop-opacity="1" style="stop-color:rgb(255,255,255)"/><stop offset="100%" stop-opacity="0.9900305861616561" style="stop-color:rgb(255,255,255)"/></linearGradient><rect x="459.281" y="120.114" width="21.386" height="2.41" transform="matrix(1,0,0,1,0,0)" fill="url(#_lgradient_450)"/><linearGradient id="_lgradient_451" x1="0" y1="0.5" x2="0.460782871727248" y2="1.3875128985669958" gradientTransform="matrix(67.29,0,0,2.43,489.291,120.114)" gradientUnits="userSpaceOnUse"><stop offset="100%" stop-opacity="1" style="stop-color:rgb(255,255,255)"/><stop offset="100%" stop-opacity="0.9900305861616561" style="stop-color:rgb(255,255,255)"/></linearGradient><rect x="489.291" y="120.114" width="67.29" height="2.43" transform="matrix(1,0,0,1,0,0)" fill="url(#_lgradient_451)"/><linearGradient id="_lgradient_452" x1="0" y1="0.5" x2="0.2791049304862593" y2="1.4602606093026311" gradientTransform="matrix(37.87,0,0,2.43,562.875,120.114)" gradientUnits="userSpaceOnUse"><stop offset="100%" stop-opacity="1" style="stop-color:rgb(255,255,255)"/><stop offset="100%" stop-opacity="0.9900305861616561" style="stop-color:rgb(255,255,255)"/></linearGradient><rect x="562.875" y="120.114" width="37.87" height="2.43" transform="matrix(1,0,0,1,0,0)" fill="url(#_lgradient_452)"/><linearGradient id="_lgradient_453" x1="0" y1="0.5" x2="0.21192777703189164" y2="1.477285330557213" gradientTransform="matrix(29.399,0,0,2.542,470.406,125.087)" gradientUnits="userSpaceOnUse"><stop offset="100%" stop-opacity="1" style="stop-color:rgb(255,255,255)"/><stop offset="100%" stop-opacity="0.9900305861616561" style="stop-color:rgb(255,255,255)"/></linearGradient><rect x="470.406" y="125.087" width="29.399" height="2.542" transform="matrix(1,0,0,1,0,0)" fill="url(#_lgradient_453)"/><linearGradient id="_lgradient_454" x1="0" y1="0.5" x2="0.24862847964140608" y2="1.4685989258259595" gradientTransform="matrix(35.033,0,0,2.573,479.843,130.07)" gradientUnits="userSpaceOnUse"><stop offset="100%" stop-opacity="1" style="stop-color:rgb(255,255,255)"/><stop offset="100%" stop-opacity="0.9900305861616562" style="stop-color:rgb(255,255,255)"/></linearGradient><rect x="479.843" y="130.07" width="35.033" height="2.573" transform="matrix(1,0,0,1,0,0)" fill="url(#_lgradient_454)"/><linearGradient id="_lgradient_455" x1="0" y1="0.5" x2="0.18828661524261409" y2="1.482114122961522" gradientTransform="matrix(29.369,0,0,2.858,517.164,130.07)" gradientUnits="userSpaceOnUse"><stop offset="100%" stop-opacity="1" style="stop-color:rgb(255,255,255)"/><stop offset="100%" stop-opacity="0.9900305861616561" style="stop-color:rgb(255,255,255)"/></linearGradient><rect x="517.164" y="130.07" width="29.369" height="2.858" transform="matrix(1,0,0,1,0,0)" fill="url(#_lgradient_455)"/><linearGradient id="_lgradient_456" x1="0" y1="0.5" x2="0.20597786363145418" y2="1.4785566512439747" gradientTransform="matrix(27.05,0,0,2.41,479.792,135.042)" gradientUnits="userSpaceOnUse"><stop offset="100%" stop-opacity="1" style="stop-color:rgb(255,255,255)"/><stop offset="100%" stop-opacity="0.9900296021113314" style="stop-color:rgb(255,255,255)"/></linearGradient><rect x="479.792" y="135.042" width="27.05" height="2.41" transform="matrix(1,0,0,1,0,0)" fill="url(#_lgradient_456)"/><linearGradient id="_lgradient_457" x1="0" y1="0.5" x2="0.3628506997900541" y2="1.4318472888096354" gradientTransform="matrix(55.829,0,0,2.675,509.436,135.042)" gradientUnits="userSpaceOnUse"><stop offset="100%" stop-opacity="1" style="stop-color:rgb(255,255,255)"/><stop offset="100%" stop-opacity="0.9900305861616561" style="stop-color:rgb(255,255,255)"/></linearGradient><rect x="509.436" y="135.042" width="55.829" height="2.675" transform="matrix(1,0,0,1,0,0)" fill="url(#_lgradient_457)"/><linearGradient id="_lgradient_458" x1="0" y1="0.5" x2="0.2474295607074025" y2="1.4689058842261935" gradientTransform="matrix(35.033,0,0,2.573,459.281,141.764)" gradientUnits="userSpaceOnUse"><stop offset="100%" stop-opacity="1" style="stop-color:rgb(255,255,255)"/><stop offset="100%" stop-opacity="0.9900296021113315" style="stop-color:rgb(255,255,255)"/></linearGradient><rect x="459.281" y="141.764" width="35.033" height="2.573" transform="matrix(1,0,0,1,0,0)" fill="url(#_lgradient_458)"/><linearGradient id="_lgradient_459" x1="0" y1="0.5" x2="0.1641415794343725" y2="1.486436790626135" gradientTransform="matrix(21.386,0,0,2.41,459.281,146.737)" gradientUnits="userSpaceOnUse"><stop offset="100%" stop-opacity="1" style="stop-color:rgb(255,255,255)"/><stop offset="100%" stop-opacity="0.9900305861616561" style="stop-color:rgb(255,255,255)"/></linearGradient><rect x="459.281" y="146.737" width="21.386" height="2.41" transform="matrix(1,0,0,1,0,0)" fill="url(#_lgradient_459)"/><linearGradient id="_lgradient_460" x1="0" y1="0.5" x2="0.4608186961916376" y2="1.387494298145199" gradientTransform="matrix(67.29,0,0,2.43,489.291,146.737)" gradientUnits="userSpaceOnUse"><stop offset="100%" stop-opacity="1" style="stop-color:rgb(255,255,255)"/><stop offset="100%" stop-opacity="0.9900296021113314" style="stop-color:rgb(255,255,255)"/></linearGradient><rect x="489.291" y="146.737" width="67.29" height="2.43" transform="matrix(1,0,0,1,0,0)" fill="url(#_lgradient_460)"/><linearGradient id="_lgradient_461" x1="0" y1="0.5" x2="0.2791049304862593" y2="1.4602606093026311" gradientTransform="matrix(37.87,0,0,2.43,562.875,146.737)" gradientUnits="userSpaceOnUse"><stop offset="100%" stop-opacity="1" style="stop-color:rgb(255,255,255)"/><stop offset="100%" stop-opacity="0.9900305861616561" style="stop-color:rgb(255,255,255)"/></linearGradient><rect x="562.875" y="146.737" width="37.87" height="2.43" transform="matrix(1,0,0,1,0,0)" fill="url(#_lgradient_461)"/><linearGradient id="_lgradient_462" x1="0" y1="0.5" x2="0.21192777703189145" y2="1.477285330557213" gradientTransform="matrix(29.399,0,0,2.542,470.406,151.71)" gradientUnits="userSpaceOnUse"><stop offset="100%" stop-opacity="1" style="stop-color:rgb(255,255,255)"/><stop offset="100%" stop-opacity="0.9900305861616561" style="stop-color:rgb(255,255,255)"/></linearGradient><rect x="470.406" y="151.71" width="29.399" height="2.542" transform="matrix(1,0,0,1,0,0)" fill="url(#_lgradient_462)"/><linearGradient id="_lgradient_463" x1="0" y1="0.5" x2="0.24862847964140586" y2="1.4685989258259597" gradientTransform="matrix(35.033,0,0,2.573,479.843,156.683)" gradientUnits="userSpaceOnUse"><stop offset="100%" stop-opacity="1" style="stop-color:rgb(255,255,255)"/><stop offset="100%" stop-opacity="0.990030586161656" style="stop-color:rgb(255,255,255)"/></linearGradient><rect x="479.843" y="156.683" width="35.033" height="2.573" transform="matrix(1,0,0,1,0,0)" fill="url(#_lgradient_463)"/><linearGradient id="_lgradient_464" x1="0" y1="0.5" x2="0.18828661524261409" y2="1.482114122961522" gradientTransform="matrix(29.369,0,0,2.858,517.164,156.683)" gradientUnits="userSpaceOnUse"><stop offset="100%" stop-opacity="1" style="stop-color:rgb(255,255,255)"/><stop offset="100%" stop-opacity="0.9900305861616561" style="stop-color:rgb(255,255,255)"/></linearGradient><rect x="517.164" y="156.683" width="29.369" height="2.858" transform="matrix(1,0,0,1,0,0)" fill="url(#_lgradient_464)"/><linearGradient id="_lgradient_465" x1="0" y1="0.5" x2="0.20595839658602236" y2="1.4785607486894796" gradientTransform="matrix(27.05,0,0,2.41,479.792,161.666)" gradientUnits="userSpaceOnUse"><stop offset="100%" stop-opacity="1" style="stop-color:rgb(255,255,255)"/><stop offset="100%" stop-opacity="0.9900305861616561" style="stop-color:rgb(255,255,255)"/></linearGradient><rect x="479.792" y="161.666" width="27.05" height="2.41" transform="matrix(1,0,0,1,0,0)" fill="url(#_lgradient_465)"/><linearGradient id="_lgradient_466" x1="0" y1="0.5" x2="0.3628506997900541" y2="1.4318472888096354" gradientTransform="matrix(55.829,0,0,2.675,509.436,161.666)" gradientUnits="userSpaceOnUse"><stop offset="100%" stop-opacity="1" style="stop-color:rgb(255,255,255)"/><stop offset="100%" stop-opacity="0.9900305861616561" style="stop-color:rgb(255,255,255)"/></linearGradient><rect x="509.436" y="161.666" width="55.829" height="2.675" transform="matrix(1,0,0,1,0,0)" fill="url(#_lgradient_466)"/></g><g><g opacity="0.18"><path d=" M 199.622 144.264 C 190.496 184.755 188.836 228.743 165.278 262.924 C 136.892 303.919 83.955 320.186 49.434 356.026 C 4.63 402.829 0.319 482.983 39.981 534.207 C 61.743 562.43 93.245 580.846 120.801 603.411 C 173.739 647.059 213.292 707.803 273.982 739.998 C 339.202 774.519 424.17 768.208 483.582 724.234 C 537.852 684.069 569.884 617.53 628.126 583.499 C 657.002 566.578 690.87 558.608 718.739 539.851 C 762.564 510.309 785.958 454.556 779.946 402.108 C 773.935 349.661 740.284 301.865 694.638 275.151 C 668.604 260.013 636.763 249.132 622.985 222.268 C 611.532 200.03 616.021 173.48 612.199 148.82 C 608.208 124.368 595.951 102.024 577.474 85.518 C 537.648 50.331 478.182 49.842 425.626 57.472 C 373.069 65.102 321.234 58.968 271.928 62.913 C 228.675 66.762 209.252 101.786 199.622 144.264 Z " fill="rgb(32,66,198)"/></g><path d=" M 404.45 344.6 C 414.82 345.7 425.45 347.28 434.1 353.14 C 437.789 355.733 441.113 358.811 443.98 362.29 C 457.815 378.239 466.716 397.865 469.6 418.78 C 471.92 436.35 469.97 454.29 472.41 471.78 C 473.75 482.02 476.93 492.4 484 499.96 C 490.83 507.16 500.6 510.82 510 514.24 C 511.188 514.498 512.234 515.194 512.93 516.19 C 513.66 517.53 512.93 519.24 512.2 520.58 L 499.39 544.37 C 498.984 545.39 498.253 546.248 497.31 546.81 C 495.97 547.67 494.14 547.18 492.68 546.69 C 479.74 542.69 466.32 538.27 456.56 529 C 441.19 514.36 438.26 491.3 436.3 470.19 C 434.72 490.93 433.13 511.55 431.42 532.29 C 431.455 533.997 431.034 535.681 430.2 537.17 C 428.74 539.37 425.69 539.98 423.01 540.35 C 396.555 543.967 369.908 546.004 343.21 546.45 C 336.86 546.57 329.42 545.96 326.21 540.59 C 324.5 537.91 324.38 534.49 324.38 531.32 C 323.77 510.21 323.28 489.1 322.67 467.87 C 318.28 479.1 313.76 490.69 306.08 500.08 C 288.75 521.44 259.08 528.02 231.77 531.08 C 230.162 522.372 228.001 513.775 225.3 505.34 C 230.92 505.46 236.16 502.41 240.92 499.34 C 253.85 490.92 266.3 481.4 276.18 469.45 C 286.06 457.5 293.18 442.97 294.48 427.6 C 295.22 419.67 294.36 411.73 293.87 403.8 C 292.65 380.99 297.87 355 322.06 346.34 C 331.58 342.92 344.06 343.89 353.91 343.41 C 370.762 342.462 387.662 342.86 404.45 344.6 L 404.45 344.6 Z " fill="rgb(32,66,198)"/><linearGradient id="_lgradient_467" x1="0.9999871756023531" y1="0.49956741322140275" x2="-0.00007195786353264566" y2="0.49956741322140263" gradientTransform="matrix(20.399,0,0,33.33,494.812,514.69)" gradientUnits="userSpaceOnUse"><stop offset="1.0013415732304176%" stop-opacity="1" style="stop-color:rgb(0,0,0)"/><stop offset="100%" stop-opacity="1" style="stop-color:rgb(0,0,0)"/></linearGradient><path d=" M 512.79 515.82 C 512.391 515.243 511.787 514.839 511.1 514.69 C 510.257 514.676 509.44 514.988 508.82 515.56 C 500.44 521.7 494.6 531.38 494.82 541.46 C 494.748 542.989 495.135 544.504 495.93 545.81 C 497.43 547.91 500.59 548.48 503.11 547.66 C 505.569 546.71 507.684 545.041 509.18 542.87 C 512.134 539.032 514.067 534.508 514.8 529.72 C 515.45 525.51 515.67 519.34 512.79 515.82 Z " fill="url(#_lgradient_467)"/><linearGradient id="_lgradient_468" x1="0" y1="0.5" x2="1" y2="0.5" gradientTransform="matrix(14.913,0,0,25.595,222.304,505.42)" gradientUnits="userSpaceOnUse"><stop offset="100%" stop-opacity="1" style="stop-color:rgb(0,0,0)"/><stop offset="100%" stop-opacity="1" style="stop-color:rgb(0,0,0)"/></linearGradient><path d=" M 224.07 506.29 C 224.354 505.849 224.799 505.537 225.31 505.42 C 225.934 505.411 226.536 505.653 226.98 506.09 C 233.11 510.8 237.37 518.22 237.21 525.95 C 237.267 527.118 236.985 528.278 236.4 529.29 C 235.144 530.853 233.023 531.426 231.15 530.71 C 229.334 529.964 227.786 528.684 226.71 527.04 C 224.541 524.061 223.13 520.598 222.6 516.95 C 222.13 513.74 221.97 508.99 224.07 506.29 Z " fill="url(#_lgradient_468)"/><path d=" M 313.67 235.27 C 306.96 249.06 305.5 264.92 307.08 280.17 C 308.66 295.42 313.18 310.17 317.57 324.95 C 317.858 326.238 318.495 327.421 319.41 328.37 C 320.63 329.37 322.21 329.22 323.8 329.22 L 337.59 328.49 C 338.312 328.517 339.027 328.348 339.66 328 C 340.307 327.305 340.664 326.39 340.66 325.44 C 340.9 322.39 341.14 319.44 341.39 316.44 C 340.05 319.74 342 323.64 344.93 325.59 C 347.86 327.54 351.64 328.03 355.18 328.03 C 361.392 328.161 367.592 327.424 373.6 325.84 C 374.21 322.3 374.82 318.76 375.43 315.1 C 374.43 320.22 379.21 324.98 384.34 326.1 C 389.47 327.22 394.71 325.61 399.59 324.03 C 400.959 319.359 401.3 314.446 400.59 309.63 C 399.5 313.63 402.67 318.05 406.7 319.27 C 410.73 320.49 415.11 319.02 418.53 316.58 C 420.65 315.188 422.002 312.889 422.19 310.36 C 426.836 289.628 425.484 268.002 418.29 248.01 C 413.65 235.08 406.45 222.88 396.08 214.01 C 368.09 190.13 328.92 204.16 313.67 235.27 Z " fill="rgb(63,61,86)"/><linearGradient id="_lgradient_469" x1="0.16353520948028866" y1="0.7785184110881764" x2="0.8213828115627926" y2="0.08924496814185756" gradientTransform="matrix(37.362,0,0,38.984,354.91,320.07)" gradientUnits="userSpaceOnUse"><stop offset="0%" stop-opacity="1" style="stop-color:rgb(236,196,215)"/><stop offset="42%" stop-opacity="1" style="stop-color:rgb(239,212,209)"/><stop offset="100%" stop-opacity="1" style="stop-color:rgb(242,234,201)"/></linearGradient><path d=" M 392.26 346.76 C 392.02 347.9 391.939 349.068 392.02 350.23 C 378.59 366.06 362.02 356.81 354.91 351.5 C 355.358 349.491 355.596 347.44 355.62 345.38 C 357 334.85 357.96 327.27 356.38 323 C 356.62 322.76 356.86 322.39 357.11 322.15 C 361.5 325.81 366.62 328.49 372.11 328.61 C 378.57 328.61 384.31 324.95 388.7 320.07 C 389.06 333.7 392.5 345.66 392.26 346.76 Z " fill="url(#_lgradient_469)"/><line x1="356.13" y1="323.12" x2="356.25" y2="323"/><linearGradient id="_lgradient_470" x1="0" y1="0.5" x2="0.19747001326612568" y2="1.4803089277675054" gradientTransform="matrix(71.988,0,0,99.177,330.046,229.434)" gradientUnits="userSpaceOnUse"><stop offset="100%" stop-opacity="1" style="stop-color:rgb(236,196,215)"/><stop offset="100%" stop-opacity="1" style="stop-color:rgb(236,197,215)"/><stop offset="100%" stop-opacity="1" style="stop-color:rgb(239,212,209)"/></linearGradient><path d=" M 402.01 275.66 C 401.64 289.81 399.57 304.45 391.64 316.29 C 390.731 317.601 389.753 318.863 388.71 320.07 C 384.32 324.95 378.58 328.61 372.12 328.61 C 366.5 328.61 361.38 325.81 357.12 322.15 C 357 322.02 356.87 322.02 356.75 321.9 L 356.26 322.9 C 355.727 321.515 354.894 320.265 353.82 319.24 C 343.417 308.904 336.178 295.816 332.95 281.51 C 329.78 267.6 326.85 255.15 337.71 243.56 C 343.71 237.21 351.71 233.31 360.16 231.11 C 367.11 229.28 374.68 228.55 381.39 230.99 C 389.69 233.99 395.79 241.49 398.84 249.78 C 401.89 258.07 402.13 266.87 402.01 275.66 Z " fill="url(#_lgradient_470)"/><path d=" M 527.93 628.4 C 521.499 633.927 513.542 637.372 505.11 638.28 C 424.58 645.85 436.42 630.35 381.75 631.57 C 379.07 631.63 376.43 631.77 373.85 631.98 C 322.93 635.98 287.78 665.7 241.85 645.73 C 231.34 641.19 229.12 628.01 230.59 615.14 C 231.243 609.551 232.524 604.053 234.41 598.75 C 240.02 583.13 252.35 570.44 266.41 561.42 C 275.719 555.576 285.584 550.669 295.86 546.77 C 303.18 543.85 310.62 540.19 318.55 539.45 C 341.61 537.13 365.28 537.62 388.34 536.77 C 401.76 536.16 415.19 535.67 428.49 535.18 C 432.73 534.896 436.988 535.101 441.18 535.79 C 444.624 536.676 447.943 537.989 451.06 539.7 C 477.001 552.516 501.227 568.542 523.17 587.4 C 529.17 592.53 535.25 598.4 536.83 606.19 C 538.42 614.37 534.27 623.03 527.93 628.4 Z " fill="rgb(32,66,198)"/><linearGradient id="_lgradient_471" x1="0.17231261922405716" y1="-0.444540163898699" x2="0.8495217896906553" y2="0.28510203709693605" gradientTransform="matrix(131.215,0,0,47.579,373.26,590.261)" gradientUnits="userSpaceOnUse"><stop offset="0%" stop-opacity="1" style="stop-color:rgb(0,0,0)"/><stop offset="0%" stop-opacity="1" style="stop-color:rgb(0,0,0)"/><stop offset="100%" stop-opacity="1" style="stop-color:rgb(0,0,0)"/></linearGradient><path d=" M 487.63 608.9 L 464.71 607.02 C 463.38 606.756 461.999 606.968 460.81 607.62 C 460.074 608.314 459.434 609.105 458.91 609.97 C 456.34 613.18 451.45 612.9 447.71 614.6 C 444.61 616.01 442.38 618.75 440.26 621.41 C 437.16 625.29 433.93 629.48 433.46 634.41 C 437.46 635.23 436.15 637.03 440.13 637.84 C 418.33 635.84 396.04 629.37 373.26 631.89 C 390.33 625.53 399.77 620.3 443.68 605.55 C 449.95 603.44 438.42 594.48 444.68 592.29 C 450.94 590.1 457.44 590.22 463.93 590.29 C 473.28 590.45 482.68 590.61 491.93 592.12 C 497.14 592.97 506.1 596.12 504.22 603.12 C 502.42 609.81 492.77 609.33 487.63 608.9 Z " fill="url(#_lgradient_471)"/><linearGradient id="_lgradient_472" x1="0" y1="0.5" x2="0.5385061136553153" y2="1.3426216028300297" gradientTransform="matrix(215.378,0,0,60.06,230.192,592.51)" gradientUnits="userSpaceOnUse"><stop offset="100%" stop-opacity="1" style="stop-color:rgb(0,0,0)"/><stop offset="100%" stop-opacity="1" style="stop-color:rgb(0,0,0)"/><stop offset="100%" stop-opacity="1" style="stop-color:rgb(0,0,0)"/></linearGradient><path d=" M 445.57 603.63 L 376.46 630.29 L 373.86 631.98 C 322.94 635.98 287.79 665.7 241.86 645.73 C 231.35 641.19 229.13 628.01 230.6 615.14 C 245.07 637.03 269.34 630.29 269.34 630.29 C 276.86 634.42 435.55 592.51 435.55 592.51 C 434.87 596.18 444.03 598.51 444.03 598.51 L 445.57 603.63 Z " fill="url(#_lgradient_472)"/><linearGradient id="_lgradient_473" x1="0" y1="0.5" x2="0.16060684194921004" y2="1.4870184609819117" gradientTransform="matrix(209.243,0,0,34.189,281.807,558.869)" gradientUnits="userSpaceOnUse"><stop offset="100%" stop-opacity="1" style="stop-color:rgb(0,0,0)"/><stop offset="100%" stop-opacity="1" style="stop-color:rgb(0,0,0)"/><stop offset="100%" stop-opacity="1" style="stop-color:rgb(0,0,0)"/></linearGradient><path d=" M 287.86 582.06 C 294.86 579.69 302.11 572.78 309.41 571.68 C 313.65 571.04 317.7 569.51 321.88 568.54 C 330.738 566.516 339.991 567.075 348.54 570.15 C 351.43 571.15 354.22 572.52 357.18 573.35 C 361.252 574.365 365.447 574.8 369.64 574.64 C 391.02 574.46 407.3 570.99 425.79 560.25 C 427.07 559.5 428.48 558.7 429.95 558.9 C 431.074 559.216 432.15 559.68 433.15 560.28 C 437.15 562.05 441.69 559.6 446.06 559.02 C 451.18 558.34 456.25 560.29 461.06 562.27 C 467.43 564.92 479.2 573.8 485.45 576.68 C 487.77 577.74 490.33 579.1 491.05 581.55 C 489.2 583.19 486.49 583.26 484.05 583.24 L 455.26 583.05 C 450.19 583.05 445.03 582.96 440.19 581.42 C 436.62 580.28 433.33 578.35 429.7 577.42 C 425.5 576.3 421.06 576.51 416.7 576.87 C 397.069 578.47 377.741 582.691 359.23 589.42 C 355.808 590.822 352.263 591.903 348.64 592.65 C 344.18 593.38 339.64 592.97 335.12 592.65 Q 317.55 591.29 299.92 591.4 C 296.07 591.4 287.38 594.16 283.92 591.99 C 278.79 588.73 284.15 583.3 287.86 582.06 Z " fill="url(#_lgradient_473)"/><mask id="_mask_LHkO5G7J2fi27bVdbzmcCkHcFIFPEa0z" x="-200%" y="-200%" width="400%" height="400%"><rect x="-200%" y="-200%" width="400%" height="400%" style="fill:white;"/><path d=" M 367.97 633.51 C 391.655 622.317 416.272 613.212 441.54 606.3 C 443.13 605.81 445.08 605.2 445.54 603.61 C 445.74 602.763 445.699 601.876 445.42 601.05 C 443.71 593.97 439.93 587.63 436.14 581.41 C 433.58 577.26 431.02 575.55 426.02 576.16 C 400.752 579.323 375.834 584.837 351.59 592.63" fill="black" stroke="none"/></mask><path d=" M 367.97 633.51 C 391.655 622.317 416.272 613.212 441.54 606.3 C 443.13 605.81 445.08 605.2 445.54 603.61 C 445.74 602.763 445.699 601.876 445.42 601.05 C 443.71 593.97 439.93 587.63 436.14 581.41 C 433.58 577.26 431.02 575.55 426.02 576.16 C 400.752 579.323 375.834 584.837 351.59 592.63" fill="none" mask="url(#_mask_LHkO5G7J2fi27bVdbzmcCkHcFIFPEa0z)" vector-effect="non-scaling-stroke" stroke-width="3.36" stroke="rgb(255,255,255)" stroke-linejoin="miter" stroke-linecap="butt" stroke-miterlimit="10"/><path d=" M 367.97 633.51 C 391.655 622.317 416.272 613.212 441.54 606.3 C 443.13 605.81 445.08 605.2 445.54 603.61 C 445.74 602.763 445.699 601.876 445.42 601.05 C 443.71 593.97 439.93 587.63 436.14 581.41 C 433.58 577.26 431.02 575.55 426.02 576.16 C 400.752 579.323 375.834 584.837 351.59 592.63" fill="none"/><linearGradient id="_lgradient_474" x1="0" y1="0.5" x2="1" y2="0.5" gradientTransform="matrix(77.753,0,0,43.606,434.193,561.981)" gradientUnits="userSpaceOnUse"><stop offset="100%" stop-opacity="1" style="stop-color:rgb(236,196,215)"/><stop offset="100%" stop-opacity="1" style="stop-color:rgb(236,196,215)"/><stop offset="100%" stop-opacity="1" style="stop-color:rgb(239,212,209)"/></linearGradient><path d=" M 448.01 597.41 C 465.484 591.711 484.556 593.707 500.47 602.9 C 502.47 604.12 504.47 605.46 506.82 605.58 C 509.17 605.7 511.82 604.24 511.94 601.92 C 512.06 599.85 510.11 598.14 508.28 597.17 C 505.5 595.695 502.425 594.861 499.28 594.73 C 496.84 586.92 489.03 582.04 481.47 578.73 C 473.91 575.42 465.73 572.51 460.47 566.16 C 459.01 564.46 457.54 562.26 455.35 562.02 C 453.64 561.77 452.05 562.75 450.71 563.72 C 445.59 567.63 442.42 573.97 436.56 576.66 C 434.73 580.2 433.51 584.22 434.61 588 C 435.74 591.861 438.258 595.167 441.68 597.28 C 443.674 598.232 445.98 598.279 448.01 597.41 Z " fill="url(#_lgradient_474)"/><linearGradient id="_lgradient_475" x1="0" y1="0.5" x2="1" y2="0.5" gradientTransform="matrix(77.773,0,0,21.143,277.744,580.149)" gradientUnits="userSpaceOnUse"><stop offset="100%" stop-opacity="1" style="stop-color:rgb(236,196,215)"/><stop offset="100%" stop-opacity="1" style="stop-color:rgb(236,196,215)"/><stop offset="100%" stop-opacity="1" style="stop-color:rgb(239,212,209)"/></linearGradient><path d=" M 346.61 580.57 C 343.81 579.57 340.76 580.57 337.83 581.3 C 334.467 582.067 331.03 582.473 327.58 582.51 C 323.68 582.51 319.65 582.03 315.74 582.64 C 312.85 583.232 310.031 584.131 307.33 585.32 C 299.745 588.126 291.951 590.329 284.02 591.91 C 281.46 592.4 278.29 593.37 277.8 595.91 C 277.31 598.45 280.12 600.66 282.68 600.79 C 285.24 600.92 287.8 599.93 290.37 599.57 C 293.098 599.326 295.845 599.447 298.54 599.93 C 308.315 600.869 318.131 601.316 327.95 601.27 C 330.238 601.354 332.527 601.193 334.78 600.79 C 337.83 600.05 340.51 598.1 343.32 596.64 C 346.13 595.18 354.18 593.34 355.4 590.05 C 356.5 586.43 349.54 581.51 346.61 580.57 Z " fill="url(#_lgradient_475)"/><path d=" M 360.16 261.75 C 360.327 262.758 360.794 263.693 361.5 264.43 C 362.527 265.048 363.73 265.309 364.92 265.17 L 381.02 264.8 C 383.46 264.8 386.02 264.68 388.22 263.46 C 390.42 262.24 392 259.8 391.27 257.36 C 391.39 259.55 391.39 261.87 391.52 264.07 C 397.37 264.56 403.23 265.17 409.21 265.65 C 407.87 254.31 405.42 242.96 400.06 232.95 C 394.7 222.94 386.06 214.29 375.17 210.87 C 364.261 207.579 352.436 209.673 343.32 216.51 C 337.22 221.15 332.83 227.62 329.17 234.2 C 324.77 241.89 320.99 250.68 321.11 259.71 C 321.36 271.78 325.63 270.71 335.39 271.54 C 340.15 271.91 347.59 275.93 352.23 274.23 C 359.18 271.78 357.6 261.54 358.57 255.56 C 359.06 257.6 359.3 260.04 360.16 261.75 Z " fill="rgb(63,61,86)"/><path d=" M 334.86 232.1 C 343.86 225.63 355.12 222.58 366.34 222.1 C 369.795 221.851 373.266 222.22 376.59 223.19 C 379.521 224.39 382.271 225.992 384.76 227.95 C 388.999 230.788 392.963 234.015 396.6 237.59 C 404.221 245.537 408.285 256.239 407.86 267.24 C 409.56 265.04 410.05 262.24 410.3 259.43 C 411.412 245.655 406.316 232.103 396.404 222.473 C 386.492 212.843 372.798 208.141 359.06 209.65 C 352.325 210.472 345.793 212.505 339.78 215.65 C 337.286 216.837 334.914 218.268 332.7 219.92 C 325.99 224.92 321.48 232.49 319.28 240.42 C 317.94 245.18 316.84 250.79 317.57 255.67 C 320.63 253.67 321.72 247.01 323.68 243.83 C 326.69 239.295 330.474 235.324 334.86 232.1 L 334.86 232.1 Z " fill="rgb(32,66,198)"/><linearGradient id="_lgradient_476" x1="0" y1="0.5" x2="1" y2="0.5" gradientTransform="matrix(75.421,0,0,50.324,157.965,502.572)" gradientUnits="userSpaceOnUse"><stop offset="100%" stop-opacity="1" style="stop-color:rgb(236,196,215)"/><stop offset="100%" stop-opacity="1" style="stop-color:rgb(236,197,215)"/><stop offset="100%" stop-opacity="1" style="stop-color:rgb(239,212,209)"/></linearGradient><path d=" M 229.2 513.26 C 226.03 511.06 213.38 507.61 209.96 505.78 C 204.35 502.85 198.61 501.26 192.39 503.95 C 186.9 506.39 182.75 511.88 182.51 517.86 C 182.38 521.27 183.24 525.18 181.16 527.98 C 180.111 529.223 178.771 530.188 177.26 530.79 C 173.097 532.846 168.716 534.429 164.2 535.51 C 162.501 535.829 160.884 536.493 159.45 537.46 C 158.1 538.56 157.45 540.76 158.45 542.1 C 159.45 543.44 161.01 543.44 162.45 543.44 C 167.802 543.454 173.119 542.589 178.19 540.88 C 173.196 543.802 168.771 547.603 165.13 552.1 C 168.3 553.57 172.13 552.71 175.5 551.86 C 190.013 548.042 204.021 542.513 217.23 535.39 C 226.55 530.42 240.42 520.95 229.2 513.26 Z  M 203.32 519 C 203.158 519.906 202.63 520.706 201.86 521.21 C 201.269 521.534 200.613 521.722 199.94 521.76 C 199.331 521.89 198.7 521.89 198.09 521.76 C 197.539 521.544 197.033 521.225 196.6 520.82 C 195.805 520.261 195.145 519.53 194.67 518.68 C 194.352 517.878 194.236 517.009 194.33 516.15 C 194.351 514.798 194.81 513.489 195.64 512.42 C 196.77 511.14 198 511.28 199.43 511.72 C 200.86 512.16 202.14 512.39 202.87 513.93 C 203.176 514.696 203.348 515.507 203.38 516.33 C 203.497 517.218 203.476 518.119 203.32 519 L 203.32 519 Z " fill="url(#_lgradient_476)"/><linearGradient id="_lgradient_477" x1="0" y1="0.5" x2="1" y2="0.5" gradientTransform="matrix(87.183,0,0,47.845,498.805,512.587)" gradientUnits="userSpaceOnUse"><stop offset="100%" stop-opacity="1" style="stop-color:rgb(236,196,215)"/><stop offset="100%" stop-opacity="1" style="stop-color:rgb(236,196,215)"/><stop offset="100%" stop-opacity="1" style="stop-color:rgb(239,212,209)"/></linearGradient><path d=" M 585.03 540.19 C 573.68 540.8 560.87 540.92 552.7 533.11 C 547.33 528.11 544.89 520.54 539.15 516.11 C 534.767 512.779 529.059 511.735 523.78 513.3 C 519.61 514.59 515.11 517.58 513.58 521.54 C 512.977 523.199 511.339 524.247 509.58 524.1 L 509.58 524.1 C 503.58 525.1 503.5 528.63 500.81 531.31 C 498.12 533.99 498.51 540.31 499.81 543.81 C 500.67 546 502.74 547.34 504.81 548.56 C 517.906 556.155 532.743 560.234 547.88 560.4 C 548.704 560.52 549.542 560.3 550.2 559.79 C 551.2 558.79 550.32 556.98 549.1 556.13 C 547.88 555.28 546.41 554.54 545.92 553.2 C 553.92 557.056 562.942 558.254 571.67 556.62 L 571.67 553.2 C 566.973 552.715 562.456 551.125 558.49 548.56 C 566.419 549.033 574.366 548.015 581.92 545.56 C 583.264 545.327 584.478 544.617 585.34 543.56 C 586.25 542.63 586.25 540.8 585.03 540.19 Z  M 533.75 529.02 C 533.015 530.302 531.685 531.128 530.21 531.22 C 528.76 531.287 527.314 531.009 525.99 530.41 C 525.048 530.192 524.245 529.579 523.788 528.727 C 523.33 527.875 523.262 526.867 523.6 525.96 C 523.703 524.757 524.155 523.61 524.9 522.66 C 525.398 522.153 525.993 521.751 526.65 521.48 C 528.51 520.64 530.88 520.48 532.44 521.81 C 533.72 523.053 534.373 524.804 534.22 526.58 C 534.231 527.417 534.071 528.247 533.75 529.02 Z " fill="url(#_lgradient_477)"/><path d=" M 657.63 770.911 C 657.51 771.58 657.36 772.26 657.18 772.911 C 656.47 775.55 655.26 778.12 653.11 779.68 C 649.11 782.61 643.6 781.14 638.84 779.8 C 576.37 761.25 510.36 758.94 445.32 761.62 C 380.28 764.3 315.5 772.13 250.47 773.51 C 215.94 774.24 181.41 773.14 146.88 772.041 C 128.7 771.43 110.64 770.94 92.46 770.33 C 87.7 770.21 82.58 769.971 78.31 767.77 C 74.04 765.57 70.62 760.77 71.72 756.06 C 72.45 752.89 75.01 750.44 77.57 748.37 C 88.57 739.76 102.28 735.56 115.3 730.17 C 119.987 728.285 124.544 726.09 128.94 723.601 C 149.94 711.52 166.52 689.68 190.56 686.88 C 207.27 684.88 223.5 693.1 240.34 694.93 C 257.18 696.76 273.28 692.37 289.63 690.78 C 304.4 689.07 313.91 692.24 327.7 695.05 C 361.7 702.13 402.86 696.64 436.7 690.17 C 452.44 687.12 468.06 683.22 483.92 681.51 C 503.44 679.43 523.09 681.02 542.61 682.51 C 565.91 684.22 589.1 686.05 612.4 687.88 C 615.4 688.13 618.62 688.37 621.06 690.08 C 623.14 691.42 624.48 693.62 625.7 695.69 C 631.43 705.21 637.05 714.601 642.78 724.12 C 651.28 738.51 660.31 754.32 657.63 770.911 Z " fill="rgb(32,66,198)"/><mask id="_mask_hECfz9jYr8O7SIcauK2s0nNP0mJlroLd" x="-200%" y="-200%" width="400%" height="400%"><rect x="-200%" y="-200%" width="400%" height="400%" style="fill:white;"/><path d=" M 325.38 407.56 C 327.21 415.12 324.53 423.05 322.21 430.49 C 319.89 437.93 317.7 446.11 320.38 453.43 C 321.38 456 322.7 458.19 323.43 460.88 C 324.16 463.57 323.68 466.61 321.6 468.2" fill="black" stroke="none"/></mask><path d=" M 325.38 407.56 C 327.21 415.12 324.53 423.05 322.21 430.49 C 319.89 437.93 317.7 446.11 320.38 453.43 C 321.38 456 322.7 458.19 323.43 460.88 C 324.16 463.57 323.68 466.61 321.6 468.2" fill="none" mask="url(#_mask_hECfz9jYr8O7SIcauK2s0nNP0mJlroLd)" vector-effect="non-scaling-stroke" stroke-width="3.36" stroke="rgb(255,255,255)" stroke-linejoin="miter" stroke-linecap="butt" stroke-miterlimit="10"/><path d=" M 325.38 407.56 C 327.21 415.12 324.53 423.05 322.21 430.49 C 319.89 437.93 317.7 446.11 320.38 453.43 C 321.38 456 322.7 458.19 323.43 460.88 C 324.16 463.57 323.68 466.61 321.6 468.2" fill="none"/><mask id="_mask_TxSfZI6HTMTD9SgJALvDi4RRTShoS57h" x="-200%" y="-200%" width="400%" height="400%"><rect x="-200%" y="-200%" width="400%" height="400%" style="fill:white;"/><path d=" M 433.61 396.82 C 429.22 402.43 453.01 422.2 435.07 473.44" fill="black" stroke="none"/></mask><path d=" M 433.61 396.82 C 429.22 402.43 453.01 422.2 435.07 473.44" fill="none" mask="url(#_mask_TxSfZI6HTMTD9SgJALvDi4RRTShoS57h)" vector-effect="non-scaling-stroke" stroke-width="3.36" stroke="rgb(255,255,255)" stroke-linejoin="miter" stroke-linecap="butt" stroke-miterlimit="10"/><path d=" M 433.61 396.82 C 429.22 402.43 453.01 422.2 435.07 473.44" fill="none"/><linearGradient id="_lgradient_478" x1="0" y1="0.5" x2="0.7714465776816347" y2="1.1362940969263298" gradientTransform="matrix(87.591,0,0,93.576,233.853,435.02)" gradientUnits="userSpaceOnUse"><stop offset="100%" stop-opacity="1" style="stop-color:rgb(0,0,0)"/><stop offset="100%" stop-opacity="1" style="stop-color:rgb(0,0,0)"/></linearGradient><path d=" M 300.62 470.31 C 297.225 476.294 293.203 481.899 288.62 487.03 C 277.45 499.03 261.94 506.12 246.2 510.7 C 240.54 512.35 233.45 515.44 233.87 521.33 C 234.14 525.05 237.75 527.82 241.42 528.42 C 245.09 529.02 248.82 527.98 252.42 526.95 L 268.86 522.18 C 280.09 518.93 291.71 515.47 300.48 507.75 C 308.48 500.66 313.36 490.66 317.24 480.67 C 320.04 473.44 322.47 465.67 321 458.05 C 320.3 454.42 318.73 451 318 447.37 C 317.2 443.37 317.7 438.99 318.26 435.02 C 311.54 445.8 307.32 459.06 300.62 470.31 Z " fill="url(#_lgradient_478)"/><linearGradient id="_lgradient_479" x1="0" y1="0.5" x2="0.9509825330453708" y2="0.19075540127172752" gradientTransform="matrix(55.235,0,0,89.181,436.058,453.79)" gradientUnits="userSpaceOnUse"><stop offset="100%" stop-opacity="1" style="stop-color:rgb(0,0,0)"/><stop offset="100%" stop-opacity="1" style="stop-color:rgb(0,0,0)"/></linearGradient><path d=" M 456.28 499.24 C 462.793 513.121 473.221 524.797 486.28 532.83 C 488.68 534.3 491.51 536.29 491.28 539.09 C 491.06 541.2 488.95 542.72 486.84 542.96 C 484.707 543.051 482.586 542.593 480.68 541.63 C 463.351 534.276 449.532 520.511 442.11 503.21 C 436.03 488.85 433.28 468.45 439.86 453.79 C 445.02 455.86 446.63 469.51 448.07 474.7 C 450.33 483.02 452.62 491.39 456.28 499.24 Z " fill="url(#_lgradient_479)"/><linearGradient id="_lgradient_480" x1="0" y1="0.5" x2="0.6682721604494575" y2="-0.24391687678679164" gradientTransform="matrix(42.744,0,0,66.25,324.124,477.469)" gradientUnits="userSpaceOnUse"><stop offset="0%" stop-opacity="1" style="stop-color:rgb(0,0,0)"/><stop offset="0%" stop-opacity="1" style="stop-color:rgb(0,0,0)"/><stop offset="0%" stop-opacity="1" style="stop-color:rgb(0,0,0)"/></linearGradient><path d=" M 335.86 495.58 C 336.998 501.667 338.507 507.678 340.38 513.58 C 342.16 519.66 344.16 526.06 348.89 530.27 C 352.36 533.36 356.89 534.88 361.4 536.1 C 362.835 536.391 364.196 536.97 365.4 537.8 C 366.63 538.683 367.158 540.254 366.71 541.7 C 365.92 543.56 363.42 543.8 361.4 543.7 C 350.194 543.265 339.042 541.927 328.05 539.7 C 327.244 539.591 326.468 539.319 325.77 538.9 C 324.06 537.71 324.03 535.23 324.18 533.15 C 325.31 517.94 326.18 502.92 325.06 487.68 C 324.87 484.97 325.55 476.26 330.49 477.61 C 334.86 478.88 335.25 492.05 335.86 495.58 Z " fill="url(#_lgradient_480)"/><linearGradient id="_lgradient_481" x1="0" y1="0.5" x2="0.990114981429762" y2="0.6402580605467727" gradientTransform="matrix(64.32,0,0,9.554,387.86,534.657)" gradientUnits="userSpaceOnUse"><stop offset="100%" stop-opacity="1" style="stop-color:rgb(0,0,0)"/><stop offset="100%" stop-opacity="1" style="stop-color:rgb(0,0,0)"/></linearGradient><path d=" M 387.86 544.21 Q 420.04 543.95 452.18 542.21 C 450.52 538.59 446.4 536.79 442.5 536.03 C 438.6 535.27 434.2 534.03 430.39 535.03 C 425.82 536.23 421.39 538.38 416.77 539.62 C 407.43 542.21 397.47 544.13 387.86 544.21 Z " fill="url(#_lgradient_481)"/><path d=" M 353.79 347.67 C 353.79 347.67 369.79 368.29 393.64 347.67 L 396.85 352.67 C 396.85 352.67 384.25 372.14 366.85 365.27 C 349.45 358.4 349.86 351.11 349.86 351.11 L 353.79 347.67 Z " fill="rgb(32,66,198)"/><linearGradient id="_lgradient_482" x1="0" y1="0.5" x2="0.5081179404268088" y2="-0.3612875005574028" gradientTransform="matrix(46.991,0,0,19.068,349.86,347.67)" gradientUnits="userSpaceOnUse"><stop offset="100%" stop-opacity="1" style="stop-color:rgb(0,0,0)"/><stop offset="100%" stop-opacity="1" style="stop-color:rgb(0,0,0)"/><stop offset="100%" stop-opacity="1" style="stop-color:rgb(0,0,0)"/></linearGradient><path d=" M 353.79 347.67 C 353.79 347.67 369.79 368.29 393.64 347.67 L 396.85 352.67 C 396.85 352.67 384.25 372.14 366.85 365.27 C 349.45 358.4 349.86 351.11 349.86 351.11 L 353.79 347.67 Z " fill="url(#_lgradient_482)"/><linearGradient id="_lgradient_483" x1="0" y1="0.5" x2="0.505542330999819" y2="1.3628018031780353" gradientTransform="matrix(585.668,0,0,51.229,71.512,730.17)" gradientUnits="userSpaceOnUse"><stop offset="100%" stop-opacity="1" style="stop-color:rgb(0,0,0)"/><stop offset="100%" stop-opacity="1" style="stop-color:rgb(0,0,0)"/><stop offset="100%" stop-opacity="1" style="stop-color:rgb(0,0,0)"/></linearGradient><path d=" M 657.18 772.93 C 656.47 775.57 655.26 778.14 653.11 779.7 C 649.11 782.63 643.6 781.161 638.84 779.82 C 576.37 761.27 510.36 758.96 445.32 761.64 C 380.28 764.32 315.5 772.13 250.47 773.51 C 215.94 774.24 181.41 773.14 146.88 772.041 C 128.7 771.43 110.64 770.94 92.46 770.33 C 87.7 770.21 82.58 769.971 78.31 767.77 C 74.04 765.57 70.62 760.77 71.72 756.06 C 72.45 752.89 75.01 750.44 77.57 748.37 C 88.57 739.76 102.28 735.56 115.3 730.17 C 105.452 739.169 95.008 747.495 84.04 755.09 C 253.69 789.26 431.56 724.77 601.32 758.36 C 616.32 761.36 638.96 762.18 652.5 769.161 C 654.333 770.034 655.936 771.326 657.18 772.93 Z " fill="url(#_lgradient_483)"/><linearGradient id="_lgradient_484" x1="0" y1="0.5" x2="0.1846030764657636" y2="1.482813158316155" gradientTransform="matrix(253.262,0,0,34.156,244.851,686.015)" gradientUnits="userSpaceOnUse"><stop offset="100%" stop-opacity="1" style="stop-color:rgb(0,0,0)"/><stop offset="100%" stop-opacity="1" style="stop-color:rgb(0,0,0)"/><stop offset="100%" stop-opacity="1" style="stop-color:rgb(0,0,0)"/></linearGradient><path d=" M 256.45 700.72 C 253.12 702.03 249.67 703.41 247.27 706.06 C 244.87 708.71 243.89 713.06 246.04 715.87 C 248.19 718.68 252.27 718.98 255.82 719 L 418.14 720.11 C 425.148 720.292 432.16 720.061 439.14 719.42 C 458.03 717.3 475.66 709.221 492.91 701.24 C 495.07 700.24 497.48 698.95 498.01 696.63 C 498.82 693.04 494.67 690.44 491.16 689.37 C 468.93 682.56 445.08 687.66 422.1 691.13 C 393.388 695.457 364.341 697.154 335.32 696.2 Q 313.57 695.48 291.95 692.8 C 277.86 691.05 269.56 695.59 256.45 700.72 Z " fill="url(#_lgradient_484)"/></g><g><g style="mix-blend-mode:normal;" opacity="0.52"><path d="M 279.571 124.099 L 102.852 124.099 C 95.657 124.099 89.816 118.258 89.816 111.063 L 89.816 25.337 C 89.816 18.142 95.657 12.301 102.852 12.301 L 279.571 12.301 C 286.766 12.301 292.607 18.142 292.607 25.337 L 292.607 111.063 C 292.607 118.258 286.766 124.099 279.571 124.099 Z" style="stroke:none;fill:#2042C6;stroke-miterlimit:10;"/></g><g><path d=" M 133.976 70.615 L 171.834 51.116 L 171.834 56.765 L 139.944 72.665 L 139.944 72.847 L 171.834 88.822 L 171.834 94.472 L 133.976 74.973 L 133.976 70.615 Z " fill="rgb(32,66,198)"/><path d=" M 177.073 97.812 L 199.852 38.588 L 205.395 38.588 L 182.616 97.812 L 177.073 97.812 Z " fill="rgb(32,66,198)"/><path d=" M 248.447 75.261 L 210.573 94.684 L 210.573 88.898 L 242.706 72.923 L 242.706 72.665 L 210.573 56.689 L 210.573 51.116 L 248.447 70.539 L 248.447 75.261 Z " fill="rgb(32,66,198)"/></g></g><g><path d="M 621.062 376.033 L 525.133 376.033 C 515.897 376.033 508.398 368.535 508.398 359.299 L 508.398 296.809 C 508.398 287.573 515.897 280.074 525.133 280.074 L 621.062 280.074 C 630.298 280.074 637.797 287.573 637.797 296.809 L 637.797 359.299 C 637.797 368.535 630.298 376.033 621.062 376.033 Z" style="stroke:none;fill:#FFFFFF;stroke-miterlimit:10;"/><g opacity="0.52"><rect x="522.764" y="304.903" width="34.624" height="2.536" transform="matrix(1,0,0,1,0,0)" fill="rgb(32,66,198)"/></g><g opacity="0.52"><rect x="522.764" y="309.808" width="21.139" height="2.384" transform="matrix(1,0,0,1,0,0)" fill="rgb(32,66,198)"/></g><g opacity="0.52"><rect x="552.422" y="309.808" width="66.499" height="2.399" transform="matrix(1,0,0,1,0,0)" fill="rgb(32,66,198)"/></g><g opacity="0.52"><rect x="533.759" y="314.743" width="29.066" height="2.521" transform="matrix(1,0,0,1,0,0)" fill="rgb(32,66,198)"/></g><g opacity="0.52"><rect x="543.083" y="319.648" width="34.624" height="2.536" transform="matrix(1,0,0,1,0,0)" fill="rgb(32,66,198)"/></g><g opacity="0.52"><rect x="579.954" y="319.648" width="29.02" height="2.825" transform="matrix(1,0,0,1,0,0)" fill="rgb(32,66,198)"/></g><g opacity="0.52"><rect x="543.022" y="324.569" width="26.742" height="2.384" transform="matrix(1,0,0,1,0,0)" fill="rgb(32,66,198)"/></g><g opacity="0.52"><rect x="572.331" y="324.569" width="55.17" height="2.642" transform="matrix(1,0,0,1,0,0)" fill="rgb(32,66,198)"/></g><g opacity="0.52"><rect x="522.764" y="331.22" width="34.624" height="2.536" transform="matrix(1,0,0,1,0,0)" fill="rgb(32,66,198)"/></g><g opacity="0.52"><rect x="522.764" y="336.125" width="21.139" height="2.384" transform="matrix(1,0,0,1,0,0)" fill="rgb(32,66,198)"/></g><g opacity="0.52"><rect x="552.422" y="336.125" width="66.499" height="2.399" transform="matrix(1,0,0,1,0,0)" fill="rgb(32,66,198)"/></g><g opacity="0.52"><rect x="533.759" y="341.045" width="29.066" height="2.521" transform="matrix(1,0,0,1,0,0)" fill="rgb(32,66,198)"/></g><g opacity="0.52"><rect x="543.083" y="345.965" width="34.624" height="2.536" transform="matrix(1,0,0,1,0,0)" fill="rgb(32,66,198)"/></g><g opacity="0.52"><rect x="579.954" y="345.965" width="29.02" height="2.825" transform="matrix(1,0,0,1,0,0)" fill="rgb(32,66,198)"/></g><g opacity="0.52"><rect x="543.022" y="350.886" width="26.742" height="2.384" transform="matrix(1,0,0,1,0,0)" fill="rgb(32,66,198)"/></g><g opacity="0.52"><rect x="572.331" y="350.886" width="55.17" height="2.642" transform="matrix(1,0,0,1,0,0)" fill="rgb(32,66,198)"/></g></g><g><path d="M 222.388 430.611 L 106.019 430.611 C 97.076 430.611 89.816 423.351 89.816 414.408 L 89.816 392.237 C 89.816 383.294 97.076 376.033 106.019 376.033 L 222.388 376.033 C 231.331 376.033 238.591 383.294 238.591 392.237 L 238.591 414.408 C 238.591 423.351 231.331 430.611 222.388 430.611 Z" style="stroke:none;fill:#FFFFFF;stroke-miterlimit:10;"/><g opacity="0.52"><rect x="112.777" y="388.061" width="34.624" height="2.536" transform="matrix(1,0,0,1,0,0)" fill="rgb(32,66,198)"/></g><g opacity="0.52"><rect x="142.434" y="392.981" width="66.499" height="2.399" transform="matrix(1,0,0,1,0,0)" fill="rgb(32,66,198)"/></g><g opacity="0.52"><rect x="123.771" y="397.901" width="29.066" height="2.521" transform="matrix(1,0,0,1,0,0)" fill="rgb(32,66,198)"/></g><g opacity="0.52"><rect x="133.095" y="402.821" width="34.624" height="2.536" transform="matrix(1,0,0,1,0,0)" fill="rgb(32,66,198)"/></g><g opacity="0.52"><rect x="169.982" y="402.821" width="29.02" height="2.825" transform="matrix(1,0,0,1,0,0)" fill="rgb(32,66,198)"/></g><g opacity="0.52"><rect x="133.05" y="407.726" width="26.742" height="2.384" transform="matrix(1,0,0,1,0,0)" fill="rgb(32,66,198)"/></g><g opacity="0.52"><rect x="162.343" y="407.726" width="55.17" height="2.642" transform="matrix(1,0,0,1,0,0)" fill="rgb(32,66,198)"/></g><g opacity="0.52"><rect x="112.777" y="414.378" width="34.624" height="2.536" transform="matrix(1,0,0,1,0,0)" fill="rgb(32,66,198)"/></g><g opacity="0.52"><rect x="142.434" y="419.298" width="66.499" height="2.399" transform="matrix(1,0,0,1,0,0)" fill="rgb(32,66,198)"/></g></g></g></g></svg>