<?xml version="1.0" encoding="UTF-8" standalone="no"?>
<!-- Generator: Gravit.io -->
<svg xmlns="http://www.w3.org/2000/svg" xmlns:xlink="http://www.w3.org/1999/xlink" style="isolation:isolate" viewBox="0 0 377.008 377.008" width="377.008pt" height="377.008pt"><defs><clipPath id="_clipPath_ZutuLBD9I8tzh4lVcADRbpLpnj3InD54"><rect width="377.008" height="377.008"/></clipPath></defs><g clip-path="url(#_clipPath_ZutuLBD9I8tzh4lVcADRbpLpnj3InD54)"><g><g opacity="0.18"><path d=" M 64.046 30.059 C 35.876 53.559 19.206 89.689 17.596 126.329 C 16.656 147.909 20.596 169.529 18.886 191.059 C 15.676 231.059 -6.874 270.729 4.366 309.219 C 15.916 348.769 59.806 370.559 100.886 373.819 C 141.966 377.079 182.836 366.719 224.006 365.179 C 246.426 364.329 268.956 366.109 291.266 363.749 C 313.576 361.389 336.326 354.369 352.346 338.669 C 368.366 322.969 375.836 300.339 375.756 278.099 C 375.676 255.859 368.516 234.099 358.326 214.369 C 347.606 193.569 333.326 174.059 328.326 151.189 C 321.326 118.979 332.786 81.069 312.326 55.189 C 299.646 39.189 278.396 33.259 258.596 28.249 C 225.676 19.939 191.996 8.209 158.276 3.779 C 141.361 1.388 124.135 2.515 107.676 7.089 C 101.386 8.859 64.046 21.579 64.046 30.059 Z " fill="rgb(32,66,198)"/></g><radialGradient id="_rgradient_0" fx="250.59" fy="72.53" cx="0.5" cy="0.5" r="42.55" gradientTransform="matrix(126.3,0,0,126.3,188.696,11.969)" gradientUnits="userSpaceOnUse"><stop offset="0%" stop-opacity="1" style="stop-color:rgb(255,255,255)"/><stop offset="100%" stop-opacity="0" style="stop-color:rgb(255,255,255)"/></radialGradient><circle vector-effect="non-scaling-stroke" cx="251.8461064365636" cy="75.11944434462782" r="63.150000000000006" fill="url(#_rgradient_0)"/><linearGradient id="_lgradient_485" x1="0.5090546030434482" y1="-2.0450643776824045" x2="0.49066997176891813" y2="-0.9683584629265163" gradientTransform="matrix(290.46,0,0,60.58,42.136,275.479)" gradientUnits="userSpaceOnUse"><stop offset="0%" stop-opacity="1" style="stop-color:rgb(0,0,0)"/><stop offset="0%" stop-opacity="1" style="stop-color:rgb(0,0,0)"/><stop offset="100%" stop-opacity="1" style="stop-color:rgb(0,0,0)"/></linearGradient><ellipse vector-effect="non-scaling-stroke" cx="187.36610643656365" cy="305.7694443446277" rx="145.23000000000002" ry="30.29000000000002" fill="url(#_lgradient_485)"/><path d=" M 251.466 307.479 C 251.755 308.465 252.292 309.361 253.026 310.079 C 253.732 310.617 254.566 310.961 255.446 311.079 C 258.446 311.599 262.446 308.529 262.056 306.879 C 261.666 305.229 262.236 299.449 261.936 297.779 C 261.867 297.032 261.671 296.301 261.356 295.619 C 260.456 294.069 258.306 293.899 256.526 294.069 C 254.156 294.309 250.466 295.069 249.736 297.689 C 248.976 300.509 250.506 304.859 251.466 307.479 Z " fill="rgb(245,187,185)"/><path d=" M 156.896 141.349 C 153.556 143.829 152.536 148.579 153.466 152.639 C 154.396 156.699 156.916 160.199 159.576 163.399 C 166.414 171.64 174.514 178.745 183.576 184.449 C 186.876 186.519 190.416 188.449 194.296 188.879 C 198.656 189.359 202.986 187.879 207.136 186.499 C 209.083 185.956 210.918 185.073 212.556 183.889 C 214.181 182.43 215.433 180.602 216.206 178.559 C 218.27 173.618 219.39 168.333 219.506 162.979 C 219.766 155.929 218.296 155.819 215.836 149.209 C 213.996 144.209 211.006 138.389 205.896 139.799 C 192.216 143.559 196.206 158.199 196.216 164.849 C 191.706 159.539 183.326 151.909 178.086 147.319 C 173.766 143.489 162.676 137.069 156.896 141.349 Z " fill="rgb(32,66,198)"/><linearGradient id="_lgradient_486" x1="0" y1="0.5" x2="0.9565341568497102" y2="0.791620312700974" gradientTransform="matrix(66.397,0,0,49.387,153.138,139.585)" gradientUnits="userSpaceOnUse"><stop offset="100%" stop-opacity="1" style="stop-color:rgb(0,0,0)"/><stop offset="100%" stop-opacity="1" style="stop-color:rgb(0,0,0)"/><stop offset="100%" stop-opacity="1" style="stop-color:rgb(0,0,0)"/></linearGradient><path d=" M 156.896 141.349 C 153.556 143.829 152.536 148.579 153.466 152.639 C 154.396 156.699 156.916 160.199 159.576 163.399 C 166.414 171.64 174.514 178.745 183.576 184.449 C 186.876 186.519 190.416 188.449 194.296 188.879 C 198.656 189.359 202.986 187.879 207.136 186.499 C 209.083 185.956 210.918 185.073 212.556 183.889 C 214.181 182.43 215.433 180.602 216.206 178.559 C 218.27 173.618 219.39 168.333 219.506 162.979 C 219.766 155.929 218.296 155.819 215.836 149.209 C 213.996 144.209 211.006 138.389 205.896 139.799 C 192.216 143.559 196.206 158.199 196.216 164.849 C 191.706 159.539 183.326 151.909 178.086 147.319 C 173.766 143.489 162.676 137.069 156.896 141.349 Z " fill="url(#_lgradient_486)"/><path d=" M 199.826 119.799 C 198.526 122.269 199.736 125.489 198.486 127.979 C 197.736 129.299 196.547 130.315 195.126 130.849 C 192.646 131.909 189.826 132.059 187.406 133.229 C 185.261 134.271 183.559 136.044 182.606 138.229 C 181.676 140.429 181.476 143.069 179.736 144.709 C 177.646 146.709 174.306 146.299 171.536 145.519 C 169.636 144.989 167.616 144.209 166.596 142.519 C 166.012 141.392 165.746 140.127 165.826 138.859 C 165.826 135.799 166.736 132.809 167.326 129.809 C 168.176 125.499 168.466 121.089 169.476 116.809 C 170.486 112.529 172.316 108.289 175.636 105.409 C 178.956 102.529 186.246 95.099 190.436 95.829 C 194.436 96.539 195.336 105.449 197.576 108.829 C 198.331 110.117 199 111.453 199.576 112.829 C 200.986 115.789 201.356 116.909 199.826 119.799 Z " fill="rgb(245,187,185)"/><path d=" M 193.426 97.379 C 192.606 100.039 189.996 101.659 187.616 103.099 C 185.236 104.539 182.666 106.269 182.036 108.979 C 181.636 110.639 182.036 112.519 181.036 113.979 C 180.714 113.237 180.26 112.56 179.696 111.979 C 179.106 111.4 178.245 111.192 177.456 111.439 C 176.64 111.876 176.149 112.745 176.196 113.669 C 176.218 115.685 177.672 117.398 179.656 117.749 C 178.503 119.417 177.757 121.332 177.476 123.339 C 177.186 125.419 177.336 127.729 176.016 129.339 C 174.553 131.02 172.031 131.261 170.276 129.889 C 169.979 130.57 169.48 131.142 168.846 131.529 C 167.156 130.649 167.196 128.299 166.846 126.429 C 166.016 121.429 161.316 117.939 159.756 113.119 C 159.074 110.51 158.901 107.794 159.246 105.119 C 159.295 102.569 159.807 100.048 160.756 97.679 C 162.441 94.435 165.233 91.901 168.626 90.539 C 171.689 89.299 174.888 88.426 178.156 87.939 C 180.842 87.292 183.573 86.848 186.326 86.609 C 191.406 86.449 194.796 92.939 193.426 97.379 Z " fill="rgb(46,46,63)"/><path d=" M 239.796 207.449 C 240.799 207.439 241.796 207.598 242.746 207.919 C 243.608 208.31 244.388 208.859 245.046 209.539 C 252.686 216.699 254.996 227.729 256.916 238.019 C 260.146 255.279 263.376 272.619 263.816 290.169 C 263.906 293.629 265.306 296.779 263.686 299.829 C 262.066 302.879 254.636 303.179 251.366 302.059 C 248.096 300.939 248.906 299.629 247.586 296.399 C 244.896 289.859 241.096 283.859 237.326 277.859 L 223.546 256.029 C 221.346 252.549 219.056 248.969 215.686 246.589 C 210.946 243.249 204.846 242.799 199.146 241.749 C 193.446 240.699 187.276 238.469 184.656 233.299 C 179.966 224.009 186.186 211.369 196.166 210.189 C 210.726 208.439 225.096 206.859 239.796 207.449 Z " fill="rgb(46,46,63)"/><linearGradient id="_lgradient_487" x1="0" y1="0.5" x2="0.35422462017063855" y2="1.4351603704525586" gradientTransform="matrix(80.961,0,0,95.527,183.064,207.324)" gradientUnits="userSpaceOnUse"><stop offset="100%" stop-opacity="1" style="stop-color:rgb(0,0,0)"/><stop offset="100%" stop-opacity="1" style="stop-color:rgb(0,0,0)"/><stop offset="100%" stop-opacity="1" style="stop-color:rgb(0,0,0)"/></linearGradient><path d=" M 239.796 207.449 C 240.799 207.439 241.796 207.598 242.746 207.919 C 243.608 208.31 244.388 208.859 245.046 209.539 C 252.686 216.699 254.996 227.729 256.916 238.019 C 260.146 255.279 263.376 272.619 263.816 290.169 C 263.906 293.629 264.566 296.629 262.946 299.689 C 261.326 302.749 256.276 303.469 252.996 302.359 C 249.716 301.249 248.906 299.629 247.586 296.359 C 244.896 289.859 241.096 283.859 237.326 277.859 L 223.546 256.029 C 221.346 252.549 219.056 248.969 215.686 246.589 C 210.946 243.249 204.846 242.799 199.146 241.749 C 193.446 240.699 187.276 238.469 184.656 233.299 C 179.966 224.009 186.186 211.369 196.166 210.189 C 210.726 208.439 225.096 206.859 239.796 207.449 Z " fill="url(#_lgradient_487)"/><path d=" M 255.976 264.069 C 256.125 265.163 256.464 266.222 256.976 267.199 C 258.366 269.569 261.346 270.549 264.106 270.599 C 265.287 270.681 266.469 270.443 267.526 269.909 C 268.751 269.12 269.611 267.875 269.916 266.449 C 270.218 265.04 270.295 263.593 270.146 262.159 C 269.967 259.078 269.586 256.011 269.006 252.979 C 268.955 252.524 268.786 252.09 268.516 251.719 C 267.866 250.969 266.666 251.199 265.716 251.489 C 263.336 252.209 257.486 252.809 255.796 254.659 C 253.896 256.769 255.976 261.569 255.976 264.069 Z " fill="rgb(245,187,185)"/><path d=" M 269.106 266.069 C 267.885 266.451 266.686 266.902 265.516 267.419 C 263.963 267.957 262.301 268.108 260.676 267.859 C 258.926 267.579 256.786 266.969 255.676 268.339 C 255.085 269.305 254.939 270.479 255.276 271.559 C 255.669 273.682 256.255 275.764 257.026 277.779 C 257.257 278.506 257.62 279.184 258.096 279.779 C 259.286 281.109 261.286 281.269 263.096 281.339 C 269.464 281.709 275.848 281.709 282.216 281.339 C 284.126 281.199 286.476 280.619 286.896 278.749 C 287.028 277.707 286.744 276.654 286.106 275.819 C 284.206 272.819 281.206 270.819 278.106 269.239 C 275.396 267.859 272.216 265.399 269.106 266.069 Z " fill="rgb(46,46,63)"/><path d=" M 261.486 305.539 C 260.441 305.863 259.416 306.247 258.416 306.689 C 257.089 307.143 255.672 307.266 254.286 307.049 C 252.796 306.809 250.966 306.289 249.996 307.459 C 249.491 308.284 249.367 309.287 249.656 310.209 C 249.995 312.017 250.494 313.79 251.146 315.509 C 251.348 316.121 251.66 316.69 252.066 317.189 C 253.066 318.319 254.786 318.459 256.306 318.519 C 261.745 318.834 267.197 318.834 272.636 318.519 C 274.266 318.399 276.266 317.899 276.636 316.309 C 276.754 315.42 276.513 314.52 275.966 313.809 C 274.232 311.356 271.869 309.415 269.126 308.189 C 266.856 307.049 264.136 304.959 261.486 305.539 Z " fill="rgb(46,46,63)"/><path d=" M 165.226 134.859 C 157.846 137.939 152.536 144.579 148.526 151.499 C 138.836 168.199 134.906 187.499 131.116 206.439 C 130.336 210.359 129.546 214.339 129.866 218.329 C 129.983 220.016 130.367 221.674 131.006 223.239 C 133.466 229.049 140.006 232.189 146.336 232.569 C 151.916 232.919 157.446 231.569 162.976 230.729 C 167.626 230.069 172.336 229.829 176.886 228.729 C 181.436 227.629 185.886 225.399 188.726 221.659 C 191.986 217.319 192.566 211.589 193.036 206.189 L 195.546 176.889 C 196.296 168.109 196.996 158.889 193.546 150.809 C 191.153 145.322 187.044 140.76 181.836 137.809 C 176.896 134.859 170.676 132.529 165.226 134.859 Z " fill="rgb(32,66,198)"/><linearGradient id="_lgradient_488" x1="0" y1="0.5" x2="0.8025218443730499" y2="-0.09662273616086603" gradientTransform="matrix(66.369,0,0,98.683,129.793,133.842)" gradientUnits="userSpaceOnUse"><stop offset="0%" stop-opacity="1" style="stop-color:rgb(0,0,0)"/><stop offset="0%" stop-opacity="1" style="stop-color:rgb(0,0,0)"/><stop offset="100%" stop-opacity="1" style="stop-color:rgb(0,0,0)"/></linearGradient><path d=" M 195.546 176.789 L 195.036 182.729 Q 194.036 194.419 193.036 206.089 C 192.686 210.089 192.286 214.189 190.806 217.819 C 190.28 219.152 189.58 220.409 188.726 221.559 C 185.916 225.299 181.436 227.489 176.886 228.629 C 172.336 229.769 167.616 230.019 162.976 230.629 C 157.436 231.419 151.916 232.819 146.336 232.469 C 140.046 232.089 133.456 228.949 130.996 223.139 C 130.365 221.572 129.984 219.915 129.866 218.229 C 129.546 214.229 130.336 210.229 131.116 206.339 C 134.906 187.409 138.836 168.099 148.526 151.399 C 152.526 144.479 157.846 137.839 165.236 134.759 C 170.686 132.479 176.896 134.829 181.856 137.659 C 187.065 140.609 191.175 145.172 193.566 150.659 C 196.996 158.859 196.296 168.009 195.546 176.789 Z " fill="url(#_lgradient_488)"/><linearGradient id="_lgradient_489" x1="0" y1="0.5" x2="0.9487850330583598" y2="0.8159223971871052" gradientTransform="matrix(20.823,0,0,61.855,174.534,160.269)" gradientUnits="userSpaceOnUse"><stop offset="100%" stop-opacity="1" style="stop-color:rgb(0,0,0)"/><stop offset="100%" stop-opacity="1" style="stop-color:rgb(0,0,0)"/><stop offset="100%" stop-opacity="1" style="stop-color:rgb(0,0,0)"/></linearGradient><path d=" M 195.346 174.239 C 195.246 177.069 195.136 179.899 195.036 182.729 Q 194.036 194.419 193.036 206.089 C 192.686 210.089 192.286 214.189 190.806 217.819 C 188.146 220.449 184.066 221.319 180.306 221.999 C 179.89 222.202 179.396 222.154 179.027 221.876 C 178.657 221.597 178.476 221.135 178.556 220.679 C 177.776 211.469 180.976 202.409 181.556 193.179 C 181.968 186.547 181.033 179.9 178.806 173.639 C 177.556 170.119 170.016 159.899 178.536 160.279 C 180.328 160.489 182.043 161.127 183.536 162.139 C 187.176 164.313 190.535 166.926 193.536 169.919 C 194.201 170.5 194.724 171.225 195.066 172.039 C 195.295 172.749 195.39 173.495 195.346 174.239 L 195.346 174.239 Z " fill="url(#_lgradient_489)"/><path d=" M 196.676 133.169 C 196.23 132.157 196.286 130.994 196.826 130.029 C 197.439 129.365 198.255 128.921 199.146 128.769 C 200.516 128.379 201.906 128.039 203.306 127.769 C 203.925 127.603 204.567 127.538 205.206 127.579 C 206.736 127.749 207.886 129.009 208.876 130.169 C 209.949 131.28 210.798 132.587 211.376 134.019 C 211.741 135.398 211.853 136.831 211.706 138.249 L 211.576 141.479 C 211.579 142.074 211.485 142.665 211.296 143.229 C 211.026 143.849 210.586 144.38 210.026 144.759 C 208.991 145.45 207.796 145.863 206.556 145.959 C 205.146 146.109 202.976 146.009 202.056 144.719 C 201.456 143.889 201.646 142.499 201.236 141.529 C 200.016 138.579 197.676 136.209 196.676 133.169 Z " fill="rgb(245,187,185)"/><path d=" M 133.066 226.509 L 132.676 226.509 L 132.896 225.149 C 131.256 239.279 135.966 256.219 151.056 260.439 C 164.056 264.069 176.526 264.159 189.056 259.989 C 199.226 256.619 208.866 249.849 216.756 242.619 C 223.566 236.379 228.826 228.619 235.816 222.619 C 237.446 225.179 239.816 226.939 241.606 229.369 C 243.836 232.369 244.086 235.689 245.296 239.069 C 246.576 242.669 248.856 245.759 250.406 249.229 C 253.556 256.229 254.896 259.549 262.936 259.559 C 265.616 259.559 266.796 260.039 268.586 258.029 C 271.506 254.739 270.396 245.479 270.206 241.549 C 269.516 227.669 267.446 213.099 262.596 200.029 C 259.916 192.819 256.596 185.719 251.156 180.209 C 243.826 172.829 235.566 175.789 227.646 180.459 C 217.996 186.159 209.386 194.679 201.366 202.549 C 198.046 205.799 195.946 208.719 191.966 211.389 C 187.556 214.389 183.256 216.669 178.566 219.209 C 165.306 226.389 147.676 226.509 133.066 226.509 Z " fill="rgb(46,46,63)"/><path d=" M 243.896 296.479 C 243.782 297.832 243.544 299.171 243.186 300.479 C 240.616 309.829 231.556 316.259 222.116 318.479 C 212.676 320.699 202.806 319.479 193.196 318.189 C 171.726 315.299 50.316 306.929 64.676 164.499 C 66.396 147.339 76.886 124.649 93.196 121.359 C 96.302 120.741 99.507 120.827 102.576 121.609 C 136.656 130.039 110.236 190.919 157.016 212.429 C 170.916 218.819 182.516 229.519 196.786 235.019 C 222.266 244.869 237.786 273.199 237.786 273.199 C 241.126 280.569 244.536 288.599 243.896 296.479 Z " fill="rgb(32,66,198)"/><path d=" M 251.556 161.009 C 254.656 163.589 255.556 167.959 255.636 172.009 C 255.73 172.852 255.536 173.701 255.086 174.419 C 254.76 174.78 254.37 175.079 253.936 175.299 C 251.626 176.659 248.936 178.059 246.396 177.229 C 244.166 176.499 242.746 174.229 240.576 173.339 C 238.786 172.599 236.576 172.809 235.136 171.479 C 234.531 170.858 234.115 170.078 233.936 169.229 C 231.266 158.439 244.736 155.349 251.556 161.009 Z " fill="rgb(245,187,185)"/><path d=" M 204.816 155.569 C 205.896 156.524 207.13 157.289 208.466 157.829 C 209.91 158.231 211.42 158.34 212.906 158.149 C 221.536 157.469 230.336 154.629 238.676 156.959 C 239.882 157.205 240.984 157.812 241.836 158.699 C 242.545 159.687 242.898 160.886 242.836 162.099 C 242.836 168.099 237.956 173.099 232.576 175.849 C 226.386 178.989 219.376 180.039 212.506 181.049 C 207.846 181.729 203.136 182.409 198.436 181.969 C 196.285 181.902 194.19 181.263 192.366 180.119 C 151.716 150.739 165.886 146.369 168.646 137.969 C 170.086 133.579 188.216 142.389 192.436 145.739 C 196.656 149.089 200.676 152.289 204.816 155.569 Z " fill="rgb(32,66,198)"/><linearGradient id="_lgradient_490" x1="0" y1="0.5" x2="0.6708649031361567" y2="-0.2415795855740065" gradientTransform="matrix(180.397,0,0,198.348,63.499,121.359)" gradientUnits="userSpaceOnUse"><stop offset="0%" stop-opacity="1" style="stop-color:rgb(0,0,0)"/><stop offset="0%" stop-opacity="1" style="stop-color:rgb(0,0,0)"/><stop offset="100%" stop-opacity="1" style="stop-color:rgb(0,0,0)"/></linearGradient><path d=" M 243.896 296.479 C 243.782 297.832 243.544 299.171 243.186 300.479 C 240.616 309.829 231.556 316.259 222.116 318.479 C 212.676 320.699 202.806 319.479 193.196 318.189 C 171.726 315.299 50.316 306.929 64.676 164.499 C 66.396 147.339 76.886 124.649 93.196 121.359 C 93.966 125.859 90.006 131.249 88.506 136.099 C 83.706 151.84 82.736 168.499 85.676 184.689 C 87.328 193.914 90.285 202.857 94.456 211.249 C 100.166 222.659 107.996 232.869 116.116 242.719 C 122.216 250.119 128.656 257.479 136.876 262.409 C 144.306 266.869 152.876 269.129 161.316 270.949 C 172.521 273.362 183.857 275.118 195.266 276.209 C 210.636 277.679 227.566 278.539 238.776 289.209 C 240.982 291.24 242.728 293.718 243.896 296.479 Z " fill="url(#_lgradient_490)"/><path d=" M 272.096 58.599 C 272.106 61.937 271.299 65.226 269.746 68.179 L 261.226 89.449 L 240.366 89.449 L 232.446 66.999 C 231.265 64.357 230.659 61.494 230.666 58.599 C 230.914 47.336 240.115 38.335 251.381 38.335 C 262.647 38.335 271.849 47.336 272.096 58.599 L 272.096 58.599 Z " fill="rgb(32,66,198)"/><g opacity="0.69"><radialGradient id="_rgradient_1" fx="287.71" fy="79.81" cx="0.5" cy="0.5" r="23.39" gradientTransform="matrix(41.43,0,0,51.115,230.666,38.335)" gradientUnits="userSpaceOnUse"><stop offset="34%" stop-opacity="1" style="stop-color:rgb(255,255,255)"/><stop offset="100%" stop-opacity="0.39" style="stop-color:rgb(255,255,255)"/></radialGradient><path d=" M 272.096 58.599 C 272.106 61.937 271.299 65.226 269.746 68.179 L 261.226 89.449 L 240.366 89.449 L 232.446 66.999 C 231.265 64.357 230.659 61.494 230.666 58.599 C 230.914 47.336 240.115 38.335 251.381 38.335 C 262.647 38.335 271.849 47.336 272.096 58.599 L 272.096 58.599 Z " fill="url(#_rgradient_1)"/></g><mask id="_mask_nUJJ4X3NHvCTqNjr0QZvydOqGFUgr586" x="-200%" y="-200%" width="400%" height="400%"><rect x="-200%" y="-200%" width="400%" height="400%" style="fill:white;"/><path d=" M 247.996 89.789 C 244.951 83.432 243.352 76.479 243.316 69.429 C 243.316 67.849 243.536 65.989 244.926 65.219 C 246.616 64.279 248.706 65.749 249.636 67.449 C 250.835 69.708 251.017 72.369 250.136 74.769 C 249.137 73.287 248.569 71.556 248.496 69.769 C 248.279 68.458 248.361 67.115 248.736 65.839 C 249.14 64.546 250.269 63.612 251.616 63.459 C 253.616 63.389 254.976 65.669 255.196 67.689 C 255.452 69.997 254.92 72.323 253.686 74.289 C 252.817 71.643 253.427 68.734 255.286 66.659 C 255.889 65.948 256.701 65.444 257.606 65.219 C 258.528 65.008 259.49 65.347 260.076 66.089 C 260.357 66.536 260.529 67.044 260.576 67.569 C 261.106 71.389 259.786 75.229 258.126 78.719 C 256.466 82.209 254.466 85.559 253.496 89.299" fill="black" stroke="none"/></mask><path d=" M 247.996 89.789 C 244.951 83.432 243.352 76.479 243.316 69.429 C 243.316 67.849 243.536 65.989 244.926 65.219 C 246.616 64.279 248.706 65.749 249.636 67.449 C 250.835 69.708 251.017 72.369 250.136 74.769 C 249.137 73.287 248.569 71.556 248.496 69.769 C 248.279 68.458 248.361 67.115 248.736 65.839 C 249.14 64.546 250.269 63.612 251.616 63.459 C 253.616 63.389 254.976 65.669 255.196 67.689 C 255.452 69.997 254.92 72.323 253.686 74.289 C 252.817 71.643 253.427 68.734 255.286 66.659 C 255.889 65.948 256.701 65.444 257.606 65.219 C 258.528 65.008 259.49 65.347 260.076 66.089 C 260.357 66.536 260.529 67.044 260.576 67.569 C 261.106 71.389 259.786 75.229 258.126 78.719 C 256.466 82.209 254.466 85.559 253.496 89.299" fill="none" mask="url(#_mask_nUJJ4X3NHvCTqNjr0QZvydOqGFUgr586)" vector-effect="non-scaling-stroke" stroke-width="1.58" stroke="rgb(255,255,255)" stroke-linejoin="miter" stroke-linecap="butt" stroke-miterlimit="10"/><path d=" M 247.996 89.789 C 244.951 83.432 243.352 76.479 243.316 69.429 C 243.316 67.849 243.536 65.989 244.926 65.219 C 246.616 64.279 248.706 65.749 249.636 67.449 C 250.835 69.708 251.017 72.369 250.136 74.769 C 249.137 73.287 248.569 71.556 248.496 69.769 C 248.279 68.458 248.361 67.115 248.736 65.839 C 249.14 64.546 250.269 63.612 251.616 63.459 C 253.616 63.389 254.976 65.669 255.196 67.689 C 255.452 69.997 254.92 72.323 253.686 74.289 C 252.817 71.643 253.427 68.734 255.286 66.659 C 255.889 65.948 256.701 65.444 257.606 65.219 C 258.528 65.008 259.49 65.347 260.076 66.089 C 260.357 66.536 260.529 67.044 260.576 67.569 C 261.106 71.389 259.786 75.229 258.126 78.719 C 256.466 82.209 254.466 85.559 253.496 89.299" fill="none"/><path d="M 241.186 89.209 L 259.956 89.209 C 261.248 89.209 262.296 90.258 262.296 91.549 L 262.296 98.059 C 262.296 99.351 261.248 100.399 259.956 100.399 L 241.186 100.399 C 239.895 100.399 238.846 99.351 238.846 98.059 L 238.846 91.549 C 238.846 90.258 239.895 89.209 241.186 89.209 Z" style="stroke:none;fill:#2042C6;stroke-miterlimit:10;"/><defs><linearGradient id="_lgradient_491" x1="0" y1="0.5" x2="1" y2="0.5"><stop offset="100%" style="stop-color:#000000"/><stop offset="100%" style="stop-color:#000000"/><stop offset="100%" style="stop-color:#000000"/></linearGradient></defs><path d="M 241.186 89.209 L 259.956 89.209 C 261.248 89.209 262.296 90.258 262.296 91.549 L 262.296 98.059 C 262.296 99.351 261.248 100.399 259.956 100.399 L 241.186 100.399 C 239.895 100.399 238.846 99.351 238.846 98.059 L 238.846 91.549 C 238.846 90.258 239.895 89.209 241.186 89.209 Z" style="stroke:none;fill:url(#_lgradient_491);stroke-miterlimit:10;"/><path d="M 239.556 92.919 L 261.856 92.919 C 262.938 92.919 263.816 93.798 263.816 94.879 L 263.816 95.019 C 263.816 96.101 262.938 96.979 261.856 96.979 L 239.556 96.979 C 238.474 96.979 237.596 96.101 237.596 95.019 L 237.596 94.879 C 237.596 93.798 238.474 92.919 239.556 92.919 Z" style="stroke:none;fill:#2042C6;stroke-miterlimit:10;"/><defs><linearGradient id="_lgradient_492" x1="0" y1="0.5" x2="1" y2="0.5"><stop offset="100%" style="stop-color:#000000"/><stop offset="100%" style="stop-color:#000000"/><stop offset="100%" style="stop-color:#000000"/></linearGradient></defs><path d="M 239.556 92.919 L 261.856 92.919 C 262.938 92.919 263.816 93.798 263.816 94.879 L 263.816 95.019 C 263.816 96.101 262.938 96.979 261.856 96.979 L 239.556 96.979 C 238.474 96.979 237.596 96.101 237.596 95.019 L 237.596 94.879 C 237.596 93.798 238.474 92.919 239.556 92.919 Z" style="stroke:none;fill:url(#_lgradient_492);stroke-miterlimit:10;"/></g></g></svg>