<?xml version="1.0" encoding="UTF-8" standalone="no"?>
<!-- Generator: Gravit.io -->
<svg xmlns="http://www.w3.org/2000/svg" xmlns:xlink="http://www.w3.org/1999/xlink" style="isolation:isolate" viewBox="0 0 377.008 377.008" width="377.008pt" height="377.008pt"><defs><clipPath id="_clipPath_JJ0xsSpQl6HVnq5L6vgHRyWK2vdvTyry"><rect width="377.008" height="377.008"/></clipPath></defs><g clip-path="url(#_clipPath_JJ0xsSpQl6HVnq5L6vgHRyWK2vdvTyry)"><g><g opacity="0.24"><path d=" M 362.73 245.888 C 362.834 251.294 361.762 256.634 360.418 261.854 C 358.632 268.943 356.174 275.845 353.077 282.466 C 351.788 285.202 350.356 287.868 348.786 290.452 C 344.288 297.962 338.696 304.603 331.842 309.785 C 315.832 321.936 295.22 324.543 275.543 325.03 C 226.436 326.309 177.538 317.088 128.416 317.377 C 106.874 317.503 85.131 319.422 63.983 315.147 C 50.466 312.414 36.97 306.648 26.366 297.552 C 20.244 292.389 15.233 286.037 11.636 278.881 C 11.089 277.787 10.586 276.694 10.133 275.601 C 6.022 265.839 4.388 255.049 3.426 244.38 C 2.644 236.044 2.251 227.435 4.787 219.515 C 7.432 211.245 13.04 204.495 18.698 198.198 C 30.459 185.048 43.02 172.635 56.309 161.029 C 65.12 153.377 74.297 145.993 81.316 136.476 C 95.839 116.799 97.347 86.589 113.996 69.158 C 126.41 56.154 153.499 49.032 169.798 52.913 C 186.327 56.854 199.943 69.606 216.259 74.432 C 235.57 80.15 256.16 74.186 276.133 75.733 C 292.767 77.097 308.591 83.493 321.5 94.072 C 327.36 98.838 332.848 104.785 334.892 112.333 C 336.706 119.078 335.613 126.261 335.242 133.273 C 333.574 164.303 346.529 193.77 357.198 222.696 C 359.948 230.168 362.61 237.859 362.73 245.888 Z " fill="rgb(32,66,198)"/></g><g><g><path d=" M 374.148 285.118 C 374.148 292.453 350.461 298.406 321.25 298.406 C 292.04 298.406 268.352 292.448 268.352 285.118 C 268.352 284.175 268.224 280.631 268.406 276.796 C 268.406 276.353 268.441 275.91 268.459 275.431 C 269.398 271.596 276.843 268.203 288.045 265.935 C 297.621 268.203 309.451 271.848 321.264 271.848 C 332.859 271.848 344.295 268.265 353.654 265.771 C 365.254 268.035 373.005 271.472 374.028 275.369 C 374.028 275.896 374.064 276.419 374.082 276.92 L 374.082 276.964 C 374.237 280.826 374.148 284.259 374.148 285.118 Z " fill="rgb(253,205,1)"/><g opacity="0.3"><linearGradient id="_lgradient_493" x1="0" y1="0.5" x2="0.1489217640864625" y2="1.4888489814837127" gradientTransform="matrix(105.865,0,0,32.634,268.308,265.771)" gradientUnits="userSpaceOnUse"><stop offset="100%" stop-opacity="1" style="stop-color:rgb(1,1,1)"/><stop offset="100%" stop-opacity="0.9914566059658521" style="stop-color:rgb(1,1,1)"/></linearGradient><path d=" M 374.148 285.118 C 374.148 292.453 350.461 298.406 321.25 298.406 C 292.04 298.406 268.352 292.448 268.352 285.118 C 268.352 284.175 268.224 280.631 268.406 276.796 C 268.406 276.353 268.441 275.91 268.459 275.431 C 269.398 271.596 276.843 268.203 288.045 265.935 C 297.621 268.203 309.451 271.848 321.264 271.848 C 332.859 271.848 344.295 268.265 353.654 265.771 C 365.254 268.035 373.005 271.472 374.028 275.369 C 374.028 275.896 374.064 276.419 374.082 276.92 L 374.082 276.964 C 374.237 280.826 374.148 284.259 374.148 285.118 Z " fill="url(#_lgradient_493)"/></g><path d=" M 374.148 276.273 C 374.15 276.491 374.125 276.708 374.073 276.92 L 374.073 276.964 C 372.664 283.966 349.539 289.543 321.25 289.543 C 292.722 289.543 269.473 283.882 268.406 276.796 C 268.37 276.624 268.353 276.449 268.352 276.273 C 268.353 275.989 268.389 275.706 268.459 275.431 C 269.398 271.596 276.843 268.203 288.045 265.935 C 297.111 264.093 308.658 262.981 321.264 262.981 C 333.475 262.981 344.712 264.031 353.654 265.771 C 365.254 268.035 373.005 271.472 374.028 275.369 C 374.112 275.663 374.152 275.968 374.148 276.273 Z " fill="rgb(253,205,1)"/><path d=" M 374.148 273.297 C 374.148 280.631 350.461 286.584 321.25 286.584 C 292.04 286.584 268.352 280.649 268.352 273.297 C 268.352 272.353 268.224 268.81 268.406 264.974 C 268.406 264.531 268.441 264.088 268.459 263.61 C 269.398 259.774 276.843 256.377 288.045 254.114 C 297.621 256.377 309.451 260.027 321.264 260.027 C 332.859 260.027 344.295 256.443 353.654 253.945 C 365.254 256.213 373.005 259.65 374.028 263.548 C 374.028 264.071 374.064 264.598 374.082 265.098 L 374.082 265.142 C 374.237 269.018 374.148 272.455 374.148 273.297 Z " fill="rgb(253,205,1)"/><g opacity="0.3"><linearGradient id="_lgradient_494" x1="0" y1="0.5" x2="0.1489020029682032" y2="1.4888519573283239" gradientTransform="matrix(105.865,0,0,32.639,268.308,253.945)" gradientUnits="userSpaceOnUse"><stop offset="100%" stop-opacity="1" style="stop-color:rgb(1,1,1)"/><stop offset="100%" stop-opacity="0.9914566059658521" style="stop-color:rgb(1,1,1)"/></linearGradient><path d=" M 374.148 273.297 C 374.148 280.631 350.461 286.584 321.25 286.584 C 292.04 286.584 268.352 280.649 268.352 273.297 C 268.352 272.353 268.224 268.81 268.406 264.974 C 268.406 264.531 268.441 264.088 268.459 263.61 C 269.398 259.774 276.843 256.377 288.045 254.114 C 297.621 256.377 309.451 260.027 321.264 260.027 C 332.859 260.027 344.295 256.443 353.654 253.945 C 365.254 256.213 373.005 259.65 374.028 263.548 C 374.028 264.071 374.064 264.598 374.082 265.098 L 374.082 265.142 C 374.237 269.018 374.148 272.455 374.148 273.297 Z " fill="url(#_lgradient_494)"/></g><path d=" M 374.148 264.469 C 374.15 264.687 374.125 264.904 374.073 265.116 L 374.073 265.16 C 372.664 272.163 349.539 277.726 321.25 277.726 C 292.722 277.726 269.473 272.07 268.406 264.983 C 268.371 264.811 268.353 264.636 268.352 264.46 C 268.353 264.176 268.389 263.894 268.459 263.619 C 269.398 259.783 276.843 256.386 288.045 254.123 C 297.111 252.28 308.658 251.168 321.264 251.168 C 333.475 251.168 344.712 252.218 353.654 253.954 C 365.254 256.222 373.005 259.659 374.028 263.557 C 374.113 263.853 374.153 264.161 374.148 264.469 L 374.148 264.469 Z " fill="rgb(253,205,1)"/><path d=" M 374.148 260.328 C 374.148 267.667 350.461 273.615 321.25 273.615 C 292.04 273.615 268.352 267.663 268.352 260.328 C 268.352 259.384 268.224 255.841 268.406 252.005 C 268.406 251.563 268.441 251.12 268.459 250.646 C 269.398 246.81 276.843 243.413 288.045 241.15 C 297.621 243.413 309.451 247.058 321.264 247.058 C 332.859 247.058 344.295 243.475 353.654 240.981 C 365.254 243.244 373.005 246.682 374.028 250.579 C 374.028 251.106 374.064 251.629 374.082 252.134 L 374.082 252.174 C 374.237 256.023 374.148 259.469 374.148 260.328 Z " fill="rgb(253,205,1)"/><g opacity="0.3"><linearGradient id="_lgradient_495" x1="0" y1="0.5" x2="0.1489217640864625" y2="1.4888489814837127" gradientTransform="matrix(105.865,0,0,32.634,268.308,240.981)" gradientUnits="userSpaceOnUse"><stop offset="100%" stop-opacity="1" style="stop-color:rgb(1,1,1)"/><stop offset="100%" stop-opacity="0.9914566059658521" style="stop-color:rgb(1,1,1)"/></linearGradient><path d=" M 374.148 260.328 C 374.148 267.667 350.461 273.615 321.25 273.615 C 292.04 273.615 268.352 267.663 268.352 260.328 C 268.352 259.384 268.224 255.841 268.406 252.005 C 268.406 251.563 268.441 251.12 268.459 250.646 C 269.398 246.81 276.843 243.413 288.045 241.15 C 297.621 243.413 309.451 247.058 321.264 247.058 C 332.859 247.058 344.295 243.475 353.654 240.981 C 365.254 243.244 373.005 246.682 374.028 250.579 C 374.028 251.106 374.064 251.629 374.082 252.134 L 374.082 252.174 C 374.237 256.023 374.148 259.469 374.148 260.328 Z " fill="url(#_lgradient_495)"/></g><path d=" M 374.148 251.483 C 374.15 251.702 374.125 251.921 374.073 252.134 L 374.073 252.174 C 372.664 259.176 349.539 264.753 321.25 264.753 C 292.722 264.753 269.473 259.092 268.406 252.005 C 268.37 251.833 268.353 251.658 268.352 251.483 C 268.353 251.2 268.388 250.919 268.459 250.646 C 269.398 246.81 276.843 243.413 288.045 241.15 C 297.111 239.303 308.658 238.191 321.264 238.191 C 333.475 238.191 344.712 239.241 353.654 240.981 C 365.254 243.244 373.005 246.682 374.028 250.579 C 374.111 250.873 374.151 251.177 374.148 251.483 Z " fill="rgb(253,205,1)"/><path d=" M 374.148 247.736 C 374.148 255.07 350.461 261.023 321.25 261.023 C 292.04 261.023 268.352 255.07 268.352 247.736 C 268.352 246.792 268.224 243.249 268.406 239.413 C 268.406 238.97 268.441 238.527 268.459 238.049 C 269.398 234.213 276.843 230.816 288.045 228.553 C 297.621 230.816 309.451 234.466 321.264 234.466 C 332.859 234.466 344.295 230.883 353.654 228.385 C 365.254 230.652 373.005 234.089 374.028 237.987 C 374.028 238.51 374.064 239.037 374.082 239.537 L 374.082 239.582 C 374.237 243.439 374.148 246.876 374.148 247.736 Z " fill="rgb(253,205,1)"/><g opacity="0.3"><linearGradient id="_lgradient_496" x1="0" y1="0.5" x2="0.1489020029682032" y2="1.4888519573283239" gradientTransform="matrix(105.865,0,0,32.639,268.308,228.385)" gradientUnits="userSpaceOnUse"><stop offset="100%" stop-opacity="1" style="stop-color:rgb(1,1,1)"/><stop offset="100%" stop-opacity="0.9914566059658521" style="stop-color:rgb(1,1,1)"/></linearGradient><path d=" M 374.148 247.736 C 374.148 255.07 350.461 261.023 321.25 261.023 C 292.04 261.023 268.352 255.07 268.352 247.736 C 268.352 246.792 268.224 243.249 268.406 239.413 C 268.406 238.97 268.441 238.527 268.459 238.049 C 269.398 234.213 276.843 230.816 288.045 228.553 C 297.621 230.816 309.451 234.466 321.264 234.466 C 332.859 234.466 344.295 230.883 353.654 228.385 C 365.254 230.652 373.005 234.089 374.028 237.987 C 374.028 238.51 374.064 239.037 374.082 239.537 L 374.082 239.582 C 374.237 243.439 374.148 246.876 374.148 247.736 Z " fill="url(#_lgradient_496)"/></g><path d=" M 374.148 238.891 C 374.15 239.108 374.125 239.326 374.073 239.537 L 374.073 239.582 C 372.664 246.584 349.539 252.156 321.25 252.156 C 292.722 252.156 269.473 246.5 268.406 239.413 C 268.371 239.241 268.353 239.066 268.352 238.891 C 268.353 238.607 268.389 238.324 268.459 238.049 C 269.398 234.213 276.843 230.816 288.045 228.553 C 297.111 226.71 308.658 225.599 321.264 225.599 C 333.475 225.599 344.712 226.648 353.654 228.385 C 365.254 230.652 373.005 234.089 374.028 237.987 C 374.112 238.281 374.152 238.585 374.148 238.891 Z " fill="rgb(253,205,1)"/><path d=" M 374.148 235.932 C 374.148 243.267 350.461 249.219 321.25 249.219 C 292.04 249.219 268.352 243.267 268.352 235.932 C 268.352 234.988 268.224 231.445 268.406 227.609 C 268.406 227.167 268.441 226.724 268.459 226.245 C 269.398 222.41 276.843 219.012 288.045 216.749 C 297.621 219.012 309.451 222.662 321.264 222.662 C 332.859 222.662 344.295 219.079 353.654 216.581 C 365.254 218.844 373.005 222.286 374.028 226.183 C 374.028 226.706 374.064 227.233 374.082 227.733 L 374.082 227.778 C 374.237 231.631 374.148 235.073 374.148 235.932 Z " fill="rgb(253,205,1)"/><g opacity="0.3"><linearGradient id="_lgradient_497" x1="0" y1="0.5" x2="0.14891382116491741" y2="1.488850177663969" gradientTransform="matrix(105.865,0,0,32.639,268.308,216.581)" gradientUnits="userSpaceOnUse"><stop offset="100%" stop-opacity="1" style="stop-color:rgb(1,1,1)"/><stop offset="100%" stop-opacity="0.991455912508544" style="stop-color:rgb(1,1,1)"/></linearGradient><path d=" M 374.148 235.932 C 374.148 243.267 350.461 249.219 321.25 249.219 C 292.04 249.219 268.352 243.267 268.352 235.932 C 268.352 234.988 268.224 231.445 268.406 227.609 C 268.406 227.167 268.441 226.724 268.459 226.245 C 269.398 222.41 276.843 219.012 288.045 216.749 C 297.621 219.012 309.451 222.662 321.264 222.662 C 332.859 222.662 344.295 219.079 353.654 216.581 C 365.254 218.844 373.005 222.286 374.028 226.183 C 374.028 226.706 374.064 227.233 374.082 227.733 L 374.082 227.778 C 374.237 231.631 374.148 235.073 374.148 235.932 Z " fill="url(#_lgradient_497)"/></g><path d=" M 374.148 227.082 C 374.15 227.302 374.125 227.52 374.073 227.733 L 374.073 227.778 C 372.664 234.776 349.539 240.352 321.25 240.352 C 292.722 240.352 269.473 234.692 268.406 227.609 C 268.37 227.436 268.353 227.259 268.352 227.082 C 268.353 226.8 268.389 226.519 268.459 226.245 C 269.398 222.41 276.843 219.012 288.045 216.749 C 297.111 214.907 308.658 213.795 321.264 213.795 C 333.475 213.795 344.712 214.84 353.654 216.581 C 365.254 218.844 373.005 222.286 374.028 226.183 C 374.111 226.476 374.152 226.778 374.148 227.082 L 374.148 227.082 Z " fill="rgb(253,205,1)"/><path d=" M 374.148 222.946 C 374.148 230.285 350.461 236.233 321.25 236.233 C 292.04 236.233 268.352 230.28 268.352 222.946 C 268.352 222.002 268.224 218.459 268.406 214.623 C 268.406 214.18 268.441 213.737 268.459 213.259 C 269.398 209.423 276.843 206.03 288.045 203.767 C 297.621 206.03 309.451 209.676 321.264 209.676 C 332.859 209.676 344.295 206.092 353.654 203.599 C 365.254 205.862 373.005 209.299 374.028 213.197 C 374.028 213.724 374.064 214.247 374.082 214.752 L 374.082 214.791 C 374.237 218.649 374.148 222.086 374.148 222.946 Z " fill="rgb(253,205,1)"/><g opacity="0.3"><linearGradient id="_lgradient_498" x1="0" y1="0.5" x2="0.1489217640864625" y2="1.4888489814837127" gradientTransform="matrix(105.865,0,0,32.634,268.308,203.599)" gradientUnits="userSpaceOnUse"><stop offset="100%" stop-opacity="1" style="stop-color:rgb(1,1,1)"/><stop offset="100%" stop-opacity="0.9914566059658521" style="stop-color:rgb(1,1,1)"/></linearGradient><path d=" M 374.148 222.946 C 374.148 230.285 350.461 236.233 321.25 236.233 C 292.04 236.233 268.352 230.28 268.352 222.946 C 268.352 222.002 268.224 218.459 268.406 214.623 C 268.406 214.18 268.441 213.737 268.459 213.259 C 269.398 209.423 276.843 206.03 288.045 203.767 C 297.621 206.03 309.451 209.676 321.264 209.676 C 332.859 209.676 344.295 206.092 353.654 203.599 C 365.254 205.862 373.005 209.299 374.028 213.197 C 374.028 213.724 374.064 214.247 374.082 214.752 L 374.082 214.791 C 374.237 218.649 374.148 222.086 374.148 222.946 Z " fill="url(#_lgradient_498)"/></g><path d=" M 374.148 214.1 C 374.15 214.32 374.125 214.538 374.073 214.752 L 374.073 214.791 C 372.664 221.794 349.539 227.37 321.25 227.37 C 292.722 227.37 269.473 221.71 268.406 214.623 C 268.37 214.451 268.353 214.276 268.352 214.1 C 268.353 213.817 268.389 213.534 268.459 213.259 C 269.398 209.423 276.843 206.03 288.045 203.767 C 297.111 201.92 308.658 200.808 321.264 200.808 C 333.475 200.808 344.712 201.858 353.654 203.599 C 365.254 205.862 373.005 209.299 374.028 213.197 C 374.111 213.491 374.151 213.795 374.148 214.1 Z " fill="rgb(253,205,1)"/><path d=" M 374.148 211.142 C 374.148 218.476 350.461 224.429 321.25 224.429 C 292.04 224.429 268.352 218.472 268.352 211.142 C 268.352 210.198 268.224 206.655 268.406 202.819 C 268.406 202.376 268.441 201.933 268.459 201.455 C 269.398 197.619 276.843 194.227 288.045 191.959 C 297.621 194.227 309.451 197.872 321.264 197.872 C 332.859 197.872 344.295 194.289 353.654 191.795 C 365.254 194.058 373.005 197.495 374.028 201.393 C 374.028 201.916 374.064 202.443 374.082 202.943 L 374.082 202.988 C 374.237 206.859 374.148 210.282 374.148 211.142 Z " fill="rgb(253,205,1)"/><g opacity="0.3"><linearGradient id="_lgradient_499" x1="0" y1="0.5" x2="0.1489217640864625" y2="1.4888489814837127" gradientTransform="matrix(105.865,0,0,32.634,268.308,191.795)" gradientUnits="userSpaceOnUse"><stop offset="100%" stop-opacity="1" style="stop-color:rgb(1,1,1)"/><stop offset="100%" stop-opacity="0.9914566059658521" style="stop-color:rgb(1,1,1)"/></linearGradient><path d=" M 374.148 211.142 C 374.148 218.476 350.461 224.429 321.25 224.429 C 292.04 224.429 268.352 218.472 268.352 211.142 C 268.352 210.198 268.224 206.655 268.406 202.819 C 268.406 202.376 268.441 201.933 268.459 201.455 C 269.398 197.619 276.843 194.227 288.045 191.959 C 297.621 194.227 309.451 197.872 321.264 197.872 C 332.859 197.872 344.295 194.289 353.654 191.795 C 365.254 194.058 373.005 197.495 374.028 201.393 C 374.028 201.916 374.064 202.443 374.082 202.943 L 374.082 202.988 C 374.237 206.859 374.148 210.282 374.148 211.142 Z " fill="url(#_lgradient_499)"/></g><path d=" M 374.148 202.297 C 374.15 202.515 374.125 202.732 374.073 202.943 L 374.073 202.988 C 372.664 209.99 349.539 215.567 321.25 215.567 C 292.722 215.567 269.473 209.906 268.406 202.819 C 268.37 202.647 268.353 202.472 268.352 202.297 C 268.353 202.013 268.389 201.73 268.459 201.455 C 269.398 197.619 276.843 194.227 288.045 191.959 C 297.111 190.116 308.658 189.005 321.264 189.005 C 333.475 189.005 344.712 190.054 353.654 191.795 C 365.254 194.058 373.005 197.495 374.028 201.393 C 374.112 201.687 374.152 201.991 374.148 202.297 L 374.148 202.297 Z " fill="rgb(253,205,1)"/><linearGradient id="_lgradient_500" x1="0" y1="0.5" x2="0.5855475791119095" y2="1.3106380404324622" gradientTransform="matrix(86.64,0,0,21.765,277.339,190.564)" gradientUnits="userSpaceOnUse"><stop offset="100%" stop-opacity="0" style="stop-color:rgb(255,255,255)"/><stop offset="100%" stop-opacity="0.0032259625465748355" style="stop-color:rgb(255,255,255)"/></linearGradient><path d=" M 363.979 201.46 C 363.981 201.638 363.961 201.817 363.921 201.991 L 363.921 202.026 C 362.769 207.745 343.83 212.329 320.657 212.329 C 297.297 212.329 278.256 207.691 277.384 201.889 C 277.353 201.744 277.338 201.595 277.339 201.446 C 277.34 201.215 277.37 200.984 277.428 200.76 C 278.199 197.619 284.293 194.838 293.466 192.982 C 300.894 191.472 310.346 190.564 320.657 190.564 C 330.662 190.564 339.862 191.423 347.188 192.845 C 356.684 194.701 363.031 197.518 363.877 200.707 C 363.946 200.951 363.981 201.205 363.979 201.46 Z " fill="url(#_lgradient_500)"/><g opacity="0.47"><linearGradient id="_lgradient_501" x1="0" y1="0.5" x2="0.5883755613712578" y2="-0.3085877805044157" gradientTransform="matrix(87.999,0,0,23.005,280.302,189.895)" gradientUnits="userSpaceOnUse"><stop offset="100%" stop-opacity="1" style="stop-color:rgb(255,255,255)"/><stop offset="100%" stop-opacity="0.9931518341100295" style="stop-color:rgb(255,255,255)"/></linearGradient><path d=" M 280.302 194.014 L 349.739 212.9 C 349.739 212.9 364.997 211.128 368.301 207.293 L 300.141 189.895 C 300.141 189.895 281.83 192.849 280.302 194.014 Z " fill="url(#_lgradient_501)"/></g></g><g><path d=" M 272.859 115.945 C 272.592 113.892 273.569 111.876 275.346 110.813 C 275.6 110.685 275.843 110.537 276.073 110.37 C 276.322 110.143 276.544 109.887 276.734 109.609 C 277.841 108.251 279.355 107.284 281.053 106.852 C 282.741 106.432 284.48 106.25 286.218 106.309 C 287.692 106.281 289.164 106.443 290.596 106.792 C 292.304 107.331 293.925 108.113 295.411 109.113 C 296.413 109.656 297.309 110.376 298.056 111.236 C 298.815 112.119 299.083 113.322 298.77 114.444 C 298.354 115.628 297.11 116.428 296.786 117.625 C 296.687 118.226 296.654 118.836 296.687 119.444 C 296.648 120.308 296.401 121.149 295.966 121.897 C 295.835 122.166 295.619 122.384 295.351 122.519 C 294.943 122.647 294.497 122.522 294.214 122.201 C 293.944 121.88 293.733 121.512 293.592 121.117 C 293.173 120.023 292.492 119.048 291.608 118.28 C 290.318 117.274 288.592 117.096 286.979 116.957 C 285.09 116.767 283.184 116.829 281.311 117.142 C 280.324 117.336 279.374 117.689 278.5 118.187 C 277.839 118.571 276.992 119.774 276.291 119.9 C 274.612 120.224 273.044 117.208 272.859 115.945 Z " fill="rgb(96,97,97)"/><path d=" M 280.603 201.893 L 278.983 200.299 L 291.892 198.904 L 293.519 200.498 L 280.603 201.893 L 280.603 201.893 Z " fill="rgb(253,205,1)"/><path d=" M 283.917 205.14 L 282.29 203.547 L 295.199 202.151 L 296.826 203.745 L 283.917 205.14 L 283.917 205.14 Z " fill="rgb(253,205,1)"/><path d=" M 275.604 139.641 C 269.222 145.282 268.626 153.847 268.104 157.762 C 267.443 162.629 267.238 167.609 268.157 172.43 C 269.076 177.252 271.179 181.947 274.671 185.393 C 274.936 185.684 275.264 185.91 275.63 186.054 C 276.43 186.312 277.263 185.803 277.945 185.3 C 279.028 184.616 279.923 183.672 280.55 182.556 C 281.873 179.718 279.691 176.603 278.421 173.753 C 275.775 167.728 277.178 160.738 279.082 154.435 C 279.955 151.558 282.713 137.121 278.857 137.545 C 277.528 137.716 277.554 137.922 275.604 139.641 Z " fill="rgb(32,66,198)"/><linearGradient id="_lgradient_502" x1="0" y1="0.5" x2="0.6770535112218062" y2="1.2359337897815426" gradientTransform="matrix(16.448,0,0,48.48,272.495,142.208)" gradientUnits="userSpaceOnUse"><stop offset="100%" stop-opacity="0" style="stop-color:rgb(1,1,1)"/><stop offset="100%" stop-opacity="0.010638543192000702" style="stop-color:rgb(1,1,1)"/></linearGradient><path d=" M 277.131 144.826 C 271.721 151.393 272.502 159.951 272.575 163.899 C 272.7 168.806 273.276 173.753 274.936 178.376 C 276.596 182.999 279.419 187.297 283.414 190.154 C 283.718 190.408 284.079 190.584 284.466 190.67 C 285.299 190.802 286.04 190.161 286.635 189.559 C 287.596 188.715 288.333 187.644 288.777 186.444 C 289.631 183.429 286.992 180.71 285.286 178.085 C 281.708 172.556 282.012 165.427 282.911 158.906 C 283.321 155.923 283.771 141.228 280.028 142.26 C 278.732 142.617 278.791 142.815 277.131 144.826 Z " fill="url(#_lgradient_502)"/><linearGradient id="_lgradient_503" x1="0" y1="0.5" x2="0.5986343376863655" y2="1.3010224277402016" gradientTransform="matrix(10.821,0,0,34.727,271.785,206.893)" gradientUnits="userSpaceOnUse"><stop offset="100%" stop-opacity="1" style="stop-color:rgb(1,1,1)"/><stop offset="100%" stop-opacity="0.9777550384837834" style="stop-color:rgb(1,1,1)"/></linearGradient><path d=" M 277.138 236.442 C 277.244 238.227 277.33 240.192 276.245 241.62 C 273.421 239.934 272.568 236.283 272.211 233.023 C 271.499 226.547 271.679 220.005 272.747 213.579 C 272.863 212.541 273.165 211.533 273.639 210.603 C 274.44 209.214 275.888 208.341 277.336 207.66 C 278.231 207.164 279.236 206.9 280.259 206.893 C 281.307 206.906 282.233 207.579 282.567 208.573 C 282.658 209.2 282.587 209.839 282.362 210.431 C 281.747 212.567 281.298 214.783 280.154 216.707 C 279.143 218.301 278.395 220.048 277.938 221.879 C 276.9 226.66 276.63 231.576 277.138 236.442 L 277.138 236.442 Z " fill="url(#_lgradient_503)"/><linearGradient id="_lgradient_504" x1="0" y1="0.5" x2="0.8456530684253151" y2="1.0337329743072368" gradientTransform="matrix(27.802,0,0,35.784,291.44,206.828)" gradientUnits="userSpaceOnUse"><stop offset="100%" stop-opacity="1" style="stop-color:rgb(1,1,1)"/><stop offset="100%" stop-opacity="0.9886630955417623" style="stop-color:rgb(1,1,1)"/></linearGradient><path d=" M 315.767 212.819 C 313.677 214.439 310.939 214.942 308.3 215.127 C 307.328 215.193 306.356 215.219 305.384 215.266 C 302.564 215.382 300.3 217.632 300.166 220.45 Q 300.047 223.479 300.047 226.502 C 300.047 231.336 300.219 236.382 298.063 240.721 C 297.62 241.627 296.905 242.592 295.894 242.612 C 295.353 242.581 294.838 242.369 294.432 242.01 C 293.137 240.929 292.241 239.447 291.886 237.798 C 291.534 236.162 291.39 234.489 291.456 232.818 C 291.456 226.416 292.011 219.888 294.505 213.989 C 294.778 213.316 295.105 212.665 295.484 212.045 C 296.998 209.644 299.643 208.116 302.401 207.415 C 305.187 206.831 308.047 206.682 310.88 206.972 C 312.202 207.058 313.578 207.171 314.927 207.243 C 315.681 207.277 318.498 206.853 319.027 207.283 C 320.145 208.189 316.574 212.217 315.767 212.819 Z " fill="url(#_lgradient_504)"/><path d=" M 259.619 209.571 C 259.321 215.934 267.456 247.579 269.228 248.763 C 270.703 249.774 273.355 248.425 274.869 247.499 C 275.167 247.288 275.379 247.116 275.59 246.99 C 276.767 246.104 274.869 221.793 274.869 221.793 C 274.869 221.793 274.281 213.533 280.054 208.725 C 286.502 203.375 293.876 198.448 293.374 194.652 C 293.33 194.087 293.097 193.553 292.712 193.137 C 289.465 189.262 271.007 192.211 267.132 195.075 C 267.064 195.122 266.994 195.164 266.92 195.2 C 266.897 195.224 266.883 195.254 266.88 195.286 C 266.794 195.372 266.669 195.538 266.457 195.749 C 266.16 196.126 265.697 196.675 265.194 197.31 C 263.825 199.2 262.601 201.189 261.53 203.262 C 260.494 205.223 259.845 207.365 259.619 209.571 Z " fill="rgb(96,97,97)"/><linearGradient id="_lgradient_505" x1="0" y1="0.5" x2="0.7229691001850099" y2="-0.19088036603863412" gradientTransform="matrix(31.83,0,0,55.238,261.517,192.288)" gradientUnits="userSpaceOnUse"><stop offset="0%" stop-opacity="0.41243734931656717" style="stop-color:rgb(1,1,1)"/><stop offset="100%" stop-opacity="0.014855088610603511" style="stop-color:rgb(1,1,1)"/></linearGradient><path d=" M 261.517 203.275 C 261.517 204.922 274.195 202.178 275.756 204.922 C 277.316 207.667 273.864 206.562 272.641 212.633 C 271.417 218.705 272.641 243.769 273.963 246.428 C 274.169 246.856 274.47 247.232 274.843 247.526 C 275.141 247.314 275.352 247.142 275.564 247.017 C 276.741 246.13 274.843 221.819 274.843 221.819 C 274.843 221.819 274.254 213.559 280.028 208.751 C 280.028 208.751 279.142 203.275 283.149 200.154 C 286.939 197.204 292.759 194.923 293.347 194.671 C 292.884 194.506 284.876 192.026 278.427 192.31 C 274.503 192.484 270.651 193.43 267.092 195.095 C 267.025 195.142 266.954 195.184 266.88 195.22 C 266.858 195.243 266.843 195.274 266.841 195.306 C 266.755 195.392 266.629 195.558 266.417 195.769 C 266.12 196.146 265.657 196.695 265.154 197.33 C 263.62 199.4 261.517 202.297 261.517 203.275 Z " fill="url(#_lgradient_505)"/><path d=" M 284.816 246.388 C 285.577 248.24 286.502 250.138 288.024 251.441 C 289.545 252.744 291.939 253.299 293.625 252.241 C 295.609 251.018 295.986 248.405 296.198 246.13 C 296.859 238.194 296.912 224.432 297.587 216.509 C 297.656 215.618 298.063 214.788 298.724 214.188 L 298.764 214.148 C 299.775 213.374 300.918 212.79 302.137 212.422 C 304.537 211.622 307.533 210.987 309.762 209.512 C 310.567 209.018 311.27 208.373 311.832 207.614 C 315.8 202.178 317.268 191.14 313.981 185.869 C 313.091 184.245 311.474 183.148 309.636 182.919 C 303.909 182.205 293.585 185.955 291.178 191.14 C 290.424 192.826 290.087 194.678 288.989 196.153 C 287.091 198.798 283.341 199.612 281.489 202.31 C 280.649 203.723 280.13 205.303 279.968 206.939 C 277.867 220.284 279.547 233.95 284.816 246.388 L 284.816 246.388 Z " fill="rgb(96,97,97)"/><linearGradient id="_lgradient_506" x1="0" y1="0.5" x2="0.9868572429200885" y2="0.3384055010337252" gradientTransform="matrix(18.394,0,0,28.868,297.391,185.869)" gradientUnits="userSpaceOnUse"><stop offset="100%" stop-opacity="0" style="stop-color:rgb(1,1,1)"/><stop offset="100%" stop-opacity="0.018123821951573114" style="stop-color:rgb(1,1,1)"/></linearGradient><path d=" M 297.673 212.296 C 297.32 213.078 297.349 213.979 297.752 214.736 C 298.089 214.571 298.413 214.36 298.724 214.188 L 298.764 214.148 C 299.862 213.559 300.999 212.971 302.137 212.422 C 303.737 211.701 305.443 211.026 307.11 210.438 C 307.996 210.147 308.882 209.849 309.755 209.512 C 310.561 209.018 311.263 208.373 311.825 207.614 C 315.793 202.178 317.262 191.14 313.975 185.869 C 310.767 186.08 307.652 187.555 304.716 188.951 C 302.99 189.791 301.264 190.591 299.617 191.596 C 298.519 192.224 296.31 193.15 298.016 194.374 C 300.377 196.02 304.888 193.111 306.7 195.769 C 307.034 196.377 307.207 197.06 307.203 197.753 C 307.288 198.765 307.374 199.817 307.454 200.875 C 307.568 201.803 307.512 202.744 307.288 203.652 C 306.77 204.805 305.918 205.775 304.842 206.437 C 302.95 207.759 300.873 208.837 299.194 210.352 C 298.565 210.895 298.048 211.555 297.673 212.296 L 297.673 212.296 Z " fill="url(#_lgradient_506)"/><path d=" M 293.863 261.632 C 293.156 262.318 292.365 262.911 291.509 263.398 L 287.819 265.686 C 286.496 266.513 284.743 267.326 283.493 266.401 C 282.369 265.561 282.462 263.848 282.905 262.519 C 283.551 260.548 284.689 258.775 286.211 257.367 C 286.533 257.112 286.804 256.801 287.012 256.447 C 287.156 256.066 287.212 255.657 287.177 255.25 L 287.144 251.461 C 287.144 247.618 292.435 248.306 294.088 250.581 C 296.211 253.385 296.277 259.073 293.863 261.632 Z " fill="rgb(96,97,97)"/><path d=" M 275.432 256.904 C 274.638 258.372 273.124 259.304 271.616 260.025 C 270.115 260.74 268.552 261.315 266.947 261.745 C 266.285 261.93 265.439 262.056 264.916 261.573 C 264.659 261.293 264.491 260.943 264.433 260.568 C 263.89 258.136 264.581 255.593 266.279 253.769 C 267.045 253.117 267.731 252.375 268.322 251.56 C 269.043 250.297 268.891 248.749 269.017 247.301 C 269.308 244.133 274.354 244.953 275.584 247.01 C 276.814 249.067 276.516 254.906 275.432 256.904 Z " fill="rgb(96,97,97)"/><path d=" M 315.132 182.807 C 315.132 184.096 315.006 185.452 314.239 186.497 C 313.555 187.282 312.697 187.896 311.733 188.289 C 307.044 190.65 302.275 193.031 297.117 194.003 C 291.959 194.976 286.264 194.38 282.085 191.199 C 280.564 190.132 279.409 188.622 278.778 186.874 C 278.117 184.738 278.566 182.443 278.679 180.214 C 278.97 174.652 277.111 169.243 275.815 163.826 C 274.519 158.41 273.831 152.471 276.291 147.478 C 278.229 143.51 274.063 140.249 277.733 137.842 C 282.885 134.463 288.943 132.823 297.395 134.079 C 300.668 134.568 311.832 139.158 313.042 142.24 C 314.252 145.322 310.721 148.463 311.137 151.744 C 312.42 161.955 315.132 172.536 315.132 182.807 Z " fill="rgb(32,66,198)"/><linearGradient id="_lgradient_507" x1="0" y1="0.5" x2="0.8934137634907227" y2="0.9492347350832782" gradientTransform="matrix(18.316,0,0,28.357,296.825,149.637)" gradientUnits="userSpaceOnUse"><stop offset="100%" stop-opacity="0" style="stop-color:rgb(1,1,1)"/><stop offset="100%" stop-opacity="0.012847938227112983" style="stop-color:rgb(1,1,1)"/></linearGradient><path d=" M 308.287 164.825 C 308.241 163.271 306.898 162.133 305.886 160.956 C 304.009 158.741 303.061 155.885 303.241 152.987 C 303.347 151.34 304.425 149.316 306.039 149.68 C 306.42 149.788 306.779 149.965 307.097 150.203 C 310.774 152.742 313.452 156.484 314.669 160.784 C 315.158 162.306 315.269 163.925 314.993 165.5 C 314.543 167.609 313.088 169.362 311.521 170.85 C 308.395 173.801 304.662 176.033 300.582 177.39 C 299.498 177.748 296.191 178.845 296.932 176.729 C 297.322 175.565 308.333 166.339 308.287 164.825 Z " fill="url(#_lgradient_507)"/><linearGradient id="_lgradient_508" x1="0" y1="0.5" x2="0.9788107449348843" y2="0.2952329967987595" gradientTransform="matrix(14.653,0,0,13.206,300.343,176.576)" gradientUnits="userSpaceOnUse"><stop offset="100%" stop-opacity="0" style="stop-color:rgb(1,1,1)"/><stop offset="100%" stop-opacity="0.022072375318669783" style="stop-color:rgb(1,1,1)"/></linearGradient><path d=" M 308.446 183.739 C 308.342 183.556 308.194 183.402 308.016 183.29 C 307.756 183.186 307.47 183.161 307.196 183.217 C 305.584 183.376 303.962 183.389 302.348 183.257 C 301.838 183.253 301.337 183.119 300.893 182.866 C 300.435 182.599 300.23 182.045 300.404 181.544 C 300.616 181.061 301.204 180.882 301.727 180.79 C 303.506 180.378 305.228 179.747 306.852 178.912 C 308.262 178.053 309.75 177.331 311.296 176.756 C 312.533 176.385 314.213 176.531 314.649 177.748 C 314.731 178.029 314.773 178.321 314.775 178.614 L 314.953 182.298 C 315.026 183.66 315.079 185.102 314.451 186.312 C 313.604 187.965 311.753 188.792 310.026 189.493 C 309.516 189.758 308.932 189.844 308.366 189.738 C 309.193 187.78 309.735 185.71 308.446 183.739 Z " fill="url(#_lgradient_508)"/><linearGradient id="_lgradient_509" x1="0" y1="0.5" x2="0.9868389347391794" y2="0.6617062672961124" gradientTransform="matrix(22.393,0,0,8.163,282.944,182.88)" gradientUnits="userSpaceOnUse"><stop offset="100%" stop-opacity="0" style="stop-color:rgb(1,1,1)"/><stop offset="100%" stop-opacity="0.02378828426999711" style="stop-color:rgb(1,1,1)"/></linearGradient><path d=" M 305.338 182.88 L 283.996 183.878 L 282.944 184.209 C 282.944 184.209 285.021 191.332 288.804 191.034 C 292.587 190.736 305.338 182.88 305.338 182.88 Z " fill="url(#_lgradient_509)"/><path d=" M 295.847 186.696 L 285.438 186.755 C 285.438 186.755 287.64 190.392 289.472 190.591 L 295.847 186.696 Z " fill="rgb(32,66,198)"/><linearGradient id="_lgradient_510" x1="0" y1="0.5" x2="0.17423853693427888" y2="1.4847034742738556" gradientTransform="matrix(10.41,0,0,3.895,285.438,186.696)" gradientUnits="userSpaceOnUse"><stop offset="100%" stop-opacity="0" style="stop-color:rgb(1,1,1)"/><stop offset="100%" stop-opacity="0.08935751943526068" style="stop-color:rgb(1,1,1)"/></linearGradient><path d=" M 295.847 186.696 L 285.438 186.755 C 285.438 186.755 287.64 190.392 289.472 190.591 L 295.847 186.696 Z " fill="url(#_lgradient_510)"/><path d=" M 315.072 143.616 C 318.567 147.49 321.631 151.732 324.212 156.267 C 326.038 159.475 327.664 163.086 327.102 166.736 C 326.613 169.911 324.497 172.688 321.924 174.58 C 319.351 176.471 316.336 177.741 313.327 178.945 L 304.306 182.602 C 303.645 182.928 302.92 183.104 302.183 183.118 C 299.888 182.999 298.922 179.811 299.868 177.734 C 300.814 175.658 302.838 174.276 304.438 172.629 C 306.217 170.797 310.694 168.363 311.389 165.91 C 311.557 165.459 311.59 164.969 311.481 164.501 C 311.286 164.04 310.974 163.639 310.575 163.337 C 305.549 158.708 298.585 150.573 299.994 143.622 C 301.799 135.104 311.124 139.244 315.072 143.616 Z " fill="rgb(32,66,198)"/><path d=" M 293.096 144.575 C 291.145 145.547 288.599 145.467 286.959 144.026 C 286.15 143.31 285.617 142.335 285.451 141.268 C 284.995 138.252 287.547 135.441 287.323 132.393 C 287.21 130.878 286.416 129.331 286.959 127.909 C 287.415 126.692 294.194 124.728 294.439 125.997 C 296.165 134.998 300.477 140.884 293.096 144.575 Z " fill="rgb(244,169,130)"/><linearGradient id="_lgradient_511" x1="0" y1="0.5" x2="0.4352536403405474" y2="1.400307874324279" gradientTransform="matrix(7.276,0,0,12.353,286.216,126.447)" gradientUnits="userSpaceOnUse"><stop offset="100%" stop-opacity="1" style="stop-color:rgb(1,1,1)"/><stop offset="100%" stop-opacity="0.9849795722182167" style="stop-color:rgb(1,1,1)"/></linearGradient><path d=" M 293.473 126.447 C 293.473 126.447 294.181 139.674 287.058 138.755 C 287.058 138.755 285.947 138.603 286.278 136.976 C 286.608 135.349 287.984 133.669 287.911 132.227 C 287.838 130.786 293.473 126.447 293.473 126.447 Z " fill="url(#_lgradient_511)"/><path d=" M 275.729 118.233 C 275.643 119.702 276.391 121.401 276.913 122.664 C 277.821 124.843 278.884 126.953 280.094 128.98 C 281.018 130.761 282.294 132.336 283.844 133.61 C 285.491 134.747 287.68 135.25 289.492 134.449 C 291.178 133.735 292.23 132.049 293.037 130.362 C 294.288 127.735 294.894 124.846 294.802 121.937 C 294.683 119.761 294.141 116.646 292.236 115.323 C 291.79 115.005 291.257 114.83 290.709 114.821 C 290.001 114.821 289.465 115.271 288.817 115.337 C 288.323 115.297 287.836 115.193 287.369 115.026 C 286.78 114.913 286.185 114.827 285.59 114.775 C 283.482 114.568 281.355 114.698 279.287 115.158 C 278.381 115.32 277.522 115.676 276.767 116.203 C 276.137 116.692 275.756 117.436 275.729 118.233 L 275.729 118.233 Z " fill="rgb(244,169,130)"/><path d=" M 288.275 181.233 C 287.562 182.521 287.308 184.014 287.554 185.465 C 287.56 185.747 287.63 186.022 287.759 186.272 C 287.965 186.565 288.267 186.776 288.612 186.867 C 291.152 187.734 293.704 185.492 296.383 185.36 C 297.044 185.36 297.706 185.426 298.367 185.36 C 299.216 185.182 300.019 184.834 300.728 184.335 C 301.502 183.852 302.256 183.343 302.996 182.813 C 304.789 181.491 304.015 179.203 302.54 177.966 C 301.217 176.848 300.146 177.033 298.631 177.569 C 295.523 178.66 290.312 178.131 288.275 181.233 Z " fill="rgb(244,169,130)"/><path d=" M 272.27 181.683 C 271.719 181.987 271.446 182.628 271.609 183.237 C 271.803 184.972 272.441 186.628 273.461 188.045 C 273.84 188.701 274.467 189.177 275.2 189.367 C 276.523 189.546 277.462 188.19 278.685 187.688 C 279.909 187.185 281.542 187.608 282.687 186.841 C 283.612 186.226 283.936 185.016 284.009 183.905 C 284.175 181.709 280.702 180.221 278.844 179.758 C 276.622 179.183 274.023 180.4 272.27 181.683 Z " fill="rgb(244,169,130)"/><path d=" M 294.716 119.424 C 294.891 119.34 295.085 119.304 295.278 119.318 C 295.591 119.372 295.856 119.577 295.986 119.867 C 296.107 120.153 296.165 120.462 296.158 120.773 C 296.173 121.235 296.13 121.697 296.032 122.148 C 295.919 123.008 295.338 123.734 294.525 124.033 C 293.763 124.174 293.019 123.717 292.798 122.975 C 292.441 121.679 293.539 119.92 294.716 119.424 Z " fill="rgb(244,169,130)"/><linearGradient id="_lgradient_512" x1="0" y1="0.5" x2="0.9737214398904501" y2="0.7277423050240523" gradientTransform="matrix(1.588,0,0,2.673,293.879,120.323)" gradientUnits="userSpaceOnUse"><stop offset="100%" stop-opacity="1" style="stop-color:rgb(1,1,1)"/><stop offset="100%" stop-opacity="0.9037813913210829" style="stop-color:rgb(1,1,1)"/></linearGradient><path d=" M 294.32 121.785 C 294.452 121.547 294.28 121.249 294.32 120.985 C 294.359 120.72 294.683 120.469 295.06 120.323 C 295.113 120.333 295.157 120.368 295.179 120.416 C 295.49 120.952 295.553 121.596 295.351 122.182 C 295.3 122.4 295.196 122.602 295.047 122.77 C 294.897 122.942 294.67 123.024 294.445 122.988 C 294.168 122.901 293.958 122.675 293.89 122.393 C 293.817 121.937 294.141 122.109 294.32 121.785 Z " fill="url(#_lgradient_512)"/><path d=" M 305.338 182.88 L 305.748 186.385 L 288.44 195.167 L 260.241 194.361 L 244.851 173.859 C 244.587 173.513 244.535 173.05 244.715 172.653 C 244.894 172.257 245.277 171.991 245.711 171.961 L 276.754 169.666 L 286.86 190.75 L 288.804 191.008 L 305.338 182.88 Z " fill="rgb(32,66,198)"/><g opacity="0.41"><linearGradient id="_lgradient_513" x1="0" y1="0.5" x2="0.9033451103545546" y2="0.0710855427960983" gradientTransform="matrix(60.914,0,0,25.44,244.741,169.734)" gradientUnits="userSpaceOnUse"><stop offset="100%" stop-opacity="1" style="stop-color:rgb(255,255,255)"/><stop offset="100%" stop-opacity="0.01839300330154408" style="stop-color:rgb(255,255,255)"/></linearGradient><path d=" M 305.642 185.505 C 305.72 186.052 305.437 186.586 304.941 186.828 L 288.744 195.022 C 288.549 195.118 288.334 195.17 288.116 195.174 L 260.856 194.4 C 260.459 194.392 260.089 194.199 259.857 193.878 L 244.983 174.037 C 244.715 173.657 244.665 173.164 244.854 172.738 C 245.042 172.313 245.441 172.017 245.903 171.961 L 275.861 169.739 C 276.089 169.718 276.319 169.761 276.523 169.864 C 276.804 169.971 277.029 170.188 277.144 170.466 L 286.886 190.763 L 288.804 191.008 L 305.338 182.873 L 305.642 185.505 Z " fill="url(#_lgradient_513)"/></g><g opacity="0.46"><linearGradient id="_lgradient_514" x1="0" y1="0.5" x2="0.7401400718775428" y2="-0.17245272993802752" gradientTransform="matrix(31.526,0,0,25.198,274.241,169.897)" gradientUnits="userSpaceOnUse"><stop offset="100%" stop-opacity="1" style="stop-color:rgb(255,255,255)"/><stop offset="100%" stop-opacity="0.032884460448215184" style="stop-color:rgb(0,0,0)"/></linearGradient><path d=" M 305.767 186.378 L 304.967 186.801 C 301.852 188.501 290.464 194.618 288.771 195.015 C 286.787 195.491 285.226 193.693 285.226 193.693 L 274.241 171.749 L 276.536 169.897 C 276.817 170.004 277.042 170.222 277.158 170.499 L 286.899 190.796 L 288.817 191.041 L 305.351 182.906 L 305.648 185.551 L 305.767 186.378 Z " fill="url(#_lgradient_514)"/></g><path d=" M 291.668 121.54 C 291.668 122.115 291.668 122.803 292.157 123.101 C 292.97 122.129 292.924 120.608 293.83 119.721 C 294.26 119.305 294.875 119.06 295.153 118.518 C 295.261 118.258 295.31 117.978 295.298 117.698 C 295.238 116.127 294.47 114.668 293.208 113.73 C 292.746 113.377 292.211 113.133 291.641 113.015 C 290.444 112.777 288.658 113.829 288.996 115.244 C 289.148 115.905 289.862 116.434 290.232 116.977 C 290.647 117.594 290.979 118.263 291.218 118.967 C 291.51 119.794 291.662 120.663 291.668 121.54 L 291.668 121.54 Z " fill="rgb(96,97,97)"/></g></g><g opacity="0.3"><linearGradient id="_lgradient_515" x1="0.440002645511815" y1="2.623144464530128" x2="0.8538234565963359" y2="1.4125013146768108" gradientTransform="matrix(165.165,0,0,15.257,39.959,290.452)" gradientUnits="userSpaceOnUse"><stop offset="0%" stop-opacity="0" style="stop-color:rgb(1,1,1)"/><stop offset="95%" stop-opacity="1" style="stop-color:rgb(1,1,1)"/></linearGradient><path d=" M 176.39 291.233 C 130.889 289.292 85.324 291.344 40.099 297.371 C 39.433 300.188 41.231 303.151 43.529 304.429 C 45.827 305.706 48.497 305.723 51.059 305.706 L 114.631 305.31 C 134.576 305.188 154.525 305.065 174.436 303.72 C 184.89 303.017 195.551 301.912 205.124 297.081 C 203.209 292.327 197.672 291.546 193.082 291.428 L 154.579 290.452" fill="url(#_lgradient_515)"/></g><g><path d=" M 231.935 286.575 C 231.935 293.595 205.636 299.313 173.193 299.313 C 140.751 299.313 114.452 293.615 114.452 286.575 C 114.452 285.673 114.315 282.283 114.516 278.609 C 114.516 278.168 114.555 277.747 114.574 277.306 C 115.618 273.636 123.883 270.383 136.322 268.218 C 146.953 270.408 160.093 273.886 173.218 273.886 C 186.098 273.886 198.797 270.457 209.188 268.066 C 222.068 270.236 230.676 273.523 231.817 277.257 C 231.817 277.747 231.856 278.236 231.881 278.726 L 231.881 278.766 C 232.033 282.474 231.935 285.762 231.935 286.575 Z " fill="rgb(0,111,0)"/><path d=" M 231.935 278.119 C 231.936 278.329 231.91 278.538 231.856 278.741 L 231.856 278.78 C 230.289 285.482 204.612 290.818 173.193 290.818 C 141.515 290.818 115.696 285.399 114.516 278.619 C 114.473 278.459 114.452 278.294 114.452 278.129 C 114.454 277.856 114.495 277.586 114.574 277.325 C 115.618 273.656 123.883 270.403 136.322 268.237 C 146.39 266.473 159.211 265.41 173.193 265.41 C 186.754 265.41 199.233 266.415 209.163 268.075 C 222.043 270.246 230.651 273.533 231.793 277.266 C 231.889 277.54 231.937 277.829 231.935 278.119 Z " fill="rgb(0,185,0)"/><path d=" M 101.778 141.647 C 102.291 143.105 102.628 144.62 102.782 146.159 C 102.935 147.722 102.52 149.287 101.611 150.568 C 100.372 152.17 98.182 152.841 96.158 152.528 C 94.149 152.154 92.319 151.13 90.95 149.613 C 88.153 146.673 86.84 142.107 88.604 138.472 C 88.954 137.713 89.454 137.034 90.074 136.473 C 91.018 135.713 92.141 135.207 93.336 135.003 C 95.257 134.611 98.446 134.587 99.955 136.125 C 100.445 136.615 100.489 137.213 100.646 137.865 C 100.964 139.138 101.391 140.388 101.778 141.647 Z " fill="none"/><path d=" M 61.688 149.334 C 61.688 149.334 53.016 159.054 52.506 160.249 C 47.607 171.733 58.807 206.076 59.218 208.54 C 59.63 211.005 73.201 210.187 78.957 208.54 C 82.792 207.387 86.509 205.873 90.059 204.018 C 90.059 204.018 83.435 151.328 82.22 150.504 C 82.22 150.504 72.044 148.966 72.044 148.966 L 61.688 149.334 Z " fill="rgb(32,66,198)"/><linearGradient id="_lgradient_516" x1="0" y1="0.5" x2="0.9776073274554605" y2="0.7104374332322838" gradientTransform="matrix(40.946,0,0,39.045,52.004,165.56)" gradientUnits="userSpaceOnUse"><stop offset="100%" stop-opacity="0" style="stop-color:rgb(1,1,1)"/><stop offset="100%" stop-opacity="0.002351040982170882" style="stop-color:rgb(1,1,1)"/></linearGradient><path d=" M 83.994 200.604 C 82.083 198.727 79.001 199.085 76.331 199.296 C 72.03 199.634 67.709 199.242 63.417 198.845 C 61.212 198.644 58.875 198.394 57.121 197.042 C 54.799 195.254 54.153 192.079 53.663 189.203 L 52.193 180.561 C 52.021 179.527 51.85 178.435 52.242 177.47 C 58.144 186.738 68.057 192.694 79.011 193.554 C 80.06 191.824 79.403 189.634 78.972 187.675 C 78.203 184.138 78.262 180.478 78.551 176.867 C 78.732 174.604 79.016 172.306 79.927 170.229 C 80.839 168.151 82.46 166.28 84.616 165.56 C 85.566 169.788 86.522 174.03 88.045 178.092 C 89.515 182.075 91.519 185.872 92.572 189.987 C 92.93 191.16 93.035 192.396 92.881 193.613 C 92.655 194.877 91.97 195.998 91.46 197.179 C 90.926 198.406 90.578 199.705 90.426 201.035 C 90.26 202.534 89.936 204.861 87.918 204.582 C 86.012 204.268 85.174 201.77 83.994 200.604 Z " fill="url(#_lgradient_516)"/><path d=" M 94.767 289.137 C 94.767 289.137 96.506 295.697 97.319 296.177 C 97.319 296.177 103.586 296.221 103.894 294.218 C 103.968 293.757 103.262 289.98 103.262 289.98 L 102.973 288.216 L 94.767 289.137 Z " fill="rgb(197,128,103)"/><path d=" M 51.091 285.972 C 51.091 285.972 47.921 294.894 48.234 295.771 C 48.234 295.771 52.433 295.364 54.461 295.491 C 54.461 295.491 57.273 292.478 57.273 292.478 L 57.994 290.484 L 51.091 285.972 Z " fill="rgb(197,128,103)"/><path d=" M 60.864 144.4 C 60.864 144.4 62.099 149.745 61.688 151.803 C 61.688 151.803 64.563 159.612 68.679 159.612 C 72.794 159.612 72.784 152.626 72.784 151.803 C 72.784 150.98 71.55 150.568 71.961 148.515 C 72.373 146.463 61.276 141.936 60.864 144.4 Z " fill="rgb(197,128,103)"/><path d=" M 71.966 148.515 C 71.648 150.103 72.309 150.71 72.627 151.279 C 71.724 152.181 70.518 152.715 69.242 152.778 C 66.793 152.778 63.074 150.725 61.403 147.021 C 61.374 146.957 61.35 146.884 61.32 146.815 C 61.085 145.458 60.83 144.4 60.83 144.4 C 61.276 141.936 72.378 146.458 71.966 148.515 Z " fill="rgb(182,118,94)"/><path d=" M 61.766 151.034 C 61.766 151.034 65.078 158.794 67.905 159.612 C 67.905 159.612 68.679 160.024 66.621 161.258 C 64.563 162.493 58.807 156.325 59.63 151.803 C 59.807 150.63 60.583 149.634 61.678 149.177 L 61.766 151.034 Z " fill="rgb(255,255,255)"/><path d=" M 71.966 149.334 C 71.966 149.334 72.877 155.041 70.57 158.97 C 70.57 158.97 71.55 160.44 72.378 160.44 C 73.206 160.44 75.253 155.507 74.43 151.808 C 73.95 149.642 72.378 148.746 71.966 149.334 Z " fill="rgb(255,255,255)"/><path d=" M 59.218 208.54 L 63.716 244.305 L 49.729 290.553 C 49.729 290.553 52.301 291.974 57.646 291.562 L 76.63 245.833 L 76.9 216.766 L 83.073 241.845 L 94.894 290.739 C 94.894 290.739 100.906 292.062 104.448 289.514 L 96.638 241.845 L 90.064 204.018 L 59.218 208.54 Z " fill="rgb(96,97,97)"/><linearGradient id="_lgradient_517" x1="0" y1="0.5" x2="0.8454310889280995" y2="-0.03408451941040935" gradientTransform="matrix(54.719,0,0,87.619,49.729,204.018)" gradientUnits="userSpaceOnUse"><stop offset="0%" stop-opacity="0.6343689699465873" style="stop-color:rgb(1,1,1)"/><stop offset="100%" stop-opacity="0.008376156433097538" style="stop-color:rgb(1,1,1)"/></linearGradient><path d=" M 59.218 208.54 L 63.716 244.305 L 49.729 290.553 C 49.729 290.553 52.301 291.974 57.646 291.562 L 76.63 245.833 L 76.9 216.766 L 83.073 241.845 L 94.894 290.739 C 94.894 290.739 100.906 292.062 104.448 289.514 L 96.638 241.845 L 90.064 204.018 L 59.218 208.54 Z " fill="url(#_lgradient_517)"/><path d=" M 74.43 132.48 C 74.43 132.48 75.253 143.17 74.43 146.046 C 74.43 146.046 71.143 151.391 68.679 151.391 C 68.679 151.391 62.511 149.334 60.84 145.635 C 60.84 145.635 58.39 132.897 58.782 131.657 C 58.782 131.657 61.678 126.538 68.243 127.135 C 72.784 127.542 74.43 130.834 74.43 132.48 Z " fill="rgb(197,128,103)"/><path d=" M 59.307 137.747 C 59.684 138.59 60.992 138.629 61.653 137.987 C 62.315 137.345 62.442 136.321 62.324 135.405 C 62.207 134.489 61.898 133.602 61.835 132.681 C 61.767 132.469 61.822 132.237 61.976 132.077 C 62.13 131.916 62.36 131.853 62.574 131.912 C 63.814 131.951 65.274 132.441 66.141 131.554 C 66.66 131.03 66.812 130.114 67.508 129.864 C 68.081 129.653 68.684 130.041 69.227 130.32 C 70.521 130.984 72.019 131.13 73.416 130.726 C 74.2 130.496 75.008 128.556 75.234 127.733 C 75.64 126.317 75.134 124.797 73.96 123.907 C 72.828 123.147 71.373 123.128 70.041 123.138 L 64.652 123.167 C 63.264 123.111 61.876 123.25 60.526 123.578 C 57.113 124.692 54.938 128.036 55.304 131.608 C 55.397 132.343 55.598 133.132 55.26 133.793 C 55.022 134.149 54.746 134.478 54.437 134.773 C 53.173 136.243 53.55 138.536 54.437 140.275 C 55.323 142.014 56.627 143.553 57.161 145.424 C 57.464 146.507 57.651 147.874 58.719 148.261 C 59.573 148.481 60.465 148.072 60.855 147.281 C 61.222 146.506 61.335 145.635 61.178 144.792" fill="rgb(96,97,97)"/><path d=" M 60.688 139.408 C 60.688 139.408 60.277 136.958 58.63 137.767 C 58.63 137.767 59.042 143.112 59.865 143.523 C 60.234 143.748 60.658 143.868 61.09 143.871" fill="rgb(197,128,103)"/><path d=" M 76.214 151.847 C 76.214 151.847 78.389 150.421 80.442 150.475 C 80.442 150.475 104.1 155.022 106.559 158.539 C 106.559 158.539 108.735 167.265 107.324 167.72 C 107.324 167.72 98.574 165.329 97.035 164.634 C 97.035 164.634 82.661 162.321 82.661 162.321 L 76.214 151.847 Z " fill="rgb(32,66,198)"/><path d=" M 105.227 167.495 L 89.549 145.14 C 89.549 145.14 90.843 140.647 96.33 141.338 C 96.33 141.338 106.162 152.268 110.327 162.473 C 112.105 166.883 105.937 168.617 105.227 167.495 Z " fill="rgb(32,66,198)"/><circle vector-effect="non-scaling-stroke" cx="130.26654914827134" cy="173.70710445145704" r="49.14387239718678" fill="rgb(0,185,0)"/><linearGradient id="_lgradient_518" x1="-0.1380288347908296" y1="-0.845958402268967" x2="1.8512172063341998" y2="3.3505672417868197" gradientTransform="matrix(82.914,0,0,82.914,88.471,132.147)" gradientUnits="userSpaceOnUse"><stop offset="0%" stop-opacity="0" style="stop-color:rgb(255,255,255)"/><stop offset="95%" stop-opacity="1" style="stop-color:rgb(255,255,255)"/></linearGradient><circle vector-effect="non-scaling-stroke" cx="129.9285043675511" cy="173.60422125732487" r="41.45702803558913" fill="url(#_lgradient_518)"/><path d=" M 84.969 195.278 C 90.025 196.185 96.026 197.444 100.396 194 C 100.513 193.916 100.617 193.815 100.705 193.701 C 100.819 193.517 100.886 193.309 100.901 193.093 C 101.022 192.114 100.733 191.128 100.102 190.369 C 99.549 189.772 98.657 189.576 97.883 189.34 C 96.06 188.813 94.204 188.407 92.327 188.125 C 89.353 187.636 84.42 189.394 84.42 189.394 C 84.42 189.394 81.549 193.044 84.969 195.278 Z " fill="rgb(197,128,103)"/><path d=" M 51.943 161.19 C 51.943 161.19 55.466 162.365 56.7 164.012 C 56.7 164.012 67.802 185.392 66.567 189.487 C 66.567 189.487 61.203 196.346 59.836 195.778 C 54.447 193.515 51.566 176.99 51.566 176.99 L 51.943 161.19 Z " fill="rgb(32,66,198)"/><path d=" M 61.026 185.862 L 86.992 188.419 C 86.992 188.419 89.838 192.133 86.012 196.136 C 86.012 196.136 70.825 198.561 60.125 195.856 C 55.544 194.69 59.689 185.769 61.026 185.862 Z " fill="rgb(32,66,198)"/><path d=" M 89.118 141.72 C 88.658 141.957 88.267 142.308 87.982 142.739 C 87.639 143.386 87.815 144.175 88.011 144.885 C 88.142 145.534 88.426 146.142 88.839 146.659 C 89.184 146.992 89.583 147.266 90.02 147.467 C 90.463 147.778 91.006 147.912 91.543 147.844 C 92.018 147.666 92.388 147.285 92.553 146.806 C 92.753 146.345 92.856 145.826 93.096 145.409 C 93.655 144.429 94.865 143.846 95.281 142.778 C 95.435 142.328 95.487 141.85 95.433 141.377 C 95.365 140.397 94.909 139.222 93.924 139.04 C 93.552 138.988 93.173 139.045 92.832 139.202 C 91.553 139.716 90.309 140.976 89.118 141.72 Z " fill="rgb(197,128,103)"/><linearGradient id="_lgradient_519" x1="0" y1="0.5" x2="0.36227667690012283" y2="-0.43207060321319224" gradientTransform="matrix(9.568,0,0,14.732,61.884,172.002)" gradientUnits="userSpaceOnUse"><stop offset="0%" stop-opacity="0" style="stop-color:rgb(1,1,1)"/></linearGradient><path d=" M 64.946 184.618 C 65.044 185.136 65.283 185.617 65.636 186.009 C 66.187 186.403 66.857 186.595 67.532 186.553 L 71.452 186.734 C 66.68 182.903 64.441 177.357 61.884 172.002 C 62.643 176.25 63.77 180.468 64.946 184.618 Z " fill="url(#_lgradient_519)"/><path d=" M 46.637 296.662 C 46.253 297.366 45.991 298.13 45.863 298.921 C 45.594 301.321 47.544 303.438 49.675 304.579 C 51.204 305.486 52.99 305.863 54.755 305.652 C 56.494 305.363 58.141 304.124 58.537 302.404 C 58.861 301.028 58.376 299.602 57.891 298.274 L 56.842 295.393 C 56.774 295.117 56.62 294.87 56.401 294.688 C 56.181 294.574 55.933 294.525 55.686 294.546 C 53.761 294.516 51.615 294.223 49.709 294.463 C 48.989 294.556 48.646 294.428 48.019 294.81 C 47.71 294.982 46.72 296.662 46.637 296.662 Z " fill="rgb(96,97,97)"/><path d=" M 117.925 298.999 C 118.148 299.179 118.27 299.454 118.254 299.739 C 118.156 300.136 117.558 300.332 117.034 300.454 C 111.689 301.679 105.952 301.468 100.377 301.243 C 99.598 301.257 98.823 301.133 98.089 300.876 C 97.134 300.405 96.508 299.455 96.452 298.392 C 96.409 297.815 96.334 297.241 96.227 296.672 C 96.124 296.226 96.506 295.78 97.099 295.648 C 98.662 295.203 100.195 294.659 101.69 294.022 C 103.566 293.37 104.81 293.605 106.745 294.056 C 110.851 295.016 115.446 296.246 117.925 298.999 Z " fill="rgb(96,97,97)"/><linearGradient id="_lgradient_520" x1="0" y1="0.5" x2="0.3698471695521227" y2="1.4290926063500256" gradientTransform="matrix(73.047,0,0,86.985,99.975,126.17)" gradientUnits="userSpaceOnUse"><stop offset="0%" stop-opacity="0.005750148049091686" style="stop-color:rgb(255,255,255)"/><stop offset="100%" stop-opacity="0.0012779928355721646" style="stop-color:rgb(255,255,255)"/></linearGradient><path d=" M 99.975 136.12 L 158.324 213.155 C 158.324 213.155 168.867 207.129 173.022 198.095 L 117.274 126.17" fill="url(#_lgradient_520)"/><path d=" M 231.935 275.307 C 231.935 282.327 205.636 288.045 173.193 288.045 C 140.751 288.045 114.452 282.347 114.452 275.307 C 114.452 274.405 114.315 271.015 114.516 267.341 C 114.516 266.9 114.555 266.478 114.574 266.037 C 115.618 262.368 123.883 259.115 136.322 256.949 C 146.953 259.095 160.093 262.569 173.218 262.569 C 186.098 262.569 198.797 259.139 209.188 256.749 C 222.068 258.919 230.676 262.206 231.817 265.939 C 231.817 266.429 231.856 266.944 231.881 267.409 L 231.881 267.468 C 232.033 271.177 231.935 274.464 231.935 275.307 Z " fill="rgb(0,111,0)"/><path d=" M 231.935 266.821 C 231.936 267.031 231.91 267.241 231.856 267.443 L 231.856 267.468 C 230.289 274.17 204.612 279.505 173.193 279.505 C 141.515 279.505 115.696 274.087 114.516 267.306 C 114.473 267.146 114.452 266.982 114.452 266.816 C 114.454 266.544 114.495 266.274 114.574 266.013 C 115.618 262.343 123.883 259.09 136.322 256.925 C 146.39 255.161 159.211 254.098 173.193 254.098 C 186.754 254.098 199.233 255.078 209.163 256.763 C 222.043 258.934 230.651 262.221 231.793 265.954 C 231.89 266.233 231.938 266.526 231.935 266.821 L 231.935 266.821 Z " fill="rgb(0,185,0)"/><path d=" M 231.935 262.863 C 231.935 269.883 205.636 275.601 173.193 275.601 C 140.751 275.601 114.452 269.903 114.452 262.863 C 114.452 261.956 114.315 258.566 114.516 254.897 C 114.516 254.456 114.555 254.034 114.574 253.593 C 115.618 249.919 123.883 246.671 136.322 244.505 C 146.953 246.671 160.093 250.164 173.193 250.164 C 186.073 250.164 198.772 246.735 209.163 244.344 C 222.043 246.509 230.651 249.801 231.793 253.53 C 231.793 254.02 231.832 254.534 231.856 255 L 231.856 255.044 C 232.033 258.747 231.935 262.04 231.935 262.863 Z " fill="rgb(0,111,0)"/><path d=" M 231.935 254.397 C 231.936 254.605 231.91 254.813 231.856 255.014 L 231.856 255.058 C 230.289 261.756 204.612 267.096 173.193 267.096 C 141.515 267.096 115.696 261.677 114.516 254.897 C 114.474 254.737 114.452 254.572 114.452 254.407 C 114.454 254.134 114.495 253.864 114.574 253.603 C 115.618 249.929 123.883 246.681 136.322 244.515 C 146.39 242.747 159.211 241.683 173.193 241.683 C 186.754 241.683 199.233 242.663 209.163 244.354 C 222.043 246.519 230.651 249.811 231.793 253.54 C 231.889 253.815 231.937 254.105 231.935 254.397 Z " fill="rgb(0,185,0)"/><path d=" M 231.935 251.565 C 231.935 258.586 205.636 264.303 173.193 264.303 C 140.751 264.303 114.452 258.605 114.452 251.565 C 114.452 250.659 114.315 247.269 114.516 243.599 C 114.516 243.158 114.555 242.737 114.574 242.296 C 115.618 238.621 123.883 235.373 136.322 233.208 C 146.953 235.373 160.093 238.866 173.193 238.866 C 186.073 238.866 198.772 235.437 209.163 233.046 C 222.043 235.212 230.651 238.504 231.793 242.237 C 231.793 242.727 231.832 243.217 231.856 243.707 L 231.856 243.746 C 232.033 247.45 231.935 250.742 231.935 251.565 Z " fill="rgb(0,111,0)"/><path d=" M 231.935 243.099 C 231.936 243.309 231.91 243.519 231.856 243.722 L 231.856 243.761 C 230.976 247.522 222.493 250.854 209.661 253.054 C 199.641 254.771 186.969 255.798 173.193 255.798 C 141.515 255.798 115.696 250.38 114.516 243.599 C 114.474 243.439 114.452 243.275 114.452 243.109 C 114.454 242.837 114.495 242.566 114.574 242.306 C 115.618 238.631 123.883 235.383 136.322 233.218 C 146.39 231.454 159.211 230.386 173.193 230.386 C 186.754 230.386 199.233 231.366 209.163 233.056 C 222.043 235.221 230.651 238.514 231.793 242.247 C 231.889 242.521 231.937 242.809 231.935 243.099 Z " fill="rgb(0,185,0)"/><g opacity="0.33"><linearGradient id="_lgradient_521" x1="0" y1="0.5" x2="0.6426258741211539" y2="1.2661801262823402" gradientTransform="matrix(96.211,0,0,20.817,124.432,231.865)" gradientUnits="userSpaceOnUse"><stop offset="100%" stop-opacity="1" style="stop-color:rgb(255,255,255)"/><stop offset="100%" stop-opacity="0.003525104915935061" style="stop-color:rgb(255,255,255)"/></linearGradient><path d=" M 220.642 242.301 C 220.643 242.466 220.621 242.631 220.578 242.791 L 220.578 242.825 C 219.295 248.312 198.267 252.682 172.537 252.682 C 146.596 252.682 125.451 248.248 124.481 242.693 C 124.45 242.559 124.433 242.423 124.432 242.286 C 124.433 242.062 124.466 241.839 124.53 241.625 C 125.387 238.621 132.153 235.956 142.343 234.183 C 150.588 232.738 161.087 231.865 172.537 231.865 C 183.643 231.865 193.863 232.689 201.996 234.051 C 212.544 235.829 219.594 238.524 220.529 241.576 C 220.609 241.809 220.647 242.054 220.642 242.301 Z " fill="url(#_lgradient_521)"/></g><g opacity="0.47"><linearGradient id="_lgradient_522" x1="0" y1="0.5" x2="0.6445949472479141" y2="-0.26452426644447247" gradientTransform="matrix(97.719,0,0,22.046,127.724,231.214)" gradientUnits="userSpaceOnUse"><stop offset="100%" stop-opacity="1" style="stop-color:rgb(255,255,255)"/><stop offset="100%" stop-opacity="0.9910929803778358" style="stop-color:rgb(255,255,255)"/></linearGradient><path d=" M 127.724 235.187 L 204.827 253.26 C 204.827 253.26 221.774 251.565 225.443 247.896 L 149.756 231.214 C 149.756 231.214 129.419 234.055 127.724 235.187 Z " fill="url(#_lgradient_522)"/></g></g></g></g></svg>