<?xml version="1.0" encoding="UTF-8" standalone="no"?>
<!-- Generator: Gravit.io -->
<svg xmlns="http://www.w3.org/2000/svg" xmlns:xlink="http://www.w3.org/1999/xlink" style="isolation:isolate" viewBox="0 0 561.26 263.622" width="561.26pt" height="263.622pt"><defs><clipPath id="_clipPath_4BbdtnhI4LT1eS6wkmAydmErPhH9aIeO"><rect width="561.26" height="263.622"/></clipPath></defs><g clip-path="url(#_clipPath_4BbdtnhI4LT1eS6wkmAydmErPhH9aIeO)"><g><g><path d=" M 224.714 34.805 L 222.604 29.759 C 226.743 25.058 231.137 21.048 235.724 17.786 L 237.154 23.481 C 232.808 26.576 228.643 30.367 224.714 34.805 L 224.714 34.805 Z  M 320.254 24.371 C 315.88 21.179 311.395 18.448 306.824 16.195 L 307.824 10.242 C 312.538 12.563 317.164 15.38 321.674 18.675 L 320.254 24.371 Z  M 250.584 15.408 L 249.584 9.421 C 254.326 7.196 259.15 5.528 264.024 4.427 L 264.494 10.585 C 259.798 11.641 255.15 13.253 250.584 15.408 L 250.584 15.408 Z  M 292.914 11.063 C 288.219 9.878 283.481 9.244 278.734 9.165 L 278.734 2.956 C 283.648 3.046 288.553 3.709 293.414 4.94 L 292.914 11.063 Z " fill="rgb(32,66,198)"/><g><g opacity="0.24"><path d=" M 196.912 106.265 C 194.036 128.381 192.99 150.824 193.791 173.221 C 194.373 189.859 195.23 209.101 185.604 220.336 C 175.096 232.613 158.725 227.922 144.511 228.757 C 125.587 229.866 107.816 242.125 88.881 242.581 C 76.498 242.892 64.404 238.098 52.891 232.279 C 38.272 224.882 23.787 215.352 13.618 200.017 C 8.784 192.746 6.03 185.606 4.549 178.313 C 2.649 168.882 2.867 159.157 3.439 148.373 C 3.559 146.118 3.696 143.755 3.83 141.378 C 5.135 118.975 -1.085 96.558 7.984 75.405 C 16.89 54.657 36.82 46.088 55.254 44.099 C 73.688 42.109 92.601 44.757 110.439 38.492 C 117.139 36.115 123.634 32.502 130.538 31.303 C 136.948 30.193 143.464 31.199 149.857 32.502 C 159.969 34.568 170.167 37.396 179.123 43.756 C 188.079 50.115 195.738 60.444 198.163 73.154 C 200.198 83.965 198.34 95.291 196.912 106.265 Z " fill="rgb(32,66,198)"/></g><path d=" M 211.562 43.559 C 209.182 48.069 202.052 47.559 198.942 51.499 C 197.592 53.189 197.242 55.499 196.942 57.659 C 195.562 67.739 194.132 77.789 192.712 87.839 C 196.602 90.229 200.642 92.839 202.642 96.969 C 204.642 101.099 203.372 106.969 199.062 108.479 C 194.402 109.979 190.132 105.739 185.972 103.159 C 181.122 100.079 173.462 99.739 170.722 104.819 C 173.462 106.439 176.272 108.169 178.082 110.819 C 179.892 113.469 180.432 117.279 178.462 119.819 C 175.582 123.399 169.952 122.239 165.682 120.469 C 161.412 118.699 156.292 116.809 152.592 119.589 C 155.467 121.807 157.865 124.583 159.642 127.749 C 160.712 129.599 161.482 131.979 160.292 133.749 C 159.102 135.519 156.482 135.519 154.292 135.129 C 144.172 133.249 135.002 126.469 124.842 126.009 C 124.226 125.969 123.608 125.969 122.992 126.009 C 112.482 126.319 103.822 133.749 94.772 139.139 C 94.416 139.366 94.045 139.57 93.662 139.749 C 86.785 143.782 79.333 146.743 71.562 148.529 C 67.512 149.459 63.472 148.799 59.512 149.989 C 55.002 151.339 51.312 154.229 47.652 157.189 C 33.112 169.069 21.74 179.377 10.66 194.627 C 1.66 180.127 0.936 157.586 4.092 130.179 C 6.742 129.029 8.862 128.099 9.092 127.949 Q 24.792 118.589 40.582 109.309 C 41.355 108.78 42.215 108.391 43.122 108.159 C 46.052 107.659 48.282 110.429 49.822 113.049 C 54.982 105.539 62.372 99.609 69.962 94.609 C 78.352 88.989 87.172 84.059 95.962 79.089 C 104.042 74.509 112.162 69.969 120.252 65.379 C 129.252 60.379 138.382 55.219 148.122 51.679 C 156.442 48.679 165.182 46.829 173.342 43.399 C 181.662 39.969 187.512 36.699 196.342 35.239 C 199.772 34.699 205.342 33.969 208.282 35.739 C 211.222 37.509 213.142 40.469 211.562 43.559 Z " fill="rgb(254,203,156)"/><linearGradient id="_lgradient_523" x1="0" y1="0.5" x2="0.9551987759413862" y2="0.20403497091703987" gradientTransform="matrix(39.432,0,0,53.779,93.303,85.87)" gradientUnits="userSpaceOnUse"><stop offset="0%" stop-opacity="0.10011584180746247" style="stop-color:rgb(1,1,1)"/><stop offset="100%" stop-opacity="0.0030897049486259304" style="stop-color:rgb(1,1,1)"/></linearGradient><path d=" M 132.682 121.019 C 132.062 123.399 128.942 124.289 126.362 124.599 C 125.703 124.809 125.159 125.283 124.862 125.909 C 124.246 125.869 123.628 125.869 123.012 125.909 C 112.502 126.219 103.842 133.649 94.792 139.039 C 94.436 139.266 94.065 139.47 93.682 139.649 C 92.872 137.039 92.912 129.569 98.412 112.399 C 99.412 109.399 100.532 105.399 101.412 102.499 C 101.926 100.579 102.678 98.731 103.652 96.999 C 107.091 91.673 112.388 87.816 118.512 86.179 C 119.631 85.732 120.885 85.772 121.972 86.289 C 123.132 86.979 123.282 88.559 122.902 89.799 C 122.522 91.039 121.702 92.139 121.282 93.379 C 119.552 98.029 123.282 102.689 126.172 106.809 C 128.561 110.128 130.539 113.724 132.062 117.519 C 132.628 118.593 132.844 119.816 132.682 121.019 L 132.682 121.019 Z " fill="url(#_lgradient_523)"/><path d="M 189.916 27.317 L 221.418 64.953 C 223.222 67.107 222.937 70.32 220.782 72.123 L 141.868 138.176 C 139.714 139.979 136.501 139.694 134.698 137.54 L 103.196 99.904 C 101.393 97.75 101.678 94.537 103.832 92.734 L 182.746 26.681 C 184.9 24.878 188.113 25.163 189.916 27.317 Z" style="stroke:none;fill:#2042C6;stroke-miterlimit:10;"/><defs><linearGradient id="_lgradient_524" x1="0" y1="0.5" x2="0.8791414037912687" y2="0.02343899431456059"><stop offset="0%" style="stop-color:rgba(1,1,1,0.27239269886876327)"/><stop offset="100%" style="stop-color:rgba(1,1,1,0.9958480100080844)"/></linearGradient></defs><path d="M 189.916 27.317 L 221.418 64.953 C 223.222 67.107 222.937 70.32 220.782 72.123 L 141.868 138.176 C 139.714 139.979 136.501 139.694 134.698 137.54 L 103.196 99.904 C 101.393 97.75 101.678 94.537 103.832 92.734 L 182.746 26.681 C 184.9 24.878 188.113 25.163 189.916 27.317 Z" style="stroke:none;fill:url(#_lgradient_524);stroke-miterlimit:10;"/><path d="M 185.789 32.48 L 215.192 67.608 C 216.804 69.534 216.549 72.406 214.623 74.018 L 146.843 130.751 C 144.918 132.363 142.046 132.108 140.434 130.182 L 111.031 95.054 C 109.419 93.128 109.674 90.256 111.599 88.644 L 179.379 31.911 C 181.305 30.299 184.177 30.554 185.789 32.48 Z" style="stroke:none;fill:#FFFBFF;stroke-miterlimit:10;"/><path d=" M 57.322 85.089 C 61.39 81.279 65.795 77.845 70.482 74.829 C 75.555 71.876 80.851 69.325 86.322 67.199 C 96.642 62.909 106.972 58.599 117.662 55.379 C 120.912 54.379 124.182 53.519 127.452 52.649 L 155.722 45.069 C 156.612 47.899 155.082 50.899 153.372 53.319 C 148.037 60.871 140.563 66.652 131.912 69.919 C 129.462 70.839 126.912 71.579 124.832 73.209 C 123.32 74.566 121.977 76.1 120.832 77.779 C 114.582 85.779 105.432 91.869 101.832 101.359 C 100.622 104.509 100.062 107.949 98.272 110.799 C 96.272 113.929 93.072 116.009 89.942 117.979 C 77.942 125.569 65.582 133.239 51.782 136.759 C 50.152 137.316 48.398 137.399 46.722 136.999 C 45.088 136.285 43.683 135.132 42.662 133.669 C 38.982 129.339 35.012 125.119 31.582 120.589 C 28.282 116.219 29.862 113.479 33.212 109.749 C 40.801 101.102 48.849 92.87 57.322 85.089 L 57.322 85.089 Z " fill="rgb(254,203,156)"/><rect x="150.883" y="66.848" width="32.46" height="16.15" transform="matrix(0.628,0.778,-0.778,0.628,120.449,-102.172)" fill="rgb(255,251,255)"/><g opacity="0.62"><circle vector-effect="non-scaling-stroke" cx="163.5924043281989" cy="81.55890725605012" r="19.150000000000006" fill="rgb(0,147,0)"/></g></g><g><g opacity="0.24"><path d=" M 550.4 171.785 C 544.451 182.762 536.105 191.208 529.505 201.589 C 519.815 216.807 513.545 236.567 500.423 246.719 C 494.217 251.513 487.035 253.656 479.997 255.736 C 468.684 259.084 456.963 262.432 445.561 259.604 C 436.822 257.442 428.891 251.773 421.123 246.18 L 414.976 241.741 C 413.62 240.752 412.25 239.782 410.88 238.792 L 406.887 235.913 C 395.166 227.416 383.518 218.551 373.64 206.839 C 362.633 193.84 353.884 176.731 352.065 157.625 C 349.955 135.545 358.029 112.355 372.235 99.667 C 380.028 92.691 389.32 88.811 396.975 81.575 C 409.056 70.161 415.705 51.905 424.001 35.868 C 439.375 6.134 468.941 -8.095 493.838 13.04 C 503.514 21.245 510.834 33.433 516.211 46.648 C 520.756 57.789 524.098 69.876 530.141 79.768 C 537.042 91.068 547.088 98.893 553.126 110.986 C 562.171 129.083 559.982 154.118 550.4 171.785 Z " fill="rgb(32,66,198)"/></g><path d=" M 543.782 125.869 C 543.556 126.859 543.097 127.782 542.442 128.559 C 542.068 129.001 541.591 129.344 541.052 129.559 C 539.162 130.289 537.122 129.089 535.432 127.939 C 531.703 125.518 528.117 122.884 524.692 120.049 C 522.692 118.309 520.112 116.049 520.032 113.419 C 519.967 112.435 520.238 111.458 520.802 110.649 C 522.132 108.738 524.325 107.614 526.652 107.649 C 528.935 107.675 531.18 108.24 533.202 109.299 C 536.476 110.717 539.325 112.96 541.472 115.809 C 543.65 118.676 544.491 122.339 543.782 125.869 Z " fill="rgb(32,66,198)"/><linearGradient id="_lgradient_525" x1="0.6834235205534434" y1="0.11555412718094082" x2="0.3219249374630415" y2="0.7665183653658721" gradientTransform="matrix(22.49,0,0,18.433,520.032,111.349)" gradientUnits="userSpaceOnUse"><stop offset="0%" stop-opacity="0" style="stop-color:rgb(1,1,1)"/><stop offset="95%" stop-opacity="1" style="stop-color:rgb(1,1,1)"/></linearGradient><path d=" M 542.442 128.559 C 542.068 129.001 541.591 129.344 541.052 129.559 C 539.162 130.289 537.122 129.089 535.432 127.939 C 531.703 125.518 528.117 122.884 524.692 120.049 C 522.692 118.309 520.112 116.049 520.032 113.419 C 521.406 112.091 523.242 111.349 525.152 111.349 C 527.444 111.38 529.697 111.945 531.732 112.999 C 534.999 114.432 537.849 116.672 540.012 119.509 C 541.934 122.111 542.802 125.344 542.442 128.559 Z " fill="url(#_lgradient_525)"/><path d=" M 536.162 191.377 C 524.842 174.247 516.762 170.109 500.932 157.049 C 497.312 154.049 493.622 151.199 489.082 149.849 C 485.152 148.659 481.082 149.319 477.022 148.389 C 469.111 146.562 461.529 143.526 454.542 139.389 L 454.542 139.389 L 453.852 138.969 C 444.852 133.579 436.142 126.149 425.632 125.839 C 423.616 125.778 421.6 125.973 419.632 126.419 C 411.092 128.149 403.122 133.419 394.382 134.999 C 392.262 135.389 389.682 135.389 388.382 133.619 C 387.082 131.849 387.992 129.499 389.032 127.619 C 390.815 124.444 393.227 121.667 396.122 119.459 C 392.422 116.679 387.262 118.609 383.032 120.339 C 378.802 122.069 373.092 123.269 370.252 119.689 C 368.252 117.179 368.742 113.369 370.592 110.689 C 372.442 108.009 375.252 106.339 377.952 104.689 C 375.252 99.609 367.552 99.949 362.702 103.029 C 358.582 105.609 354.312 109.849 349.652 108.349 C 345.342 106.879 344.102 100.919 346.032 96.839 C 347.962 92.759 352.032 90.099 355.962 87.709 C 354.542 77.659 353.152 67.609 351.732 57.529 C 351.462 55.369 351.072 53.059 349.732 51.369 C 346.622 47.369 339.492 47.939 337.152 43.429 C 335.572 40.349 337.422 37.429 340.382 35.619 C 343.342 33.809 348.892 34.619 352.282 35.119 C 361.172 36.579 366.982 39.849 375.342 43.279 C 383.462 46.709 392.242 48.559 400.522 51.559 C 410.262 55.099 419.382 60.219 428.432 65.259 C 436.522 69.849 444.602 74.389 452.722 78.969 C 461.542 83.969 470.322 88.869 478.722 94.489 C 486.312 99.489 493.722 105.419 498.902 112.929 C 500.402 110.309 502.632 107.539 505.592 108.039 C 506.491 108.268 507.342 108.658 508.102 109.189 Q 523.872 118.489 539.632 127.829 C 540.362 128.249 557.77 139.019 558.16 139.749 C 557.34 162.699 548.827 175.043 536.162 191.377 Z " fill="rgb(254,203,156)"/><linearGradient id="_lgradient_526" x1="0" y1="0.5" x2="0.6363994770486473" y2="1.2713596473838957" gradientTransform="matrix(45.9,0,0,58.556,498.453,113.723)" gradientUnits="userSpaceOnUse"><stop offset="100%" stop-opacity="0" style="stop-color:rgb(1,1,1)"/><stop offset="100%" stop-opacity="0.006451925093149656" style="stop-color:rgb(1,1,1)"/></linearGradient><path d=" M 521.932 116.399 L 517.222 113.919 C 517.003 113.769 516.737 113.702 516.472 113.729 C 516.235 113.814 516.039 113.985 515.922 114.209 C 515.108 115.664 514.572 117.258 514.342 118.909 C 512.81 125.807 509.664 132.243 505.162 137.689 C 502.642 140.739 499.592 143.689 498.712 147.519 C 497.832 151.349 499.282 155.269 501.652 158.289 C 504.022 161.309 507.322 163.559 510.532 165.559 C 513.742 167.559 517.142 169.559 519.892 172.279 C 527.382 167.379 531.502 158.779 534.632 150.389 C 534.792 149.949 535.112 149.389 535.632 149.489 C 535.848 149.555 536.035 149.693 536.162 149.879 C 538.622 152.759 540.052 156.549 543.162 158.769 L 544.322 132.059 C 544.402 131.499 544.326 130.928 544.102 130.409 C 543.753 129.912 543.266 129.526 542.702 129.299 C 536.311 125.958 530.219 122.073 524.492 117.689" fill="url(#_lgradient_526)"/><linearGradient id="_lgradient_527" x1="0" y1="0.5" x2="0.8495873621015495" y2="-0.027447925540835416" gradientTransform="matrix(62.482,0,0,56.72,408.101,82.906)" gradientUnits="userSpaceOnUse"><stop offset="100%" stop-opacity="0" style="stop-color:rgb(1,1,1)"/><stop offset="100%" stop-opacity="0.002950117930964291" style="stop-color:rgb(1,1,1)"/></linearGradient><path d=" M 470.562 132.379 C 470.656 133.745 470.43 135.115 469.902 136.379 C 468.592 138.879 465.282 139.459 462.472 139.579 C 459.828 139.676 457.181 139.623 454.542 139.419 L 454.542 139.419 L 453.852 138.999 C 444.852 133.609 436.142 126.179 425.632 125.869 C 423.616 125.808 421.6 126.003 419.632 126.449 C 417.618 125.05 415.773 123.422 414.132 121.599 C 409.323 116.056 407.234 108.659 408.432 101.419 C 410.512 89.489 427.432 74.509 437.112 88.639 C 440.076 93.157 443.567 97.307 447.512 100.999 C 453.632 106.699 462.872 108.119 467.572 115.669 C 470.482 120.559 470.562 126.559 470.562 132.379 Z " fill="url(#_lgradient_527)"/><path d="M 445.432 99.897 L 413.93 137.533 C 412.127 139.687 408.914 139.972 406.76 138.169 L 327.845 72.116 C 325.691 70.313 325.406 67.1 327.209 64.946 L 358.711 27.31 C 360.514 25.155 363.727 24.87 365.881 26.673 L 444.796 92.726 C 446.95 94.529 447.235 97.742 445.432 99.897 Z" style="stroke:none;fill:#2042C6;stroke-miterlimit:10;"/><defs><linearGradient id="_lgradient_528" x1="0" y1="0.5" x2="0.9969264019555899" y2="0.5783437877810462"><stop offset="100%" style="stop-color:#010101"/><stop offset="100%" style="stop-color:rgba(1,1,1,0.9974686050975132)"/></linearGradient></defs><path d="M 445.432 99.897 L 413.93 137.533 C 412.127 139.687 408.914 139.972 406.76 138.169 L 327.845 72.116 C 325.691 70.313 325.406 67.1 327.209 64.946 L 358.711 27.31 C 360.514 25.155 363.727 24.87 365.881 26.673 L 444.796 92.726 C 446.95 94.529 447.235 97.742 445.432 99.897 Z" style="stroke:none;fill:url(#_lgradient_528);stroke-miterlimit:10;"/><path d="M 437.589 95.029 L 408.186 130.157 C 406.574 132.083 403.702 132.338 401.776 130.726 L 333.996 73.993 C 332.071 72.381 331.816 69.509 333.428 67.583 L 362.831 32.455 C 364.443 30.529 367.315 30.274 369.24 31.886 L 437.021 88.62 C 438.946 90.231 439.201 93.103 437.589 95.029 Z" style="stroke:none;fill:#FFFBFF;stroke-miterlimit:10;"/><path d=" M 491.322 85.089 C 487.256 81.281 482.855 77.847 478.172 74.829 C 473.096 71.876 467.797 69.325 462.322 67.199 C 452.012 62.909 441.672 58.599 430.982 55.379 C 427.742 54.379 424.462 53.519 421.192 52.649 L 392.922 45.069 C 392.032 47.899 393.562 50.899 395.272 53.319 C 400.608 60.871 408.082 66.652 416.732 69.919 C 419.182 70.839 421.732 71.579 423.822 73.209 C 425.332 74.568 426.675 76.102 427.822 77.779 C 434.072 85.779 443.222 91.869 446.872 101.359 C 448.082 104.509 448.642 107.949 450.442 110.799 C 452.442 113.929 455.632 116.009 458.762 117.979 C 470.812 125.569 483.122 133.239 496.922 136.759 C 498.552 137.316 500.307 137.399 501.982 136.999 C 503.618 136.282 505.026 135.13 506.052 133.669 C 509.722 129.339 513.702 125.119 517.122 120.589 C 520.422 116.219 518.842 113.479 515.492 109.749 C 507.885 101.101 499.816 92.869 491.322 85.089 L 491.322 85.089 Z " fill="rgb(254,203,156)"/><rect x="365.292" y="66.827" width="32.46" height="16.15" transform="matrix(-0.628,0.778,-0.778,-0.628,679.439,-174.928)" fill="rgb(255,251,255)"/><path d=" M 522.682 115.449 C 522.682 115.449 502.322 149.559 500.932 157.049 C 499.542 164.539 514.372 176.159 517.622 176.159 C 520.872 176.159 539.552 127.949 539.552 127.949 C 539.552 127.949 535.322 119.069 522.682 115.449 Z " fill="rgb(32,66,198)"/><linearGradient id="_lgradient_529" x1="0" y1="0.5" x2="0.06468237034834967" y2="1.497905902861647" gradientTransform="matrix(37.96,0,0,61.1,501.752,115.619)" gradientUnits="userSpaceOnUse"><stop offset="100%" stop-opacity="0" style="stop-color:rgb(1,1,1)"/><stop offset="100%" stop-opacity="0.010479159571402366" style="stop-color:rgb(1,1,1)"/></linearGradient><path d=" M 523.192 115.619 C 523.192 115.619 503.132 150.059 501.752 157.619 C 501.752 157.619 515.182 176.719 518.432 176.719 C 518.432 176.719 539.712 128.209 539.712 128.209 C 539.712 128.209 535.832 119.229 523.192 115.619 Z " fill="url(#_lgradient_529)"/><g opacity="0.68"><circle vector-effect="non-scaling-stroke" cx="386.8124043281989" cy="80.39890725605012" r="19.149999999999977" fill="rgb(255,183,0)"/></g></g></g></g></g></svg>