<?xml version="1.0" encoding="UTF-8" standalone="no"?>
<!-- Generator: Gravit.io -->
<svg xmlns="http://www.w3.org/2000/svg" xmlns:xlink="http://www.w3.org/1999/xlink" style="isolation:isolate" viewBox="0 0 1559.055 737.008" width="1559.055pt" height="737.008pt"><defs><clipPath id="_clipPath_cMXfBuEPCcBhvSRErCQ1Do9X2aT9aYrJ"><rect width="1559.055" height="737.008"/></clipPath></defs><g clip-path="url(#_clipPath_cMXfBuEPCcBhvSRErCQ1Do9X2aT9aYrJ)"><g><g opacity="0.26"><path d=" M 566.028 141.584 C 526.556 167.824 496.772 200.27 453.005 223.361 C 420.784 240.417 381.731 251.858 353.445 271.656 C 312.215 300.52 300.37 342.098 293.957 381.432 C 287.765 419.48 284.988 457.817 288.344 496.01 C 293.058 549.316 313.354 606.218 375.159 640.973 C 396.793 653.123 422.382 661.834 448.47 669.286 C 519.357 689.523 595.208 701.22 672.399 703.819 C 712.351 705.131 752.602 704.028 792.694 702.9 L 947.007 698.544 C 990.954 697.311 1034.741 696.078 1078.528 694.083 C 1133.322 691.604 1190.892 687.248 1235.258 666.006 C 1293.388 638.166 1315.461 586.433 1308.49 539.398 C 1301.518 492.362 1270.176 448.607 1239.373 405.914 C 1208.571 363.221 1177.308 319.413 1170.457 272.378 C 1169.018 262.459 1168.599 252.265 1162.926 243.015 C 1156.813 233.083 1145.167 225.158 1134.78 216.893 C 1106.175 194.156 1085.759 167.509 1059.391 143.683 C 948.066 43.025 689.139 59.845 566.028 141.584 Z " fill="rgb(32,66,198)"/></g><g><path d=" M 1367.699 283.402 C 1368.32 289.123 1368.915 295.043 1367.197 300.58 C 1364.158 310.305 1354.71 316.436 1345.619 321.008 C 1327.278 330.232 1307.457 336.64 1288.337 344.186 C 1281.915 346.736 1274.726 350.33 1273.194 357.056 C 1272.506 360.069 1273.101 363.306 1272.031 366.187 C 1270.96 369.067 1266.877 371.182 1264.869 368.83 C 1264.117 367.727 1263.746 366.409 1263.812 365.077 L 1262.979 349.696 C 1262.702 344.556 1262.424 339.31 1263.719 334.315 C 1265.014 329.32 1268.119 324.536 1272.863 322.528 C 1274.462 321.867 1276.18 321.524 1277.805 320.889 C 1283.831 318.551 1287.517 312.604 1291.151 307.239 C 1299.701 294.647 1310.972 282.899 1325.507 278.618 C 1316.281 264.415 1313.38 247.014 1317.5 230.586 C 1319.627 222.314 1323.935 214.081 1331.348 209.84 C 1337.166 206.522 1344.322 206.608 1350.059 210.064 C 1356.666 214.332 1357.63 222.049 1359.375 229.185 C 1363.775 246.984 1365.744 265.219 1367.699 283.402 Z " fill="rgb(62,62,84)"/><linearGradient id="_lgradient_353" x1="-0.00004461438849157062" y1="0.5000722552750796" x2="0.9999498390058776" y2="0.5000722552750796" gradientTransform="matrix(105.58,0,0,162.424,1262.746,208.164)" gradientUnits="userSpaceOnUse"><stop offset="0%" stop-opacity="1" style="stop-color:rgb(0,0,0)"/><stop offset="98.99498944719335%" stop-opacity="1" style="stop-color:rgb(0,0,0)"/></linearGradient><path d=" M 1367.699 284.089 C 1368.32 289.824 1368.915 295.73 1367.197 301.267 C 1364.158 310.992 1354.71 317.123 1345.619 321.709 C 1327.278 330.972 1307.457 337.354 1288.337 344.939 C 1281.915 347.476 1274.726 351.07 1273.194 357.809 C 1272.506 360.809 1273.101 364.059 1272.031 366.94 C 1270.96 369.821 1266.877 371.922 1264.869 369.583 C 1264.117 368.48 1263.746 367.163 1263.812 365.83 L 1262.979 350.449 C 1262.702 345.296 1262.424 340.063 1263.719 335.068 C 1265.014 330.073 1268.119 325.29 1272.863 323.281 C 1274.462 322.607 1276.18 322.277 1277.805 321.643 C 1283.831 319.291 1287.517 313.344 1291.151 307.993 C 1299.701 295.4 1310.972 283.653 1325.507 279.371 C 1316.282 265.163 1313.381 247.758 1317.5 231.326 C 1319.627 223.054 1323.935 214.835 1331.348 210.593 C 1337.166 207.275 1344.322 207.361 1350.059 210.818 C 1356.666 215.086 1357.63 222.803 1359.375 229.938 C 1363.775 247.724 1365.744 265.946 1367.699 284.089 Z " fill="url(#_lgradient_353)"/><path d=" M 1334.466 212.179 C 1334.473 224.005 1331.656 235.661 1326.247 246.178 C 1323.433 251.635 1319.918 256.842 1318.319 262.735 C 1307.444 301.65 1263.323 323.255 1230.394 347.872 C 1217.021 357.862 1202.34 368.01 1196.355 383.338 C 1195.549 385.426 1194.729 387.778 1192.694 388.822 C 1189.774 390.302 1186.087 387.884 1185.043 384.858 C 1184 381.832 1184.911 378.529 1185.797 375.436 L 1190.501 358.959 C 1190.888 357.078 1191.692 355.308 1192.853 353.779 C 1194.257 352.468 1195.858 351.384 1197.597 350.568 C 1209.727 343.512 1213.546 328.62 1219.862 316.357 C 1227.114 302.444 1238.342 291.004 1252.117 283.494 C 1255.764 281.499 1259.676 279.715 1262.477 276.689 C 1265.278 273.663 1266.838 269.289 1268.225 265.232 C 1272.872 251.703 1278.204 238.419 1284.201 225.432 C 1286.592 220.239 1300.414 196.361 1304.458 192.199 C 1314.831 181.562 1324.424 201.224 1334.466 212.179 Z " fill="rgb(62,62,84)"/><path d=" M 1384.693 111.224 C 1384.693 112.902 1384.574 114.633 1384.574 116.378 C 1384.574 121.967 1384.045 128.125 1380.081 132.063 C 1377.055 135.062 1372.668 136.106 1368.624 137.427 C 1339.342 146.994 1320.631 175.259 1294.706 191.882 C 1289.209 195.397 1282.813 198.489 1276.457 197.762 C 1275.685 197.681 1274.921 197.54 1274.171 197.339 C 1269.996 196.256 1266.494 193.468 1262.503 191.869 C 1254.575 188.711 1245.656 190.468 1237.674 193.322 C 1229.693 196.176 1221.963 200.061 1213.559 201.251 C 1205.155 202.44 1195.562 200.194 1190.871 193.124 C 1188.334 189.266 1187.567 184.522 1185.585 180.359 C 1178.344 165.335 1157.519 161.649 1148.322 147.827 C 1148.163 147.589 1147.992 147.338 1147.846 147.087 C 1146.474 144.862 1145.457 142.437 1144.834 139.898 C 1144.645 139.216 1144.495 138.523 1144.384 137.824 C 1143.515 132.797 1144.04 127.628 1145.904 122.879 L 1146.142 122.258 C 1149.66 114.279 1156.436 108.196 1164.747 105.555 C 1176.23 101.948 1188.624 105.119 1200.662 104.895 C 1213.268 104.657 1225.888 100.653 1238.296 102.82 C 1247.968 104.498 1256.795 109.81 1265.648 114.171 C 1273.009 117.778 1280.448 120.778 1288.561 120.514 C 1295.776 120.315 1302.661 117.514 1309.149 114.316 C 1321.041 108.476 1332.339 101.182 1344.826 96.583 C 1354.168 93.134 1364.541 91.298 1374.439 93.055 C 1384.93 94.984 1384.944 102.371 1384.693 111.224 Z " fill="rgb(32,66,198)"/><linearGradient id="_lgradient_354" x1="0" y1="0.5" x2="0.966343216490796" y2="0.24274373099529234" gradientTransform="matrix(225.085,0,0,99.866,1144.834,101.686)" gradientUnits="userSpaceOnUse"><stop offset="100%" stop-opacity="1" style="stop-color:rgb(0,0,0)"/><stop offset="100%" stop-opacity="1" style="stop-color:rgb(0,0,0)"/></linearGradient><path d=" M 1366.603 124.716 C 1363.841 127.966 1359.573 129.407 1355.648 131.072 C 1338.114 138.537 1334.176 160.948 1321.12 175.18 C 1313.073 183.94 1287.121 194.525 1286.764 191.697 C 1286.222 187.799 1280.157 196.375 1276.497 197.762 C 1275.725 197.681 1274.961 197.54 1274.211 197.339 C 1270.035 196.256 1266.534 193.468 1262.543 191.869 C 1254.615 188.711 1245.695 190.468 1237.714 193.322 C 1229.733 196.176 1222.003 200.061 1213.599 201.251 C 1205.195 202.44 1195.601 200.194 1190.91 193.124 C 1188.373 189.266 1187.607 184.522 1185.625 180.359 C 1180.815 170.356 1169.98 165.388 1160.518 159.098 C 1155.738 156.197 1151.591 152.364 1148.322 147.827 C 1148.163 147.589 1147.992 147.338 1147.846 147.087 C 1146.474 144.862 1145.457 142.437 1144.834 139.898 C 1147.826 136.661 1151.487 134.113 1155.563 132.433 C 1166.689 127.821 1179.348 129.909 1191.241 128.627 C 1203.781 127.306 1216.004 122.231 1228.557 123.341 C 1246.422 124.874 1262.358 138.67 1280.091 136.621 C 1287.28 135.789 1293.886 132.393 1300.071 128.693 C 1311.448 121.848 1322.032 113.603 1334.044 107.934 C 1343.042 103.705 1353.217 100.931 1363.246 101.869 C 1365.373 102.007 1367.444 102.612 1369.312 103.639 C 1369.417 105.304 1369.483 107.035 1369.642 108.766 C 1370.21 114.263 1370.21 120.448 1366.603 124.716 Z " fill="url(#_lgradient_354)"/><linearGradient id="_lgradient_355" x1="0" y1="0.5" x2="0.8435211276366038" y2="-0.037095994428065326" gradientTransform="matrix(180.857,0,0,66.812,1160.492,134.74)" gradientUnits="userSpaceOnUse"><stop offset="100%" stop-opacity="1" style="stop-color:rgb(0,0,0)"/><stop offset="100%" stop-opacity="1" style="stop-color:rgb(0,0,0)"/></linearGradient><path d=" M 1331.242 162.785 C 1323.195 171.546 1299.74 187.032 1290.438 194.194 C 1287.319 196.613 1280.144 196.375 1276.471 197.762 C 1275.699 197.681 1274.934 197.54 1274.185 197.339 C 1270.009 196.256 1266.507 193.468 1262.517 191.869 C 1254.588 188.711 1245.669 190.468 1237.688 193.322 C 1229.707 196.176 1221.976 200.061 1213.572 201.251 C 1205.168 202.44 1195.575 200.194 1190.884 193.124 C 1188.347 189.266 1187.581 184.522 1185.598 180.359 C 1180.789 170.356 1169.953 165.388 1160.492 159.098 C 1162.101 157.837 1164.301 157.641 1166.108 158.596 C 1175.437 164.965 1188.056 162.851 1198.693 159.059 C 1209.331 155.266 1219.955 149.994 1231.213 150.734 C 1243.898 151.553 1254.866 159.904 1267.274 162.785 C 1276.352 164.855 1285.856 163.927 1294.362 160.142 C 1299 158.081 1319.548 138.485 1323.644 141.471 C 1325.151 142.568 1340.822 133.173 1341.338 134.97 C 1341.734 136.357 1331.242 161.384 1331.242 162.785 Z " fill="url(#_lgradient_355)"/><path d=" M 1479.159 47.546 C 1480.738 49.232 1481.154 51.699 1480.216 53.81 C 1479.263 55.851 1477.916 57.683 1476.252 59.201 C 1462.496 73.3 1443.825 86.263 1430.096 100.349 C 1422.907 107.736 1421.269 109.163 1413.657 116.127 C 1408.676 120.685 1403.496 125.099 1399.36 130.437 C 1395.594 135.326 1392.211 147.959 1389.436 153.469 L 1375.522 181.218 C 1370.765 190.68 1365.982 200.194 1359.665 208.69 C 1358.568 210.413 1357.066 211.841 1355.292 212.852 C 1353.544 213.547 1351.675 213.888 1349.795 213.857 C 1340.069 214.412 1330.106 216.024 1320.724 213.341 C 1311.342 210.659 1302.766 201.858 1304.378 192.199 C 1305.152 188.909 1306.493 185.779 1308.343 182.949 L 1325.164 153.284 C 1330.238 144.352 1335.299 135.419 1340.545 126.579 C 1344.654 119.668 1348.989 112.678 1355.186 107.551 C 1360.656 103.018 1367.277 100.177 1373.804 97.389 C 1387.639 91.469 1401.553 86.223 1414.345 78.295 C 1427.34 70.211 1440.902 63.074 1454.925 56.941 Q 1466.843 51.748 1479.159 47.546 Z " fill="rgb(255,200,0)"/><linearGradient id="_lgradient_356" x1="0" y1="0.5" x2="0.9781375918227269" y2="0.2920412265297843" gradientTransform="matrix(70.82,0,0,54.296,1380.669,59.888)" gradientUnits="userSpaceOnUse"><stop offset="100%" stop-opacity="1" style="stop-color:rgb(0,0,0)"/><stop offset="100%" stop-opacity="1" style="stop-color:rgb(0,0,0)"/></linearGradient><path d=" M 1411.596 98.473 C 1413.314 96.847 1413.591 94.258 1414.662 92.157 C 1416.181 89.17 1419.207 87.333 1422.035 85.55 C 1433.056 78.483 1442.979 69.837 1451.489 59.888 C 1439.292 62.993 1428.602 70.169 1418.19 77.225 L 1400.814 88.985 C 1393.916 93.663 1386.912 98.42 1381.6 104.842 C 1381.149 105.312 1380.834 105.897 1380.689 106.533 C 1380.464 108.132 1382.195 109.176 1383.477 110.18 C 1388.921 114.422 1392.951 116.946 1395.713 109.07 C 1396.863 105.78 1398.105 103.785 1401.369 102.093 C 1404.632 100.402 1408.993 100.931 1411.596 98.473 Z " fill="url(#_lgradient_356)"/><linearGradient id="_lgradient_357" x1="0.4712982302987321" y1="0.8329972885832326" x2="0.863925097922646" y2="-0.7857423617714008" gradientTransform="matrix(15.616,0,0,12.018,1378.733,114.031)" gradientUnits="userSpaceOnUse"><stop offset="17.696122241334784%" stop-opacity="1" style="stop-color:rgb(0,0,0)"/><stop offset="100%" stop-opacity="1" style="stop-color:rgb(0,0,0)"/><stop offset="100%" stop-opacity="1" style="stop-color:rgb(0,0,0)"/></linearGradient><path d=" M 1384.098 121.927 C 1385.843 122.538 1387.494 123.392 1389 124.465 C 1389.712 124.993 1390.484 125.437 1391.3 125.786 C 1392.123 126.136 1393.053 126.136 1393.876 125.786 C 1394.048 125.702 1394.191 125.569 1394.286 125.403 C 1394.371 125.168 1394.371 124.911 1394.286 124.676 C 1393.246 121.547 1391.919 118.522 1390.322 115.638 C 1390.145 115.275 1389.903 114.948 1389.608 114.673 C 1389.113 114.345 1388.537 114.162 1387.943 114.144 C 1386.223 113.961 1384.486 114.001 1382.777 114.263 C 1381.795 114.372 1380.871 114.783 1380.134 115.439 C 1379.605 116.057 1379.254 116.806 1379.116 117.607 C 1378.729 118.967 1378.634 120.395 1378.839 121.795 C 1379.658 121.795 1380.543 121.439 1381.415 121.439 C 1382.328 121.475 1383.231 121.639 1384.098 121.927 Z " fill="url(#_lgradient_357)"/><linearGradient id="_lgradient_358" x1="0" y1="0.5" x2="0.9471063484914727" y2="0.8209198726273415" gradientTransform="matrix(53.075,0,0,95.404,1322.844,105.595)" gradientUnits="userSpaceOnUse"><stop offset="100%" stop-opacity="1" style="stop-color:rgb(0,0,0)"/><stop offset="100%" stop-opacity="1" style="stop-color:rgb(0,0,0)"/></linearGradient><path d=" M 1362.876 108.978 C 1361.504 112.332 1360.808 115.925 1360.828 119.549 C 1360.529 122.192 1360.878 124.868 1361.846 127.345 C 1361.916 127.538 1362.04 127.708 1362.202 127.834 C 1362.48 127.962 1362.792 127.99 1363.088 127.913 C 1364.741 127.69 1366.422 127.78 1368.043 128.178 C 1368.152 128.196 1368.253 128.247 1368.334 128.323 C 1368.416 128.415 1368.467 128.531 1368.479 128.653 L 1369.087 131.798 C 1371.413 143.691 1367.25 157.143 1357.564 164.45 C 1354.294 166.65 1350.799 168.497 1347.139 169.96 C 1340.769 172.907 1334.533 176.567 1329.842 181.734 C 1325.151 186.9 1322.111 194.023 1322.997 201 C 1331.815 196.527 1339.633 190.31 1345.976 182.725 C 1350.482 177.32 1354.261 171.202 1359.692 166.736 C 1362.903 164.093 1366.656 162.071 1369.417 158.953 C 1374.703 153.007 1375.35 144.418 1375.747 136.489 C 1376.288 125.39 1376.051 112.48 1367.343 105.595 C 1366.457 106.137 1363.352 107.96 1362.876 108.978 Z " fill="url(#_lgradient_358)"/><linearGradient id="_lgradient_359" x1="0.000024607707768353748" y1="0.5000679286668133" x2="1.000695200539493" y2="0.5000679286668133" gradientTransform="matrix(29.857,0,0,24.221,1472.379,32.593)" gradientUnits="userSpaceOnUse"><stop offset="0%" stop-opacity="1" style="stop-color:rgb(229,197,213)"/><stop offset="42%" stop-opacity="1" style="stop-color:rgb(234,212,209)"/><stop offset="100%" stop-opacity="1" style="stop-color:rgb(240,233,203)"/></linearGradient><path d=" M 1491.263 33.262 C 1493.694 32.469 1496.548 32.152 1498.636 33.619 C 1499.863 34.581 1500.781 35.881 1501.279 37.358 C 1502.6 40.768 1502.759 44.983 1500.433 47.824 C 1498.879 49.451 1496.971 50.699 1494.857 51.471 C 1490.552 53.626 1486.024 55.301 1481.352 56.466 C 1478.525 57.074 1474.217 57.219 1472.724 54.061 C 1471.402 51.259 1474.204 48.167 1475.736 46.04 C 1479.714 40.569 1484.695 35.442 1491.263 33.262 Z " fill="url(#_lgradient_359)"/><path d=" M 1296.516 134.864 C 1288.918 139.092 1281.135 143.863 1276.774 151.368 C 1272.705 158.371 1272.163 166.855 1272.308 174.955 C 1272.366 183.888 1273.443 192.786 1275.519 201.475 C 1275.757 202.44 1276.153 203.537 1277.092 203.841 C 1277.794 203.969 1278.519 203.833 1279.127 203.457 C 1285.176 200.478 1289.622 195.005 1291.297 188.473 C 1291.865 186.16 1292.076 183.782 1292.499 181.456 C 1293.609 176.3 1295.243 171.27 1297.375 166.445 C 1298.113 164.268 1299.222 162.234 1300.652 160.433 C 1302.216 158.876 1304.035 157.598 1306.03 156.654 Q 1322.481 147.655 1339.25 139.211 C 1343.417 137.316 1347.35 134.944 1350.971 132.142 C 1354.618 129.3 1357.115 125.236 1358 120.699 C 1358.674 116.219 1362.057 106.163 1356.269 106.533 C 1350.482 106.903 1338.616 111.951 1333.396 114.224 C 1320.473 119.906 1308.779 128.006 1296.516 134.864 Z " fill="rgb(255,255,255)"/><path d=" M 1359.19 114.607 C 1358.806 116.867 1358.225 119.166 1358 120.765 C 1357.107 125.296 1354.611 129.353 1350.971 132.195 C 1347.35 134.996 1343.417 137.369 1339.25 139.264 Q 1322.508 147.708 1306.03 156.707 C 1304.037 157.654 1302.219 158.932 1300.652 160.486 C 1299.21 162.278 1298.1 164.314 1297.375 166.498 C 1295.245 171.323 1293.611 176.353 1292.499 181.509 C 1292.076 183.835 1291.865 186.213 1291.283 188.526 C 1289.591 195.044 1285.156 200.51 1279.127 203.51 C 1278.521 203.89 1277.792 204.022 1277.092 203.88 C 1276.153 203.59 1275.77 202.48 1275.532 201.528 C 1273.449 192.822 1272.367 183.907 1272.308 174.955 C 1272.15 166.842 1272.705 158.385 1276.774 151.368 C 1281.148 143.849 1288.931 139.079 1296.503 134.864 C 1308.818 128.006 1320.473 119.906 1333.396 114.277 C 1338.682 112.017 1350.574 106.996 1356.269 106.573 C 1360.009 106.335 1359.93 110.431 1359.19 114.607 Z " fill="rgb(255,200,0)"/><path d=" M 1350.759 108.33 C 1353.795 111.348 1357.104 114.077 1360.643 116.483 C 1364.203 118.923 1368.481 120.092 1372.787 119.8 C 1373.54 119.708 1374.439 119.443 1374.624 118.703 C 1374.809 117.963 1374.095 117.263 1373.487 116.774 C 1370.184 114.131 1367.501 110.26 1367.475 106.018 C 1367.475 103.983 1368.017 101.803 1367.012 100.032 C 1365.691 97.825 1362.731 97.482 1360.181 97.601 C 1357.627 97.719 1355.087 98.037 1352.583 98.552 C 1350.468 98.988 1333.423 106.56 1335.563 107.088 C 1335.92 107.181 1344.139 102.212 1350.759 108.33 Z " fill="rgb(32,66,198)"/><linearGradient id="_lgradient_360" x1="0" y1="0.5" x2="0.9376772132914529" y2="0.8475074728318446" gradientTransform="matrix(27.4,0,0,16.115,1348.121,92.844)" gradientUnits="userSpaceOnUse"><stop offset="100%" stop-opacity="1" style="stop-color:rgb(0,0,0)"/><stop offset="100%" stop-opacity="1" style="stop-color:rgb(0,0,0)"/></linearGradient><path d=" M 1351.393 102.622 C 1350.569 102.353 1349.789 101.961 1349.081 101.459 C 1348.363 100.947 1348.003 100.068 1348.156 99.2 C 1348.297 98.739 1348.557 98.325 1348.909 97.997 C 1351.446 95.354 1355.252 94.337 1358.873 93.65 C 1364.092 92.659 1369.84 92.13 1374.412 94.826 C 1374.994 95.169 1375.615 95.711 1375.509 96.385 C 1375.413 96.759 1375.194 97.089 1374.888 97.323 C 1372.972 99.12 1370.686 100.415 1368.677 102.093 C 1366.669 103.772 1365.757 106.494 1363.841 108.172 C 1360.234 111.33 1354.948 104.062 1351.393 102.622 Z " fill="url(#_lgradient_360)"/><linearGradient id="_lgradient_361" x1="0" y1="0.5" x2="0.030440953141194806" y2="-0.49953656680076275" gradientTransform="matrix(74.032,0,0,83.168,1285.158,114.607)" gradientUnits="userSpaceOnUse"><stop offset="0%" stop-opacity="1" style="stop-color:rgb(0,0,0)"/><stop offset="0%" stop-opacity="1" style="stop-color:rgb(0,0,0)"/></linearGradient><path d=" M 1359.19 114.607 C 1358.806 116.867 1358.225 119.166 1358 120.765 C 1357.107 125.296 1354.611 129.353 1350.971 132.195 C 1347.35 134.996 1343.417 137.369 1339.25 139.264 Q 1322.508 147.708 1306.03 156.707 C 1304.037 157.654 1302.219 158.932 1300.652 160.486 C 1299.21 162.278 1298.1 164.314 1297.375 166.498 C 1295.245 171.323 1293.611 176.353 1292.499 181.509 C 1292.076 183.835 1291.865 186.213 1291.283 188.526 C 1290.429 191.939 1288.792 195.106 1286.5 197.775 C 1285.676 192.045 1285.235 186.267 1285.179 180.478 C 1285.033 172.378 1285.575 163.895 1289.645 156.892 C 1294.005 149.386 1301.788 144.616 1309.386 140.374 C 1321.702 133.529 1333.343 125.429 1346.266 119.813 C 1349.187 118.479 1354.287 116.312 1359.19 114.607 Z " fill="url(#_lgradient_361)"/><path d=" M 1262.398 217.623 C 1266.045 212.935 1271.616 210.147 1277.554 210.038 C 1280.258 209.654 1283.015 209.912 1285.601 210.791 C 1289.594 212.461 1292.198 216.36 1292.208 220.688 C 1292.238 222.147 1291.772 223.572 1290.887 224.732 C 1289.984 225.908 1288.463 226.429 1287.028 226.053 C 1286.609 225.946 1286.268 225.64 1286.117 225.234 C 1286.058 225 1286.058 224.755 1286.117 224.52 C 1286.56 222.501 1286.417 220.397 1285.707 218.455 C 1284.972 216.487 1283.318 215.005 1281.28 214.491 C 1279.457 214.348 1277.622 214.504 1275.85 214.953 C 1273.207 215.76 1268.674 217.596 1267.128 219.829 C 1265.582 222.063 1265.463 225.868 1263.098 227.546 C 1261.499 228.67 1258.936 229.436 1257.812 226.991 C 1256.689 224.547 1260.865 219.354 1262.398 217.623 Z " fill="rgb(62,62,84)"/><path d=" M 1394.431 118.981 C 1394.563 119.562 1394.616 120.302 1394.141 120.633 C 1393.7 120.89 1393.154 120.89 1392.713 120.633 C 1390.493 119.615 1388.934 117.303 1386.543 116.787 C 1385.078 116.669 1383.607 116.669 1382.142 116.787 C 1380.676 116.708 1378.997 115.809 1378.958 114.343 C 1378.958 113.193 1379.883 112.295 1380.755 111.541 C 1382.314 110.22 1383.741 108.727 1385.248 107.339 C 1387.124 105.622 1387.481 105.569 1389.04 107.683 C 1391.562 111.058 1393.394 114.897 1394.431 118.981 L 1394.431 118.981 Z " fill="rgb(255,200,0)"/><path d=" M 1371.941 118.056 C 1371.733 118.132 1371.55 118.264 1371.413 118.439 C 1371.317 118.626 1371.28 118.838 1371.307 119.047 C 1371.45 120.697 1372.075 122.268 1373.104 123.566 C 1374.069 124.887 1375.205 126.103 1376.09 127.53 C 1378.906 126.159 1380.743 123.353 1380.874 120.223 C 1380.982 119.041 1380.61 117.865 1379.843 116.959 C 1377.835 114.845 1373.963 117.078 1371.941 118.056 Z " fill="rgb(32,66,198)"/><path d=" M 1372.84 142.515 C 1372.412 147.143 1370.46 151.498 1367.29 154.896 C 1364.883 157.129 1362.033 158.831 1358.925 159.891 C 1352.543 162.336 1345.712 163.366 1339.105 164.952 C 1332.498 166.538 1325.758 168.771 1320.526 173.184 C 1313.509 179.117 1309.955 188.222 1307.946 197.168 L 1319.72 195.846 C 1320.418 195.816 1321.102 195.64 1321.728 195.331 C 1322.426 194.826 1322.985 194.153 1323.354 193.375 C 1327.569 186.174 1332.96 179.487 1339.937 174.876 C 1346.399 170.647 1353.931 168.388 1360.841 164.965 C 1367.752 161.543 1374.465 156.403 1376.764 149.029 C 1377.548 146.211 1377.939 143.299 1377.927 140.374 C 1378.033 136.502 1377.927 132.618 1377.702 128.746 C 1377.702 126.087 1377.087 123.464 1375.905 121.082 C 1374.346 124.412 1372.43 127.213 1372.787 130.913 C 1373.226 134.767 1373.244 138.657 1372.84 142.515 L 1372.84 142.515 Z " fill="rgb(32,66,198)"/><linearGradient id="_lgradient_362" x1="0" y1="0.5" x2="1" y2="0.5" gradientTransform="matrix(18.494,0,0,24.177,1272.667,194.313)" gradientUnits="userSpaceOnUse"><stop offset="100%" stop-opacity="1" style="stop-color:rgb(229,197,213)"/><stop offset="100%" stop-opacity="1" style="stop-color:rgb(230,200,212)"/><stop offset="100%" stop-opacity="1" style="stop-color:rgb(234,214,209)"/></linearGradient><path d=" M 1279.708 195.793 C 1278.021 196.981 1276.743 198.661 1276.048 200.603 C 1274.105 204.713 1272.084 209.166 1272.824 213.659 C 1272.974 214.859 1273.464 215.992 1274.237 216.922 C 1275.497 218.129 1277.243 218.685 1278.968 218.429 C 1280.667 218.16 1282.304 217.592 1283.804 216.751 C 1286.685 215.31 1289.698 213.434 1290.755 210.395 C 1291.653 207.752 1290.887 204.924 1290.134 202.268 C 1289.632 200.537 1288.812 195.45 1287.134 194.525 C 1285.76 193.811 1281.029 195.067 1279.708 195.793 Z " fill="url(#_lgradient_362)"/><path d=" M 1308.541 220.887 C 1309.551 220.796 1310.569 220.922 1311.527 221.257 C 1312.416 221.701 1313.169 222.376 1313.707 223.212 C 1315.775 226.328 1316.709 230.061 1316.35 233.783 C 1315.972 237.474 1315.174 241.109 1313.972 244.619 L 1306.043 271.047 C 1305.462 273.684 1304.267 276.146 1302.555 278.235 C 1299.555 281.353 1294.772 281.723 1290.451 281.829 C 1272.454 282.292 1254.443 281.499 1236.472 280.508 C 1232.203 280.489 1227.964 279.784 1223.919 278.42 C 1221.54 277.469 1219.188 275.777 1218.501 273.372 C 1218.237 272.201 1218.196 270.991 1218.382 269.804 C 1218.865 266.146 1219.58 262.523 1220.523 258.956 C 1222.531 250.671 1224.566 242.306 1228.213 234.589 C 1229.266 232.028 1230.878 229.735 1232.931 227.877 C 1234.243 226.849 1235.71 226.038 1237.278 225.472 C 1244.81 222.578 1252.844 224.428 1260.68 223.675 Q 1276.087 222.195 1291.521 221.494 Q 1299.991 221.032 1308.541 220.887 Z " fill="rgb(62,62,84)"/><linearGradient id="_lgradient_363" x1="0" y1="0.5" x2="0.8738953912882226" y2="0.9861140247773195" gradientTransform="matrix(98.16,0,0,61.111,1216.346,221.098)" gradientUnits="userSpaceOnUse"><stop offset="100%" stop-opacity="1" style="stop-color:rgb(0,0,0)"/><stop offset="100%" stop-opacity="1" style="stop-color:rgb(0,0,0)"/></linearGradient><path d=" M 1306.612 221.124 C 1307.622 221.039 1308.639 221.165 1309.598 221.494 C 1310.491 221.938 1311.248 222.614 1311.791 223.45 C 1313.852 226.569 1314.785 230.299 1314.434 234.021 C 1314.052 237.712 1313.249 241.348 1312.042 244.857 L 1304.114 271.284 C 1303.532 273.921 1302.337 276.384 1300.626 278.473 C 1297.626 281.591 1292.843 281.961 1288.522 282.08 C 1270.524 282.529 1252.527 281.737 1234.543 280.759 C 1230.274 280.74 1226.035 280.035 1221.99 278.671 C 1219.624 277.72 1217.259 276.028 1216.572 273.623 C 1216.312 272.451 1216.276 271.241 1216.466 270.055 C 1216.946 266.398 1217.656 262.775 1218.594 259.207 C 1220.602 250.922 1222.637 242.557 1226.284 234.84 C 1227.34 232.281 1228.951 229.988 1231.001 228.128 C 1232.311 227.1 1233.779 226.292 1235.349 225.736 C 1242.881 222.829 1250.915 224.679 1258.764 223.926 Q 1274.145 222.446 1289.592 221.745 Q 1298.062 221.296 1306.612 221.124 Z " fill="url(#_lgradient_363)"/><linearGradient id="_lgradient_364" x1="0" y1="0.5" x2="1" y2="0.5" gradientTransform="matrix(44.481,0,0,56.59,1367.96,58.076)" gradientUnits="userSpaceOnUse"><stop offset="100%" stop-opacity="1" style="stop-color:rgb(229,197,213)"/><stop offset="100%" stop-opacity="1" style="stop-color:rgb(229,198,213)"/><stop offset="100%" stop-opacity="1" style="stop-color:rgb(234,213,209)"/></linearGradient><path d=" M 1381.283 87.096 C 1381.705 86.639 1382.025 86.099 1382.222 85.51 C 1382.334 84.952 1382.334 84.377 1382.222 83.819 C 1381.64 80.238 1380.464 76.696 1380.702 73.062 C 1381.016 69.177 1382.792 65.556 1385.67 62.927 C 1388.547 60.343 1392.151 58.709 1395.99 58.25 C 1398.479 57.807 1401.044 58.217 1403.271 59.412 C 1406.205 61.223 1407.553 64.698 1408.332 68.081 C 1409.112 71.464 1409.588 74.978 1411.477 77.846 C 1411.992 78.625 1412.653 79.524 1412.376 80.489 C 1412.202 80.886 1411.971 81.256 1411.689 81.585 C 1409.68 84.519 1412.072 89.012 1410.024 91.919 C 1409.504 92.597 1408.841 93.152 1408.081 93.544 C 1404.831 95.315 1400.88 95.064 1397.351 96.187 C 1393.98 97.412 1390.997 99.515 1388.71 102.278 C 1386.331 104.921 1384.375 107.947 1382.222 110.788 C 1380.532 113.631 1377.257 115.126 1374.002 114.541 C 1372.961 114.737 1371.884 114.508 1371.013 113.904 C 1370.141 113.301 1369.547 112.374 1369.364 111.33 C 1368.574 109.374 1368.101 107.304 1367.964 105.199 C 1367.858 101.036 1370.316 99.609 1372.826 96.874 Q 1377.24 92.09 1381.283 87.096 Z " fill="url(#_lgradient_364)"/><path d=" M 1400.311 52.079 C 1397.53 50.702 1394.372 50.279 1391.326 50.876 C 1389.49 51.067 1387.701 51.577 1386.04 52.383 C 1381.363 54.788 1378.997 60.218 1374.584 63.073 C 1372.985 64.117 1371.109 64.817 1369.853 66.244 C 1368.624 67.625 1368.133 69.513 1368.532 71.318 C 1368.8 72.008 1368.917 72.747 1368.875 73.485 C 1368.604 74.263 1368.151 74.966 1367.554 75.533 C 1366.005 77.562 1365.92 80.352 1367.343 82.471 C 1369.166 85.114 1372.774 85.787 1374.914 88.113 C 1376.011 89.302 1376.896 90.994 1378.508 91.192 C 1379.626 91.188 1380.698 90.747 1381.495 89.963 C 1383.702 88.219 1385.736 85.853 1385.908 83.039 C 1385.908 82.074 1385.789 81.096 1385.908 80.132 C 1385.921 79.143 1386.446 78.233 1387.296 77.727 C 1388.378 77.365 1389.572 77.67 1390.348 78.507 C 1391.167 79.26 1391.749 80.238 1392.555 81.004 C 1392.614 81.078 1392.699 81.125 1392.793 81.136 C 1392.885 81.13 1392.97 81.087 1393.031 81.017 C 1393.852 80.043 1394.057 78.689 1393.559 77.516 C 1393.052 76.371 1392.705 75.161 1392.528 73.921 C 1392.615 72.261 1393.415 70.72 1394.722 69.693 C 1395.951 68.609 1397.365 67.79 1398.686 66.72 C 1400.747 64.949 1403.364 61.685 1403.972 58.963 C 1404.579 56.241 1402.597 53.4 1400.311 52.079 Z " fill="rgb(62,62,84)"/><path d=" M 1373.87 112.466 C 1374.875 113.444 1376.13 114.805 1375.416 116.021 C 1374.703 117.237 1373.236 116.906 1372.007 116.787 C 1370.079 116.517 1368.125 117.062 1366.616 118.294 C 1364.726 120.064 1364.343 123.209 1362.097 124.517 C 1361.048 118.082 1361.084 111.517 1362.202 105.093 C 1362.349 104.123 1362.597 103.171 1362.942 102.252 C 1363.713 100.684 1364.75 99.262 1366.008 98.05 C 1367.76 96.729 1370.123 96.559 1372.047 97.614 C 1372.047 97.614 1369.087 102.001 1369.259 103.375 C 1369.741 106.834 1371.364 110.034 1373.87 112.466 Z " fill="rgb(255,200,0)"/></g><g><g opacity="0.18"><path d=" M 124.218 644.257 C 141.057 646.091 178.352 651.953 204.746 651.997 C 233.805 652.043 262.625 651.518 289.208 650.457 C 314.114 649.462 336.763 648.007 362.612 647.231 C 416.447 645.617 474.928 647.157 531.669 647.168 C 571.482 647.175 612.386 646.369 644.649 644.257 C 676.912 642.145 699.133 638.613 695.639 635.033 C 693.545 632.903 682.81 630.907 668.669 629.193 C 631.407 624.682 566.39 629.229 523.894 625.124 C 496.216 622.452 479.602 611.877 441.721 610.583 C 423.732 609.968 404.061 609.918 384.848 609.935 C 366.416 609.958 347.571 610.052 330.584 610.695 C 311.902 611.4 296.773 612.727 285.035 614.216 C 251.888 618.422 180.018 614.758 163.636 617.97 C 147.77 621.092 94.196 640.984 124.218 644.257 Z " fill="rgb(32,66,198)"/></g><path d=" M 490.563 457.484 C 490.177 459.19 490.014 460.939 490.078 462.687 C 490.168 464.445 490.935 466.1 492.219 467.304 C 492.702 467.639 493.16 468.008 493.591 468.409 C 494.846 469.764 494.511 471.905 494.427 473.779 C 494.344 475.653 495.063 477.995 496.92 478.179 C 497.72 478.184 498.505 477.957 499.179 477.526 C 502.056 476.037 505.034 474.18 506.49 471.32 C 507.647 468.491 507.869 465.367 507.126 462.402 C 506.595 459.492 505.765 456.644 504.65 453.904 C 504.53 453.52 504.296 453.182 503.98 452.933 C 503.652 452.76 503.28 452.684 502.91 452.716 C 499.676 452.726 496.479 453.41 493.524 454.723" fill="rgb(200,165,156)"/><path d=" M 454.894 384.758 C 454.894 384.758 445.843 395.164 436.307 404.55 C 435.688 405.202 435.019 405.838 434.383 406.457 C 428.695 411.944 423.09 416.796 419.326 418.603 C 418.573 418.954 372.431 448.253 372.431 448.253 C 363.079 438.098 377.635 430.837 377.635 430.837 L 417.956 390.396 L 426.704 381.914 L 432.091 366.037 L 433.764 363.829 L 459.93 328.143 L 454.894 384.758 Z " fill="rgb(32,66,198)"/><linearGradient id="_lgradient_365" x1="0" y1="0.5" x2="0.3463312106963735" y2="1.4381123027109197" gradientTransform="matrix(16.981,0,0,25.497,419.326,380.96)" gradientUnits="userSpaceOnUse"><stop offset="100%" stop-opacity="0" style="stop-color:rgb(255,255,255)"/><stop offset="100%" stop-opacity="0.011768980038786498" style="stop-color:rgb(255,255,255)"/><stop offset="100%" stop-opacity="0.23520593824021938" style="stop-color:rgb(255,255,255)"/><stop offset="100%" stop-opacity="0.413421045129287" style="stop-color:rgb(255,255,255)"/><stop offset="100%" stop-opacity="0.5920787600611986" style="stop-color:rgb(255,255,255)"/><stop offset="100%" stop-opacity="0.7412195392359032" style="stop-color:rgb(255,255,255)"/><stop offset="100%" stop-opacity="0.8507391146884261" style="stop-color:rgb(255,255,255)"/><stop offset="100%" stop-opacity="0.9303959542973712" style="stop-color:rgb(255,255,255)"/><stop offset="100%" stop-opacity="0.9801400427830702" style="stop-color:rgb(255,255,255)"/></linearGradient><path d=" M 436.307 404.55 C 435.688 405.202 435.019 405.838 434.383 406.457 C 428.657 399.234 423.617 391.493 419.326 383.336 L 421.083 380.96 C 425.393 389.291 430.491 397.19 436.307 404.55 L 436.307 404.55 Z " fill="url(#_lgradient_365)"/><path d=" M 448.386 381.914 C 442.606 376.986 437.162 371.676 432.091 366.02 L 433.764 363.812 C 438.867 369.545 444.363 374.917 450.21 379.889 C 451.498 381.027 449.708 383.035 448.386 381.914 Z " fill="rgb(117,177,176)"/><path d=" M 440.15 305 C 434.55 307.828 430.066 312.361 429.148 318.104 C 428.451 322.357 431.028 325.895 430.863 330.063 C 430.67 335.106 427.254 339.032 424.575 342.962 C 418.71 351.541 417.971 363.391 429.123 368.351 C 435.704 371.009 443.223 369.716 448.538 365.012 C 453.552 360.629 453.758 353.726 457.131 348.36 C 460.807 342.488 466.108 338.657 468.089 331.721 C 470.661 322.786 470.622 307.717 460.578 303.305 C 454.832 300.795 446.709 301.691 440.15 305 Z " fill="rgb(96,97,97)"/><path d=" M 500.066 575.08 L 499.848 575.9 L 499.647 574.929 L 500.066 575.08 Z " fill="rgb(179,216,220)"/><path d=" M 516.043 595.658 C 514.299 600.788 511.363 605.433 507.477 609.209 C 506.627 611.212 505.334 612.997 503.696 614.429 C 497.523 619.448 485.293 617.173 488.187 612.84 C 490.844 608.056 492.997 603.01 494.611 597.783 L 499.865 576.033 L 500.082 575.214 C 500.431 575.311 500.772 575.434 501.103 575.582 C 502.224 575.933 503.846 576.502 505.185 576.903 C 507.477 577.539 516.043 595.658 516.043 595.658 Z " fill="rgb(32,66,198)"/><linearGradient id="_lgradient_366" x1="0" y1="0.5" x2="0.7675389964352293" y2="1.1410022534681146" gradientTransform="matrix(28.292,0,0,42.072,487.751,575.214)" gradientUnits="userSpaceOnUse"><stop offset="100%" stop-opacity="1" style="stop-color:rgb(1,1,1)"/><stop offset="100%" stop-opacity="0.9758515352386472" style="stop-color:rgb(1,1,1)"/></linearGradient><path d=" M 516.043 595.658 C 514.299 600.788 511.363 605.433 507.477 609.209 C 506.627 611.212 505.334 612.997 503.696 614.429 C 497.523 619.448 485.293 617.173 488.187 612.84 C 490.844 608.056 492.997 603.01 494.611 597.783 L 499.865 576.033 L 500.082 575.214 C 500.431 575.311 500.772 575.434 501.103 575.582 C 502.224 575.933 503.846 576.502 505.185 576.903 C 507.477 577.539 516.043 595.658 516.043 595.658 Z " fill="url(#_lgradient_366)"/><path d=" M 501.086 575.448 C 500.756 575.3 500.414 575.177 500.066 575.08 L 500.166 574.678 C 500.497 574.904 500.806 575.161 501.086 575.448 L 501.086 575.448 Z " fill="rgb(179,216,220)"/><path d=" M 490.061 584.114 C 490.061 584.114 495.615 594.821 493.725 600.476 C 493.725 600.476 491.199 611.016 496.117 610.33 C 496.117 610.33 503.629 601.329 503.796 597.883 C 503.796 597.883 502.525 583.144 498.275 579.212" fill="rgb(200,165,156)"/><path d=" M 471.072 429.227 C 471.072 429.227 476.576 428.457 477.53 444.167 C 477.53 444.167 457.454 513.362 457.454 513.362 C 472.799 533.031 487.085 553.504 500.25 574.695 C 500.25 574.695 500.885 583.194 490.881 585.837 C 490.881 585.837 431.556 528.068 428.009 521.476 C 424.462 514.885 428.009 435.333 428.009 435.333 C 428.009 435.333 448.687 446.492 471.072 429.227 Z " fill="rgb(96,97,97)"/><linearGradient id="_lgradient_367" x1="0" y1="0.5" x2="0.03497184068328466" y2="1.4993882980899982" gradientTransform="matrix(73.825,0,0,156.617,426.433,429.22)" gradientUnits="userSpaceOnUse"><stop offset="100%" stop-opacity="1" style="stop-color:rgb(1,1,1)"/><stop offset="100%" stop-opacity="0.9789935825394658" style="stop-color:rgb(1,1,1)"/></linearGradient><path d=" M 471.072 429.227 C 471.072 429.227 476.576 428.457 477.53 444.167 C 477.53 444.167 457.454 513.362 457.454 513.362 C 472.799 533.031 487.085 553.504 500.25 574.695 C 500.25 574.695 500.885 583.194 490.881 585.837 C 490.881 585.837 431.556 528.068 428.009 521.476 C 424.462 514.885 428.009 435.333 428.009 435.333 C 428.009 435.333 448.687 446.492 471.072 429.227 Z " fill="url(#_lgradient_367)"/><path d=" M 407.983 596.678 L 407.163 597.13 L 407.765 596.26 C 407.819 596.409 407.892 596.549 407.983 596.678 Z " fill="rgb(179,216,220)"/><path d=" M 404.001 622.359 C 398.35 624.529 392.337 625.602 386.284 625.521 C 384.106 626.282 381.792 626.579 379.492 626.391 C 371.628 625.32 364.886 614.998 369.989 614.027 C 376.048 612.532 381.987 610.586 387.756 608.205 L 407.163 597.13 L 407.983 596.678 C 407.983 596.829 408.184 597.13 408.334 597.448 C 408.836 598.569 409.556 600.192 410.175 601.53 C 411.195 603.672 404.001 622.359 404.001 622.359 Z " fill="rgb(32,66,198)"/><linearGradient id="_lgradient_368" x1="0" y1="0.5" x2="0.3685109376117882" y2="1.4296234123883074" gradientTransform="matrix(42.06,0,0,29.767,368.213,596.678)" gradientUnits="userSpaceOnUse"><stop offset="100%" stop-opacity="1" style="stop-color:rgb(1,1,1)"/><stop offset="100%" stop-opacity="0.9677601354074313" style="stop-color:rgb(1,1,1)"/></linearGradient><path d=" M 404.001 622.359 C 398.35 624.529 392.337 625.602 386.284 625.521 C 384.106 626.282 381.792 626.579 379.492 626.391 C 371.628 625.32 364.886 614.998 369.989 614.027 C 376.048 612.532 381.987 610.586 387.756 608.205 L 407.163 597.13 L 407.983 596.678 C 407.983 596.829 408.184 597.13 408.334 597.448 C 408.836 598.569 409.556 600.192 410.175 601.53 C 411.195 603.672 404.001 622.359 404.001 622.359 Z " fill="url(#_lgradient_368)"/><path d=" M 408.334 597.498 C 408.184 597.18 408.033 596.879 407.983 596.729 L 408.284 596.528 C 408.328 596.849 408.344 597.174 408.334 597.498 L 408.334 597.498 Z " fill="rgb(179,216,220)"/><path d=" M 394.532 595.541 C 394.532 595.541 383.038 608.557 377.635 611.066 C 377.635 611.066 373.352 615.031 377.233 618.11 C 377.233 618.11 391.353 617.24 393.963 614.981 C 393.963 614.981 403.767 603.922 403.717 598.134" fill="rgb(200,165,156)"/><path d=" M 471.122 445.94 C 471.122 445.94 470.102 454.305 459.411 465.866 C 459.411 465.866 423.458 523.2 423.458 523.2 C 419.748 547.865 414.722 572.315 408.401 596.444 C 408.401 596.444 402.663 602.751 393.863 597.314 C 393.863 597.314 397.209 520.556 399.601 513.446 C 401.994 506.336 424.981 439.114 424.981 439.114 C 424.981 439.114 443.183 441.557 471.122 445.94 Z " fill="rgb(96,97,97)"/><linearGradient id="_lgradient_369" x1="0" y1="0.5" x2="0.9498085641974539" y2="0.18716826986833462" gradientTransform="matrix(77.26,0,0,160.41,393.863,439.114)" gradientUnits="userSpaceOnUse"><stop offset="100%" stop-opacity="1" style="stop-color:rgb(1,1,1)"/><stop offset="100%" stop-opacity="0.9864351600651112" style="stop-color:rgb(1,1,1)"/></linearGradient><path d=" M 471.122 445.94 C 471.122 445.94 470.102 454.305 459.411 465.866 C 459.411 465.866 423.458 523.2 423.458 523.2 C 419.748 547.865 414.722 572.315 408.401 596.444 C 408.401 596.444 402.663 602.751 393.863 597.314 C 393.863 597.314 397.209 520.556 399.601 513.446 C 401.994 506.336 424.981 439.114 424.981 439.114 C 424.981 439.114 443.183 441.557 471.122 445.94 Z " fill="url(#_lgradient_369)"/><path d=" M 429.046 440.319 C 432.009 443.926 435.704 446.862 439.887 448.935 C 447.215 452.716 460.465 453.586 466.003 452.046 C 471.541 450.507 476.643 438.177 476.643 438.177 C 476.643 438.177 433.212 441.507 429.046 440.319 Z " fill="rgb(242,251,255)"/><path d=" M 465.936 328.712 C 471.184 332.114 474.972 337.352 476.56 343.401 C 478.835 353.171 472.043 395.382 475.205 426.935 C 476.459 439.432 476.643 439.767 476.643 439.767 C 476.643 439.767 441.51 444.551 424.864 439.114 C 426.152 441.239 427.423 393.257 424.696 365.719 C 423.191 350.478 438.733 328.26 438.733 328.26 C 438.733 328.26 452.401 324.011 465.936 328.712 Z " fill="rgb(147,198,201)"/><path d=" M 475.205 426.951 C 476.459 439.432 476.66 439.767 476.66 439.767 C 476.66 439.767 471.825 440.419 464.949 440.971 L 462.239 441.172 C 458.173 441.44 453.589 441.674 448.855 441.707 L 446.128 441.707 C 443.317 441.707 440.54 441.573 437.846 441.389 C 436.926 441.306 436.023 441.222 435.119 441.105 C 431.662 440.822 428.246 440.165 424.931 439.148 C 426.169 437.575 427.273 392.186 424.663 365.736 C 423.157 350.461 438.683 328.244 438.683 328.244 C 438.683 328.244 439.218 328.076 440.188 327.842 C 441.159 327.608 441.861 327.457 443.033 327.257 C 445.842 326.79 448.683 326.532 451.531 326.487 C 452.418 326.487 453.305 326.487 454.242 326.487 C 458.079 326.623 461.877 327.31 465.518 328.528 C 465.65 328.551 465.78 328.591 465.903 328.645 C 466.639 329.104 467.343 329.613 468.011 330.168 C 472.189 333.522 475.166 338.143 476.493 343.334 C 478.835 353.238 472.043 395.365 475.205 426.951 Z " fill="rgb(32,66,198)"/><linearGradient id="_lgradient_370" x1="0" y1="0.5" x2="0.04732264649741293" y2="1.4988796559788775" gradientTransform="matrix(9.755,0,0,114.133,433.277,327.257)" gradientUnits="userSpaceOnUse"><stop offset="100%" stop-opacity="0" style="stop-color:rgb(255,255,255)"/><stop offset="100%" stop-opacity="0.011768197214518876" style="stop-color:rgb(255,255,255)"/><stop offset="100%" stop-opacity="0.23520559196256602" style="stop-color:rgb(255,255,255)"/><stop offset="100%" stop-opacity="0.41342081757540045" style="stop-color:rgb(255,255,255)"/><stop offset="100%" stop-opacity="0.592078621790608" style="stop-color:rgb(255,255,255)"/><stop offset="100%" stop-opacity="0.7412194581171567" style="stop-color:rgb(255,255,255)"/><stop offset="100%" stop-opacity="0.8507390655255496" style="stop-color:rgb(255,255,255)"/><stop offset="100%" stop-opacity="0.9303959279601159" style="stop-color:rgb(255,255,255)"/><stop offset="100%" stop-opacity="0.9801400334679988" style="stop-color:rgb(255,255,255)"/></linearGradient><path d=" M 437.896 441.389 C 436.976 441.306 436.073 441.222 435.169 441.105 C 431.491 403.303 433.181 365.171 440.188 327.842 C 440.925 327.675 441.861 327.457 443.033 327.257 C 435.845 364.856 434.115 403.296 437.896 441.389 L 437.896 441.389 Z " fill="url(#_lgradient_370)"/><linearGradient id="_lgradient_371" x1="0" y1="0.5" x2="0.04469483281503312" y2="1.4990006866462287" gradientTransform="matrix(9.302,0,0,115.237,444.99,326.47)" gradientUnits="userSpaceOnUse"><stop offset="100%" stop-opacity="0" style="stop-color:rgb(255,255,255)"/><stop offset="100%" stop-opacity="0.011768197214518893" style="stop-color:rgb(255,255,255)"/><stop offset="100%" stop-opacity="0.23520559196256602" style="stop-color:rgb(255,255,255)"/><stop offset="100%" stop-opacity="0.41342081757540045" style="stop-color:rgb(255,255,255)"/><stop offset="100%" stop-opacity="0.592078621790608" style="stop-color:rgb(255,255,255)"/><stop offset="100%" stop-opacity="0.7412194581171566" style="stop-color:rgb(255,255,255)"/><stop offset="100%" stop-opacity="0.8507390655255496" style="stop-color:rgb(255,255,255)"/><stop offset="100%" stop-opacity="0.9303959279601159" style="stop-color:rgb(255,255,255)"/><stop offset="100%" stop-opacity="0.9801400334679988" style="stop-color:rgb(255,255,255)"/></linearGradient><path d=" M 448.922 441.707 L 446.195 441.707 C 443.51 403.216 445.318 364.543 451.582 326.47 C 452.468 326.47 453.355 326.47 454.292 326.47 C 447.977 364.538 446.174 403.217 448.922 441.707 L 448.922 441.707 Z " fill="url(#_lgradient_371)"/><linearGradient id="_lgradient_372" x1="0" y1="0.5" x2="0.03974530675619634" y2="1.4992098431214815" gradientTransform="matrix(8.08,0,0,112.577,459.981,328.595)" gradientUnits="userSpaceOnUse"><stop offset="100%" stop-opacity="0" style="stop-color:rgb(255,255,255)"/><stop offset="100%" stop-opacity="0.011768197214518876" style="stop-color:rgb(255,255,255)"/><stop offset="100%" stop-opacity="0.23520559196256602" style="stop-color:rgb(255,255,255)"/><stop offset="100%" stop-opacity="0.41342081757540045" style="stop-color:rgb(255,255,255)"/><stop offset="100%" stop-opacity="0.592078621790608" style="stop-color:rgb(255,255,255)"/><stop offset="100%" stop-opacity="0.7412194581171566" style="stop-color:rgb(255,255,255)"/><stop offset="100%" stop-opacity="0.8507390655255496" style="stop-color:rgb(255,255,255)"/><stop offset="100%" stop-opacity="0.9303959279601159" style="stop-color:rgb(255,255,255)"/><stop offset="100%" stop-opacity="0.9801400334679988" style="stop-color:rgb(255,255,255)"/></linearGradient><path d=" M 464.932 440.971 L 462.222 441.172 C 458.365 403.663 459.49 365.809 465.568 328.595 C 465.701 328.618 465.83 328.658 465.953 328.712 C 466.689 329.171 467.394 329.68 468.061 330.234 C 462.139 366.847 461.087 404.082 464.932 440.971 L 464.932 440.971 Z " fill="url(#_lgradient_372)"/><path d=" M 437.696 327.474 L 432.827 330.887 L 434.818 336.809 L 437.796 330.335 L 437.696 327.474 L 437.696 327.474 Z " fill="rgb(228,244,246)"/><path d=" M 458.692 307.95 L 462.406 327.374 C 462.406 327.374 442.33 332.393 438.097 331.907 L 437.21 321.786" fill="rgb(200,165,156)"/><path d=" M 458.642 308.385 C 458.662 308.299 458.69 308.215 458.725 308.134 L 458.725 307.95 L 437.21 321.786 L 437.712 327.474 C 438.181 327.34 438.432 325.617 438.934 325.433 C 442.514 324.145 454.66 319.979 458.642 308.385 Z " fill="rgb(182,145,136)"/><path d=" M 461.687 322.555 L 463.979 328.143 C 463.979 328.143 442.581 338.466 441.728 338.365 C 441.728 338.365 436.374 328.93 436.374 328.93 L 461.687 322.555 Z " fill="rgb(242,251,255)"/><path d=" M 457.63 288.869 C 453.709 283.276 445.814 277.713 432.459 280.824 C 422.887 283.033 419.671 286.79 419.957 289.8 C 419.716 290.602 419.663 291.449 419.801 292.275 L 418.836 290.489 C 420.29 295.798 423.772 310.229 426.758 318.062 C 429.745 325.895 435.818 332.917 441.43 330.429 C 447.042 327.942 457.57 314.236 459.189 309.454 C 460.807 304.673 461.52 294.473 457.63 288.869 Z " fill="rgb(200,165,156)"/><path d=" M 458.725 333.748 L 489.258 457.065 C 492.356 458.603 495.74 459.48 499.196 459.642 C 504.215 459.642 506.456 452.95 506.456 452.95 C 506.456 452.95 481.913 341.343 473.782 333.798 C 465.652 326.253 458.458 329.063 458.725 333.748 Z " fill="rgb(32,66,198)"/><linearGradient id="_lgradient_373" x1="0" y1="0.5" x2="0.13388253789343646" y2="-0.4909972078907249" gradientTransform="matrix(12.443,0,0,77.14,464.2,361.135)" gradientUnits="userSpaceOnUse"><stop offset="0%" stop-opacity="1" style="stop-color:rgb(1,1,1)"/></linearGradient><path d=" M 474.519 397.523 L 465.869 361.135 C 465.869 361.135 465.066 405.972 464.43 413.952 C 462.222 441.172 476.643 438.177 476.643 438.177 L 475.205 400.3" fill="url(#_lgradient_373)"/><path d=" M 428.613 277.463 C 428.613 277.463 418.901 281.697 417.688 286.617 C 416.323 292.445 420.931 293.041 425.403 292.815 C 438.088 292.186 437.869 306.316 446.38 311.515 C 455.351 316.957 457.537 321.042 459.543 330.99 C 461.488 340.568 471.569 347.46 481.314 346.665 C 491.058 345.87 499.59 338.166 502.312 328.754 C 503.362 325.156 503.528 320.934 501.227 317.958 C 498.028 313.776 491.787 313.93 486.993 311.782 C 482.784 309.872 479.669 306.154 478.526 301.676 C 477.328 296.879 478.22 290.972 474.463 287.757 C 471.69 285.396 467.633 285.686 464.008 285.447 C 456.702 284.917 454.626 277.734 448.322 274.904 C 441.823 271.878 434.638 273.902 428.613 277.463 Z " fill="rgb(96,97,97)"/><linearGradient id="_lgradient_374" x1="0" y1="0.5" x2="0.5378219183210249" y2="1.3430584701985342" gradientTransform="matrix(16.329,0,0,14.187,467.492,358.023)" gradientUnits="userSpaceOnUse"><stop offset="100%" stop-opacity="0" style="stop-color:rgb(255,255,255)"/><stop offset="100%" stop-opacity="0.011768197214518926" style="stop-color:rgb(255,255,255)"/><stop offset="100%" stop-opacity="0.23520559196256605" style="stop-color:rgb(255,255,255)"/><stop offset="100%" stop-opacity="0.4134208175754005" style="stop-color:rgb(255,255,255)"/><stop offset="100%" stop-opacity="0.592078621790608" style="stop-color:rgb(255,255,255)"/><stop offset="100%" stop-opacity="0.7412194581171566" style="stop-color:rgb(255,255,255)"/><stop offset="100%" stop-opacity="0.8507390655255496" style="stop-color:rgb(255,255,255)"/><stop offset="100%" stop-opacity="0.9303959279601159" style="stop-color:rgb(255,255,255)"/><stop offset="100%" stop-opacity="0.9801400334679988" style="stop-color:rgb(255,255,255)"/></linearGradient><path d=" M 483.821 360.667 C 477.928 363.466 472.637 367.387 468.245 372.21 L 467.492 369.082 C 471.956 364.472 477.23 360.724 483.051 358.023 C 483.319 358.876 483.553 359.78 483.821 360.667 Z " fill="url(#_lgradient_374)"/><linearGradient id="_lgradient_375" x1="0" y1="0.5" x2="0.6006843254823354" y2="1.299486298268977" gradientTransform="matrix(17.098,0,0,12.615,471.976,377.781)" gradientUnits="userSpaceOnUse"><stop offset="100%" stop-opacity="0" style="stop-color:rgb(255,255,255)"/><stop offset="100%" stop-opacity="0.011768980038786412" style="stop-color:rgb(255,255,255)"/><stop offset="100%" stop-opacity="0.23520593824021932" style="stop-color:rgb(255,255,255)"/><stop offset="100%" stop-opacity="0.41342104512928696" style="stop-color:rgb(255,255,255)"/><stop offset="100%" stop-opacity="0.5920787600611986" style="stop-color:rgb(255,255,255)"/><stop offset="100%" stop-opacity="0.7412195392359032" style="stop-color:rgb(255,255,255)"/><stop offset="100%" stop-opacity="0.8507391146884262" style="stop-color:rgb(255,255,255)"/><stop offset="100%" stop-opacity="0.9303959542973712" style="stop-color:rgb(255,255,255)"/><stop offset="100%" stop-opacity="0.9801400427830702" style="stop-color:rgb(255,255,255)"/></linearGradient><path d=" M 489.074 380.358 C 483.226 383.035 477.722 386.406 472.678 390.396 L 471.976 387.535 C 477.063 383.67 482.575 380.398 488.405 377.781 C 488.689 378.601 488.923 379.454 489.074 380.358 Z " fill="url(#_lgradient_375)"/><linearGradient id="_lgradient_376" x1="0" y1="0.5" x2="0.6462549762140791" y2="1.2631215536980593" gradientTransform="matrix(17.433,0,0,11.41,476.995,398.694)" gradientUnits="userSpaceOnUse"><stop offset="100%" stop-opacity="0" style="stop-color:rgb(255,255,255)"/><stop offset="100%" stop-opacity="0.011768197214518824" style="stop-color:rgb(255,255,255)"/><stop offset="100%" stop-opacity="0.23520559196256602" style="stop-color:rgb(255,255,255)"/><stop offset="100%" stop-opacity="0.41342081757540045" style="stop-color:rgb(255,255,255)"/><stop offset="100%" stop-opacity="0.5920786217906079" style="stop-color:rgb(255,255,255)"/><stop offset="100%" stop-opacity="0.7412194581171566" style="stop-color:rgb(255,255,255)"/><stop offset="100%" stop-opacity="0.8507390655255495" style="stop-color:rgb(255,255,255)"/><stop offset="100%" stop-opacity="0.9303959279601158" style="stop-color:rgb(255,255,255)"/><stop offset="100%" stop-opacity="0.9801400334679988" style="stop-color:rgb(255,255,255)"/></linearGradient><path d=" M 494.427 401.354 C 488.387 403.282 482.727 406.243 477.697 410.104 L 476.995 407.26 C 482.124 403.526 487.817 400.634 493.859 398.694 C 493.992 399.581 494.21 400.468 494.427 401.354 Z " fill="url(#_lgradient_376)"/><linearGradient id="_lgradient_377" x1="0" y1="0.5" x2="0.6444538278944747" y2="1.2646432264214198" gradientTransform="matrix(17.399,0,0,11.443,481.478,417.131)" gradientUnits="userSpaceOnUse"><stop offset="100%" stop-opacity="0" style="stop-color:rgb(255,255,255)"/><stop offset="100%" stop-opacity="0.011768980038786446" style="stop-color:rgb(255,255,255)"/><stop offset="100%" stop-opacity="0.23520593824021935" style="stop-color:rgb(255,255,255)"/><stop offset="100%" stop-opacity="0.41342104512928696" style="stop-color:rgb(255,255,255)"/><stop offset="100%" stop-opacity="0.5920787600611986" style="stop-color:rgb(255,255,255)"/><stop offset="100%" stop-opacity="0.7412195392359032" style="stop-color:rgb(255,255,255)"/><stop offset="100%" stop-opacity="0.8507391146884261" style="stop-color:rgb(255,255,255)"/><stop offset="100%" stop-opacity="0.9303959542973711" style="stop-color:rgb(255,255,255)"/><stop offset="100%" stop-opacity="0.9801400427830702" style="stop-color:rgb(255,255,255)"/></linearGradient><path d=" M 498.878 419.774 C 493.104 422.317 487.514 425.258 482.148 428.574 L 481.478 425.814 C 486.849 422.539 492.439 419.638 498.208 417.131 C 498.443 418.034 498.66 418.887 498.878 419.774 Z " fill="url(#_lgradient_377)"/><linearGradient id="_lgradient_378" x1="0" y1="0.5" x2="0.6958451196046653" y2="1.2181918751436618" gradientTransform="matrix(17.399,0,0,9.954,486.012,436.738)" gradientUnits="userSpaceOnUse"><stop offset="100%" stop-opacity="0" style="stop-color:rgb(255,255,255)"/><stop offset="100%" stop-opacity="0.011768980038786446" style="stop-color:rgb(255,255,255)"/><stop offset="100%" stop-opacity="0.23520593824021935" style="stop-color:rgb(255,255,255)"/><stop offset="100%" stop-opacity="0.41342104512928696" style="stop-color:rgb(255,255,255)"/><stop offset="100%" stop-opacity="0.5920787600611986" style="stop-color:rgb(255,255,255)"/><stop offset="100%" stop-opacity="0.7412195392359032" style="stop-color:rgb(255,255,255)"/><stop offset="100%" stop-opacity="0.8507391146884261" style="stop-color:rgb(255,255,255)"/><stop offset="100%" stop-opacity="0.9303959542973711" style="stop-color:rgb(255,255,255)"/><stop offset="100%" stop-opacity="0.9801400427830702" style="stop-color:rgb(255,255,255)"/></linearGradient><path d=" M 503.412 439.365 C 497.678 441.432 492.089 443.881 486.681 446.693 L 486.012 443.999 C 491.414 441.194 497.004 438.768 502.742 436.738 C 503.01 437.659 503.227 438.562 503.412 439.365 Z " fill="url(#_lgradient_378)"/><path d=" M 373.275 433.53 C 370.67 435.144 367.686 436.04 364.624 436.13 C 361.066 435.746 357.471 436.314 354.205 437.775 C 350.337 439.571 344.245 443.846 344.97 448.817 C 345.346 450.542 346.246 452.109 347.548 453.301 C 348.536 454.437 349.697 455.41 350.988 456.185 C 354.708 458.258 359.439 457.459 363.237 455.663 C 366.048 454.138 368.754 452.427 371.337 450.542 C 373.683 449.274 375.877 447.743 377.876 445.977" fill="rgb(200,165,156)"/><path d=" M 346.002 443.044 C 345.426 443.338 345.002 443.861 344.833 444.485 C 344.851 445.323 345.486 446.019 346.32 446.112 C 347.127 446.187 347.942 446.131 348.732 445.947 C 350.992 445.798 353.26 446.075 355.417 446.766 C 356.988 447.313 358.686 447.389 360.301 446.984 C 360.466 446.937 360.664 446.829 360.703 446.667 C 360.736 446.565 360.732 446.454 360.691 446.354 C 360.322 445.601 359.665 445.029 358.868 444.768 C 356.65 443.723 354.336 442.895 351.958 442.296 C 350.964 441.92 349.911 441.722 348.848 441.71 C 347.819 441.959 346.851 442.413 346.002 443.044 Z " fill="rgb(200,165,156)"/><path d=" M 231.944 432.258 C 230.816 431.396 229.192 431.416 227.898 432 C 226.607 432.585 225.593 433.651 224.726 434.774 C 222.24 437.991 220.649 442.117 221.318 446.127 C 221.69 448.338 222.859 450.43 224.542 451.912 C 225.834 453.048 228.603 454.641 230.364 453.961 C 233.654 452.692 234.472 446.307 234.803 443.376 C 235.158 440.218 234.738 436.932 233.316 434.089 C 232.971 433.402 232.556 432.726 231.944 432.258 Z " fill="rgb(229,197,213)"/><path d=" M 214.675 450.861 C 218.643 451.025 233.521 462.268 233.521 462.268 L 254.007 511.386 C 254.007 511.386 255 509.733 255.66 510.228 C 256.323 510.725 257.976 511.055 257.976 511.055 C 257.976 511.055 258.471 508.907 259.132 509.071 C 259.794 509.236 260.455 509.402 260.455 509.402 C 260.455 509.402 250.22 512.526 251.377 516.823 C 252.534 521.121 245.838 524.152 245.838 524.152 C 245.838 524.152 243.357 525.308 242.863 524.978 C 242.367 524.645 240.878 523.489 240.878 523.489 C 240.878 523.489 239.886 524.645 239.39 524.482 C 238.893 524.316 237.406 522.333 237.406 522.333 C 237.406 522.333 226.742 507.097 224.924 507.592 C 223.105 508.089 229.223 502.773 225.586 506.907 C 221.949 511.038 218.807 514.677 218.807 514.677 L 213.353 537.821 C 213.353 537.821 196.324 543.774 178.965 541.294 C 161.605 538.815 154.497 532.862 154.497 532.862 C 154.497 532.862 162.927 503.765 167.558 494.341 C 172.185 484.917 194.34 459.293 202.276 454.828 C 210.211 450.365 214.675 450.861 214.675 450.861 Z " fill="rgb(255,200,0)"/><path d=" M 248.314 519.362 C 251.131 515.916 258.977 509.268 258.977 509.268 C 258.977 509.268 294.499 491.573 301.16 487.81 C 307.821 484.047 318.163 490.45 314.442 494.341 C 310.722 498.23 254.038 534.994 251.038 534.501 C 248.808 534.133 244.295 529.332 242.127 526.893 C 243.092 525.723 245.999 522.194 248.314 519.362 Z " fill="rgb(229,197,213)"/><path d=" M 257.101 531.604 C 253.836 533.484 251.605 534.594 251.038 534.501 C 248.808 534.133 244.295 529.332 242.127 526.893 C 242.521 526.415 243.246 525.537 244.113 524.482 C 247.321 523.619 250.862 524.052 253.754 525.691 C 255.396 526.623 256.916 528.075 257.199 529.944 C 257.284 530.505 257.237 531.064 257.101 531.604 Z " fill="rgb(202,109,155)"/><path d=" M 225.212 456.377 C 223.326 455.121 221.372 453.883 219.612 452.894 C 220.761 451.947 221.797 450.855 222.68 449.652 C 223.196 450.488 223.81 451.266 224.542 451.912 C 224.942 452.263 225.494 452.653 226.105 453.011 C 225.757 454.264 225.452 455.409 225.208 456.376 C 225.208 456.376 225.21 456.376 225.212 456.377 Z " fill="rgb(202,109,155)"/><path d=" M 227.729 501.169 C 229.192 502.357 238.357 519.385 238.357 519.385 C 238.357 519.385 237.614 521.749 237.769 522.249 C 237.925 522.747 239.442 522.879 239.442 522.879 C 239.442 522.879 239.371 524.763 239.39 525.361 C 239.41 525.954 241.796 527.296 241.796 527.296 C 241.796 527.296 241.924 527.142 242.143 526.875 C 242.139 526.881 242.132 526.888 242.127 526.893 C 244.091 529.102 247.971 533.237 250.343 534.273 L 247.514 540.082 C 247.514 540.082 244.491 537.571 244.7 537.013 C 244.912 536.455 244.791 534.304 244.791 534.304 C 244.791 534.304 242.426 533.559 242.04 533.022 C 241.655 532.485 241.593 530.697 241.593 530.697 L 222.858 500.307 C 225.421 500.543 227.303 500.824 227.729 501.169 Z " fill="rgb(101,62,117)"/><path d=" M 250.34 534.28 C 250.591 534.389 250.826 534.466 251.038 534.501 C 254.038 534.994 303.549 501.904 307.269 498.015 C 310.99 494.124 313.953 496.271 313.611 498.347 C 313.271 500.422 305.098 506.898 303.64 508.554 C 302.185 510.21 260.757 548.893 258.624 549.608 C 256.902 550.187 250.389 542.24 247.958 539.173 L 250.34 534.28 Z " fill="rgb(157,93,125)"/><path d=" M 253.894 539.918 C 256.36 539.119 259.122 539.04 261.497 540.076 C 262.94 540.708 264.206 541.74 265.114 543.025 C 265.288 543.273 265.445 543.535 265.585 543.805 C 261.796 547.176 259.124 549.441 258.624 549.608 C 257.289 550.058 253.083 545.391 250.122 541.836 C 251.281 541.017 252.545 540.355 253.894 539.918 Z " fill="rgb(202,109,155)"/><path d=" M 242.092 487.81 L 242.147 487.318 L 219.828 484.837 C 219.661 484.85 208.542 486.13 204.187 484.357 C 200.055 482.674 195.72 474.367 196.734 467.429 C 197.704 460.796 202.42 455.046 202.467 454.985 L 202.084 454.671 C 202.035 454.728 197.234 460.588 196.243 467.357 C 195.285 473.915 199.272 482.89 203.999 484.817 C 208.475 486.637 219.366 485.382 219.83 485.329 L 242.092 487.81 Z " fill="rgb(85,52,102)"/><path d=" M 169.785 539.523 C 169.843 539.21 175.774 508.371 178.013 505.06 C 181.763 499.516 198.82 479.493 198.992 479.293 L 198.614 478.97 C 198.443 479.17 181.369 499.215 177.603 504.784 C 175.306 508.177 169.54 538.154 169.298 539.429 L 169.785 539.523 Z " fill="rgb(85,52,102)"/><path d=" M 156.103 533.968 C 159.056 535.807 166.25 539.477 178.965 541.294 C 192.732 543.262 206.26 539.931 211.28 538.467 L 211.699 540.055 C 211.699 540.055 266.257 556.174 268.986 558.157 C 271.713 560.141 285.104 581.221 273.943 592.627 C 262.786 604.036 233.521 603.788 233.521 603.788 C 233.521 603.788 232.282 601.804 228.81 597.093 C 225.339 592.38 218.146 582.708 218.146 582.708 C 218.146 582.708 169.293 578.74 167.558 578.245 C 165.821 577.748 154.413 571.797 152.676 565.844 C 151.276 561.039 154.723 541.371 156.103 533.968 Z " fill="rgb(34,34,41)"/><path d=" M 219.853 581.053 C 220.231 580.436 220.623 579.797 221.243 579.375 C 221.989 578.872 222.926 578.785 223.681 578.715 L 224.435 578.644 C 224.745 577.018 225.903 575.778 226.818 575.024 C 227.584 574.393 228.435 573.87 229.26 573.364 C 229.64 573.135 230.016 572.901 230.385 572.66 C 232.635 571.194 234.641 569.314 236.583 567.497 L 236.921 567.86 C 234.965 569.692 232.943 571.586 230.656 573.075 C 230.282 573.319 229.903 573.555 229.521 573.786 C 228.712 574.285 227.872 574.798 227.131 575.409 C 226.309 576.085 225.295 577.184 224.971 578.592 L 246.588 576.538 L 246.635 577.03 L 223.726 579.206 C 222.991 579.277 222.16 579.354 221.523 579.787 C 220.989 580.147 220.644 580.714 220.275 581.311 C 219.908 581.915 219.528 582.536 218.931 582.959 L 218.645 582.554 C 219.157 582.191 219.497 581.637 219.853 581.053 Z " fill="rgb(52,36,71)"/><path d=" M 243.623 581.033 C 244.46 581.144 245.268 581.283 245.907 581.781 C 246.897 582.549 247.13 583.859 247.285 585.137 C 247.302 585.269 247.346 585.624 247.076 585.813 C 246.954 585.899 246.815 585.912 246.713 585.912 C 246.688 585.912 246.665 585.91 246.645 585.91 C 242.3 585.765 237.923 585.306 233.64 584.547 L 233.726 584.06 C 237.987 584.814 242.34 585.271 246.661 585.415 C 246.738 585.42 246.777 585.412 246.787 585.41 C 246.79 585.407 246.815 585.367 246.793 585.198 C 246.651 584.023 246.442 582.824 245.604 582.171 C 245.062 581.751 244.326 581.626 243.558 581.527 C 238.221 580.831 232.785 580.7 227.423 581.145 L 227.38 580.649 C 232.789 580.205 238.253 580.332 243.623 581.033 Z " fill="rgb(52,36,71)"/><path d=" M 178.965 541.294 C 182.215 541.759 185.457 541.927 188.578 541.895 C 191.316 545.382 194.994 550.948 194.671 553.859 C 194.174 558.322 185.576 564.439 185.576 564.439 C 185.576 564.439 178.799 563.78 174.996 557.166 C 172.458 552.753 171.766 544.754 171.583 539.904 C 173.81 540.428 176.248 540.906 178.965 541.294 Z " fill="rgb(49,49,59)"/><path d=" M 225.029 591.967 C 225.084 591.933 230.321 588.498 232.255 587.533 C 233.21 587.056 234.803 586.355 236.344 585.678 C 238.007 584.947 239.442 584.313 239.894 584.042 C 240.787 583.508 240.312 582.405 239.964 581.597 C 239.81 581.246 239.64 580.844 239.64 580.642 C 239.717 580.615 240.265 580.518 240.592 580.458 C 241.376 580.316 242.186 580.168 242.542 579.575 C 243.017 578.783 242.246 577.992 241.564 577.291 C 241.333 577.057 240.978 576.694 240.848 576.468 C 241.333 576.249 242.812 576.029 243.732 575.894 C 245.974 575.566 246.78 575.404 247.026 574.91 C 247.381 574.204 246.492 573.483 245.154 572.387 C 244.505 571.859 243.524 571.059 243.416 570.731 C 243.337 570.493 243.697 570.067 244.016 569.689 C 244.493 569.117 245.038 568.471 244.925 567.678 C 244.853 567.156 244.702 566.073 221.782 567.241 C 221.014 566.62 219.346 565.227 218.866 564.628 C 218.113 563.679 215.525 564.956 213.42 566.236 L 188.635 561.966 L 188.469 562.945 L 213.619 567.276 L 213.778 567.178 C 215.68 566.006 217.708 565.115 218.135 565.284 C 218.779 566.105 221.206 568.051 221.308 568.134 L 221.456 568.252 L 221.645 568.242 C 231.407 567.745 242.261 567.502 243.934 568.001 C 243.867 568.32 243.558 568.69 243.257 569.05 C 242.771 569.628 242.221 570.281 242.475 571.046 C 242.663 571.604 243.374 572.215 244.525 573.155 C 245.035 573.573 245.775 574.174 246.031 574.505 C 245.634 574.611 244.421 574.79 243.586 574.914 C 241.033 575.29 239.805 575.509 239.805 576.344 C 239.805 576.909 240.316 577.431 240.853 577.985 C 241.132 578.271 241.716 578.869 241.692 579.068 C 241.569 579.273 240.874 579.401 240.414 579.483 C 239.586 579.631 238.646 579.802 238.646 580.642 C 238.646 581.05 238.843 581.507 239.054 581.992 C 239.185 582.295 239.531 583.103 239.382 583.19 C 238.985 583.431 237.44 584.112 235.944 584.771 C 234.391 585.452 232.789 586.158 231.813 586.646 C 229.824 587.638 224.705 590.995 224.487 591.138 L 225.029 591.967 Z " fill="rgb(20,16,35)"/><path d=" M 272.923 563.532 C 277.22 571.009 282.035 584.358 273.943 592.627 C 272.621 593.979 271.04 595.162 269.29 596.206 C 267.723 595 266.401 593.442 265.473 591.697 C 263.539 588.06 263.142 583.745 263.758 579.675 C 264.703 573.415 268.088 567.606 272.923 563.532 Z " fill="rgb(49,49,59)"/><path d=" M 175.657 599.488 C 177.808 598.993 194.835 594.034 198.142 593.208 C 200.888 592.52 214.543 586.151 219.108 584.003 C 221.176 586.787 226.112 593.429 228.81 597.093 C 231.131 600.241 232.437 602.147 233.06 603.082 C 218.868 605.09 187.099 609.667 186.073 610.567 C 184.751 611.723 183.428 619.163 183.428 619.163 C 183.428 619.163 184.255 619.163 184.42 619.824 C 184.584 620.485 184.089 621.644 184.584 621.644 C 185.081 621.644 184.584 622.8 184.584 622.8 C 184.584 622.8 188.884 623.463 189.71 624.122 C 190.537 624.784 190.371 626.934 190.371 627.429 C 190.371 627.926 177.641 628.256 176.154 627.926 C 174.667 627.593 175.162 617.344 174.667 614.699 C 174.17 612.053 171.359 602.299 171.029 601.307 C 170.698 600.317 173.507 599.984 175.657 599.488 Z " fill="rgb(229,197,213)"/><path d=" M 175.657 599.488 C 177.808 598.993 194.835 594.034 198.142 593.208 C 198.82 593.037 200.167 592.519 201.873 591.806 C 202.157 597.263 204.667 602.187 207.832 606.753 C 196.625 608.446 186.642 610.07 186.073 610.567 C 184.751 611.723 183.428 619.163 183.428 619.163 C 183.428 619.163 184.255 619.163 184.42 619.824 C 184.584 620.485 184.089 621.644 184.584 621.644 C 185.081 621.644 184.584 622.8 184.584 622.8 C 184.584 622.8 188.884 623.463 189.71 624.122 C 190.537 624.784 190.371 626.934 190.371 627.429 C 190.371 627.926 177.641 628.256 176.154 627.926 C 174.667 627.593 175.162 617.344 174.667 614.699 C 174.17 612.053 171.359 602.299 171.029 601.307 C 170.698 600.317 173.507 599.984 175.657 599.488 Z " fill="rgb(188,150,187)"/><path d=" M 175.657 599.488 C 176.535 599.286 179.908 598.336 183.805 597.228 C 184.163 599.418 184.559 601.605 185.079 603.763 C 185.611 605.958 186.272 608.133 187.117 610.227 C 186.542 610.366 186.169 610.483 186.073 610.567 C 184.751 611.723 183.428 619.163 183.428 619.163 C 183.428 619.163 184.255 619.163 184.42 619.824 C 184.584 620.485 184.089 621.644 184.584 621.644 C 185.081 621.644 184.584 622.8 184.584 622.8 C 184.584 622.8 188.884 623.463 189.71 624.122 C 190.537 624.784 190.371 626.934 190.371 627.429 C 190.371 627.926 177.641 628.256 176.154 627.926 C 174.667 627.593 175.162 617.344 174.667 614.699 C 174.17 612.053 171.359 602.299 171.029 601.307 C 170.698 600.317 173.507 599.984 175.657 599.488 Z " fill="rgb(43,30,63)"/><path d=" M 273.943 592.627 C 285.104 581.221 271.713 560.141 268.986 558.157 C 267.375 556.986 247.709 550.892 231.862 546.093 C 248.916 550.106 271.283 555.579 272.703 557.001 C 275.019 559.314 283.285 574.36 282.293 578.658 C 281.301 582.957 276.837 595.356 274.192 597.506 C 271.547 599.654 255.015 604.283 247.08 605.11 C 239.143 605.936 236.663 605.607 236.663 605.607 L 235.782 603.751 C 242.843 603.54 264.656 602.123 273.943 592.627 Z " fill="rgb(20,16,35)"/><path d=" M 233.06 603.082 C 233.369 603.545 233.521 603.788 233.521 603.788 C 233.521 603.788 234.36 603.793 235.782 603.751 L 236.327 604.897 C 227.07 606.277 205.44 609.55 204.921 610.07 C 204.259 610.731 203.929 619.99 203.929 619.99 L 205.416 620.818 L 205.582 621.974 C 205.582 621.974 206.74 620.982 206.904 621.644 C 207.069 622.303 207.896 623.13 207.896 623.13 C 207.896 623.13 212.03 622.635 212.36 623.627 C 212.691 624.619 213.02 627.593 212.527 627.926 C 212.03 628.256 195.994 627.429 195.168 626.603 C 194.34 625.775 193.347 613.707 192.521 609.905 C 192.469 609.669 192.446 609.438 192.407 609.204 C 202.621 607.435 222.603 604.561 233.06 603.082 Z " fill="rgb(229,197,213)"/><path d=" M 219.328 607.494 C 211.856 608.67 205.206 609.786 204.921 610.07 C 204.259 610.731 203.929 619.99 203.929 619.99 L 205.416 620.818 L 205.582 621.974 C 205.582 621.974 206.74 620.982 206.904 621.644 C 207.069 622.303 207.896 623.13 207.896 623.13 C 207.896 623.13 212.03 622.635 212.36 623.627 C 212.691 624.619 213.02 627.593 212.527 627.926 C 212.03 628.256 195.994 627.429 195.168 626.603 C 194.34 625.775 193.347 613.707 192.521 609.905 C 192.469 609.669 192.446 609.438 192.407 609.204 C 198.617 608.128 208.435 606.646 217.532 605.314 C 217.951 605.99 218.682 606.763 219.328 607.494 Z " fill="rgb(188,150,187)"/><path d=" M 222.329 434.427 C 225.815 428.553 233.267 422.408 246.819 424.5 C 256.531 425.979 260.021 429.482 259.964 432.504 C 260.265 433.286 260.382 434.126 260.307 434.961 L 261.134 433.107 C 260.086 438.511 257.706 453.164 255.321 461.2 C 252.935 469.237 247.411 476.698 241.627 474.642 C 235.842 472.586 224.307 459.716 222.332 455.071 C 220.356 450.426 218.874 440.309 222.329 434.427 Z " fill="rgb(229,197,213)"/><path d=" M 227.157 426.747 C 228.85 424.647 230.91 422.932 233.133 421.515 C 234.793 421.405 241.922 420.993 243.524 421.87 C 253.359 421.64 259.665 425.958 262.393 434.776 C 259.498 437.555 256.062 440.302 252.701 441.625 C 244.516 444.851 241.045 444.354 241.045 444.354 L 245.261 438.154 C 245.261 438.154 236.58 443.857 232.365 443.611 C 228.149 443.363 226.413 443.611 226.413 443.611 L 223.815 446.857 C 223.589 446.147 223.319 445.448 222.983 444.777 C 222.638 444.089 222.224 443.414 221.611 442.945 C 220.962 442.45 220.147 442.273 219.328 442.301 C 220.343 438.905 222.739 432.226 227.157 426.747 Z " fill="rgb(43,30,63)"/><path d=" M 301.16 486.869 C 303.684 485.132 305.704 482.759 307.015 479.99 C 308.092 476.578 310.055 473.513 312.704 471.108 C 315.902 468.287 322.264 464.424 326.525 467.083 C 327.954 468.12 329.027 469.574 329.597 471.244 C 330.241 472.606 330.666 474.06 330.857 475.553 C 331.262 479.792 328.631 483.804 325.462 486.562 C 322.936 488.524 320.283 490.316 317.519 491.924 C 315.416 493.565 313.133 494.959 310.713 496.081" fill="rgb(229,197,213)"/></g><g><linearGradient id="_lgradient_379" x1="0" y1="0.5" x2="1" y2="0.5" gradientTransform="matrix(11.983,0,0,18.876,764.194,271.955)" gradientUnits="userSpaceOnUse"><stop offset="100%" stop-opacity="1" style="stop-color:rgb(229,198,214)"/><stop offset="100%" stop-opacity="1" style="stop-color:rgb(231,203,212)"/><stop offset="100%" stop-opacity="1" style="stop-color:rgb(235,215,207)"/></linearGradient><path d=" M 775.28 277.505 C 774.777 279.237 774.871 281.087 775.547 282.759 C 775.795 283.114 775.992 283.503 776.133 283.913 C 776.274 284.488 776.072 285.093 775.614 285.469 C 775.124 285.816 774.486 285.873 773.941 285.619 C 773.684 285.409 773.389 285.25 773.071 285.151 C 772.285 284.984 771.783 285.954 771.599 286.74 C 771.231 288.28 770.813 290.086 769.374 290.705 C 767.652 291.169 765.848 290.32 765.108 288.698 C 764.333 287.346 764.038 285.772 764.271 284.231 C 764.874 280.249 768.705 277.539 770.344 273.892 C 770.729 272.988 770.495 273.423 771.198 272.737 C 771.874 272.092 772.826 271.822 773.741 272.018 C 776.953 272.737 775.631 275.364 775.28 277.505 Z " fill="url(#_lgradient_379)"/><path d=" M 761.896 456.384 C 761.375 457.11 761.148 458.007 761.26 458.893 C 761.641 459.797 762.399 460.488 763.334 460.784 C 767.678 462.424 772.294 463.224 776.936 463.143 Q 787.258 463.494 797.547 462.959 C 798.764 463.069 799.962 462.598 800.776 461.687 C 801.269 460.718 801.109 459.545 800.375 458.743 C 799.611 458.018 798.713 457.45 797.731 457.07 C 793.863 455.326 790.18 453.196 786.74 450.712 C 783.494 448.253 780.868 444.02 777.12 442.347 C 769.943 439.068 764.673 451.398 761.896 456.384 Z " fill="rgb(96,97,97)"/><path d=" M 767.534 274.946 L 768.839 276.15 C 768.839 276.15 772.937 271.131 775.865 275.715 L 777.639 274.042 C 777.639 274.042 771.934 266.798 767.534 274.946 Z " fill="rgb(32,66,198)"/><linearGradient id="_lgradient_380" x1="0" y1="0.5" x2="0.014140304461838608" y2="-0.49990002089695273" gradientTransform="matrix(10.105,0,0,5.076,767.534,271.074)" gradientUnits="userSpaceOnUse"><stop offset="0%" stop-opacity="0" style="stop-color:rgb(1,1,1)"/></linearGradient><path d=" M 767.534 274.946 L 768.839 276.15 C 768.839 276.15 772.937 271.131 775.865 275.715 L 777.639 274.042 C 777.639 274.042 771.934 266.798 767.534 274.946 Z " fill="url(#_lgradient_380)"/><path d=" M 789.885 373.419 C 786.74 384.494 781.52 394.867 778.174 405.926 C 774.443 418.758 773.59 432.209 772.753 445.543 C 774.109 447.818 777.505 448.052 779.814 446.73 C 781.977 445.209 783.707 443.151 784.833 440.758 C 807.819 401.317 827.365 359.969 843.254 317.172 L 889.613 324.902 C 891.06 324.755 892.488 325.317 893.448 326.409 C 894.407 327.502 894.78 328.99 894.448 330.406 L 893.695 379.141 L 904.972 379.392 C 905.961 379.71 907.044 379.524 907.872 378.894 C 908.699 378.264 909.165 377.269 909.121 376.23 L 919.912 310.062 C 920.514 306.398 921.066 302.416 919.242 299.171 C 917.776 296.972 915.779 295.177 913.437 293.951 C 891.44 280.434 865.985 273.609 840.176 274.31 C 832.815 274.511 825.336 275.33 818.192 273.557 C 806.816 270.713 801.947 263.251 798.116 277.656 C 795.322 288.112 794.77 299.07 794.436 309.845 C 793.934 331.025 795.774 352.774 789.885 373.419 Z " fill="rgb(96,97,97)"/><linearGradient id="_lgradient_381" x1="0" y1="0.5" x2="0.7359634162721839" y2="1.1770213068352993" gradientTransform="matrix(147.734,0,0,178.459,772.753,269.079)" gradientUnits="userSpaceOnUse"><stop offset="100%" stop-opacity="1" style="stop-color:rgb(1,1,1)"/><stop offset="100%" stop-opacity="0.9714424422423394" style="stop-color:rgb(1,1,1)"/></linearGradient><path d=" M 789.885 373.419 C 786.74 384.494 781.52 394.867 778.174 405.926 C 774.443 418.758 773.59 432.209 772.753 445.543 C 774.109 447.818 777.505 448.052 779.814 446.73 C 781.977 445.209 783.707 443.151 784.833 440.758 C 807.819 401.317 827.365 359.969 843.254 317.172 L 889.613 324.902 C 891.06 324.755 892.488 325.317 893.448 326.409 C 894.407 327.502 894.78 328.99 894.448 330.406 L 893.695 379.141 L 904.972 379.392 C 905.961 379.71 907.044 379.524 907.872 378.894 C 908.699 378.264 909.165 377.269 909.121 376.23 L 919.912 310.062 C 920.514 306.398 921.066 302.416 919.242 299.171 C 917.776 296.972 915.779 295.177 913.437 293.951 C 891.44 280.434 865.985 273.609 840.176 274.31 C 832.815 274.511 825.336 275.33 818.192 273.557 C 806.816 270.713 801.947 263.251 798.116 277.656 C 795.322 288.112 794.77 299.07 794.436 309.845 C 793.934 331.025 795.774 352.774 789.885 373.419 Z " fill="url(#_lgradient_381)"/><path d=" M 925.516 232.183 C 925.516 233.856 925.516 235.379 925.516 236.935 C 925.516 237.604 925.516 238.206 925.516 238.809 L 899.384 245.634 C 894.231 246.956 888.727 248.261 883.724 246.588 C 880.577 245.361 877.692 243.544 875.225 241.234 C 869.944 237.108 865.086 232.467 860.72 227.382 C 859.917 226.428 859.148 225.424 858.395 224.354 C 854.749 219.286 852.092 213.576 850.565 207.523 C 850.063 205.449 848.742 203.993 850.063 202.32 C 851.117 201.015 854.196 200.865 855.718 201.015 C 858.336 201.417 860.846 202.345 863.096 203.742 C 874.222 209.949 883.356 219 893.06 227.282 C 893.833 227.996 894.707 228.593 895.653 229.055 C 897.022 229.574 898.471 229.851 899.936 229.875 L 924.345 231.079 C 924.666 231.044 924.985 231.154 925.215 231.38 C 925.435 231.587 925.546 231.884 925.516 232.183 Z " fill="rgb(255,200,0)"/><path d=" M 847.838 277.121 C 845.161 281.42 829.786 279.697 819.029 276.769 C 815.592 276.021 812.298 274.721 809.275 272.921 C 807.05 271.248 804.675 269.241 804.256 266.514 C 804.095 265.055 804.215 263.578 804.608 262.164 C 807.184 249.683 809.811 237.202 812.387 224.705 L 812.387 224.705 C 812.989 221.878 813.558 219 814.16 216.173 C 814.688 213.174 815.535 210.241 816.687 207.423 C 817.915 204.828 819.442 202.385 821.237 200.145 C 822.91 197.92 820.685 194.139 823.462 193.938 C 831.543 193.319 835.542 193.169 839.523 194.892 C 844.542 197.117 852.422 198.84 857.374 201.316 C 858.83 202.019 857.525 203.491 858.529 204.846 C 859.242 206.005 859.709 207.297 859.901 208.644 C 863.749 226.378 857.341 261.612 847.838 277.121 Z " fill="rgb(255,200,0)"/><path d=" M 830.974 193.47 L 832.162 211.789 L 840.761 207.289 L 846.165 211.438 L 845.864 209.012 L 832.162 193.537 L 830.974 193.47 L 830.974 193.47 Z " fill="rgb(96,97,97)"/><path d=" M 845.396 196.682 L 846.316 210.334 L 840.828 205.867 L 845.396 196.682 L 845.396 196.682 Z " fill="rgb(95,75,1)"/><linearGradient id="_lgradient_382" x1="0" y1="0.5" x2="1" y2="0.5" gradientTransform="matrix(13.611,0,0,18.096,832.686,187.771)" gradientUnits="userSpaceOnUse"><stop offset="100%" stop-opacity="1" style="stop-color:rgb(229,198,214)"/><stop offset="100%" stop-opacity="1" style="stop-color:rgb(230,202,212)"/><stop offset="100%" stop-opacity="1" style="stop-color:rgb(235,215,207)"/></linearGradient><path d=" M 832.948 195.31 C 832.336 197.207 832.811 199.288 834.186 200.731 C 834.975 201.382 835.912 201.83 836.913 202.036 C 838.051 202.32 839.64 205.85 840.828 205.867 C 841.431 205.867 842.083 203.324 842.602 203.023 C 843.12 202.722 843.137 201.166 843.472 200.564 L 845.73 196.565 C 846.184 195.943 846.376 195.169 846.266 194.407 C 845.971 193.767 845.453 193.256 844.81 192.968 L 840.628 190.509 C 839.072 189.572 834.27 186.376 834.086 188.468 C 833.871 190.773 833.49 193.059 832.948 195.31 L 832.948 195.31 Z " fill="url(#_lgradient_382)"/><linearGradient id="_lgradient_383" x1="0" y1="0.5" x2="0.016857568662696797" y2="-0.4998579010933416" gradientTransform="matrix(7.846,0,0,9.302,837.716,192.851)" gradientUnits="userSpaceOnUse"><stop offset="0%" stop-opacity="1" style="stop-color:rgb(1,1,1)"/></linearGradient><path d=" M 837.716 192.851 C 837.716 192.851 837.583 200.697 842.167 202.153 C 843.62 200.58 844.721 198.715 845.396 196.682 C 846.901 192.734 837.716 192.851 837.716 192.851 Z " fill="url(#_lgradient_383)"/><path d=" M 900.756 106.674 C 890.868 107.862 881.198 112.63 871.377 110.99 C 866.492 110.171 862.025 107.795 857.374 106.122 C 844 101.387 829.278 102.275 816.57 108.581 C 824.751 110.773 833.3 113.902 838.453 120.577 C 844.659 128.49 845.011 139.783 851.067 147.797 C 855.835 154.121 863.615 157.584 871.444 158.738 C 879.274 159.893 887.238 158.972 895.084 158.019 C 898.263 157.634 901.776 157.283 904.47 158.972 C 907.163 160.662 908.368 163.64 909.991 166.25 C 915.227 174.615 927.591 178.547 937.344 176.807 C 937.93 162.017 944.839 135.701 938.633 122.953 C 932.744 110.756 913.052 105.202 900.756 106.674 Z " fill="rgb(32,66,198)"/><rect x="877.852" y="390.467" width="150.287" height="40.387" transform="matrix(1,0,0,1,0,0)" fill="rgb(32,66,198)"/><rect x="727.565" y="462.624" width="150.287" height="40.387" transform="matrix(1,0,0,1,0,0)" fill="rgb(32,66,198)"/><linearGradient id="_lgradient_384" x1="0" y1="0.5" x2="1" y2="0.5" gradientTransform="matrix(24.664,0,0,28.898,833.564,168.942)" gradientUnits="userSpaceOnUse"><stop offset="100%" stop-opacity="1" style="stop-color:rgb(229,198,214)"/><stop offset="100%" stop-opacity="1" style="stop-color:rgb(230,200,213)"/><stop offset="100%" stop-opacity="1" style="stop-color:rgb(234,213,208)"/></linearGradient><path d=" M 857.592 183.884 C 857.96 184.438 858.179 185.077 858.228 185.741 C 858.228 186.778 857.257 187.497 856.421 188.1 C 854.474 189.318 852.831 190.967 851.619 192.918 C 850.816 194.39 850.381 196.264 849.026 197.151 C 847.186 198.472 844.643 197.636 842.568 196.766 C 839.975 195.678 833.751 190.074 833.618 188.836 C 833.233 185.49 834.989 181.659 836.194 178.547 C 837.616 174.916 839.908 171.336 843.488 169.763 C 846.088 168.634 849.048 168.67 851.619 169.864 C 858.428 173.093 854.865 178.53 857.592 183.884 Z " fill="url(#_lgradient_384)"/><path d=" M 848.491 162.034 C 852.989 163.01 857.078 165.346 860.202 168.726 C 860.81 169.342 861.213 170.131 861.356 170.985 C 861.363 171.978 860.957 172.929 860.235 173.611 C 857.961 175.841 854.694 176.734 851.602 175.97 C 849.996 175.391 848.289 175.14 846.583 175.234 C 844.922 175.746 843.513 176.862 842.635 178.363 C 841.335 180.201 840.31 182.219 839.59 184.352 C 839.189 184.352 838.921 183.917 838.904 183.516 C 838.958 183.108 838.906 182.693 838.754 182.311 C 838.418 181.886 837.808 181.798 837.365 182.11 C 836.952 182.432 836.677 182.898 836.596 183.415 C 836.335 184.708 836.687 186.048 837.549 187.046 C 836.186 186.981 834.883 187.611 834.086 188.719 C 833.969 188.886 833.818 189.07 833.634 189.02 C 833.544 188.982 833.468 188.918 833.417 188.836 C 830.856 184.932 830.129 180.104 831.426 175.619 C 831.733 174.226 832.3 172.903 833.099 171.721 C 833.653 170.898 834.407 170.23 835.291 169.78 C 836.027 169.429 837.348 169.512 837.884 168.893 C 838.737 167.923 838.302 165.547 838.821 164.36 C 840.209 160.746 845.546 161.298 848.491 162.034 Z " fill="rgb(96,97,97)"/><linearGradient id="_lgradient_385" x1="0" y1="0.5" x2="0.6839598951721384" y2="1.2295196102889334" gradientTransform="matrix(30.56,0,0,27.535,830.796,161.493)" gradientUnits="userSpaceOnUse"><stop offset="100%" stop-opacity="1" style="stop-color:rgb(1,1,1)"/><stop offset="100%" stop-opacity="0.9038692621965871" style="stop-color:rgb(1,1,1)"/></linearGradient><path d=" M 848.491 162.034 C 852.989 163.01 857.078 165.346 860.202 168.726 C 860.81 169.342 861.213 170.131 861.356 170.985 C 861.363 171.978 860.957 172.929 860.235 173.611 C 857.961 175.841 854.694 176.734 851.602 175.97 C 849.996 175.391 848.289 175.14 846.583 175.234 C 844.922 175.746 843.513 176.862 842.635 178.363 C 841.335 180.201 840.31 182.219 839.59 184.352 C 839.189 184.352 838.921 183.917 838.904 183.516 C 838.958 183.108 838.906 182.693 838.754 182.311 C 838.418 181.886 837.808 181.798 837.365 182.11 C 836.952 182.432 836.677 182.898 836.596 183.415 C 836.335 184.708 836.687 186.048 837.549 187.046 C 836.186 186.981 834.883 187.611 834.086 188.719 C 833.969 188.886 833.818 189.07 833.634 189.02 C 833.544 188.982 833.468 188.918 833.417 188.836 C 830.856 184.932 830.129 180.104 831.426 175.619 C 831.733 174.226 832.3 172.903 833.099 171.721 C 833.653 170.898 834.407 170.23 835.291 169.78 C 836.027 169.429 837.348 169.512 837.884 168.893 C 838.737 167.923 838.302 165.547 838.821 164.36 C 840.209 160.746 845.546 161.298 848.491 162.034 Z " fill="url(#_lgradient_385)"/><linearGradient id="_lgradient_386" x1="0" y1="0.5" x2="1" y2="0.5" gradientTransform="matrix(22.765,0,0,15.213,923.509,222.358)" gradientUnits="userSpaceOnUse"><stop offset="100%" stop-opacity="1" style="stop-color:rgb(229,198,214)"/><stop offset="100%" stop-opacity="1" style="stop-color:rgb(230,200,213)"/><stop offset="100%" stop-opacity="1" style="stop-color:rgb(234,214,208)"/></linearGradient><path d=" M 934.216 227.867 C 934.181 228.148 934.071 228.413 933.898 228.637 C 933.677 228.803 933.418 228.912 933.145 228.955 L 928.36 230.059 C 927.279 230.251 926.234 230.612 925.265 231.129 C 924.277 231.656 923.618 232.642 923.509 233.756 C 923.563 235.188 924.494 236.439 925.851 236.901 C 927.136 237.369 928.5 237.579 929.866 237.52 C 932.6 237.626 935.337 237.565 938.064 237.336 C 939.989 237.253 941.861 236.677 943.501 235.663 C 945.468 234.219 946.509 231.83 946.228 229.406 C 945.944 227.047 943.501 223.316 941.058 222.58 C 937.411 221.443 935.002 224.889 934.216 227.867 Z " fill="url(#_lgradient_386)"/><path d=" M 829.636 198.84 C 828.792 201.34 828.1 203.887 827.561 206.469 C 827.266 210.466 825.714 214.266 823.128 217.327 C 821.622 219.316 819.768 221.017 817.657 222.346 C 810.229 226.997 800.274 225.341 792.562 229.323 C 791.181 229.964 789.941 230.874 788.915 231.999 C 786.807 234.425 786.238 237.771 785.686 240.95 Q 783.093 255.572 779.462 269.96 C 779.225 271.451 778.621 272.859 777.706 274.059 C 775.28 276.736 771.013 275.933 767.667 274.912 L 768.27 249.298 C 768.187 243.43 768.799 237.573 770.093 231.849 C 771.649 226.144 775.547 221.643 779.646 217.444 C 785.251 211.689 800.107 199.61 816.452 195.21 L 819.581 194.457 C 822.683 193.762 825.855 193.436 829.034 193.487 C 829.191 193.489 829.346 193.529 829.485 193.604 C 830.489 194.089 830.255 196.314 829.636 198.84 Z " fill="rgb(255,200,0)"/><path d=" M 829.636 198.84 C 826.959 199.292 822.944 199.945 816.904 201.015 C 798.919 204.094 778.743 225.224 775.414 231.832 C 772.084 238.441 771.716 271.315 771.716 271.315 L 767.534 274.946 L 768.136 249.332 C 768.053 243.464 768.665 237.606 769.96 231.882 C 771.515 226.177 775.414 221.677 779.512 217.478 C 785.117 211.723 799.973 199.643 816.319 195.243 L 819.447 194.491 C 822.549 193.796 825.722 193.47 828.9 193.52 C 829.057 193.523 829.212 193.563 829.351 193.637 C 830.489 194.089 830.255 196.314 829.636 198.84 Z " fill="rgb(255,225,118)"/><linearGradient id="_lgradient_387" x1="0" y1="0.5" x2="0.6125211650783294" y2="1.2904541873702016" gradientTransform="matrix(58.857,0,0,65.047,781.453,211.723)" gradientUnits="userSpaceOnUse"><stop offset="0%" stop-opacity="0.6298909188471682" style="stop-color:rgb(1,1,1)"/><stop offset="100%" stop-opacity="0.996646067933894" style="stop-color:rgb(1,1,1)"/></linearGradient><path d=" M 840.31 214.148 C 840.31 214.148 837.884 226.78 829.485 226.98 C 825.821 226.964 822.185 226.337 818.728 225.123 C 819.079 230.377 808.104 265.895 810.998 269.492 C 813.392 272.213 816.086 274.655 819.029 276.769 C 815.592 276.021 812.298 274.721 809.275 272.921 C 807.05 271.248 804.675 269.241 804.256 266.514 C 804.095 265.055 804.215 263.578 804.608 262.164 C 807.184 249.683 809.811 237.202 812.387 224.705 L 812.387 224.705 C 813.117 224.363 813.879 224.094 814.662 223.902 C 811.832 222.928 808.943 222.134 806.013 221.526 C 799.234 220.461 792.331 220.461 785.552 221.526 L 781.453 216.022 L 786.355 211.723 L 829.719 222.279 L 840.31 214.148 Z " fill="url(#_lgradient_387)"/><path d=" M 894.064 388.761 Q 910.526 389.865 927.055 389.798 C 927.055 387.958 925.382 386.636 923.709 385.716 C 919.811 383.424 915.813 381.282 912.082 378.723 C 909.254 376.782 905.507 371.913 901.893 371.863 C 895.954 371.746 890.283 388.476 894.064 388.761 Z " fill="rgb(96,97,97)"/><path d=" M 930.887 389.731 L 935.236 389.898 L 943.417 123.94 L 938.699 122.936 L 930.887 389.731 L 930.887 389.731 Z " fill="rgb(32,66,198)"/><linearGradient id="_lgradient_388" x1="0" y1="0.5" x2="0.8045550211283004" y2="1.0938781171058927" gradientTransform="matrix(12.531,0,0,266.962,930.887,122.936)" gradientUnits="userSpaceOnUse"><stop offset="100%" stop-opacity="0" style="stop-color:rgb(1,1,1)"/><stop offset="100%" stop-opacity="0.18180165439505913" style="stop-color:rgb(1,1,1)"/></linearGradient><path d=" M 930.887 389.731 L 935.236 389.898 L 943.417 123.94 L 938.699 122.936 L 930.887 389.731 L 930.887 389.731 Z " fill="url(#_lgradient_388)"/><path d=" M 833.049 193.169 L 840.828 205.867 L 833.417 210.25 L 830.389 193.704 L 833.049 193.169 L 833.049 193.169 Z " fill="rgb(85,67,1)"/><path d=" M 838.854 211.137 C 838.778 211.508 838.642 211.864 838.453 212.191 C 837.097 214.834 835.608 217.628 833.032 219.1 C 831.012 220.154 828.696 220.495 826.457 220.071 C 824.245 219.639 822.097 218.925 820.066 217.946 C 815.9 216.125 811.829 214.092 807.87 211.856 C 803.788 209.548 799.706 206.971 795.071 206.235 C 792.719 205.937 790.342 205.881 787.978 206.068 L 782.959 206.302 C 782.548 206.283 782.139 206.369 781.771 206.553 C 781.561 206.696 781.379 206.878 781.236 207.088 L 775.681 213.78 L 785.887 218.448 C 786.412 218.717 786.977 218.904 787.56 219 C 788.229 219.048 788.901 218.985 789.55 218.816 C 795.868 217.596 802.375 217.761 808.623 219.301 C 814.462 220.74 820.016 223.367 825.972 224.32 C 828.192 224.727 830.472 224.658 832.664 224.12 C 836.981 222.765 840.011 218.883 840.276 214.366 C 840.26 213.848 840.34 213.332 840.51 212.843 C 840.862 212.107 841.665 211.739 842.183 211.17 C 842.944 210.366 843.195 209.206 842.836 208.159 C 842.444 207.119 841.512 206.38 840.41 206.235 C 839.607 206.77 838.202 207.289 838.051 208.36 C 837.9 209.431 838.854 210.066 838.854 211.137 Z " fill="rgb(96,97,97)"/><linearGradient id="_lgradient_389" x1="0" y1="0.5" x2="1" y2="0.5" gradientTransform="matrix(67.316,0,0,18.622,775.681,205.96)" gradientUnits="userSpaceOnUse"><stop offset="100%" stop-opacity="0" style="stop-color:rgb(1,1,1)"/><stop offset="100%" stop-opacity="0.02615233736515202" style="stop-color:rgb(1,1,1)"/></linearGradient><path d=" M 838.854 211.137 C 838.778 211.508 838.642 211.864 838.453 212.191 C 837.097 214.834 835.608 217.628 833.032 219.1 C 831.012 220.154 828.696 220.495 826.457 220.071 C 824.245 219.639 822.097 218.925 820.066 217.946 C 815.9 216.125 811.829 214.092 807.87 211.856 C 803.788 209.548 799.706 206.971 795.071 206.235 C 792.719 205.937 790.342 205.881 787.978 206.068 L 782.959 206.302 C 782.548 206.283 782.139 206.369 781.771 206.553 C 781.561 206.696 781.379 206.878 781.236 207.088 L 775.681 213.78 L 785.887 218.448 C 786.412 218.717 786.977 218.904 787.56 219 C 788.229 219.048 788.901 218.985 789.55 218.816 C 795.868 217.596 802.375 217.761 808.623 219.301 C 814.462 220.74 820.016 223.367 825.972 224.32 C 828.192 224.727 830.472 224.658 832.664 224.12 C 836.981 222.765 840.011 218.883 840.276 214.366 C 840.26 213.848 840.34 213.332 840.51 212.843 C 840.862 212.107 841.665 211.739 842.183 211.17 C 842.944 210.366 843.195 209.206 842.836 208.159 C 842.444 207.119 841.512 206.38 840.41 206.235 C 839.607 206.77 838.202 207.289 838.051 208.36 C 837.9 209.431 838.854 210.066 838.854 211.137 Z " fill="url(#_lgradient_389)"/><linearGradient id="_lgradient_390" x1="0" y1="0.5" x2="0.998907079283316" y2="0.4532597929222071" gradientTransform="matrix(2.063,0,0,3.347,837.287,183.231)" gradientUnits="userSpaceOnUse"><stop offset="100%" stop-opacity="0" style="stop-color:rgb(1,1,1)"/><stop offset="100%" stop-opacity="0.25303643724695823" style="stop-color:rgb(1,1,1)"/></linearGradient><path d=" M 838.319 184.653 C 838.319 184.419 838.503 184.235 838.503 184.001 C 838.467 183.767 838.341 183.557 838.151 183.415 C 838.073 183.323 837.968 183.259 837.85 183.231 C 837.747 183.231 837.646 183.266 837.566 183.332 C 837.35 183.566 837.251 183.886 837.298 184.201 C 837.307 184.777 837.426 185.345 837.65 185.874 C 837.783 186.192 838.018 186.544 838.369 186.577 C 838.526 186.584 838.682 186.55 838.821 186.477 C 839.122 186.343 839.557 185.858 839.239 185.523 C 838.921 185.189 838.804 185.373 838.62 185.239 C 838.429 185.106 838.316 184.886 838.319 184.653 L 838.319 184.653 Z " fill="url(#_lgradient_390)"/><g opacity="0.22"><path d=" M 925.851 236.885 L 925.499 238.809 L 899.367 245.634 C 894.214 246.956 888.71 248.261 883.708 246.588 C 880.56 245.361 877.675 243.544 875.209 241.234 C 869.928 237.108 865.069 232.467 860.704 227.382 L 861.256 223.751 C 861.256 223.751 881.014 241.887 888.141 241.536 C 894.833 241.184 922.321 237.403 925.55 236.935 L 925.851 236.885 Z " fill="rgb(96,97,97)"/></g><path d=" M 925.332 231.213 L 923.458 231.046 C 923.458 231.046 923.191 238.022 924.445 238.959 L 925.416 238.876 L 926.169 237.202 C 925.316 235.329 925.026 233.248 925.332 231.213 Z " fill="rgb(32,66,198)"/><g opacity="0.22"><path d=" M 925.332 231.213 L 923.458 231.046 C 923.458 231.046 923.191 238.022 924.445 238.959 L 925.416 238.876 L 926.169 237.202 C 925.316 235.329 925.026 233.248 925.332 231.213 Z " fill="rgb(96,97,97)"/></g><linearGradient id="_lgradient_391" x1="0" y1="0.5" x2="0.9990934844269703" y2="0.5425700525672127" gradientTransform="matrix(91.547,0,0,52.033,844.91,122.032)" gradientUnits="userSpaceOnUse"><stop offset="100%" stop-opacity="0" style="stop-color:rgb(1,1,1)"/><stop offset="100%" stop-opacity="0.005453484503923785" style="stop-color:rgb(1,1,1)"/></linearGradient><path d=" M 936.458 152.866 C 936.458 152.866 925.198 127.771 899.936 136.972 C 899.936 136.972 844.91 122.032 844.91 122.032 C 844.91 122.032 850.13 151.444 868.634 154.255 C 887.137 157.065 903.616 148.7 910.141 160.662 C 920.096 178.915 936.458 173.227 936.458 173.227 L 936.458 152.866 Z " fill="url(#_lgradient_391)"/></g><g><path d=" M 527.351 268.954 C 526.32 265.26 526.291 261.359 527.267 257.65 C 528.417 253.821 530.41 250.298 533.1 247.34 C 535.732 246.466 538.57 246.422 541.228 247.215 C 544.879 248.613 539.717 255.216 540.192 258.406 C 540.668 261.595 543.676 252.81 545.438 253.594 C 547.201 254.377 542.641 266.352 539.311 267.848" fill="rgb(205,125,98)"/><path d=" M 564.17 330.352 C 564.17 330.352 545.536 324.756 543.662 326.575 C 541.997 328.253 558.308 445.859 559.148 450.881 C 559.987 455.903 587.615 454.225 599.324 450.881 C 607.131 448.545 614.7 445.477 621.931 441.718 C 621.931 441.718 608.445 334.45 605.927 332.786 C 605.927 332.786 585.223 329.652 585.223 329.652 L 564.17 330.352 Z " fill="rgb(32,66,198)"/><path d=" M 562.883 369.941 C 562.883 369.941 550.293 366.667 546.25 358.945 C 546.25 358.945 520.426 315.691 521.069 307.438 C 521.811 297.883 526.441 266.478 526.441 266.478 C 526.441 266.478 526.959 263.918 533.016 264.701 C 539.073 265.484 540.011 268.898 540.011 268.898 L 540.542 305.759 L 559.022 339.654 C 559.022 339.654 566.52 363.03 562.883 369.941 Z " fill="rgb(32,66,198)"/><path d=" M 631.513 614.945 C 631.513 614.945 635.052 628.305 636.703 629.284 C 636.703 629.284 644.159 627.171 647.517 624.737 C 647.517 624.737 649.671 617.127 649.671 617.127 L 648.272 613.07 L 631.513 614.945 Z " fill="rgb(205,125,98)"/><path d=" M 542.599 608.51 C 542.599 608.51 536.15 626.696 536.793 628.472 C 536.793 628.472 545.326 627.647 549.467 627.913 C 549.467 627.913 555.189 621.772 555.189 621.772 L 556.658 617.715 L 542.599 608.51 Z " fill="rgb(205,125,98)"/><path d=" M 562.505 320.307 C 562.505 320.307 565.009 331.191 564.17 335.374 C 564.17 335.374 570.031 351.279 578.397 351.279 C 578.397 351.279 586.79 337.052 586.79 335.374 C 586.79 335.374 584.272 332.87 585.111 328.687 C 585.951 324.504 563.33 315.285 562.505 320.307 Z " fill="rgb(205,125,98)"/><path d=" M 585.097 328.687 C 584.659 330.668 585.177 332.74 586.496 334.283 C 584.649 336.108 582.194 337.189 579.6 337.318 C 574.578 337.318 567.01 333.121 563.694 325.609 L 563.512 325.19 C 563.037 322.392 562.547 320.265 562.547 320.265 C 563.33 315.285 585.937 324.504 585.097 328.687 Z " fill="rgb(190,115,89)"/><path d=" M 564.282 333.821 C 564.282 333.821 571.024 349.615 576.774 351.279 C 576.774 351.279 578.341 352.119 574.158 354.623 C 569.975 357.127 558.252 344.592 559.931 335.374 C 560.297 332.98 561.889 330.953 564.128 330.03 L 564.282 333.821 Z " fill="rgb(255,255,255)"/><path d=" M 585.097 330.352 C 585.097 330.352 586.958 341.976 582.3 349.936 C 582.3 349.936 584.3 352.916 585.979 352.916 C 587.657 352.916 591.84 342.872 590.175 335.332 C 589.14 330.981 585.937 329.163 585.097 330.352 Z " fill="rgb(255,255,255)"/><path d=" M 559.148 450.881 L 568.297 523.624 L 539.829 617.771 C 539.829 617.771 545.075 620.667 555.944 619.827 L 594.596 526.744 L 595.142 467.57 L 607.648 518.658 L 631.723 618.19 C 631.723 618.19 643.963 620.89 651.168 615.7 L 635.318 518.658 L 621.931 441.718 L 559.148 450.881 Z " fill="rgb(96,97,97)"/><path d=" M 590.119 296.036 C 590.119 296.036 591.798 317.803 590.119 323.665 C 590.119 323.665 583.419 334.548 578.397 334.548 C 578.397 334.548 565.806 330.352 562.505 322.825 C 562.505 322.825 557.483 296.876 558.308 294.372 C 558.308 294.372 564.198 283.95 577.571 285.167 C 586.776 285.992 590.119 292.693 590.119 296.036 Z " fill="rgb(205,125,98)"/><path d=" M 559.33 306.766 C 560.099 308.473 562.757 308.557 564.114 307.256 C 565.368 305.813 565.885 303.871 565.513 301.996 C 565.289 300.135 564.645 298.331 564.533 296.4 C 564.401 295.968 564.514 295.498 564.828 295.172 C 565.142 294.847 565.607 294.717 566.044 294.833 C 568.562 294.917 571.528 295.911 573.305 294.106 C 574.354 293.043 574.704 291.168 576.102 290.665 C 577.277 290.245 578.509 291.014 579.614 291.602 C 582.691 293.197 588.217 294.246 589.91 290.203 C 590.693 288.342 590.077 286.076 590.245 284.118 C 590.413 282.159 591.756 279.319 590.441 277.347 C 590.022 276.704 589.294 276.144 589.294 275.361 C 589.422 274.729 589.728 274.146 590.175 273.682 C 591.404 271.92 591.365 269.568 590.077 267.848 C 586.954 269.917 583.389 271.225 579.67 271.667 C 573.361 272.395 566.45 270.716 560.966 273.906 C 557.173 276.345 554.716 280.396 554.307 284.887 C 554.242 286.221 554.054 287.546 553.748 288.846 C 552.978 291.336 550.74 291.252 549.453 293.113 C 548.131 295.37 547.894 298.104 548.81 300.555 C 549.318 301.504 549.569 302.57 549.537 303.646 C 549.269 304.43 548.912 305.181 548.474 305.885 C 547.341 308.417 549.048 311.271 550.81 313.411 C 553.118 316.209 555.636 319.006 558.098 321.636 C 558.952 322.546 559.707 323.721 561.008 324.084 C 561.931 324.336 565.065 323.525 563.246 322.811" fill="rgb(96,97,97)"/><path d=" M 562.141 310.221 C 562.141 310.221 561.302 305.199 557.945 306.878 C 557.945 306.878 558.77 317.747 560.449 318.587 C 561.201 319.052 562.068 319.298 562.953 319.3" fill="rgb(205,125,98)"/><path d=" M 668.262 625.213 C 670.039 625.731 672.095 626.5 672.557 628.277 C 673.173 630.571 670.696 632.473 668.36 633.215 C 664.87 634.158 661.256 634.559 657.645 634.404 C 651.308 634.404 644.971 634.404 638.648 634.096 C 638.067 634.123 637.488 634.018 636.955 633.788 C 636.089 633.191 635.515 632.257 635.374 631.214 C 634.83 629.014 634.59 626.751 634.661 624.486 C 634.649 624.093 634.736 623.703 634.912 623.352 C 635.962 621.632 641.431 623.744 643.138 623.646 C 646.104 623.492 647.936 621.954 650.524 620.848 C 653.112 619.743 655.169 621.226 657.715 622.121 C 661.198 623.38 664.779 624.234 668.262 625.213 Z " fill="rgb(96,97,97)"/><path d=" M 569.402 628.514 C 571.178 629.046 573.221 629.913 573.668 631.648 C 574.242 633.942 571.724 635.845 569.472 636.502 C 565.951 637.4 562.314 637.758 558.686 637.565 C 552.363 637.495 546.026 637.314 539.703 636.964 C 539.121 636.974 538.544 636.86 538.01 636.628 C 537.16 636.01 536.603 635.069 536.471 634.026 C 535.958 631.818 535.755 629.548 535.87 627.283 C 535.858 626.889 535.949 626.498 536.136 626.15 C 537.199 624.458 542.641 626.654 544.361 626.584 C 547.313 626.472 549.173 624.961 551.775 623.954 C 554.377 622.947 556.42 624.402 558.952 625.353 C 562.379 626.57 565.932 627.465 569.402 628.514 Z " fill="rgb(96,97,97)"/><path d=" M 605.927 332.744 L 646.481 365.072 L 679.971 349.209 L 679.384 366.835 L 644.719 386.224 L 607.704 362.722 L 605.927 332.744 L 605.927 332.744 Z " fill="rgb(32,66,198)"/><path d=" M 689.917 341.431 C 692.006 340.102 694.437 339.412 696.912 339.444 C 698.59 339.296 700.268 339.725 701.668 340.662 C 702.626 341.506 703.321 342.608 703.669 343.837 C 704.577 346.874 704.806 350.074 704.34 353.21 C 704.259 355.155 703.66 357.043 702.605 358.679 C 701.684 359.864 700.448 360.766 699.038 361.281 C 697.654 361.829 696.177 362.104 694.688 362.093 C 693.457 362.093 692.24 361.855 691.009 361.841 C 688.297 362.046 685.627 362.63 683.077 363.576 C 681.496 364.023 679.566 364.303 678.39 363.156 C 677.64 362.218 677.252 361.041 677.299 359.841 C 677.033 355.812 677.551 352.37 680.615 349.587 C 683.55 346.685 686.656 343.961 689.917 341.431 L 689.917 341.431 Z " fill="rgb(205,125,98)"/><linearGradient id="_lgradient_392" x1="0" y1="0.5" x2="1" y2="0.5" gradientTransform="matrix(111.339,0,0,178.261,539.829,441.718)" gradientUnits="userSpaceOnUse"><stop offset="100%" stop-opacity="0" style="stop-color:rgb(1,1,1)"/><stop offset="100%" stop-opacity="0.013220693028728565" style="stop-color:rgb(1,1,1)"/></linearGradient><path d=" M 559.148 450.881 L 568.297 523.624 L 539.829 617.771 C 539.829 617.771 545.075 620.667 555.944 619.827 L 594.596 526.744 L 595.142 467.57 L 607.648 518.658 L 631.723 618.19 C 631.723 618.19 643.963 620.89 651.168 615.7 L 635.318 518.658 L 621.931 441.718 L 559.148 450.881 Z " fill="url(#_lgradient_392)"/><linearGradient id="_lgradient_393" x1="0" y1="0.5" x2="1" y2="0.5" gradientTransform="matrix(42.962,0,0,56.283,548.109,267.848)" gradientUnits="userSpaceOnUse"><stop offset="100%" stop-opacity="0" style="stop-color:rgb(1,1,1)"/><stop offset="100%" stop-opacity="0.03427650859483453" style="stop-color:rgb(1,1,1)"/></linearGradient><path d=" M 559.33 306.766 C 560.099 308.473 562.757 308.557 564.114 307.256 C 565.368 305.813 565.885 303.871 565.513 301.996 C 565.289 300.135 564.645 298.331 564.533 296.4 C 564.401 295.968 564.514 295.498 564.828 295.172 C 565.142 294.847 565.607 294.717 566.044 294.833 C 568.562 294.917 571.528 295.911 573.305 294.106 C 574.354 293.043 574.704 291.168 576.102 290.665 C 577.277 290.245 578.509 291.014 579.614 291.602 C 582.691 293.197 588.217 294.246 589.91 290.203 C 590.693 288.342 590.077 286.076 590.245 284.118 C 590.413 282.159 591.756 279.319 590.441 277.347 C 590.022 276.704 589.294 276.144 589.294 275.361 C 589.422 274.729 589.728 274.146 590.175 273.682 C 591.404 271.92 591.365 269.568 590.077 267.848 C 586.954 269.917 583.389 271.225 579.67 271.667 C 573.361 272.395 566.45 270.716 560.966 273.906 C 557.173 276.345 554.716 280.396 554.307 284.887 C 554.242 286.221 554.054 287.546 553.748 288.846 C 552.978 291.336 550.74 291.252 549.453 293.113 C 548.131 295.37 547.894 298.104 548.81 300.555 C 549.318 301.504 549.569 302.57 549.537 303.646 C 549.269 304.43 548.912 305.181 548.474 305.885 C 547.341 308.417 549.048 311.271 550.81 313.411 C 553.118 316.209 555.636 319.006 558.098 321.636 C 558.952 322.546 559.707 323.721 561.008 324.084 C 561.931 324.336 565.065 323.525 563.246 322.811" fill="url(#_lgradient_393)"/></g></g></g></svg>