<?xml version="1.0" encoding="UTF-8" standalone="no"?>
<!-- Generator: Gravit.io -->
<svg xmlns="http://www.w3.org/2000/svg" xmlns:xlink="http://www.w3.org/1999/xlink" style="isolation:isolate" viewBox="0 0 841.89 595.276" width="841.89pt" height="595.276pt"><defs><clipPath id="_clipPath_qf7LzS6RWseXM50t7XynS162JcL3CdV5"><rect width="841.89" height="595.276"/></clipPath></defs><g clip-path="url(#_clipPath_qf7LzS6RWseXM50t7XynS162JcL3CdV5)"><g><g><g opacity="0.35"><path d=" M 80.139 459.139 C 98.109 482.841 132.244 494.955 164.975 500.134 C 201.014 505.808 237.679 504.987 272.426 497.729 C 304.983 490.905 335.477 478.493 368.852 474.316 C 438.362 465.635 508.557 493.404 579.055 503.593 C 628.521 510.748 680.656 508.896 724.158 490.765 C 767.66 472.634 800.973 436.681 802.403 395.624 C 803.235 371.201 776.913 320.704 762.103 298.834 C 723.069 241.277 644.542 272.359 598.35 218.443 C 568.261 183.362 407.233 139.726 385.085 143.972 C 360.729 148.624 290.148 171.397 252.861 220.127 C 227.375 253.516 162.339 298.974 136.8 332.34 C 112.047 364.79 48.106 416.847 80.139 459.139 Z " fill="rgb(32,66,198)"/></g><g><path d=" M 739.385 116.628 L 769.518 124.757 L 685.064 216.864 L 654.662 209.029 L 739.385 116.628 Z " fill="rgb(81,5,137)"/><path d=" M 739.385 116.628 L 729.203 87.792 L 644.749 179.898 L 654.662 209.029 L 739.385 116.628 Z " fill="rgb(235,54,255)"/><path d=" M 739.385 116.628 L 729.203 87.792 L 760.161 93.969 L 769.518 124.757 L 739.385 116.628 Z " fill="rgb(140,3,233)"/></g><g><path d=" M 516.677 196.959 L 548.245 202.323 L 559.753 232.062 L 528.034 226.306 L 516.677 196.959 Z " fill="rgb(255,63,82)"/><path d=" M 568.089 178.223 L 548.245 202.323 L 559.753 232.062 L 579.055 206.562 L 568.089 178.223 Z " fill="rgb(148,0,109)"/><path d=" M 568.089 178.223 L 536.866 172.919 L 556.58 148.484 L 568.089 178.223 Z " fill="rgb(148,0,109)"/><path d=" M 516.677 196.959 L 497.503 221.958 L 509.012 251.698 L 528.034 226.306 L 516.677 196.959 Z " fill="rgb(148,0,109)"/><path d=" M 466.048 216.552 L 497.503 221.958 L 509.012 251.698 L 477.404 245.899 L 466.048 216.552 Z " fill="rgb(255,63,82)"/><path d=" M 466.048 216.552 L 497.503 221.958 L 516.677 196.959 L 548.245 202.323 L 568.089 178.223 L 536.866 172.919 L 556.58 148.484 L 525.553 143.684 L 466.048 216.552 Z " fill="rgb(208,15,124)"/></g><path d=" M 215.916 355.955 L 243.42 372.349 L 243.42 404.237 L 215.916 387.422 L 215.916 355.955 Z " fill="rgb(255,63,82)"/><path d=" M 270.624 357.035 L 243.42 372.349 L 243.42 404.237 L 270.624 388.969 L 270.624 357.035 Z " fill="rgb(148,0,109)"/><path d=" M 270.624 357.035 L 243.42 340.821 L 270.624 325.147 L 270.624 357.035 Z " fill="rgb(148,0,109)"/><path d=" M 215.916 355.955 L 189.012 372.349 L 189.012 404.237 L 215.916 387.422 L 215.916 355.955 Z " fill="rgb(148,0,109)"/><path d=" M 161.628 355.955 L 189.012 372.349 L 189.012 404.237 L 161.628 387.422 L 161.628 355.955 Z " fill="rgb(255,63,82)"/><path d=" M 161.628 355.955 L 189.012 372.349 L 215.916 355.955 L 243.42 372.349 L 270.624 357.035 L 243.42 340.821 L 270.624 325.147 L 243.42 309.473 L 161.628 355.955 Z " fill="rgb(208,15,124)"/><g><path d=" M 292.07 225.799 L 312.312 250.476 L 301.547 280.492 L 281.447 255.419 L 292.07 225.799 Z " fill="rgb(255,209,40)"/><path d=" M 343.793 244.349 L 364.035 269.026 L 353.269 299.042 L 333.17 273.97 L 343.793 244.349 Z " fill="rgb(255,209,40)"/><path d=" M 343.793 244.349 L 312.482 250.537 L 301.716 280.553 L 333.17 273.97 L 343.793 244.349 Z " fill="rgb(255,120,23)"/><path d=" M 425.566 257.026 L 364.035 269.026 L 353.269 299.042 L 414.74 287.212 L 425.566 257.026 Z " fill="rgb(255,120,23)"/><path d=" M 425.566 257.026 L 364.035 269.026 L 343.793 244.349 L 312.312 250.476 L 292.07 225.799 L 354.437 214.672 L 374.861 238.84 L 405.142 232.858 L 425.566 257.026 Z " fill="rgb(255,183,23)"/></g><path d=" M 297.044 341.434 L 324.464 357.769 L 324.533 389.658 L 297.113 372.902 L 297.044 341.434 Z " fill="rgb(255,209,40)"/><path d=" M 297.044 341.434 L 269.696 357.888 L 269.696 389.658 L 297.113 372.902 L 297.044 341.434 Z " fill="rgb(255,120,23)"/><path d=" M 378.262 325.584 L 324.464 357.769 L 324.533 389.658 L 378.332 357.652 L 378.262 325.584 Z " fill="rgb(255,120,23)"/><path d=" M 378.262 325.584 L 324.464 357.769 L 297.044 341.434 L 269.516 357.889 L 242.096 341.554 L 296.976 309.906 L 324.395 325.701 L 350.844 309.79 L 378.262 325.584 Z " fill="rgb(255,183,23)"/><path d=" M 107.314 385.29 L 134.445 402.1 L 133.958 433.985 L 106.833 416.754 L 107.314 385.29 Z " fill="rgb(255,209,40)"/><path d=" M 162.256 386.129 L 189.387 402.939 L 188.9 434.824 L 161.776 417.593 L 162.256 386.129 Z " fill="rgb(255,209,40)"/><path d=" M 162.256 386.129 L 134.625 402.103 L 134.138 433.988 L 161.776 417.593 L 162.256 386.129 Z " fill="rgb(255,120,23)"/><path d=" M 243.738 371.697 L 189.387 402.939 L 188.9 434.824 L 243.249 403.762 L 243.738 371.697 Z " fill="rgb(255,120,23)"/><path d=" M 243.738 371.697 L 189.387 402.939 L 162.256 386.129 L 134.445 402.1 L 107.314 385.29 L 162.738 354.604 L 189.877 370.875 L 216.599 355.427 L 243.738 371.697 Z " fill="rgb(255,183,23)"/><g><path d=" M 630.882 267.637 L 617.486 296.606 L 635.445 322.957 L 648.604 293.64 L 630.882 267.637 Z " fill="rgb(9,125,215)"/><path d=" M 585.476 298.582 L 572.08 327.552 L 590.038 353.902 L 603.197 324.586 L 585.476 298.582 Z " fill="rgb(9,125,215)"/><path d=" M 585.476 298.582 L 617.337 296.708 L 635.296 323.058 L 603.197 324.586 L 585.476 298.582 Z " fill="rgb(14,204,243)"/><path d=" M 509.507 331.389 L 572.08 327.552 L 590.038 353.902 L 527.567 357.889 L 509.507 331.389 Z " fill="rgb(14,204,243)"/><path d=" M 509.507 331.389 L 572.08 327.552 L 585.476 298.582 L 617.486 296.606 L 630.882 267.637 L 567.72 272.53 L 554.02 301.052 L 523.207 302.866 L 509.507 331.389 Z " fill="rgb(44,161,220)"/></g><path d=" M 405.862 372.804 L 378.517 389.263 L 378.592 421.151 L 405.937 404.271 L 405.862 372.804 Z " fill="rgb(18,37,112)"/><path d=" M 350.913 372.934 L 323.568 389.394 L 323.644 421.282 L 350.988 404.402 L 350.913 372.934 Z " fill="rgb(18,37,112)"/><path d=" M 350.913 372.934 L 378.336 389.264 L 378.412 421.152 L 350.988 404.402 L 350.913 372.934 Z " fill="rgb(14,204,243)"/><path d=" M 269.624 357.453 L 323.568 389.394 L 323.644 421.282 L 269.7 389.522 L 269.624 357.453 Z " fill="rgb(14,204,243)"/><path d=" M 269.624 357.453 L 323.568 389.394 L 350.913 372.934 L 378.517 389.263 L 405.862 372.804 L 350.838 341.406 L 323.492 357.325 L 296.971 341.534 L 269.624 357.453 Z " fill="rgb(47,81,215)"/><path d=" M 270.624 418.364 L 243.24 434.758 L 243.24 466.646 L 270.624 449.831 L 270.624 418.364 Z " fill="rgb(18,37,112)"/><path d=" M 215.675 418.364 L 188.291 434.758 L 188.291 466.646 L 215.675 449.831 L 215.675 418.364 Z " fill="rgb(18,37,112)"/><path d=" M 215.675 418.364 L 243.06 434.758 L 243.06 466.646 L 215.675 449.831 L 215.675 418.364 Z " fill="rgb(14,204,243)"/><path d=" M 134.423 402.69 L 188.291 434.758 L 188.291 466.646 L 134.423 434.758 L 134.423 402.69 Z " fill="rgb(14,204,243)"/><path d=" M 134.423 402.69 L 188.291 434.758 L 215.675 418.364 L 243.24 434.758 L 270.624 418.364 L 215.675 386.836 L 188.291 402.69 L 161.808 386.836 L 134.423 402.69 Z " fill="rgb(47,81,215)"/></g><path d=" M 190.452 179.045 L 177.905 182.466 L 174.563 195.034 L 171.143 182.487 L 158.574 179.146 L 171.121 175.725 L 174.463 163.157 L 177.884 175.704 L 190.452 179.045 Z " fill="rgb(18,37,112)"/><path d=" M 71.345 329.465 L 58.798 332.886 L 55.456 345.454 L 52.036 332.907 L 39.467 329.566 L 52.014 326.145 L 55.356 313.577 L 58.777 326.124 L 71.345 329.465 Z " fill="rgb(18,37,112)"/><path d=" M 468.761 313.526 L 456.214 316.947 L 452.873 329.515 L 449.452 316.968 L 436.884 313.627 L 449.431 310.206 L 452.772 297.638 L 456.193 310.185 L 468.761 313.526 Z " fill="rgb(18,37,112)"/><path d=" M 283.048 281.649 L 270.501 285.069 L 267.16 297.638 L 263.739 285.091 L 251.171 281.749 L 263.718 278.328 L 267.059 265.76 L 270.48 278.307 L 283.048 281.649 Z " fill="rgb(18,37,112)"/><path d=" M 138.63 77.245 L 130.23 79.535 L 127.992 87.95 L 125.702 79.549 L 117.287 77.312 L 125.688 75.022 L 127.925 66.607 L 130.215 75.008 L 138.63 77.245 Z " fill="rgb(18,37,112)"/><path d=" M 174.513 276.398 L 166.113 278.688 L 163.875 287.103 L 161.585 278.702 L 153.171 276.465 L 161.571 274.175 L 163.808 265.76 L 166.099 274.161 L 174.513 276.398 Z " fill="rgb(18,37,112)"/><path d=" M 284.12 156.803 L 279.035 158.19 L 277.681 163.283 L 276.294 158.198 L 271.201 156.844 L 276.286 155.458 L 277.64 150.364 L 279.026 155.449 L 284.12 156.803 Z " fill="rgb(18,37,112)"/></g></g></svg>