<?xml version="1.0" encoding="UTF-8" standalone="no"?>
<!-- Generator: Gravit.io -->
<svg xmlns="http://www.w3.org/2000/svg" xmlns:xlink="http://www.w3.org/1999/xlink" style="isolation:isolate" viewBox="0 0 566.929 481.89" width="566.929pt" height="481.89pt"><defs><clipPath id="_clipPath_TL4N29EHfU1mVTxclRzkq0yEmXMMYSU5"><rect width="566.929" height="481.89"/></clipPath></defs><g clip-path="url(#_clipPath_TL4N29EHfU1mVTxclRzkq0yEmXMMYSU5)"><rect width="566.929" height="481.89" style="fill:rgb(0,0,255)" fill-opacity="0"/><g><g opacity="0.68"><path d=" M 314.926 22.348 C 231.186 24.708 151.646 57.288 74.256 89.378 C 51.586 98.788 26.916 110.058 16.816 132.428 C 0.406 168.788 31.746 209.478 29.646 249.288 C 28.326 273.568 14.596 295.518 10.776 319.528 C 4.016 361.778 30.116 404.288 66.276 427.118 C 102.436 449.948 146.696 456.038 189.436 456.008 C 232.176 455.978 274.856 450.368 317.566 452.008 C 365.836 453.908 414.446 465.078 461.986 456.498 C 509.526 447.918 557.356 410.698 555.756 362.418 C 554.756 332.088 534.756 304.878 533.536 274.558 C 531.846 231.858 561.536 195.908 556.686 152.078 C 553.446 122.628 539.176 86.338 515.396 67.078 C 469.646 30.098 369.576 20.808 314.926 22.348 Z " fill="rgb(255,255,255)"/></g><path d=" M 334.836 336.498 L 271.406 299.878 L 321.036 271.228 L 285.446 250.678 L 253.786 268.958 L 156.776 212.948 L 214.386 179.688 L 216.676 181.008 L 161.346 212.958 L 253.766 266.318 L 285.426 248.038 L 325.606 271.238 L 275.976 299.888 L 334.816 333.858 L 408.406 291.378 L 449.446 315.068 L 416.076 334.338 L 455.106 356.878 L 472.796 346.668 L 475.096 347.988 L 455.126 359.518 L 411.506 334.328 L 444.876 315.068 L 408.416 294.018 L 334.836 336.498 L 334.836 336.498 Z " fill="rgb(32,66,198)"/><path d=" M 420.776 409.338 L 341.496 363.568 L 392.836 333.928 L 322.086 293.078 L 273.296 318.268 L 201.326 276.708 L 234.266 257.688 L 201.046 238.508 L 176.946 252.428 L 174.646 251.098 L 201.026 235.868 L 238.836 257.698 L 205.896 276.718 L 273.406 315.698 L 322.196 290.508 L 397.406 333.938 L 346.066 363.568 L 423.056 408.028 L 420.776 409.338 L 420.776 409.338 Z " fill="rgb(32,66,198)"/><path d=" M 108.336 276.378 L 68.436 253.348 L 70.716 252.028 L 108.316 273.738 L 141.046 254.838 L 321.866 359.238 L 363.586 335.158 L 411.366 362.748 L 437.826 347.468 L 440.116 348.798 L 411.386 365.388 L 363.596 337.798 L 321.876 361.878 L 141.066 257.478 L 108.336 276.378 L 108.336 276.378 Z " fill="rgb(32,66,198)"/><path d=" M 178.066 222.698 L 175.776 221.368 L 208.356 202.558 L 263.246 234.248 L 292.126 217.578 L 390.786 274.538 L 388.506 275.848 L 292.146 220.218 L 263.266 236.888 L 208.376 205.198 L 178.066 222.698 L 178.066 222.698 Z " fill="rgb(32,66,198)"/><g opacity="0.24"><path d=" M 273.266 290.208 C 273.426 291.061 273.426 291.936 273.266 292.788 C 272.626 294.788 269.956 295.188 267.826 295.228 C 255.676 295.454 243.601 297.184 231.876 300.378 C 229.066 301.138 226.056 302.138 224.386 304.538 C 222.716 306.938 223.456 311.068 226.306 311.678 C 222.218 312.174 218.195 313.106 214.306 314.458 C 213.265 314.699 212.348 315.31 211.726 316.178 C 210.496 318.398 213.376 320.628 215.796 321.398 C 225.486 324.528 235.796 324.648 246.026 324.748 C 250.866 324.748 256.556 324.408 259.206 320.348 C 260.036 319.068 260.496 317.478 261.666 316.488 C 262.488 315.885 263.423 315.453 264.416 315.218 L 279.776 310.508 C 281.627 309.823 283.582 309.461 285.556 309.438 C 287.836 309.558 289.956 310.568 292.076 311.438 C 299.645 314.452 307.857 315.484 315.936 314.438 C 317.846 318.438 319.936 322.738 323.696 325.168 C 326.766 327.168 330.526 327.628 334.156 328.068 C 342.156 329.068 350.296 329.978 358.156 328.218 C 361.466 327.478 365.156 325.678 365.636 322.318 C 366.166 318.468 362.166 315.688 358.706 313.898 L 351.706 310.248 C 350.382 309.703 349.228 308.812 348.366 307.668 C 346.826 305.178 348.466 301.858 350.696 299.948 C 352.484 298.429 354.616 297.368 356.906 296.858 C 360.316 296.098 363.906 296.618 367.366 296.468 C 370.826 296.318 374.656 295.238 376.566 292.298 C 376.878 291.891 377.021 291.379 376.966 290.868 C 376.796 290.352 376.439 289.917 375.966 289.648 C 368.236 284.238 358.176 283.838 348.746 283.648 L 305.326 282.728 C 298.166 282.578 290.966 282.648 283.816 282.278 C 278.286 281.938 272.846 283.088 273.266 290.208 Z " fill="rgb(32,66,198)"/></g><path d=" M 245.048 307.46 C 236.477 307.413 229.54 303.356 229.567 298.406 C 229.594 293.455 236.574 289.473 245.146 289.52 C 253.717 289.566 260.654 293.623 260.627 298.574 C 260.6 303.524 253.62 307.506 245.048 307.46 Z " fill="rgb(242,156,90)"/><path d=" M 245.048 304.644 C 236.477 304.598 229.54 300.541 229.567 295.59 C 229.594 290.64 236.574 286.658 245.146 286.705 C 253.717 286.751 260.654 290.808 260.627 295.758 C 260.6 300.709 253.62 304.691 245.048 304.644 Z " fill="rgb(255,201,31)"/><path d=" M 244.989 302.413 C 238.333 302.377 232.946 299.229 232.967 295.388 C 232.988 291.547 238.408 288.457 245.064 288.493 C 251.72 288.529 257.107 291.677 257.086 295.519 C 257.066 299.36 251.645 302.449 244.989 302.413 Z " fill="rgb(242,156,90)"/><path d=" M 241.107 302.04 C 232.536 301.994 225.599 297.937 225.626 292.986 C 225.653 288.036 232.633 284.054 241.204 284.1 C 249.775 284.147 256.712 288.204 256.686 293.154 C 256.659 298.105 249.678 302.087 241.107 302.04 Z " fill="rgb(242,156,90)"/><path d=" M 241.107 299.225 C 232.536 299.179 225.599 295.122 225.626 290.171 C 225.653 285.22 232.633 281.239 241.204 281.285 C 249.775 281.332 256.712 285.389 256.686 290.339 C 256.659 295.29 249.678 299.271 241.107 299.225 Z " fill="rgb(255,201,31)"/><path d=" M 241.048 296.994 C 234.392 296.958 229.005 293.81 229.026 289.969 C 229.046 286.127 234.467 283.038 241.123 283.074 C 247.779 283.11 253.166 286.258 253.145 290.099 C 253.124 293.94 247.704 297.03 241.048 296.994 Z " fill="rgb(242,156,90)"/><path d=" M 247.532 293.514 C 238.961 293.468 232.024 289.411 232.051 284.46 C 232.078 279.51 239.058 275.528 247.629 275.574 C 256.2 275.621 263.137 279.678 263.11 284.628 C 263.084 289.579 256.103 293.561 247.532 293.514 Z " fill="rgb(242,156,90)"/><path d=" M 247.522 290.709 C 238.951 290.663 232.014 286.606 232.041 281.655 C 232.068 276.704 239.048 272.723 247.619 272.769 C 256.19 272.816 263.127 276.872 263.1 281.823 C 263.074 286.774 256.093 290.755 247.522 290.709 Z " fill="rgb(255,201,31)"/><path d=" M 247.473 288.478 C 240.817 288.442 235.43 285.294 235.45 281.453 C 235.471 277.611 240.892 274.522 247.548 274.558 C 254.204 274.594 259.591 277.742 259.57 281.583 C 259.549 285.424 254.129 288.514 247.473 288.478 Z " fill="rgb(242,156,90)"/><path d=" M 364.509 297.559 C 355.938 297.473 349.019 293.384 349.069 288.434 C 349.118 283.483 356.117 279.533 364.688 279.619 C 373.26 279.705 380.178 283.793 380.129 288.744 C 380.079 293.695 373.08 297.645 364.509 297.559 Z " fill="rgb(242,156,90)"/><path d=" M 362.856 293.496 C 354.285 293.449 347.348 289.392 347.375 284.442 C 347.402 279.491 354.382 275.51 362.953 275.556 C 371.524 275.602 378.461 279.659 378.434 284.61 C 378.408 289.56 371.427 293.542 362.856 293.496 Z " fill="rgb(255,201,31)"/><path d=" M 362.797 291.265 C 356.141 291.229 350.754 288.081 350.774 284.239 C 350.795 280.398 356.216 277.309 362.872 277.345 C 369.528 277.381 374.915 280.529 374.894 284.37 C 374.873 288.211 369.453 291.301 362.797 291.265 Z " fill="rgb(242,156,90)"/><path d=" M 371.095 291.458 C 362.523 291.372 355.605 287.284 355.654 282.333 C 355.704 277.382 362.703 273.432 371.274 273.518 C 379.845 273.604 386.764 277.693 386.714 282.643 C 386.665 287.594 379.666 291.544 371.095 291.458 Z " fill="rgb(242,156,90)"/><path d=" M 369.412 287.433 C 360.841 287.387 353.904 283.33 353.93 278.379 C 353.957 273.428 360.938 269.447 369.509 269.493 C 378.08 269.54 385.017 273.597 384.99 278.547 C 384.963 283.498 377.983 287.479 369.412 287.433 Z " fill="rgb(255,201,31)"/><path d=" M 369.362 285.202 C 362.706 285.166 357.319 282.018 357.34 278.177 C 357.361 274.335 362.782 271.246 369.438 271.282 C 376.094 271.318 381.48 274.466 381.46 278.307 C 381.439 282.148 376.018 285.238 369.362 285.202 Z " fill="rgb(242,156,90)"/><path d=" M 365.378 281.681 C 356.806 281.595 349.888 277.506 349.937 272.556 C 349.987 267.605 356.986 263.655 365.557 263.741 C 374.128 263.827 381.047 267.915 380.997 272.866 C 380.948 277.817 373.949 281.767 365.378 281.681 Z " fill="rgb(242,156,90)"/><path d=" M 363.721 277.7 C 355.15 277.654 348.213 273.597 348.24 268.646 C 348.267 263.696 355.247 259.714 363.818 259.761 C 372.389 259.807 379.326 263.864 379.299 268.814 C 379.273 273.765 372.292 277.747 363.721 277.7 Z " fill="rgb(255,201,31)"/><path d=" M 363.661 275.469 C 357.005 275.433 351.619 272.285 351.639 268.444 C 351.66 264.603 357.081 261.513 363.737 261.549 C 370.393 261.585 375.78 264.733 375.759 268.574 C 375.738 272.416 370.317 275.505 363.661 275.469 Z " fill="rgb(242,156,90)"/><path d=" M 258.733 258.153 C 250.162 258.107 243.225 254.05 243.252 249.099 C 243.279 244.148 250.259 240.167 258.83 240.213 C 267.401 240.26 274.338 244.316 274.312 249.267 C 274.285 254.218 267.304 258.199 258.733 258.153 Z " fill="rgb(242,156,90)"/><path d=" M 258.743 255.348 C 250.172 255.301 243.235 251.244 243.262 246.294 C 243.289 241.343 250.269 237.362 258.84 237.408 C 267.412 237.454 274.348 241.511 274.322 246.462 C 274.295 251.413 267.314 255.394 258.743 255.348 Z " fill="rgb(255,201,31)"/><path d=" M 258.684 253.117 C 252.028 253.081 246.641 249.933 246.662 246.091 C 246.682 242.25 252.103 239.161 258.759 239.197 C 265.415 239.233 270.802 242.381 270.781 246.222 C 270.761 250.063 265.34 253.153 258.684 253.117 Z " fill="rgb(242,156,90)"/><path d=" M 339.6 328.726 C 331.029 328.68 324.092 324.623 324.119 319.672 C 324.145 314.721 331.126 310.74 339.697 310.786 C 348.268 310.833 355.205 314.89 355.178 319.84 C 355.151 324.791 348.171 328.772 339.6 328.726 Z " fill="rgb(242,156,90)"/><path d=" M 339.61 325.921 C 331.039 325.874 324.102 321.818 324.129 316.867 C 324.155 311.916 331.136 307.935 339.707 307.981 C 348.278 308.027 355.215 312.084 355.188 317.035 C 355.161 321.986 348.181 325.967 339.61 325.921 Z " fill="rgb(255,201,31)"/><path d=" M 339.55 323.69 C 332.894 323.654 327.507 320.506 327.528 316.664 C 327.549 312.823 332.97 309.734 339.626 309.77 C 346.282 309.806 351.669 312.954 351.648 316.795 C 351.627 320.636 346.206 323.726 339.55 323.69 Z " fill="rgb(242,156,90)"/><path d=" M 331.096 299.178 C 319.146 306.078 299.706 306.038 287.676 299.098 C 281.676 295.628 278.676 291.098 278.616 286.548 C 278.616 284.838 279.096 260.928 278.926 261.748 C 278.326 264.748 283.806 276.178 287.536 274.028 C 299.486 267.128 318.926 267.158 330.956 274.108 C 333.956 275.858 338.356 260.988 339.866 263.108 C 339.866 263.108 339.586 283.238 339.866 284.918 C 340.736 290.048 337.816 295.288 331.096 299.178 Z " fill="rgb(32,66,198)"/><linearGradient id="_lgradient_417" x1="0.4311091263824238" y1="-0.3666462158507242" x2="0.7035857294945496" y2="1.5408528730011746" gradientTransform="matrix(61.4,0,0,42.601,278.616,261.728)" gradientUnits="userSpaceOnUse"><stop offset="0%" stop-opacity="0" style="stop-color:rgb(1,1,1)"/><stop offset="95%" stop-opacity="1" style="stop-color:rgb(1,1,1)"/></linearGradient><path d=" M 331.096 299.178 C 319.146 306.078 299.706 306.038 287.676 299.098 C 281.676 295.628 278.676 291.098 278.616 286.548 C 278.616 284.838 279.096 260.928 278.926 261.748 C 278.326 264.748 283.806 276.178 287.536 274.028 C 299.486 267.128 318.926 267.158 330.956 274.108 C 333.956 275.858 338.356 260.988 339.866 263.108 C 339.866 263.108 339.586 283.238 339.866 284.918 C 340.736 290.048 337.816 295.288 331.096 299.178 Z " fill="url(#_lgradient_417)"/><path d=" M 309.219 281.694 C 292.275 281.602 278.562 273.583 278.615 263.798 C 278.668 254.012 292.467 246.142 309.411 246.234 C 326.354 246.326 340.067 254.345 340.014 264.13 C 339.962 273.915 326.163 281.785 309.219 281.694 Z " fill="rgb(32,66,198)"/><path d=" M 339.996 277.208 C 340.276 281.928 337.306 286.718 331.086 290.318 C 319.086 297.208 299.696 297.168 287.666 290.248 C 281.376 286.618 278.376 281.828 278.666 277.068 C 279.046 281.338 282.056 285.528 287.666 288.748 C 299.666 295.748 319.126 295.748 331.086 288.848 C 336.646 285.598 339.646 281.438 339.996 277.208 Z " fill="rgb(32,66,198)"/><linearGradient id="_lgradient_418" x1="0" y1="0.5" x2="0.9997659131317859" y2="0.5216360564744672" gradientTransform="matrix(0.148,-27.34,47.359,0.256,285.752,277.254)" gradientUnits="userSpaceOnUse"><stop offset="0%" stop-opacity="0.6491202100508286" style="stop-color:rgb(1,1,1)"/><stop offset="100%" stop-opacity="0.9961415917981598" style="stop-color:rgb(1,1,1)"/></linearGradient><path d=" M 309.432 277.382 C 296.363 277.312 285.785 271.129 285.826 263.584 C 285.867 256.04 296.511 249.972 309.58 250.043 C 322.649 250.113 333.226 256.296 333.186 263.841 C 333.145 271.385 322.501 277.453 309.432 277.382 Z " fill="url(#_lgradient_418)"/><path d=" M 310.336 139.878 L 278.596 198.188 L 295.816 198.188 L 310.336 139.878 L 310.336 139.878 Z " fill="rgb(32,66,198)"/><path d=" M 309.766 255.518 L 278.596 198.188 L 295.816 198.188 L 309.766 255.518 L 309.766 255.518 Z " fill="rgb(32,66,198)"/><path d=" M 341.586 198.438 L 310.336 139.878 L 295.816 198.188 L 341.586 198.438 L 341.586 198.438 Z " fill="rgb(32,66,198)"/><path d=" M 309.766 255.518 L 341.586 198.438 L 295.816 198.188 L 309.766 255.518 L 309.766 255.518 Z " fill="rgb(32,66,198)"/><linearGradient id="_lgradient_419" x1="0" y1="0.5" x2="0.058917494949511096" y2="1.498262855559033" gradientTransform="matrix(31.74,0,0,58.31,278.596,139.878)" gradientUnits="userSpaceOnUse"><stop offset="100%" stop-opacity="0" style="stop-color:rgb(1,1,1)"/><stop offset="100%" stop-opacity="0.014855088610603567" style="stop-color:rgb(1,1,1)"/></linearGradient><path d=" M 310.336 139.878 L 278.596 198.188 L 295.816 198.188 L 310.336 139.878 L 310.336 139.878 Z " fill="url(#_lgradient_419)"/><linearGradient id="_lgradient_420" x1="0" y1="0.5" x2="0.29957680471541115" y2="-0.4540721870364446" gradientTransform="matrix(31.17,0,0,57.33,278.596,198.188)" gradientUnits="userSpaceOnUse"><stop offset="0%" stop-opacity="1" style="stop-color:rgb(1,1,1)"/></linearGradient><path d=" M 309.766 255.518 L 278.596 198.188 L 295.816 198.188 L 309.766 255.518 L 309.766 255.518 Z " fill="url(#_lgradient_420)"/><linearGradient id="_lgradient_421" x1="0" y1="0.5" x2="0.03209384476448525" y2="1.4994848598794448" gradientTransform="matrix(45.77,0,0,58.56,295.816,139.878)" gradientUnits="userSpaceOnUse"><stop offset="100%" stop-opacity="0" style="stop-color:rgb(1,1,1)"/><stop offset="100%" stop-opacity="0.009273469993369468" style="stop-color:rgb(1,1,1)"/></linearGradient><path d=" M 341.586 198.438 L 310.336 139.878 L 295.816 198.188 L 341.586 198.438 L 341.586 198.438 Z " fill="url(#_lgradient_421)"/><linearGradient id="_lgradient_422" x1="0" y1="0.5" x2="0.05589581887909267" y2="-0.49843660661648204" gradientTransform="matrix(45.77,0,0,57.33,295.816,198.188)" gradientUnits="userSpaceOnUse"><stop offset="0%" stop-opacity="0" style="stop-color:rgb(1,1,1)"/></linearGradient><path d=" M 309.766 255.518 L 341.586 198.438 L 295.816 198.188 L 309.766 255.518 L 309.766 255.518 Z " fill="url(#_lgradient_422)"/><linearGradient id="_lgradient_423" x1="0.4832013962475845" y1="0.22336245609767857" x2="0.4015127204539211" y2="1.255219413491311" gradientTransform="matrix(160.43,0,0,176.887,226.436,103.958)" gradientUnits="userSpaceOnUse"><stop offset="0%" stop-opacity="0" style="stop-color:rgb(255,255,255)"/><stop offset="95%" stop-opacity="1" style="stop-color:rgb(255,255,255)"/></linearGradient><path d=" M 278.926 261.748 L 226.436 114.748 L 386.866 103.958 L 339.646 270.288 C 339.646 270.288 298.946 298.988 278.926 261.748 Z " fill="url(#_lgradient_423)"/><linearGradient id="_lgradient_424" x1="0.48258029395753965" y1="0.22375682588963963" x2="0.4009908970831345" y2="1.2550418650509805" gradientTransform="matrix(73.48,0,0,81.07,432.546,268.788)" gradientUnits="userSpaceOnUse"><stop offset="0%" stop-opacity="0" style="stop-color:rgb(255,255,255)"/><stop offset="66%" stop-opacity="1" style="stop-color:rgb(255,255,255)"/></linearGradient><path d=" M 456.546 341.118 L 432.546 273.788 L 506.026 268.788 L 484.346 345.018 C 484.346 345.018 465.716 358.168 456.546 341.118 Z " fill="url(#_lgradient_424)"/><linearGradient id="_lgradient_425" x1="0" y1="0.5" x2="0.0715503167824116" y2="-0.49743699157808285" gradientTransform="matrix(73.49,0,0,81.041,377.716,322.288)" gradientUnits="userSpaceOnUse"><stop offset="0%" stop-opacity="0" style="stop-color:rgb(255,255,255)"/></linearGradient><path d=" M 401.766 394.588 L 377.716 327.288 L 451.206 322.288 L 429.566 398.478 C 429.566 398.478 410.926 411.648 401.766 394.588 Z " fill="url(#_lgradient_425)"/><linearGradient id="_lgradient_426" x1="0.4825802939575392" y1="0.2238007613975066" x2="0.4009749978166853" y2="1.255286766324626" gradientTransform="matrix(73.48,0,0,81.054,135.466,170.148)" gradientUnits="userSpaceOnUse"><stop offset="0%" stop-opacity="0" style="stop-color:rgb(255,255,255)"/><stop offset="38%" stop-opacity="0.67" style="stop-color:rgb(255,255,255)"/><stop offset="95%" stop-opacity="1" style="stop-color:rgb(255,255,255)"/></linearGradient><path d=" M 159.466 242.468 L 135.466 175.148 L 208.946 170.148 L 187.306 246.338 C 187.306 246.338 168.646 259.528 159.466 242.468 Z " fill="url(#_lgradient_426)"/><linearGradient id="_lgradient_427" x1="0.48319499251598863" y1="0.22379457584153872" x2="0.4015920317683992" y2="1.2553745153375424" gradientTransform="matrix(73.49,0,0,81.056,181.176,99.338)" gradientUnits="userSpaceOnUse"><stop offset="0%" stop-opacity="0" style="stop-color:rgb(255,255,255)"/><stop offset="57.99999999999999%" stop-opacity="1" style="stop-color:rgb(255,255,255)"/></linearGradient><path d=" M 205.226 171.668 L 181.176 104.338 L 254.666 99.338 L 233.026 175.528 C 233.026 175.528 214.386 188.718 205.226 171.668 Z " fill="url(#_lgradient_427)"/><linearGradient id="_lgradient_428" x1="0.48251462784052274" y1="0.22376298725477306" x2="0.40092308524746173" y2="1.2550751481700888" gradientTransform="matrix(73.49,0,0,81.068,29.336,170.698)" gradientUnits="userSpaceOnUse"><stop offset="0%" stop-opacity="0" style="stop-color:rgb(255,255,255)"/><stop offset="53%" stop-opacity="1" style="stop-color:rgb(255,255,255)"/></linearGradient><path d=" M 53.336 243.018 L 29.336 175.698 L 102.826 170.698 L 81.136 246.928 C 81.136 246.928 62.496 260.078 53.336 243.018 Z " fill="url(#_lgradient_428)"/><path d=" M 482.036 358.218 C 476.476 361.428 467.426 361.408 461.836 358.218 C 459.036 356.608 457.636 354.488 457.626 352.378 C 457.626 351.588 457.846 340.468 457.766 340.848 C 457.486 342.248 460.036 347.558 461.766 346.558 C 467.326 343.348 476.366 343.368 481.956 346.558 C 483.366 347.368 485.396 340.458 486.106 341.458 C 486.106 341.458 485.966 350.818 486.106 351.598 C 486.516 353.968 485.156 356.408 482.036 358.218 Z " fill="rgb(32,66,198)"/><linearGradient id="_lgradient_429" x1="0" y1="0.5" x2="0.20192583432607764" y2="1.4794008155151381" gradientTransform="matrix(28.551,0,0,19.78,457.626,340.839)" gradientUnits="userSpaceOnUse"><stop offset="100%" stop-opacity="0" style="stop-color:rgb(1,1,1)"/><stop offset="100%" stop-opacity="0.019324978500961407" style="stop-color:rgb(1,1,1)"/></linearGradient><path d=" M 482.036 358.218 C 476.476 361.428 467.426 361.408 461.836 358.218 C 459.036 356.608 457.636 354.488 457.626 352.378 C 457.626 351.588 457.846 340.468 457.766 340.848 C 457.486 342.248 460.036 347.558 461.766 346.558 C 467.326 343.348 476.366 343.368 481.956 346.558 C 483.366 347.368 485.396 340.458 486.106 341.458 C 486.106 341.458 485.966 350.818 486.106 351.598 C 486.516 353.968 485.156 356.408 482.036 358.218 Z " fill="url(#_lgradient_429)"/><path d=" M 471.849 350.077 C 463.968 350.035 457.589 346.303 457.614 341.75 C 457.638 337.197 464.057 333.535 471.938 333.578 C 479.819 333.62 486.198 337.352 486.173 341.905 C 486.149 346.458 479.73 350.12 471.849 350.077 Z " fill="rgb(32,66,198)"/><path d=" M 486.176 347.998 C 486.306 350.198 484.926 352.418 482.026 354.098 C 476.466 357.298 467.426 357.278 461.836 354.098 C 458.906 352.398 457.506 350.178 457.636 347.968 C 457.816 349.968 459.216 351.898 461.836 353.398 C 467.426 356.628 476.466 356.648 482.026 353.398 C 484.646 351.898 486.016 349.968 486.176 347.998 Z " fill="rgb(32,66,198)"/><linearGradient id="_lgradient_430" x1="0" y1="0.5" x2="0.9997660330594498" y2="0.521630514107882" gradientTransform="matrix(0.069,-12.72,22.02,0.119,460.94,348.007)" gradientUnits="userSpaceOnUse"><stop offset="100%" stop-opacity="1" style="stop-color:rgb(255,255,255)"/><stop offset="100%" stop-opacity="0.9916999374789978" style="stop-color:rgb(255,255,255)"/></linearGradient><path d=" M 471.95 348.067 C 465.873 348.034 460.955 345.157 460.974 341.647 C 460.993 338.137 465.942 335.314 472.018 335.347 C 478.095 335.38 483.013 338.256 482.994 341.766 C 482.975 345.277 478.026 348.1 471.95 348.067 Z " fill="url(#_lgradient_430)"/><path d=" M 425.696 412.228 C 420.136 415.438 411.096 415.418 405.496 412.228 C 402.706 410.608 401.296 408.498 401.286 406.388 C 401.286 405.598 401.506 394.478 401.436 394.858 C 401.156 396.258 403.706 401.568 405.436 400.568 C 410.996 397.358 420.036 397.378 425.636 400.568 C 427.046 401.378 429.076 394.458 429.776 395.468 C 429.776 395.468 429.646 404.828 429.776 405.608 C 430.186 407.978 428.826 410.418 425.696 412.228 Z " fill="rgb(32,66,198)"/><linearGradient id="_lgradient_431" x1="0" y1="0.5" x2="0.20220675000156535" y2="1.4793428563346978" gradientTransform="matrix(28.561,0,0,19.78,401.286,394.849)" gradientUnits="userSpaceOnUse"><stop offset="100%" stop-opacity="0" style="stop-color:rgb(1,1,1)"/><stop offset="100%" stop-opacity="0.01932143133163308" style="stop-color:rgb(1,1,1)"/></linearGradient><path d=" M 425.696 412.228 C 420.136 415.438 411.096 415.418 405.496 412.228 C 402.706 410.608 401.296 408.498 401.286 406.388 C 401.286 405.598 401.506 394.478 401.436 394.858 C 401.156 396.258 403.706 401.568 405.436 400.568 C 410.996 397.358 420.036 397.378 425.636 400.568 C 427.046 401.378 429.076 394.458 429.776 395.468 C 429.776 395.468 429.646 404.828 429.776 405.608 C 430.186 407.978 428.826 410.418 425.696 412.228 Z " fill="url(#_lgradient_431)"/><path d=" M 415.513 404.099 C 407.632 404.056 401.253 400.325 401.278 395.772 C 401.303 391.218 407.721 387.556 415.603 387.599 C 423.484 387.642 429.862 391.373 429.838 395.926 C 429.813 400.479 423.394 404.141 415.513 404.099 Z " fill="rgb(32,66,198)"/><path d=" M 429.836 402.008 C 429.966 404.198 428.586 406.428 425.696 408.108 C 420.136 411.308 411.096 411.288 405.496 408.108 C 402.576 406.418 401.176 404.198 401.306 401.978 C 401.486 403.978 402.886 405.918 405.496 407.418 C 411.096 410.648 420.136 410.668 425.696 407.418 C 428.276 405.908 429.646 403.978 429.836 402.008 Z " fill="rgb(32,66,198)"/><linearGradient id="_lgradient_432" x1="0" y1="0.5" x2="0.9997660330594498" y2="0.521630514107882" gradientTransform="matrix(0.069,-12.72,22.02,0.119,404.604,402.029)" gradientUnits="userSpaceOnUse"><stop offset="0%" stop-opacity="0.91464615634976" style="stop-color:rgb(255,255,255)"/><stop offset="100%" stop-opacity="0.9916999374789978" style="stop-color:rgb(255,255,255)"/></linearGradient><path d=" M 415.614 402.088 C 409.537 402.055 404.62 399.179 404.639 395.669 C 404.658 392.159 409.606 389.335 415.683 389.368 C 421.759 389.401 426.677 392.278 426.658 395.788 C 426.639 399.298 421.69 402.121 415.614 402.088 Z " fill="url(#_lgradient_432)"/><path d=" M 230.736 184.018 C 225.176 187.228 216.136 187.208 210.546 184.018 C 207.746 182.408 206.336 180.288 206.326 178.178 C 206.326 177.388 206.556 166.268 206.476 166.648 C 206.196 168.048 208.746 173.358 210.476 172.358 C 216.036 169.148 225.076 169.168 230.676 172.358 C 232.086 173.168 234.116 166.258 234.816 167.258 C 234.816 167.258 234.686 176.618 234.816 177.398 C 235.226 179.768 233.866 182.208 230.736 184.018 Z " fill="rgb(32,66,198)"/><linearGradient id="_lgradient_433" x1="0" y1="0.5" x2="0.20199333570534228" y2="1.4793868961399417" gradientTransform="matrix(28.561,0,0,19.78,206.326,166.639)" gradientUnits="userSpaceOnUse"><stop offset="100%" stop-opacity="0" style="stop-color:rgb(1,1,1)"/><stop offset="100%" stop-opacity="0.01932497850096144" style="stop-color:rgb(1,1,1)"/></linearGradient><path d=" M 230.736 184.018 C 225.176 187.228 216.136 187.208 210.546 184.018 C 207.746 182.408 206.336 180.288 206.326 178.178 C 206.326 177.388 206.556 166.268 206.476 166.648 C 206.196 168.048 208.746 173.358 210.476 172.358 C 216.036 169.148 225.076 169.168 230.676 172.358 C 232.086 173.168 234.116 166.258 234.816 167.258 C 234.816 167.258 234.686 176.618 234.816 177.398 C 235.226 179.768 233.866 182.208 230.736 184.018 Z " fill="url(#_lgradient_433)"/><path d=" M 220.562 175.891 C 212.681 175.849 206.302 172.117 206.327 167.564 C 206.351 163.011 212.77 159.349 220.651 159.391 C 228.532 159.434 234.911 163.165 234.886 167.719 C 234.862 172.272 228.443 175.934 220.562 175.891 Z " fill="rgb(32,66,198)"/><path d=" M 234.876 173.798 C 235.006 175.998 233.626 178.218 230.736 179.898 C 225.176 183.098 216.136 183.078 210.536 179.898 C 207.616 178.198 206.216 175.978 206.346 173.768 C 206.526 175.768 207.926 177.698 210.536 179.198 C 216.136 182.428 225.176 182.448 230.736 179.248 C 233.316 177.698 234.716 175.768 234.876 173.798 Z " fill="rgb(32,66,198)"/><linearGradient id="_lgradient_434" x1="0" y1="0.5" x2="0.9997660330594498" y2="0.5216305141078816" gradientTransform="matrix(0.069,-12.72,22.02,0.119,209.653,173.821)" gradientUnits="userSpaceOnUse"><stop offset="0%" stop-opacity="0.9120234820709496" style="stop-color:rgb(255,255,255)"/><stop offset="100%" stop-opacity="0.9916999374789978" style="stop-color:rgb(255,255,255)"/></linearGradient><path d=" M 220.662 173.881 C 214.586 173.848 209.668 170.971 209.687 167.461 C 209.706 163.951 214.655 161.128 220.731 161.161 C 226.808 161.194 231.726 164.07 231.707 167.58 C 231.688 171.09 226.739 173.913 220.662 173.881 Z " fill="url(#_lgradient_434)"/><linearGradient id="_lgradient_435" x1="0" y1="0.5" x2="0.9997660330594498" y2="0.5216305141078816" gradientTransform="matrix(0.069,-12.72,22.02,0.119,55.037,251.857)" gradientUnits="userSpaceOnUse"><stop offset="0%" stop-opacity="0.9120234820709496" style="stop-color:rgb(255,255,255)"/><stop offset="100%" stop-opacity="0.9916999374789978" style="stop-color:rgb(255,255,255)"/></linearGradient><path d=" M 66.047 251.917 C 59.97 251.884 55.052 249.007 55.071 245.497 C 55.09 241.987 60.039 239.164 66.115 239.197 C 72.192 239.23 77.11 242.106 77.091 245.616 C 77.072 249.126 72.123 251.949 66.047 251.917 Z " fill="url(#_lgradient_435)"/><path d=" M 184.486 257.828 C 178.926 261.038 169.876 261.018 164.286 257.828 C 161.486 256.218 160.086 254.108 160.066 251.998 C 160.066 251.198 160.296 240.078 160.216 240.458 C 159.936 241.858 162.486 247.178 164.216 246.168 C 169.776 242.958 178.816 242.978 184.406 246.168 C 185.816 246.978 187.846 240.068 188.556 241.068 C 188.556 241.068 188.416 250.438 188.556 251.218 C 188.966 253.578 187.646 256.028 184.486 257.828 Z " fill="rgb(32,66,198)"/><linearGradient id="_lgradient_436" x1="0" y1="0.5" x2="0.20200350571787148" y2="1.4793847985739261" gradientTransform="matrix(28.563,0,0,19.78,160.066,240.449)" gradientUnits="userSpaceOnUse"><stop offset="100%" stop-opacity="0" style="stop-color:rgb(1,1,1)"/><stop offset="100%" stop-opacity="0.01932497850096145" style="stop-color:rgb(1,1,1)"/></linearGradient><path d=" M 184.486 257.828 C 178.926 261.038 169.876 261.018 164.286 257.828 C 161.486 256.218 160.086 254.108 160.066 251.998 C 160.066 251.198 160.296 240.078 160.216 240.458 C 159.936 241.858 162.486 247.178 164.216 246.168 C 169.776 242.958 178.816 242.978 184.406 246.168 C 185.816 246.978 187.846 240.068 188.556 241.068 C 188.556 241.068 188.416 250.438 188.556 251.218 C 188.966 253.578 187.646 256.028 184.486 257.828 Z " fill="url(#_lgradient_436)"/><path d=" M 174.3 249.7 C 166.419 249.657 160.041 245.926 160.065 241.373 C 160.09 236.82 166.508 233.157 174.39 233.2 C 182.271 233.243 188.649 236.974 188.625 241.527 C 188.6 246.081 182.182 249.743 174.3 249.7 Z " fill="rgb(32,66,198)"/><path d=" M 188.646 247.608 C 188.776 249.808 187.396 252.038 184.496 253.708 C 178.936 256.908 169.896 256.898 164.306 253.708 C 161.376 252.018 159.976 249.788 160.106 247.578 C 160.286 249.578 161.686 251.508 164.306 253.008 C 169.896 256.248 178.936 256.258 184.496 253.058 C 187.066 251.518 188.456 249.578 188.646 247.608 Z " fill="rgb(32,66,198)"/><linearGradient id="_lgradient_437" x1="0" y1="0.5" x2="0.9998547077481954" y2="0.5170459201503106" gradientTransform="matrix(0.069,-12.72,22.02,0.119,163.391,247.63)" gradientUnits="userSpaceOnUse"><stop offset="0%" stop-opacity="0.1286994351965426" style="stop-color:rgb(255,255,255)"/><stop offset="100%" stop-opacity="0.9916999562433438" style="stop-color:rgb(255,255,255)"/></linearGradient><path d=" M 174.401 247.689 C 168.325 247.656 163.407 244.78 163.426 241.27 C 163.445 237.76 168.393 234.937 174.47 234.969 C 180.546 235.002 185.464 237.879 185.445 241.389 C 185.426 244.899 180.478 247.722 174.401 247.689 Z " fill="url(#_lgradient_437)"/><path d=" M 78.186 260.778 C 72.636 263.988 63.586 263.978 57.996 260.778 C 55.196 259.158 53.796 257.048 53.776 254.938 C 53.776 254.148 54.006 243.028 53.926 243.408 C 53.646 244.808 56.196 250.118 57.926 249.118 C 63.486 245.908 72.536 245.918 78.126 249.118 C 79.536 249.938 81.566 243.018 82.276 244.028 C 82.276 244.028 82.136 253.388 82.276 254.168 C 82.646 256.538 81.316 258.978 78.186 260.778 Z " fill="rgb(32,66,198)"/><linearGradient id="_lgradient_438" x1="0" y1="0.5" x2="0.20191481515799956" y2="1.4794030873035426" gradientTransform="matrix(28.56,0,0,19.783,53.776,243.399)" gradientUnits="userSpaceOnUse"><stop offset="100%" stop-opacity="0" style="stop-color:rgb(1,1,1)"/><stop offset="100%" stop-opacity="0.019321431331633068" style="stop-color:rgb(1,1,1)"/></linearGradient><path d=" M 78.186 260.778 C 72.636 263.988 63.586 263.978 57.996 260.778 C 55.196 259.158 53.796 257.048 53.776 254.938 C 53.776 254.148 54.006 243.028 53.926 243.408 C 53.646 244.808 56.196 250.118 57.926 249.118 C 63.486 245.908 72.536 245.918 78.126 249.118 C 79.536 249.938 81.566 243.018 82.276 244.028 C 82.276 244.028 82.136 253.388 82.276 254.168 C 82.646 256.538 81.316 258.978 78.186 260.778 Z " fill="url(#_lgradient_438)"/><path d=" M 68.015 252.654 C 60.134 252.612 53.755 248.88 53.78 244.327 C 53.805 239.774 60.223 236.112 68.105 236.155 C 75.986 236.197 82.364 239.928 82.34 244.482 C 82.315 249.035 75.896 252.697 68.015 252.654 Z " fill="rgb(32,66,198)"/><path d=" M 82.336 250.568 C 82.466 252.758 81.076 254.988 78.186 256.658 C 72.626 259.868 63.586 259.848 57.996 256.658 C 55.066 254.968 53.666 252.738 53.796 250.528 C 53.976 252.528 55.376 254.468 57.996 255.958 C 63.586 259.198 72.626 259.208 78.186 256.008 C 80.776 254.468 82.166 252.528 82.336 250.568 Z " fill="rgb(32,66,198)"/></g></g></svg>