<?xml version="1.0" encoding="UTF-8" standalone="no"?>
<!-- Generator: Gravit.io -->
<svg xmlns="http://www.w3.org/2000/svg" xmlns:xlink="http://www.w3.org/1999/xlink" style="isolation:isolate" viewBox="0 0 1700.787 1148.031" width="1700.787pt" height="1148.031pt"><defs><clipPath id="_clipPath_OKEoRGFFlGtJr3wuLI24qZuJLuvclYYf"><rect width="1700.787" height="1148.031"/></clipPath></defs><g clip-path="url(#_clipPath_OKEoRGFFlGtJr3wuLI24qZuJLuvclYYf)"><g><g opacity="0.24"><path d=" M 346.088 1020.637 C 444.594 1055.507 1351.693 1162.318 1571.639 1020.637 C 1603.767 999.95 1635.335 977.588 1656.763 948.697 C 1711.435 875.011 1687.856 778.293 1646.734 698.604 C 1605.611 618.914 1548.173 542.406 1537.976 455.972 C 1528.365 374.322 1559.794 282.603 1503.306 215.637 C 1440.225 140.85 1306.911 144.318 1201.589 168.88 C 1096.267 193.443 931.358 287.352 829.277 254.898 C 673.306 205.2 610.81 8.115 424.025 12.587 C 56.068 -14.412 -245.077 924.071 346.088 1020.637 Z " fill="rgb(32,66,198)"/></g><path d=" M 211.802 148.675 L 272.51 123.603 L 606.328 154.905 L 606.328 186.659 L 211.802 187.832 L 211.802 148.675 L 211.802 148.675 Z " fill="rgb(32,66,198)"/><rect x="262.397" y="113.761" width="59.745" height="829.955" transform="matrix(1,0,0,1,0,0)" fill="rgb(32,66,198)"/><linearGradient id="_lgradient_286" x1="0" y1="0.5" x2="0.9320162340079349" y2="0.13758347230615098" gradientTransform="matrix(284.156,0,0,62.423,322.172,124.235)" gradientUnits="userSpaceOnUse"><stop offset="100%" stop-opacity="0" style="stop-color:rgb(1,1,1)"/><stop offset="100%" stop-opacity="0.002992556016907943" style="stop-color:rgb(1,1,1)"/></linearGradient><path d=" M 606.328 154.905 L 606.328 186.659 L 322.172 186.659 L 322.172 124.235 L 606.328 154.905 L 606.328 154.905 Z " fill="url(#_lgradient_286)"/><linearGradient id="_lgradient_287" x1="0" y1="0.5" x2="0.9356656868757579" y2="0.1471123090793388" gradientTransform="matrix(284.156,0,0,48.398,322.172,138.261)" gradientUnits="userSpaceOnUse"><stop offset="100%" stop-opacity="0" style="stop-color:rgb(1,1,1)"/><stop offset="100%" stop-opacity="0.0030269779408982557" style="stop-color:rgb(1,1,1)"/></linearGradient><path d=" M 606.328 168.931 L 606.328 186.659 L 322.172 186.659 L 322.172 138.261 L 606.328 168.931 L 606.328 168.931 Z " fill="url(#_lgradient_287)"/><linearGradient id="_lgradient_288" x1="0" y1="0.5" x2="0.00017813941312108645" y2="1.4999999841331746" gradientTransform="matrix(59.745,0,0,829.955,262.397,113.761)" gradientUnits="userSpaceOnUse"><stop offset="100%" stop-opacity="0" style="stop-color:rgb(1,1,1)"/><stop offset="100%" stop-opacity="0.003138436430970091" style="stop-color:rgb(1,1,1)"/></linearGradient><rect x="262.397" y="113.761" width="59.745" height="829.955" transform="matrix(1,0,0,1,0,0)" fill="url(#_lgradient_288)"/><g opacity="0.48"><rect x="266.244" y="113.761" width="33.018" height="829.955" transform="matrix(1,0,0,1,0,0)" fill="rgb(1,1,1)"/></g><linearGradient id="_lgradient_289" x1="0" y1="0.5" x2="0.8740924608482076" y2="0.014240419663878734" gradientTransform="matrix(50.595,0,0,59.624,211.802,128.208)" gradientUnits="userSpaceOnUse"><stop offset="0%" stop-opacity="0.17381496296227983" style="stop-color:rgb(1,1,1)"/><stop offset="100%" stop-opacity="0.013488359545712056" style="stop-color:rgb(1,1,1)"/></linearGradient><path d=" M 262.397 128.208 L 262.397 187.832 L 211.802 187.832 L 211.802 148.675 L 262.397 128.208 L 262.397 128.208 Z " fill="url(#_lgradient_289)"/><linearGradient id="_lgradient_290" x1="0" y1="0.5" x2="0.891756028568835" y2="0.047483496973713346" gradientTransform="matrix(50.595,0,0,49.331,211.802,138.502)" gradientUnits="userSpaceOnUse"><stop offset="0%" stop-opacity="0.03412825474908432" style="stop-color:rgb(1,1,1)"/><stop offset="100%" stop-opacity="0.014016399187048851" style="stop-color:rgb(1,1,1)"/></linearGradient><path d=" M 262.397 138.502 L 262.397 187.832 L 211.802 187.832 L 211.802 158.938 L 262.397 138.502 L 262.397 138.502 Z " fill="url(#_lgradient_290)"/><path d=" M 321.991 861.307 C 317.386 870.728 314.105 882.376 319.643 891.405 C 322.467 894.919 325.481 898.275 328.673 901.458 C 340.712 916.146 334.361 938.238 324.941 954.641 C 322.046 958.773 320.16 963.525 319.433 968.516 C 319.071 976.372 324.76 982.903 329.485 989.164 C 334.211 995.424 337.642 1003.28 334.452 1009.811 C 298.416 1005.483 262.986 997.093 228.837 984.8 C 223.931 982.994 219.146 981.097 214.33 979.021 C 213.337 968.065 216.798 956.628 221.223 946.304 C 226.129 934.987 233.653 923.219 235.549 910.788 C 237.265 899.471 235.278 888.877 238.8 877.47 C 245.547 854.952 262.408 836.867 284.399 828.56 C 290.749 826.363 297.702 824.828 302.457 820.223 C 305.705 816.74 308.232 812.648 309.892 808.184 Q 322.653 780.464 335.234 752.563 C 339.147 744.045 344.264 734.504 353.624 732.999 C 360.787 731.825 367.951 736.551 371.472 742.871 C 374.71 749.443 375.824 756.858 374.663 764.09 C 370.629 801.171 338.575 827.958 321.991 861.307 Z " fill="rgb(32,66,198)"/><g opacity="0.5"><path d=" M 321.991 861.307 C 317.386 870.728 314.105 882.376 319.643 891.405 C 322.467 894.919 325.481 898.275 328.673 901.458 C 340.712 916.146 334.361 938.238 324.941 954.641 C 322.046 958.773 320.16 963.525 319.433 968.516 C 319.071 976.372 324.76 982.903 329.485 989.164 C 334.211 995.424 337.642 1003.28 334.452 1009.811 C 298.416 1005.483 262.986 997.093 228.837 984.8 C 223.931 982.994 219.146 981.097 214.33 979.021 C 213.337 968.065 216.798 956.628 221.223 946.304 C 226.129 934.987 233.653 923.219 235.549 910.788 C 237.265 899.471 235.278 888.877 238.8 877.47 C 245.547 854.952 262.408 836.867 284.399 828.56 C 290.749 826.363 297.702 824.828 302.457 820.223 C 305.705 816.74 308.232 812.648 309.892 808.184 Q 322.653 780.464 335.234 752.563 C 339.147 744.045 344.264 734.504 353.624 732.999 C 360.787 731.825 367.951 736.551 371.472 742.871 C 374.71 749.443 375.824 756.858 374.663 764.09 C 370.629 801.171 338.575 827.958 321.991 861.307 Z " fill="rgb(1,1,1)"/></g><path d=" M 273.623 969.389 C 272.496 979.728 266.502 988.908 257.491 994.1 C 247.799 991.301 238.288 988.231 228.777 984.679 C 223.871 982.873 219.086 980.977 214.27 978.9 C 187.273 967.484 161.657 953.045 137.911 935.86 C 136.349 931.254 135.142 926.535 134.299 921.744 C 132.691 912 136.988 902.225 145.255 896.823 C 149.274 894.901 153.147 892.688 156.843 890.201 C 164.909 883.58 164.999 870.999 160.936 861.488 C 156.873 851.977 149.409 844.181 143.991 835.302 C 138.573 826.423 134.962 815.287 139.266 805.866 C 142.095 799.847 147.783 795.453 151.305 789.644 C 157.987 778.778 155.82 764.843 153.382 752.322 C 150.131 735.317 146.85 718.371 143.509 701.336 C 141.433 690.29 139.868 677.257 148.024 669.432 C 159.1 658.928 177.37 667.355 188.356 677.859 C 201.47 689.83 211.136 705.098 216.347 722.073 C 226.67 759.124 208.642 800.81 223.119 836.446 C 232.81 860.525 255.565 876.958 266.881 900.224 C 277.145 921.473 276.964 946.364 273.623 969.389 Z " fill="rgb(1,1,1)"/><path d=" M 1565.333 890.367 C 1565.333 890.367 1585.604 900.834 1585.936 908.68 C 1585.936 908.68 1591.161 950.516 1591.161 950.516 L 1577.426 956.405 L 1579.305 984.175 C 1579.552 987.653 1576.982 990.693 1573.511 991.027 C 1560.645 992.29 1526.039 987.869 1526.402 983.938 C 1530.822 936.576 1524.286 901.844 1532.717 896.918 C 1541.147 891.993 1552.593 890.43 1552.593 890.43 L 1565.333 890.367 Z " fill="rgb(32,66,198)"/><g opacity="0.5"><linearGradient id="_lgradient_291" x1="0.4829207145095591" y1="-0.020971251330957008" x2="0.5003345912071454" y2="0.22879787162474918" gradientTransform="matrix(50.377,0,0,12.504,1527.507,955.742)" gradientUnits="userSpaceOnUse"><stop offset="0%" stop-opacity="0" style="stop-color:rgb(1,1,1)"/><stop offset="95%" stop-opacity="1" style="stop-color:rgb(1,1,1)"/></linearGradient><path d=" M 1577.426 956.405 L 1558.513 958.931 L 1556.066 955.742 L 1527.507 958.931 L 1527.87 961.631 L 1556.303 962.846 L 1562.444 968.246 L 1577.884 966.525 L 1577.426 956.405 L 1577.426 956.405 Z " fill="url(#_lgradient_291)"/></g><linearGradient id="_lgradient_292" x1="0" y1="0.5" x2="0.8820472869774652" y2="0.9711608892254251" gradientTransform="matrix(80.054,0,0,48.728,1427.719,872.345)" gradientUnits="userSpaceOnUse"><stop offset="100%" stop-opacity="0" style="stop-color:rgb(1,1,1)"/><stop offset="100%" stop-opacity="0.006815354994803296" style="stop-color:rgb(1,1,1)"/></linearGradient><path d=" M 1429.594 872.353 C 1429.594 872.353 1427.115 872.148 1427.857 873.743 C 1427.857 873.743 1433.746 876.095 1433.62 876.9 C 1431.409 890.745 1443.423 892.687 1448.57 891.361 C 1453.717 890.035 1507.283 921.073 1507.283 921.073 L 1507.773 892.956 L 1429.594 872.353 Z " fill="url(#_lgradient_292)"/><linearGradient id="_lgradient_293" x1="-0.0003726658978848718" y1="0.5010659918337872" x2="0.999042651481119" y2="0.5010659918337872" gradientTransform="matrix(24.785,0,0,16.143,1429.145,870.516)" gradientUnits="userSpaceOnUse"><stop offset="0%" stop-opacity="1" style="stop-color:rgb(229,198,214)"/><stop offset="42%" stop-opacity="1" style="stop-color:rgb(234,212,208)"/><stop offset="100%" stop-opacity="1" style="stop-color:rgb(240,233,203)"/></linearGradient><path d=" M 1445.839 873.585 C 1440.661 872.416 1435.467 871.232 1430.209 870.569 C 1429.978 870.499 1429.731 870.499 1429.499 870.569 C 1428.899 870.869 1429.152 871.801 1429.594 872.306 C 1431.173 873.995 1433.588 874.342 1435.688 875.211 C 1435.87 875.266 1436.023 875.391 1436.114 875.558 C 1436.16 875.707 1436.16 875.867 1436.114 876.016 C 1435.533 877.667 1435.387 879.439 1435.688 881.163 C 1436.003 882.899 1437.012 884.433 1438.482 885.409 C 1439.852 886.128 1441.371 886.517 1442.918 886.546 C 1444.737 886.797 1446.589 886.63 1448.333 886.057 C 1449.345 885.515 1450.402 885.061 1451.491 884.699 C 1452.185 884.557 1452.991 884.557 1453.417 884.004 C 1453.615 883.715 1453.73 883.376 1453.748 883.025 C 1454.033 880.973 1454.19 877.91 1452.58 876.363 C 1450.617 874.86 1448.291 873.901 1445.839 873.585 L 1445.839 873.585 Z " fill="url(#_lgradient_293)"/><linearGradient id="_lgradient_294" x1="0" y1="0.5" x2="1" y2="0.5" gradientTransform="matrix(30.386,0,0,49.12,1535.779,852.733)" gradientUnits="userSpaceOnUse"><stop offset="100%" stop-opacity="1" style="stop-color:rgb(240,233,203)"/><stop offset="100%" stop-opacity="1" style="stop-color:rgb(239,230,204)"/><stop offset="100%" stop-opacity="1" style="stop-color:rgb(234,211,208)"/></linearGradient><path d=" M 1536.379 866.528 C 1536.086 867.092 1535.884 867.7 1535.779 868.327 C 1535.862 869.868 1536.335 871.361 1537.153 872.669 C 1538.653 876.19 1538.432 880.815 1541.558 883.01 C 1543.294 884.225 1545.583 884.257 1547.557 885.015 C 1549.98 885.967 1551.851 887.954 1552.656 890.43 C 1553.351 892.64 1550.351 900.865 1552.514 901.686 C 1554.677 902.507 1558.182 900.107 1560.234 898.623 C 1562.681 896.918 1564.891 895.466 1565.128 893.05 C 1565.965 884.494 1566.786 875.826 1565.491 867.317 C 1565.192 864.752 1564.438 862.261 1563.265 859.96 C 1561.024 855.989 1557.013 853.335 1552.482 852.824 C 1542.821 851.83 1539.663 859.155 1536.379 866.528 Z " fill="url(#_lgradient_294)"/><path d=" M 1537.2 852.572 C 1536.671 854.56 1537.208 856.681 1538.621 858.176 C 1541.289 860.971 1546.152 860.686 1548.709 863.575 C 1549.582 864.707 1550.235 865.992 1550.635 867.364 C 1550.951 868.233 1551.535 869.259 1552.451 869.133 C 1553.698 868.959 1553.603 866.954 1554.645 866.228 C 1555.631 865.76 1556.81 866.167 1557.298 867.143 C 1558.466 869.133 1557.187 871.753 1555.324 873.127 C 1555.182 873.222 1555.024 873.348 1555.04 873.521 C 1555.056 873.695 1555.135 873.727 1555.214 873.821 L 1560.708 879.726 C 1561.315 880.515 1562.137 881.113 1563.076 881.447 C 1564.828 881.857 1566.407 880.405 1567.623 879.079 L 1573.038 873.127 C 1573.99 872.16 1574.803 871.066 1575.453 869.875 C 1576.293 867.578 1576.516 865.101 1576.1 862.691 C 1576.02 860.154 1575.486 857.651 1574.522 855.303 C 1573.133 852.717 1571.035 850.581 1568.475 849.146 C 1561.071 844.646 1551.977 843.952 1543.326 844.41 C 1541.131 844.536 1542.063 846.746 1541.021 848.104 C 1539.789 849.825 1537.848 850.251 1537.2 852.572 Z " fill="rgb(96,97,97)"/><linearGradient id="_lgradient_295" x1="0" y1="0.5" x2="0.8932520405647709" y2="0.9495562167592311" gradientTransform="matrix(39.216,0,0,15.734,1536.948,853.771)" gradientUnits="userSpaceOnUse"><stop offset="100%" stop-opacity="0" style="stop-color:rgb(1,1,1)"/><stop offset="100%" stop-opacity="0.05880623346074705" style="stop-color:rgb(1,1,1)"/></linearGradient><path d=" M 1536.948 853.771 C 1537.05 854.557 1537.213 855.333 1537.437 856.092 C 1537.627 856.408 1573.906 869.401 1573.906 869.401 C 1573.906 869.401 1575.485 869.827 1575.611 868.959 C 1575.737 868.091 1576.164 866.701 1576.164 866.701 L 1536.948 853.771 Z " fill="url(#_lgradient_295)"/><path d=" M 1581.831 859.771 C 1581.901 861.893 1581.694 864.016 1581.215 866.086 C 1581.215 866.086 1579.116 867.664 1573.322 866.165 C 1573.322 866.165 1530.696 851.609 1530.696 851.609 C 1530.696 851.609 1530.143 849.367 1532.275 849.162 L 1532.275 849.162 C 1533.992 848.816 1535.568 847.97 1536.806 846.73 C 1536.806 846.73 1544.526 829.664 1565.491 837.605 C 1579.116 842.705 1581.705 853.093 1581.831 859.771 Z " fill="rgb(32,66,198)"/><g opacity="0.5"><linearGradient id="_lgradient_296" x1="0" y1="0.5" x2="0.8109351949167077" y2="1.0851359753470993" gradientTransform="matrix(49.399,0,0,28.42,1532.433,835.451)" gradientUnits="userSpaceOnUse"><stop offset="100%" stop-opacity="0" style="stop-color:rgb(1,1,1)"/><stop offset="100%" stop-opacity="0.023702580025835838" style="stop-color:rgb(1,1,1)"/></linearGradient><path d=" M 1581.831 859.771 C 1581.73 860.878 1581.545 861.975 1581.279 863.054 C 1579.87 863.8 1578.25 864.045 1576.684 863.749 C 1575.617 863.658 1574.56 863.468 1573.527 863.181 C 1570.038 862.281 1555.34 857.197 1544.131 853.298 C 1538.984 851.482 1534.659 849.888 1532.433 849.114 C 1534.15 848.769 1535.726 847.923 1536.963 846.683 C 1536.963 846.683 1544.684 829.617 1565.649 837.558 C 1579.116 842.705 1581.705 853.093 1581.831 859.771 Z " fill="url(#_lgradient_296)"/></g><g opacity="0.5"><linearGradient id="_lgradient_297" x1="0" y1="0.5" x2="0.7633507000851423" y2="1.1459842944526772" gradientTransform="matrix(32.554,0,0,21.967,1544.131,841.782)" gradientUnits="userSpaceOnUse"><stop offset="100%" stop-opacity="0" style="stop-color:rgb(1,1,1)"/><stop offset="100%" stop-opacity="0.031734446154578363" style="stop-color:rgb(1,1,1)"/></linearGradient><path d=" M 1576.684 863.749 C 1575.617 863.658 1574.56 863.468 1573.527 863.181 C 1570.038 862.281 1555.34 857.197 1544.131 853.298 C 1544.215 853.215 1544.284 853.119 1544.336 853.014 C 1544.336 853.014 1549.988 835.948 1565.097 843.889 C 1573.764 848.483 1576.258 857.197 1576.684 863.749 Z " fill="url(#_lgradient_297)"/></g><path d=" M 1538.779 918.484 L 1509.241 920.931 L 1527.507 958.931 L 1556.303 958.031 L 1538.779 918.484 L 1538.779 918.484 Z " fill="rgb(255,255,255)"/><g opacity="0.5"><linearGradient id="_lgradient_298" x1="0" y1="0.5" x2="0.307627568243678" y2="-0.4515068466682104" gradientTransform="matrix(47.062,0,0,39.311,1509.241,919.621)" gradientUnits="userSpaceOnUse"><stop offset="0%" stop-opacity="0" style="stop-color:rgb(1,1,1)"/></linearGradient><path d=" M 1538.005 919.621 L 1509.241 920.931 L 1527.507 958.931 L 1556.303 958.031 L 1538.005 919.621 L 1538.005 919.621 Z " fill="url(#_lgradient_298)"/></g><linearGradient id="_lgradient_299" x1="0" y1="0.5" x2="1" y2="0.5" gradientTransform="matrix(14.19,0,0,13.082,1543.981,943.05)" gradientUnits="userSpaceOnUse"><stop offset="100%" stop-opacity="1" style="stop-color:rgb(240,233,203)"/><stop offset="100%" stop-opacity="1" style="stop-color:rgb(238,227,204)"/><stop offset="100%" stop-opacity="1" style="stop-color:rgb(233,210,209)"/></linearGradient><path d=" M 1546.246 943.175 C 1545.599 943.27 1544.81 943.507 1544.668 944.154 C 1544.526 944.801 1545.457 945.37 1546.246 945.575 L 1549.104 946.364 C 1547.811 945.829 1546.394 945.671 1545.015 945.906 C 1544.589 945.906 1544.084 946.159 1543.989 946.585 C 1543.894 947.012 1544.668 947.611 1545.315 947.722 L 1549.072 948.401 C 1547.815 948.114 1546.497 948.276 1545.347 948.859 C 1545.176 948.935 1545.033 949.062 1544.936 949.222 C 1544.731 949.68 1545.347 950.059 1545.836 950.185 C 1547.204 950.544 1548.598 950.803 1550.004 950.958 L 1547.367 950.958 C 1547.043 950.922 1546.717 951.006 1546.452 951.195 C 1546.278 951.405 1546.202 951.679 1546.245 951.948 C 1546.287 952.217 1546.443 952.454 1546.673 952.6 C 1547.154 952.868 1547.703 952.989 1548.251 952.948 L 1550.462 952.948 C 1550.901 952.937 1551.338 953.001 1551.756 953.137 C 1552.988 953.658 1553.335 955.347 1554.535 955.963 C 1555.66 956.4 1556.937 955.967 1557.566 954.937 C 1558.138 953.897 1558.312 952.685 1558.055 951.527 C 1557.552 948.903 1555.933 946.627 1553.619 945.291 C 1551.014 943.68 1549.483 942.686 1546.246 943.175 Z " fill="url(#_lgradient_299)"/><path d=" M 1578.247 988.106 L 1568.933 1052.818 L 1580.205 1127.84 L 1572.848 1128.819 L 1550.793 1058.218 L 1547.841 1024.875 L 1522.36 1125.377 L 1515.982 1125.377 L 1528.202 984.838 L 1578.247 988.106 L 1578.247 988.106 Z " fill="rgb(32,66,198)"/><linearGradient id="_lgradient_300" x1="0" y1="0.5" x2="0.02658000573575066" y2="-0.4996466892332948" gradientTransform="matrix(64.223,0,0,143.981,1515.982,984.838)" gradientUnits="userSpaceOnUse"><stop offset="0%" stop-opacity="1" style="stop-color:rgb(1,1,1)"/></linearGradient><path d=" M 1578.247 988.106 L 1568.933 1052.818 L 1580.205 1127.84 L 1572.848 1128.819 L 1550.793 1058.218 L 1547.841 1024.875 L 1522.36 1125.377 L 1515.982 1125.377 L 1522.266 1053.181 L 1528.202 984.838 L 1578.247 988.106 L 1578.247 988.106 Z " fill="url(#_lgradient_300)"/><path d=" M 1582.052 1134.881 C 1582.052 1135.07 1582.147 1135.291 1582.052 1135.434 C 1581.927 1135.548 1581.764 1135.61 1581.594 1135.607 C 1576.119 1136.152 1570.603 1136.152 1565.128 1135.607 C 1565.57 1133.905 1566.433 1132.341 1567.638 1131.06 C 1568.308 1130.494 1569.065 1130.041 1569.88 1129.719 C 1572.059 1128.755 1576.763 1126.877 1579.163 1127.761 C 1581.137 1128.566 1581.61 1132.987 1582.052 1134.881 Z " fill="rgb(96,97,97)"/><path d=" M 1522.297 1133.792 C 1522.302 1133.974 1522.234 1134.15 1522.108 1134.281 C 1521.968 1134.389 1521.795 1134.445 1521.618 1134.439 C 1516.505 1134.81 1511.371 1134.81 1506.257 1134.439 C 1506.088 1134.442 1505.923 1134.393 1505.783 1134.297 C 1505.531 1134.06 1505.673 1133.65 1505.783 1133.365 C 1507.366 1130.466 1509.765 1128.094 1512.683 1126.545 C 1514.514 1125.614 1519.313 1123.909 1521.255 1125.345 C 1523.197 1126.782 1522.518 1131.645 1522.297 1133.792 Z " fill="rgb(96,97,97)"/><path d=" M 1489.87 881.952 L 1550.178 890.777 L 1528.849 915.847 L 1528.849 915.847 C 1526.143 910.633 1521.39 906.778 1515.73 905.207 L 1452.043 887.43 L 1452.533 875.669 L 1489.87 881.952 Z " fill="rgb(32,66,198)"/><linearGradient id="_lgradient_301" x1="0.32111096160822816" y1="2.635847057043085" x2="1.0119026215707123" y2="1.5142569242410386" gradientTransform="matrix(137.537,0,0,18.045,1274.054,262.274)" gradientUnits="userSpaceOnUse"><stop offset="0%" stop-opacity="1" style="stop-color:rgb(0,0,0)"/><stop offset="100%" stop-opacity="1" style="stop-color:rgb(0,0,0)"/></linearGradient><path d=" M 1411.116 271.858 C 1410.749 272.312 1410.284 272.678 1409.757 272.929 C 1405.791 275.23 1401.685 277.55 1397.233 278.76 C 1393.878 279.588 1390.443 280.047 1386.989 280.129 C 1379.442 280.473 1371.881 280.35 1364.35 279.762 C 1350.08 278.641 1335.979 275.855 1321.709 274.804 C 1307.588 273.812 1293.388 274.496 1279.247 273.614 C 1277.432 273.495 1275.28 273.187 1274.428 271.63 C 1273.9 270.502 1273.933 269.191 1274.517 268.09 C 1276.421 264.124 1281.677 263.499 1286.06 263.38 C 1316.741 262.547 1347.452 261.724 1378.124 262.755 C 1383.508 262.943 1388.943 263.191 1394.159 264.51 C 1398.033 265.47 1401.96 266.202 1405.92 266.702 C 1407.982 266.91 1413.178 268.864 1411.116 271.858 Z " fill="url(#_lgradient_301)"/><linearGradient id="_lgradient_302" x1="0" y1="0.5" x2="0.7737375934895803" y2="1.1335062244532037" gradientTransform="matrix(64.029,0,0,68.244,1216.536,264.209)" gradientUnits="userSpaceOnUse"><stop offset="100%" stop-opacity="1" style="stop-color:rgb(0,0,0)"/><stop offset="100%" stop-opacity="1" style="stop-color:rgb(0,0,0)"/></linearGradient><path d=" M 1241.961 280.862 C 1240.112 280.863 1238.289 281.294 1236.636 282.122 C 1234.617 283.553 1233.344 285.812 1233.165 288.28 C 1233.007 290.715 1233.047 293.16 1233.284 295.588 C 1233.552 302.698 1231.688 309.69 1229.853 316.562 C 1228.346 322.174 1226.541 328.223 1221.831 331.625 C 1221.032 332.367 1219.902 332.635 1218.856 332.329 C 1217.864 331.883 1217.567 330.693 1217.378 329.651 C 1214.324 312.377 1220.562 294.835 1220.562 277.293 C 1220.562 273.842 1220.562 269.816 1223.298 267.703 C 1224.994 266.404 1227.265 266.246 1229.397 266.137 L 1261.953 264.54 C 1267.05 264.292 1273.654 263.548 1278.474 265.661 C 1284.513 268.328 1275.875 272.196 1272.702 273.782 C 1263.242 278.552 1252.433 280.039 1241.961 280.862 Z " fill="url(#_lgradient_302)"/><path d=" M 1278.9 257.45 C 1278.295 261.585 1277.115 265.908 1274.001 268.695 C 1271.651 270.807 1268.488 271.749 1265.404 272.473 C 1254.486 275.026 1243.203 275.631 1232.074 274.258 C 1230.498 274.07 1228.554 273.98 1227.652 275.25 C 1227.285 275.931 1227.107 276.698 1227.136 277.471 C 1226.287 294.299 1224.579 311.073 1222.019 327.728 C 1221.583 330.484 1221.097 333.34 1219.5 335.661 C 1215.831 340.907 1208.245 340.996 1201.859 340.559 C 1201.082 340.602 1200.318 340.35 1199.717 339.855 C 1198.567 338.606 1200.005 336.742 1201.205 335.552 C 1206.262 330.593 1208.473 323.305 1208.939 316.224 C 1209.406 309.144 1208.325 302.064 1207.73 294.983 C 1206.543 280.839 1207.33 266.598 1210.07 252.67 C 1210.655 249.695 1211.389 246.621 1213.422 244.39 C 1214.294 243.398 1234.851 242.149 1236.001 241.583 C 1234.94 240.592 1220.889 232.47 1219.857 231.409 C 1215.028 239.898 1201.879 259.592 1198.428 268.735 C 1187.852 269.529 1177.224 269.287 1166.695 268.011 C 1165.515 265.036 1179.587 259.542 1182.71 259.79 C 1188.591 243.13 1196.593 223.764 1207.095 209.524 C 1210.724 204.565 1215.028 199.528 1221.047 198.179 C 1228.931 196.404 1236.527 201.6 1242.933 206.519 C 1261.011 220.323 1282.767 231.31 1278.9 257.45 Z " fill="rgb(62,62,84)"/><path d=" M 1326.152 211.705 C 1330.753 209.653 1335.691 207.372 1340.64 208.354 C 1344.388 209.107 1347.512 211.636 1350.407 214.135 Q 1355.604 218.587 1360.621 223.238 C 1363.596 226.005 1366.76 229.257 1366.888 233.333 C 1366.998 236.774 1371.271 267.604 1367.88 267.832 C 1360.433 268.328 1312.031 268.179 1274.041 268.675 C 1270.154 268.725 1271.125 269.667 1268.141 267.198 C 1259.781 260.256 1259.94 234.007 1270.263 228.444 C 1277.76 224.408 1288.668 224.418 1296.878 222.177 C 1306.944 219.44 1316.275 215.017 1326.152 211.705 Z " fill="rgb(255,255,255)"/><linearGradient id="_lgradient_303" x1="0" y1="0.5" x2="0.7211477053909754" y2="-0.19278134141252035" gradientTransform="matrix(57.2,0,0,39.346,1296.019,209.135)" gradientUnits="userSpaceOnUse"><stop offset="100%" stop-opacity="1" style="stop-color:rgb(0,0,0)"/><stop offset="100%" stop-opacity="1" style="stop-color:rgb(0,0,0)"/></linearGradient><path d=" M 1311.852 216.951 C 1305.317 223.664 1298.177 232.411 1296.085 241.534 C 1295.351 244.737 1300.052 253.384 1345.37 244.767 C 1346.689 244.509 1353.779 235.594 1353.184 233.214 C 1352.589 230.834 1336.693 232.084 1334.273 231.707 C 1333.153 231.528 1332.012 231.756 1330.902 231.588 C 1329.791 231.419 1322.493 234.305 1322.483 233.174 C 1322.483 231.766 1330.257 227.393 1331.596 226.947 C 1338.21 224.765 1357.656 223.159 1341.512 212.072 C 1332.468 205.914 1318.318 210.357 1311.852 216.951 Z " fill="url(#_lgradient_303)"/><path d=" M 1345.608 255.189 C 1345.298 256.823 1345.446 258.512 1346.034 260.068 C 1346.904 261.629 1348.229 262.888 1349.832 263.677 C 1360.264 269.816 1373.146 269.419 1385.234 268.834 C 1387.802 268.705 1402.736 268.923 1405.067 267.842 C 1409.39 265.859 1413.516 259.522 1408.914 249.596 C 1406.574 244.429 1393.891 226.451 1392.413 220.928 C 1388.625 219.658 1384.123 220.382 1383.231 224.279 C 1382.338 228.176 1394.863 248.723 1392.413 251.718 C 1387.227 258.055 1376.15 241.802 1365.48 229.614 C 1359.392 222.683 1346.53 247.623 1345.608 255.189 Z " fill="rgb(255,255,255)"/><linearGradient id="_lgradient_304" x1="0.7209299465629702" y1="0.33388359362603204" x2="0.16262523435832388" y2="1.0448220191581976" gradientTransform="matrix(19.22,0,0,19.771,1351.892,218.184)" gradientUnits="userSpaceOnUse"><stop offset="0%" stop-opacity="1" style="stop-color:rgb(229,197,213)"/><stop offset="42%" stop-opacity="1" style="stop-color:rgb(234,212,209)"/><stop offset="100%" stop-opacity="1" style="stop-color:rgb(240,233,203)"/></linearGradient><path d=" M 1355.485 226.183 C 1354.298 227.184 1353.292 228.382 1352.51 229.723 C 1351.73 231.088 1351.685 232.752 1352.391 234.156 C 1353.491 236.01 1353.115 240.294 1366.026 236.318 C 1367.166 235.971 1371.103 227.175 1371.103 225.975 C 1371.199 223.828 1370.523 221.718 1369.199 220.025 C 1364.35 214.442 1358.757 223.04 1355.485 226.183 Z " fill="url(#_lgradient_304)"/><linearGradient id="_lgradient_305" x1="0" y1="0.5" x2="0.5189196673578291" y2="-0.35482301023617746" gradientTransform="matrix(15.351,0,0,9.113,1351.706,225.935)" gradientUnits="userSpaceOnUse"><stop offset="100%" stop-opacity="1" style="stop-color:rgb(0,0,0)"/><stop offset="100%" stop-opacity="1" style="stop-color:rgb(0,0,0)"/></linearGradient><path d=" M 1352.113 235.049 L 1356.08 232.619 C 1356.163 232.561 1356.258 232.521 1356.357 232.5 C 1356.551 232.485 1356.743 232.538 1356.903 232.649 C 1360.215 234.287 1364.177 233.854 1367.057 231.538 C 1365.47 231.36 1364.171 230.269 1362.892 229.317 C 1361.403 228.203 1359.828 227.208 1358.182 226.342 C 1357.807 226.11 1357.382 225.971 1356.942 225.935 C 1356.238 226.013 1355.595 226.37 1355.157 226.927 C 1353.631 228.44 1352.453 230.267 1351.706 232.282" fill="url(#_lgradient_305)"/><path d=" M 1311.604 211.249 C 1305.069 217.953 1297.93 226.699 1295.837 235.822 C 1295.103 239.025 1292.109 250.697 1337.437 242.099 C 1338.755 241.851 1338.488 239.64 1338.686 238.311 C 1339.209 235.91 1339.253 233.43 1338.815 231.013 C 1338.22 228.633 1336.445 226.372 1334.025 225.995 C 1332.905 225.816 1331.764 226.044 1330.654 225.876 C 1329.543 225.707 1322.284 228.563 1322.284 227.462 C 1322.284 226.054 1330.059 221.681 1331.398 221.245 C 1338.012 219.053 1357.458 217.447 1341.314 206.37 C 1332.201 200.202 1318.03 204.645 1311.604 211.249 Z " fill="rgb(255,255,255)"/><path d=" M 1311.604 211.249 C 1305.069 217.953 1297.93 226.699 1295.837 235.822 C 1295.103 239.025 1292.109 250.697 1337.437 242.099 C 1338.755 241.851 1338.488 239.64 1338.686 238.311 C 1339.209 235.91 1339.253 233.43 1338.815 231.013 C 1338.22 228.633 1336.445 226.372 1334.025 225.995 C 1332.905 225.816 1331.764 226.044 1330.654 225.876 C 1329.543 225.707 1322.284 228.563 1322.284 227.462 C 1322.284 226.054 1330.059 221.681 1331.398 221.245 C 1338.012 219.053 1357.458 217.447 1341.314 206.37 C 1332.201 200.202 1318.03 204.645 1311.604 211.249 Z " fill="rgb(255,255,255)"/><linearGradient id="_lgradient_306" x1="0" y1="0.5" x2="1" y2="0.5" gradientTransform="matrix(10.095,0,0,20.103,1381.104,204.625)" gradientUnits="userSpaceOnUse"><stop offset="100%" stop-opacity="1" style="stop-color:rgb(229,197,213)"/><stop offset="100%" stop-opacity="1" style="stop-color:rgb(230,201,212)"/><stop offset="100%" stop-opacity="1" style="stop-color:rgb(235,214,208)"/></linearGradient><path d=" M 1387.594 204.625 C 1389.171 204.714 1390.152 206.479 1390.222 208.056 C 1390.291 209.633 1389.766 211.2 1389.785 212.786 C 1389.873 214.112 1390.139 215.42 1390.579 216.673 C 1391.273 219.063 1391.868 222.237 1389.538 223.962 C 1388.124 224.873 1386.338 224.979 1384.827 224.24 C 1379.968 222.256 1380.494 217.834 1382.844 214.085 C 1383.399 213.272 1387.594 204.625 1387.594 204.625 Z " fill="url(#_lgradient_306)"/><linearGradient id="_lgradient_307" x1="0" y1="0.5" x2="0.9797172131421754" y2="0.7003850849562641" gradientTransform="matrix(31.692,0,0,41.332,1353.963,191.836)" gradientUnits="userSpaceOnUse"><stop offset="100%" stop-opacity="1" style="stop-color:rgb(229,197,213)"/><stop offset="100%" stop-opacity="1" style="stop-color:rgb(230,199,212)"/><stop offset="100%" stop-opacity="1" style="stop-color:rgb(234,213,209)"/></linearGradient><path d=" M 1354.017 217.427 C 1353.789 221.245 1354.225 225.241 1356.397 228.474 C 1358.569 231.707 1362.852 233.908 1366.789 232.936 C 1369.358 232.292 1371.381 230.487 1373.195 228.672 C 1379.304 222.564 1384.639 215.216 1385.512 206.856 C 1385.904 204.338 1385.483 201.761 1384.312 199.498 C 1382.943 197.158 1380.494 195.532 1377.975 194.302 C 1375.307 192.877 1372.366 192.039 1369.348 191.843 C 1366.664 191.755 1364.022 192.53 1361.811 194.054 C 1359.828 195.442 1359.342 197.515 1358.499 199.696 C 1356.258 205.438 1354.354 211.338 1354.017 217.427 Z " fill="url(#_lgradient_307)"/><path d=" M 1344.904 219.946 L 1352.143 209.315 C 1352.532 208.742 1353.144 208.357 1353.83 208.256 C 1354.516 208.154 1355.213 208.344 1355.752 208.78 L 1362.694 214.412 C 1363.69 215.22 1363.913 216.652 1363.209 217.725 L 1349.326 238.678 C 1348.926 239.277 1348.287 239.673 1347.572 239.766 C 1346.858 239.86 1346.138 239.64 1345.598 239.164 L 1341.631 235.634 C 1340.912 234.999 1340.626 234.005 1340.897 233.085 L 1344.567 220.63 C 1344.644 220.386 1344.758 220.156 1344.904 219.946 Z " fill="rgb(62,62,84)"/><path d=" M 1343.476 219.946 L 1350.715 209.315 C 1351.104 208.742 1351.716 208.357 1352.402 208.256 C 1353.088 208.154 1353.785 208.344 1354.324 208.78 L 1361.266 214.412 C 1362.262 215.22 1362.485 216.652 1361.781 217.725 L 1347.898 238.678 C 1347.498 239.277 1346.859 239.673 1346.144 239.766 C 1345.43 239.86 1344.71 239.64 1344.17 239.164 L 1340.203 235.634 C 1339.485 234.999 1339.198 234.005 1339.469 233.085 L 1343.109 220.63 C 1343.196 220.385 1343.319 220.154 1343.476 219.946 Z " fill="rgb(62,62,84)"/><linearGradient id="_lgradient_308" x1="0" y1="0.5" x2="1" y2="0.5" gradientTransform="matrix(19.558,0,0,22.537,1332.171,217.329)" gradientUnits="userSpaceOnUse"><stop offset="100%" stop-opacity="1" style="stop-color:rgb(229,197,213)"/><stop offset="100%" stop-opacity="1" style="stop-color:rgb(230,199,213)"/><stop offset="100%" stop-opacity="1" style="stop-color:rgb(234,213,209)"/></linearGradient><path d=" M 1335.711 226.213 C 1337.172 223.804 1338.778 221.485 1340.521 219.272 C 1341.055 218.584 1341.732 218.019 1342.504 217.615 C 1343.287 217.21 1344.224 217.236 1344.983 217.685 C 1345.075 217.741 1345.147 217.824 1345.191 217.923 C 1345.21 218.042 1345.189 218.164 1345.132 218.27 C 1344.842 218.992 1344.437 219.662 1343.932 220.253 C 1343.584 220.601 1343.271 220.983 1343 221.394 C 1342.732 221.816 1342.695 222.346 1342.901 222.802 C 1343.053 223.032 1343.248 223.23 1343.476 223.387 L 1346.074 225.44 C 1346.788 226.043 1347.562 226.572 1348.384 227.016 C 1349.376 227.532 1350.566 227.839 1351.23 228.752 C 1352.301 230.219 1351.359 231.727 1351.062 233.244 C 1350.924 234.665 1350.062 235.914 1348.781 236.546 C 1346.33 238.004 1343.646 239.03 1340.848 239.58 C 1338.795 239.987 1336.524 240.096 1334.769 238.966 C 1333.423 238.132 1332.483 236.779 1332.171 235.227 C 1332.176 234.576 1332.253 233.928 1332.399 233.293 C 1332.3 232.468 1332.371 231.631 1332.607 230.834 C 1333.055 229.94 1333.612 229.104 1334.263 228.345 C 1334.759 227.621 1335.235 226.927 1335.711 226.213 Z " fill="url(#_lgradient_308)"/><path d=" M 1356.486 193.072 C 1354.862 195.093 1354.106 197.675 1354.384 200.252 C 1354.395 200.487 1354.467 200.716 1354.592 200.916 C 1354.844 201.158 1355.175 201.299 1355.524 201.313 C 1359.016 201.828 1362.546 202.047 1366.075 201.967 C 1365.639 203.048 1366.462 204.248 1367.474 204.823 C 1368.485 205.398 1369.665 205.567 1370.696 206.093 C 1372.088 206.804 1373.106 208.079 1373.493 209.593 C 1373.701 210.436 1373.711 211.309 1373.919 212.142 C 1374.068 213 1374.617 213.737 1375.397 214.125 C 1375.863 214.293 1376.438 214.323 1376.686 214.75 C 1376.799 215.005 1376.833 215.288 1376.785 215.563 C 1376.576 217.567 1376.112 219.536 1375.407 221.423 C 1377.499 220.243 1376.983 216.465 1379.224 215.543 C 1380.365 216.484 1380.786 218.043 1380.276 219.43 C 1379.742 220.775 1378.837 221.941 1377.668 222.792 C 1380.851 220.065 1382.775 216.187 1384.609 212.419 C 1385.531 210.535 1386.444 208.274 1385.432 206.469 C 1385.112 206.032 1384.849 205.555 1384.649 205.051 C 1384.566 204.59 1384.583 204.117 1384.698 203.663 C 1385.051 201.827 1384.962 199.934 1384.441 198.14 C 1383.971 196.837 1383.254 195.638 1382.328 194.609 C 1379.139 191.023 1374.602 188.925 1369.804 188.818 C 1367.454 188.749 1365.292 189.483 1363.011 189.701 C 1360.466 189.883 1358.107 191.102 1356.486 193.072 L 1356.486 193.072 Z " fill="rgb(62,62,84)"/><linearGradient id="_lgradient_309" x1="0" y1="0.5" x2="0.1889601160715508" y2="1.4819847628829206" gradientTransform="matrix(113.791,0,0,11.293,1265.463,258.383)" gradientUnits="userSpaceOnUse"><stop offset="100%" stop-opacity="1" style="stop-color:rgb(0,0,0)"/><stop offset="100%" stop-opacity="1" style="stop-color:rgb(0,0,0)"/></linearGradient><path d=" M 1265.463 264.381 C 1265.463 264.381 1352.529 257.757 1358.489 258.431 C 1358.489 258.431 1379.254 268.854 1379.254 268.854 L 1269.727 269.677 C 1268.199 268.001 1266.775 266.232 1265.463 264.381 L 1265.463 264.381 Z " fill="url(#_lgradient_309)"/><defs><linearGradient id="_lgradient_310" x1="0.7832092377094844" y1="-0.11731188790645361" x2="-0.8382825728526853" y2="1.5315836899677682"><stop offset="0%" style="stop-color:#2042C6"/><stop offset="100%" style="stop-color:#010101"/></linearGradient></defs><path d="M 433.312 264.768 L 1416.039 264.768 C 1422.485 264.768 1427.719 270.001 1427.719 276.447 L 1427.719 1071.273 C 1427.719 1077.719 1422.485 1082.952 1416.039 1082.952 L 433.312 1082.952 C 426.866 1082.952 421.633 1077.719 421.633 1071.273 L 421.633 276.447 C 421.633 270.001 426.866 264.768 433.312 264.768 Z" style="stroke:none;fill:url(#_lgradient_310);stroke-miterlimit:10;"/><line x1="631.117" y1="443.024" x2="631.117" y2="904.695" vector-effect="non-scaling-stroke" stroke-width="10" stroke="rgb(255,255,255)" stroke-linejoin="miter" stroke-linecap="square" stroke-miterlimit="3"/><path d=" M 1218.234 467.622 C 1163.239 736.751 967.546 882.455 631.117 904.695" fill="none" vector-effect="non-scaling-stroke" stroke-width="10" stroke="rgb(255,255,255)" stroke-linejoin="miter" stroke-linecap="square" stroke-miterlimit="3"/><line x1="1197.421" y1="904.695" x2="632.366" y2="904.695" vector-effect="non-scaling-stroke" stroke-width="10" stroke="rgb(255,255,255)" stroke-linejoin="miter" stroke-linecap="square" stroke-miterlimit="3"/><text transform="matrix(1,0,0,1,554.648,394.147)" style="font-family:'Open Sans';font-weight:600;font-size:60px;font-style:normal;fill:#ffffff;stroke:none;">Price</text><text transform="matrix(1,0,0,1,700.648,1014.147)" style="font-family:'Open Sans';font-weight:600;font-size:60px;font-style:normal;fill:#ffffff;stroke:none;">Token Quantity</text></g></g></svg>